<svg xmlns="http://www.w3.org/2000/svg" width="197" height="94" fill="none" viewBox="0 0 197 94">
    <g clip-path="url(#clip0_1_2)">
        <path fill="#FF7502"
              d="M14.131 28.359v4.258H5.006v5.666h8.745v4.258H5.006v6.92h9.125v4.26H.063V28.358h14.068ZM32.386 28.359v4.258h-8.517V53.72h-4.943V28.36h13.46ZM34.27 52.807v-5.779c1.825 1.85 4.056 2.776 6.692 2.776 1.977 0 3.726-.583 5.247-1.75 1.546-1.165 2.497-2.813 2.852-4.942H37.69v-4.259h11.294c-.355-2.078-1.28-3.688-2.776-4.829-1.495-1.166-3.181-1.749-5.057-1.749-2.712 0-5.006.95-6.882 2.852v-5.78c2.028-1.039 4.233-1.559 6.616-1.559 3.98 0 7.136 1.116 9.467 3.346 1.192 1.166 2.117 2.637 2.776 4.411a14.996 14.996 0 0 1 1.027 5.514c0 4.03-1.255 7.262-3.764 9.695-2.358 2.358-5.514 3.536-9.468 3.536-2.383 0-4.6-.494-6.654-1.483Z"/>
        <path fill="#A7BC0D"
              d="M84.96 47.028v5.78c-1.876.988-3.968 1.482-6.274 1.482-3.701 0-6.794-1.178-9.278-3.536-2.712-2.61-4.068-5.843-4.068-9.695 0-4.107 1.356-7.415 4.068-9.924 2.383-2.231 5.488-3.347 9.316-3.347 2.23 0 4.309.52 6.235 1.56v5.779c-1.647-1.901-3.688-2.852-6.121-2.852-2.484 0-4.512.875-6.084 2.624-1.546 1.724-2.32 3.802-2.32 6.236 0 2.661.863 4.778 2.586 6.35 1.724 1.546 3.727 2.319 6.008 2.319 2.383 0 4.36-.925 5.931-2.776ZM103.192 32.617h-5.703V53.72h-4.943V32.617h-5.704V28.36h16.35v4.258ZM103.511 28.359h5.779l6.426 12.776 5.437-12.776h5.4L114.804 53.72h-5.4l3.536-7.072-9.429-18.29ZM129.997 28.359h17.11V49.46h2.662v9.962h-4.563V53.72h-15.589v5.703h-4.563v-9.962c.862.026 1.648-.278 2.358-.912.709-.66 1.267-1.496 1.673-2.51.608-1.546.912-3.764.912-6.654V28.36Zm4.791 4.258v6.769c0 3.168-.291 5.525-.874 7.072a8.397 8.397 0 0 1-1.978 3.004h10.229V32.617h-7.377ZM153.036 28.359h4.943v17.034l13.992-17.605h3.423V53.72h-4.943V36.61l-13.993 17.604h-3.422V28.36ZM196.999 28.359V53.72h-4.943v-9.81h-.912l-6.464 9.81h-5.932l7.529-10.266a6.228 6.228 0 0 1-2.776-1.14c-1.901-1.37-2.851-3.41-2.851-6.123 0-2.458.836-4.423 2.509-5.893 1.47-1.293 3.638-1.94 6.502-1.94h7.338Zm-4.943 4.03h-1.521c-.405 0-.798.026-1.178.076-.38.051-.887.19-1.521.418-.634.203-1.141.596-1.521 1.18-.38.557-.57 1.267-.57 2.128 0 2.56 1.622 3.84 4.867 3.84h1.444V32.39Z"/>
        <path fill="url(#paint0_linear_1_2)" fill-rule="evenodd" d="M188.94 12.366H.04v-4.21h188.9l-4.828-4.828L187.089.35 197 10.26l-9.911 9.911-2.977-2.977 4.828-4.828Z" clip-rule="evenodd"/>
        <path fill="url(#paint1_linear_1_2)" d="M0 79.722c0-5.554 4.502-10.056 10.055-10.056H197v13.928c0 5.554-4.502 10.056-10.055 10.056H10.055C4.502 93.65 0 89.148 0 83.594v-3.872Z"/>
        <path fill="#FEFEFE"
              d="M17.469 76.679h-5.254v9.713h-1.444V75.496h6.698v1.183ZM18.018 82.269c0-.793.155-1.507.464-2.14.314-.634.748-1.123 1.302-1.467.559-.344 1.195-.516 1.909-.516 1.102 0 1.993.381 2.671 1.145.684.763 1.025 1.778 1.025 3.045v.098c0 .788-.152 1.496-.456 2.125a3.41 3.41 0 0 1-1.295 1.46c-.559.349-1.202.523-1.93.523-1.098 0-1.989-.382-2.672-1.145-.679-.763-1.018-1.773-1.018-3.03v-.098Zm1.392.165c0 .898.207 1.619.621 2.162.42.544.978.816 1.676.816.704 0 1.263-.274 1.677-.823.414-.554.62-1.327.62-2.32 0-.888-.211-1.606-.635-2.155-.42-.554-.978-.83-1.677-.83-.683 0-1.234.271-1.653.815-.42.544-.629 1.322-.629 2.335ZM33.744 79.418h-2.717v6.974h-1.384v-6.974h-2.664v-1.123h6.765v1.123ZM35.176 82.269c0-.793.155-1.507.464-2.14.315-.634.749-1.123 1.302-1.467.56-.344 1.195-.516 1.909-.516 1.102 0 1.993.381 2.671 1.145.684.763 1.026 1.778 1.026 3.045v.098c0 .788-.153 1.496-.457 2.125a3.41 3.41 0 0 1-1.295 1.46c-.558.349-1.202.523-1.93.523-1.098 0-1.988-.382-2.672-1.145-.678-.763-1.018-1.773-1.018-3.03v-.098Zm1.392.165c0 .898.207 1.619.621 2.162.42.544.978.816 1.677.816.703 0 1.262-.274 1.676-.823.414-.554.621-1.327.621-2.32 0-.888-.212-1.606-.636-2.155-.42-.554-.978-.83-1.676-.83-.684 0-1.235.271-1.654.815-.42.544-.629 1.322-.629 2.335ZM45.177 86.392v-8.097h3.158c1.078 0 1.904.19 2.477.569.58.374.869.925.869 1.654 0 .374-.113.713-.337 1.018-.225.299-.557.528-.996.688.49.115.881.34 1.175.674.3.334.45.733.45 1.197 0 .743-.275 1.312-.824 1.706-.544.394-1.315.591-2.312.591h-3.66Zm1.385-3.554v2.44h2.29c.578 0 1.01-.108 1.294-.322.29-.215.434-.517.434-.906 0-.808-.593-1.212-1.78-1.212h-2.238Zm0-1.108h1.788c1.297 0 1.946-.379 1.946-1.137 0-.759-.614-1.15-1.84-1.175h-1.894v2.312ZM59.81 78.295h1.385v8.097h-1.384v-5.904l-3.735 5.904h-1.384v-8.097h1.384v5.912l3.735-5.912ZM68.846 84.559l2.754-6.264h1.729v8.097h-1.385v-5.89l-2.619 5.89h-.958l-2.671-6.016v6.016H64.31v-8.097h1.796l2.74 6.264ZM87.509 86.392h-1.385v-3.457h-3.72v3.457h-1.391v-8.097h1.392v3.51h3.72v-3.51h1.384v8.097ZM95.504 86.392c-.08-.16-.145-.444-.195-.853-.643.669-1.411 1.003-2.305 1.003-.798 0-1.454-.224-1.968-.673-.508-.454-.763-1.028-.763-1.722 0-.843.32-1.496.958-1.96.644-.47 1.547-.704 2.709-.704h1.347v-.636c0-.484-.145-.868-.434-1.152-.29-.29-.716-.434-1.28-.434-.494 0-.908.124-1.242.374-.334.25-.501.551-.501.905h-1.392c0-.404.142-.793.426-1.167.29-.38.679-.679 1.168-.898a3.952 3.952 0 0 1 1.624-.33c.933 0 1.663.235 2.192.704.53.464.803 1.105.823 1.923V84.5c0 .744.095 1.335.285 1.774v.12h-1.452Zm-2.297-1.055c.434 0 .845-.112 1.234-.337.39-.224.671-.516.846-.875v-1.661h-1.085c-1.696 0-2.544.496-2.544 1.489 0 .434.144.773.434 1.018.289.244.66.366 1.115.366ZM111.143 78.407a2.5 2.5 0 0 1-.396 1.4c-.26.404-.619.728-1.078.973.519.254.93.603 1.235 1.047.304.44.456.96.456 1.564 0 .973-.337 1.742-1.01 2.305-.669.564-1.592.846-2.769.846-1.182 0-2.115-.282-2.799-.846-.683-.568-1.025-1.337-1.025-2.305 0-.583.15-1.1.449-1.549.299-.449.723-.803 1.272-1.062a2.883 2.883 0 0 1-1.093-.973 2.5 2.5 0 0 1-.396-1.4c0-.947.322-1.696.965-2.245.644-.548 1.512-.823 2.605-.823 1.102 0 1.975.275 2.619.823.643.55.965 1.298.965 2.245Zm-2.312 4.782c0-.448-.118-.793-.352-1.032-.23-.245-.534-.367-.913-.367s-.686.122-.92.367c-.235.24-.352.584-.352 1.032 0 .435.117.779.352 1.033.239.25.551.374.935.374.374 0 .676-.124.905-.374.23-.25.345-.593.345-1.032Zm-1.272-5.904c-.34 0-.599.112-.779.337-.174.22-.262.526-.262.92 0 .39.09.704.27.943.179.24.444.36.793.36.344 0 .601-.12.771-.36.174-.24.262-.554.262-.943 0-.389-.09-.696-.27-.92-.174-.225-.436-.337-.785-.337ZM121.002 81.94c0 1.472-.332 2.606-.995 3.405-.659.798-1.589 1.197-2.792 1.197-1.212 0-2.15-.401-2.814-1.205-.663-.803-.995-1.936-.995-3.397v-1.99c0-1.473.329-2.608.988-3.406.664-.798 1.599-1.197 2.806-1.197 1.208 0 2.143.401 2.807 1.205.663.803.995 1.938.995 3.405v1.983Zm-2.522-2.313c0-.783-.102-1.367-.307-1.75-.204-.39-.529-.584-.973-.584-.434 0-.751.18-.95.538-.195.36-.299.903-.314 1.632v2.784c0 .813.102 1.409.306 1.788.205.374.529.561.973.561.429 0 .746-.182.951-.546.204-.37.309-.945.314-1.729v-2.694ZM133.281 78.295h1.384v8.097h-1.384v-5.904l-3.734 5.904h-1.385v-8.097h1.385v5.912l3.734-5.912ZM142.349 86.392v-8.097h3.159c1.077 0 1.903.19 2.477.569.578.374.868.925.868 1.654 0 .374-.113.713-.337 1.018-.225.299-.556.528-.995.688.489.115.88.34 1.174.674.3.334.45.733.45 1.197 0 .743-.275 1.312-.824 1.706-.543.394-1.314.591-2.312.591h-3.66Zm1.385-3.554v2.44h2.29c.579 0 1.01-.108 1.295-.322.289-.215.434-.517.434-.906 0-.808-.594-1.212-1.782-1.212h-2.237Zm0-1.108h1.788c1.298 0 1.946-.379 1.946-1.137 0-.759-.613-1.15-1.841-1.175h-1.893v2.312ZM153.256 81.087h2.103c.918.01 1.644.25 2.178.718.533.469.8 1.105.8 1.908 0 .809-.274 1.457-.823 1.946-.549.489-1.287.733-2.215.733h-3.427v-8.097h1.384v2.792Zm7.97 5.305h-1.392v-8.097h1.392v8.097Zm-7.97-4.175v3.045h2.058c.519 0 .92-.132 1.205-.396.284-.27.426-.636.426-1.1 0-.45-.139-.816-.419-1.1-.274-.29-.661-.44-1.16-.45h-2.11ZM165.921 78.295v6.967h2.964v-6.967h1.384v6.967h2.956v-6.967h1.392v8.097h-10.088v-8.097h1.392ZM180.929 86.542c-1.098 0-1.991-.36-2.68-1.078-.688-.723-1.032-1.688-1.032-2.896v-.254c0-.803.152-1.52.456-2.148.31-.633.739-1.127 1.287-1.482a3.24 3.24 0 0 1 1.796-.538c1.053 0 1.871.346 2.455 1.04.584.693.876 1.686.876 2.978v.576h-5.486c.02.799.252 1.445.696 1.939.449.489 1.018.733 1.706.733.489 0 .903-.1 1.243-.3.339-.199.636-.463.89-.792l.846.658c-.679 1.043-1.696 1.564-3.053 1.564Zm-.173-7.259a1.84 1.84 0 0 0-1.406.614c-.38.404-.614.973-.704 1.706h4.056v-.105c-.04-.703-.229-1.247-.569-1.631-.339-.39-.798-.584-1.377-.584ZM188.011 83.317h-1.25l-.097-7.82h1.452l-.105 7.82Zm-1.399 2.38c0-.225.067-.412.202-.562.139-.154.344-.232.613-.232.27 0 .474.078.614.232a.79.79 0 0 1 .209.561.789.789 0 0 1-.209.562c-.14.144-.344.217-.614.217-.269 0-.474-.073-.613-.217a.806.806 0 0 1-.202-.561Z"/>
    </g>
    <defs>
        <linearGradient id="paint0_linear_1_2" x1="197.001" x2=".039" y1="10.261" y2="10.261" gradientUnits="userSpaceOnUse">
            <stop stop-color="#FF7502"/>
            <stop offset="1" stop-color="#FF7502" stop-opacity="0"/>
        </linearGradient>
        <linearGradient id="paint1_linear_1_2" x1="37.945" x2="48.782" y1="93.65" y2="43.859" gradientUnits="userSpaceOnUse">
            <stop stop-color="#FF5426"/>
            <stop offset="1" stop-color="#FFA101"/>
        </linearGradient>
        <clipPath id="clip0_1_2">
            <path fill="#fff" d="M0 0h197v94H0z"/>
        </clipPath>
    </defs>
</svg>
