<svg width="24" height="24" viewBox="0 0 24 24" fill="none" xmlns="http://www.w3.org/2000/svg">
<path d="M13.131 21.0024C13.131 21.6237 12.6274 22.1274 12.006 22.1274C11.3847 22.1274 10.881 21.6237 10.881 21.0024L10.881 3.00243C10.881 2.38111 11.3847 1.87743 12.006 1.87743C12.6274 1.87743 13.131 2.38111 13.131 3.00243L13.131 21.0024Z" fill="black"/>
<path d="M3.00104 13.1323C2.37972 13.1323 1.87604 12.6286 1.87604 12.0073C1.87604 11.386 2.37972 10.8823 3.00104 10.8823L21.001 10.8823C21.6224 10.8823 22.126 11.386 22.126 12.0073C22.126 12.6286 21.6224 13.1323 21.001 13.1323L3.00104 13.1323Z" fill="black"/>
</svg>
