<svg xmlns="http://www.w3.org/2000/svg" xmlns:xlink="http://www.w3.org/1999/xlink" width="25" height="22" viewBox="0 0 25 22">
    <defs>
        <polygon id="gift-a" points="0 20.59 24.64 20.59 24.64 0 0 0"/>
    </defs>
    <g fill="none" fill-rule="evenodd" transform="translate(.125 1)">
        <path stroke="#000" stroke-width="1.02" d="M14.5.18c-1.18.25-2.12 1.33-2.14 2.43l.01 2.08 2.21-.47c1.16-.29 2.09-1.38 2.08-2.47 0-1.12-.98-1.82-2.17-1.57z"/>
        <path stroke="#000" stroke-width="1.02" d="M10.27.18c1.16.25 2.1 1.33 2.13 2.43l-.01 2.08-2.22-.47C9.01 3.93 8.1 2.84 8.1 1.75c0-1.12.98-1.82 2.17-1.57z"/>
        <mask id="gift-b" fill="#fff">
            <use xlink:href="#gift-a"/>
        </mask>
        <polygon stroke="#000" points=".45 8 24.18 8 24.18 5.06 .45 5.06" mask="url(#gift-b)"/>
        <polygon stroke="#000" points="1.11 20.18 23.53 20.18 23.53 8 1.11 8" mask="url(#gift-b)"/>
        <polygon points="10.4 8.7 14.24 8.7 14.24 5.06 10.4 5.06" mask="url(#gift-b)"/>
        <polygon stroke="#000" points="10.4 8 14.24 8 14.24 5.06 10.4 5.06" mask="url(#gift-b)"/>
        <polygon points="10.5 20.18 14.13 20.18 14.13 8 10.5 8" mask="url(#gift-b)"/>
        <polygon stroke="#000" points="10.5 20.18 14.13 20.18 14.13 8 10.5 8" mask="url(#gift-b)"/>
    </g>
</svg>
