<svg xmlns="http://www.w3.org/2000/svg" xmlns:xlink="http://www.w3.org/1999/xlink" width="350" height="230" viewBox="0 0 350 230">
  <defs>
    <polygon id="univercity-mobile-a" points="7.457 7.517 7.457 .484 .439 .484 .439 7.517 7.457 7.517"/>
    <polygon id="univercity-mobile-c" points=".206 228.712 261.541 228.712 261.541 .113 .206 .113"/>
  </defs>
  <g fill="none" fill-rule="evenodd" transform="translate(32)">
    <path fill="#540326" d="M100.286684 45.924175C100.997542 45.924175 101.575114 45.3445898 101.575114 44.6338228 101.575114 43.9222607 100.997542 43.3434705 100.286684 43.3434705 99.5766194 43.3434705 98.9990473 43.9222607 98.9990473 44.6338228 98.9990473 45.3445898 99.5766194 45.924175 100.286684 45.924175M7.70592416 181.968642C8.74602994 181.968642 9.5917605 181.121128 9.5917605 180.078828 9.5917605 179.036529 8.74602994 178.189015 7.70592416 178.189015 6.66581837 178.189015 5.82008781 179.036529 5.82008781 180.078828 5.82008781 181.121128 6.66581837 181.968642 7.70592416 181.968642"/>
    <g transform="translate(254.084 105.48)">
      <mask id="univercity-mobile-b" fill="#fff">
        <use xlink:href="#univercity-mobile-a"/>
      </mask>
      <path fill="#540326" d="M6.26721253,2.80824531 L5.1382495,2.80824531 L5.1382495,1.67690136 C5.1382495,1.01860707 4.60510604,0.484339234 3.94819712,0.484339234 C3.29128821,0.484339234 2.75814474,1.01860707 2.75814474,1.67690136 L2.75814474,2.80824531 L1.62918171,2.80824531 C0.971479428,2.80824531 0.439129329,3.34251314 0.439129329,4.00080744 C0.439129329,4.65910173 0.971479428,5.19336957 1.62918171,5.19336957 L2.75814474,5.19336957 L2.75814474,6.32471351 C2.75814474,6.98300781 3.29128821,7.51727564 3.94819712,7.51727564 C4.60510604,7.51727564 5.1382495,6.98300781 5.1382495,6.32471351 L5.1382495,5.19336957 L6.26721253,5.19336957 C6.92491481,5.19336957 7.45726491,4.65910173 7.45726491,4.00080744 C7.45726491,3.34251314 6.92491481,2.80824531 6.26721253,2.80824531" mask="url(#univercity-mobile-b)"/>
    </g>
    <path fill="#540326" d="M69.5359684 124.308024C68.8790595 124.308024 68.345916 124.842292 68.345916 125.500586L68.345916 126.63193 67.2177464 126.63193C66.5600441 126.63193 66.027694 127.166198 66.027694 127.824492 66.027694 128.482787 66.5600441 129.017055 67.2177464 129.017055L68.345916 129.017055 68.345916 130.148398C68.345916 130.806693 68.8790595 131.340961 69.5359684 131.340961 70.1936707 131.340961 70.7260208 130.806693 70.7260208 130.148398L70.7260208 129.017055 71.8557772 129.017055C72.5126861 129.017055 73.0458296 128.482787 73.0458296 127.824492 73.0458296 127.166198 72.5126861 126.63193 71.8557772 126.63193L70.7260208 126.63193 70.7260208 125.500586C70.7260208 124.842292 70.1936707 124.308024 69.5359684 124.308024M23.7437048 74.3601035L23.9809219 74.3601035 23.9809219 74.5994109C23.9809219 75.2577052 24.5140653 75.7919731 25.1709742 75.7919731 25.8286765 75.7919731 26.3610266 75.2577052 26.3610266 74.5994109L26.3610266 74.3601035 26.6014172 74.3601035C27.2583261 74.3601035 27.7914696 73.8266307 27.7914696 73.1675413 27.7914696 72.508452 27.2583261 71.9749792 26.6014172 71.9749792L26.3610266 71.9749792 26.3610266 71.7356717C26.3610266 71.0765824 25.8286765 70.5431096 25.1709742 70.5431096 24.5140653 70.5431096 23.9809219 71.0765824 23.9809219 71.7356717L23.9809219 71.9749792 23.7437048 71.9749792C23.0860025 71.9749792 22.5536524 72.508452 22.5536524 73.1675413 22.5536524 73.8266307 23.0860025 74.3601035 23.7437048 74.3601035M206.940527 6.57161225C206.282825 6.57161225 205.750475 7.10508505 205.750475 7.76417438L205.750475 8.00427689 205.511671 8.00427689C204.853969 8.00427689 204.321619 8.53774969 204.321619 9.19683902 204.321619 9.85513332 204.853969 10.3894012 205.511671 10.3894012L205.750475 10.3894012 205.750475 10.6287086C205.750475 11.2870029 206.282825 11.8212708 206.940527 11.8212708 207.597436 11.8212708 208.13058 11.2870029 208.13058 10.6287086L208.13058 10.3894012 208.369383 10.3894012C209.027086 10.3894012 209.559436 9.85513332 209.559436 9.19683902 209.559436 8.53774969 209.027086 8.00427689 208.369383 8.00427689L208.13058 8.00427689 208.13058 7.76417438C208.13058 7.10508505 207.597436 6.57161225 206.940527 6.57161225M282.482514 221.293422C281.870827 221.970797 281.032237 222.369908 280.12145 222.415225 279.385204 222.452592 277.520789 222.435896 276.309315 222.426356L275.347753 222.419996C274.121999 222.419996 273.124735 221.420629 273.124735 220.19229 273.124735 218.970311 274.117239 217.971739 275.337439 217.966174 275.72619 217.964583 276.090346 217.772183 276.312489 217.450987 276.533045 217.12979 276.583027 216.719549 276.446568 216.354625 276.35057 216.101006 276.302968 215.840233 276.302968 215.579459 276.302968 214.35112 277.301026 213.351753 278.52678 213.351753 279.562919 213.351753 280.450698 214.05775 280.686328 215.069838 280.771218 215.430786 281.017163 215.732107 281.354344 215.884755 282.527736 216.418228 283.295716 217.545597 283.359979 218.827998 283.405994 219.740706 283.094201 220.616047 282.482514 221.293422M282.837149 213.9695C282.177067 212.175092 280.478465 210.966629 278.52678 210.966629 275.988001 210.966629 273.922864 213.035327 273.922864 215.579459 273.922864 215.654988 273.92445 215.730517 273.929211 215.806841 272.083836 216.407892 270.74463 218.149828 270.74463 220.19229 270.74463 222.735627 272.809768 224.80512 275.347753 224.80512L276.288688 224.81148C276.523525 224.813865 276.784543 224.815455 277.054288 224.817841L277.054288 228.110902C277.054288 228.769196 277.587432 229.303464 278.24434 229.303464 278.901249 229.303464 279.434393 228.769196 279.434393 228.110902L279.434393 224.817841C279.759674 224.813865 280.04132 224.807505 280.241248 224.797169 281.78673 224.72005 283.209239 224.044265 284.247758 222.89384 285.285484 221.743415 285.81466 220.257483 285.737704 218.708742 285.638533 216.718754 284.542098 214.948991 282.837149 213.9695"/>
    <mask id="univercity-mobile-d" fill="#fff">
      <use xlink:href="#univercity-mobile-c"/>
    </mask>
    <rect width="30.545" height="139.927" x="125.003" y="86.821" fill="#FFE1B7" mask="url(#univercity-mobile-d)"/>
    <path fill="#540326" d="M35.5577514 163.935512L49.1314889 163.935512 49.1314889 143.375741 35.5577514 143.375741 35.5577514 163.935512zM39.3238706 140.7688L45.3653698 140.7688 45.3653698 135.67815 39.3238706 135.67815 39.3238706 140.7688zM42.3442235 129.017293L44.9298106 129.017293 43.5779111 133.293026 41.1113292 133.293026 39.7594297 129.017293 42.3442235 129.017293zM22.5131906 166.320637L34.3676991 166.320637 50.3215413 166.320637 61.5104138 166.320637C62.1681161 166.320637 62.7004662 165.786369 62.7004662 165.128074 62.7004662 164.46978 62.1681161 163.935512 61.5104138 163.935512L55.0198681 163.935512 55.0198681 137.742078C55.0198681 137.083783 54.4867246 136.549515 53.8298157 136.549515 53.1721134 136.549515 52.6397633 137.083783 52.6397633 137.742078L52.6397633 163.935512 51.5115937 163.935512 51.5115937 142.183179C51.5115937 141.524885 50.9784502 140.990617 50.3215413 140.990617L47.7454746 140.990617 47.7454746 134.485588C47.7454746 133.827294 47.2131245 133.293026 46.5554222 133.293026L46.0754344 133.293026 47.6907322 128.184885C47.8041838 127.822346 47.739921 127.42721 47.5153978 127.120324 47.2916679 126.812643 46.9338589 126.632169 46.5554222 126.632169L42.3442235 126.632169 38.1338182 126.632169C37.7545881 126.632169 37.3975724 126.812643 37.1738426 127.120324 36.9493194 127.42721 36.8850565 127.822346 36.9985082 128.184885L38.613806 133.293026 38.1338182 133.293026C37.4761159 133.293026 36.9437658 133.827294 36.9437658 134.485588L36.9437658 140.990617 34.3676991 140.990617C33.7099968 140.990617 33.1776467 141.524885 33.1776467 142.183179L33.1776467 163.935512 31.3846344 163.935512 31.3846344 137.742078C31.3846344 137.083783 30.851491 136.549515 30.194582 136.549515 29.5376731 136.549515 29.0045297 137.083783 29.0045297 137.742078L29.0045297 163.935512 22.5131906 163.935512C21.8554883 163.935512 21.3231382 164.46978 21.3231382 165.128074 21.3231382 165.786369 21.8554883 166.320637 22.5131906 166.320637L22.5131906 166.320637zM119.121484 119.469402C119.778393 119.469402 120.311537 118.935134 120.311537 118.27684L120.311537 107.618515C120.311537 106.96022 119.778393 106.425953 119.121484 106.425953 118.463782 106.425953 117.931432 106.96022 117.931432 107.618515L117.931432 118.27684C117.931432 118.935134 118.463782 119.469402 119.121484 119.469402M109.814878 123.909708C110.471787 123.909708 111.00493 123.375441 111.00493 122.717146L111.00493 117.388779C111.00493 116.730484 110.471787 116.196217 109.814878 116.196217 109.157969 116.196217 108.624826 116.730484 108.624826 117.388779L108.624826 122.717146C108.624826 123.375441 109.157969 123.909708 109.814878 123.909708M96.4097313 158.512614C97.0666402 158.512614 97.5997837 157.978346 97.5997837 157.320052L97.5997837 150.732339C97.5997837 150.074045 97.0666402 149.539777 96.4097313 149.539777 95.752029 149.539777 95.2196789 150.074045 95.2196789 150.732339L95.2196789 157.320052C95.2196789 157.978346 95.752029 158.512614 96.4097313 158.512614M119.121484 138.343129C119.778393 138.343129 120.311537 137.808861 120.311537 137.150567L120.311537 131.822199C120.311537 131.163905 119.778393 130.629637 119.121484 130.629637 118.463782 130.629637 117.931432 131.163905 117.931432 131.822199L117.931432 137.150567C117.931432 137.808861 118.463782 138.343129 119.121484 138.343129M128.316464 90.8075229C127.659555 90.8075229 127.126411 91.3417907 127.126411 92.000085L127.126411 97.3300427C127.126411 97.988337 127.659555 98.5226048 128.316464 98.5226048 128.973373 98.5226048 129.506516 97.988337 129.506516 97.3300427L129.506516 92.000085C129.506516 91.3417907 128.973373 90.8075229 128.316464 90.8075229M128.316464 102.207542C127.659555 102.207542 127.126411 102.74181 127.126411 103.400104L127.126411 108.728472C127.126411 109.386766 127.659555 109.921034 128.316464 109.921034 128.973373 109.921034 129.506516 109.386766 129.506516 108.728472L129.506516 103.400104C129.506516 102.74181 128.973373 102.207542 128.316464 102.207542M128.316464 113.605972C127.659555 113.605972 127.126411 114.140239 127.126411 114.798534L127.126411 120.126901C127.126411 120.785196 127.659555 121.319463 128.316464 121.319463 128.973373 121.319463 129.506516 120.785196 129.506516 120.126901L129.506516 114.798534C129.506516 114.140239 128.973373 113.605972 128.316464 113.605972M152.469291 98.5226843C153.1262 98.5226843 153.659343 97.9884165 153.659343 97.3301222L153.659343 92.0001645C153.659343 91.3418702 153.1262 90.8076024 152.469291 90.8076024 151.811589 90.8076024 151.279239 91.3418702 151.279239 92.0001645L151.279239 97.3301222C151.279239 97.9884165 151.811589 98.5226843 152.469291 98.5226843M152.469291 109.921193C153.1262 109.921193 153.659343 109.386925 153.659343 108.728631L153.659343 103.400263C153.659343 102.741969 153.1262 102.207701 152.469291 102.207701 151.811589 102.207701 151.279239 102.741969 151.279239 103.400263L151.279239 108.728631C151.279239 109.386925 151.811589 109.921193 152.469291 109.921193M152.469291 121.319623C153.1262 121.319623 153.659343 120.785355 153.659343 120.12706L153.659343 114.798693C153.659343 114.140398 153.1262 113.606131 152.469291 113.606131 151.811589 113.606131 151.279239 114.140398 151.279239 114.798693L151.279239 120.12706C151.279239 120.785355 151.811589 121.319623 152.469291 121.319623M119.121484 149.444928C119.778393 149.444928 120.311537 148.91066 120.311537 148.252366L120.311537 142.923999C120.311537 142.265704 119.778393 141.731436 119.121484 141.731436 118.463782 141.731436 117.931432 142.265704 117.931432 142.923999L117.931432 148.252366C117.931432 148.91066 118.463782 149.444928 119.121484 149.444928M119.121484 160.547602C119.778393 160.547602 120.311537 160.013334 120.311537 159.35504L120.311537 154.025877C120.311537 153.367583 119.778393 152.833315 119.121484 152.833315 118.463782 152.833315 117.931432 153.367583 117.931432 154.025877L117.931432 159.35504C117.931432 160.013334 118.463782 160.547602 119.121484 160.547602M119.121484 171.650197C119.778393 171.650197 120.311537 171.115929 120.311537 170.457635L120.311537 165.128472C120.311537 164.470178 119.778393 163.93591 119.121484 163.93591 118.463782 163.93591 117.931432 164.470178 117.931432 165.128472L117.931432 170.457635C117.931432 171.115929 118.463782 171.650197 119.121484 171.650197M119.121484 182.752076C119.778393 182.752076 120.311537 182.217808 120.311537 181.559513L120.311537 176.230351C120.311537 175.572056 119.778393 175.037789 119.121484 175.037789 118.463782 175.037789 117.931432 175.572056 117.931432 176.230351L117.931432 181.559513C117.931432 182.217808 118.463782 182.752076 119.121484 182.752076M96.4097313 179.863849C97.0666402 179.863849 97.5997837 179.329581 97.5997837 178.671287L97.5997837 173.342124C97.5997837 172.68383 97.0666402 172.149562 96.4097313 172.149562 95.752029 172.149562 95.2196789 172.68383 95.2196789 173.342124L95.2196789 178.671287C95.2196789 179.329581 95.752029 179.863849 96.4097313 179.863849M96.4097313 190.965728C97.0666402 190.965728 97.5997837 190.43146 97.5997837 189.773166L97.5997837 184.444798C97.5997837 183.786504 97.0666402 183.252236 96.4097313 183.252236 95.752029 183.252236 95.2196789 183.786504 95.2196789 184.444798L95.2196789 189.773166C95.2196789 190.43146 95.752029 190.965728 96.4097313 190.965728M96.4097313 202.068322C97.0666402 202.068322 97.5997837 201.534055 97.5997837 200.87576L97.5997837 195.547393C97.5997837 194.889098 97.0666402 194.354831 96.4097313 194.354831 95.752029 194.354831 95.2196789 194.889098 95.2196789 195.547393L95.2196789 200.87576C95.2196789 201.534055 95.752029 202.068322 96.4097313 202.068322M96.4097313 213.170201C97.0666402 213.170201 97.5997837 212.635933 97.5997837 211.977639L97.5997837 206.649272C97.5997837 205.990977 97.0666402 205.456709 96.4097313 205.456709 95.752029 205.456709 95.2196789 205.990977 95.2196789 206.649272L95.2196789 211.977639C95.2196789 212.635933 95.752029 213.170201 96.4097313 213.170201M96.4097313 224.273591C97.0666402 224.273591 97.5997837 223.739323 97.5997837 223.081029L97.5997837 217.751071C97.5997837 217.092777 97.0666402 216.558509 96.4097313 216.558509 95.752029 216.558509 95.2196789 217.092777 95.2196789 217.751071L95.2196789 223.081029C95.2196789 223.739323 95.752029 224.273591 96.4097313 224.273591M53.8947926 173.342045L53.8947926 178.671207C53.8947926 179.329502 54.4279361 179.86377 55.084845 179.86377 55.7425473 179.86377 56.2748974 179.329502 56.2748974 178.671207L56.2748974 173.342045C56.2748974 172.683751 55.7425473 172.149483 55.084845 172.149483 54.4279361 172.149483 53.8947926 172.683751 53.8947926 173.342045M55.084845 183.252077C54.4279361 183.252077 53.8947926 183.786345 53.8947926 184.444639L53.8947926 189.773007C53.8947926 190.431301 54.4279361 190.965569 55.084845 190.965569 55.7425473 190.965569 56.2748974 190.431301 56.2748974 189.773007L56.2748974 184.444639C56.2748974 183.786345 55.7425473 183.252077 55.084845 183.252077M55.084845 194.354751C54.4279361 194.354751 53.8947926 194.889019 53.8947926 195.547313L53.8947926 200.875681C53.8947926 201.533975 54.4279361 202.068243 55.084845 202.068243 55.7425473 202.068243 56.2748974 201.533975 56.2748974 200.875681L56.2748974 195.547313C56.2748974 194.889019 55.7425473 194.354751 55.084845 194.354751M55.084845 205.45655C54.4279361 205.45655 53.8947926 205.990818 53.8947926 206.649113L53.8947926 211.97748C53.8947926 212.635774 54.4279361 213.170042 55.084845 213.170042 55.7425473 213.170042 56.2748974 212.635774 56.2748974 211.97748L56.2748974 206.649113C56.2748974 205.990818 55.7425473 205.45655 55.084845 205.45655M55.084845 216.558429C54.4279361 216.558429 53.8947926 217.092697 53.8947926 217.750991L53.8947926 223.080949C53.8947926 223.739243 54.4279361 224.273511 55.084845 224.273511 55.7425473 224.273511 56.2748974 223.739243 56.2748974 223.080949L56.2748974 217.750991C56.2748974 217.092697 55.7425473 216.558429 55.084845 216.558429M29.8248724 180.087415C30.4825747 180.087415 31.0149248 179.553147 31.0149248 178.894853L31.0149248 173.56569C31.0149248 172.907396 30.4825747 172.373128 29.8248724 172.373128 29.1671702 172.373128 28.6348201 172.907396 28.6348201 173.56569L28.6348201 178.894853C28.6348201 179.553147 29.1671702 180.087415 29.8248724 180.087415M29.8248724 191.190089C30.4825747 191.190089 31.0149248 190.655821 31.0149248 189.997527L31.0149248 184.668364C31.0149248 184.01007 30.4825747 183.475802 29.8248724 183.475802 29.1671702 183.475802 28.6348201 184.01007 28.6348201 184.668364L28.6348201 189.997527C28.6348201 190.655821 29.1671702 191.190089 29.8248724 191.190089M29.8248724 202.291888C30.4825747 202.291888 31.0149248 201.75762 31.0149248 201.099326L31.0149248 195.770958C31.0149248 195.112664 30.4825747 194.578396 29.8248724 194.578396 29.1671702 194.578396 28.6348201 195.112664 28.6348201 195.770958L28.6348201 201.099326C28.6348201 201.75762 29.1671702 202.291888 29.8248724 202.291888M29.8248724 213.395357C30.4825747 213.395357 31.0149248 212.861089 31.0149248 212.202795L31.0149248 206.872837C31.0149248 206.214543 30.4825747 205.680275 29.8248724 205.680275 29.1671702 205.680275 28.6348201 206.214543 28.6348201 206.872837L28.6348201 212.202795C28.6348201 212.861089 29.1671702 213.395357 29.8248724 213.395357M29.8248724 224.497156C30.4825747 224.497156 31.0149248 223.962889 31.0149248 223.304594L31.0149248 217.975432C31.0149248 217.317137 30.4825747 216.78287 29.8248724 216.78287 29.1671702 216.78287 28.6348201 217.317137 28.6348201 217.975432L28.6348201 223.304594C28.6348201 223.962889 29.1671702 224.497156 29.8248724 224.497156M119.121484 193.85467C119.778393 193.85467 120.311537 193.320402 120.311537 192.662108L120.311537 187.332945C120.311537 186.674651 119.778393 186.140383 119.121484 186.140383 118.463782 186.140383 117.931432 186.674651 117.931432 187.332945L117.931432 192.662108C117.931432 193.320402 118.463782 193.85467 119.121484 193.85467M119.121484 204.956549C119.778393 204.956549 120.311537 204.422281 120.311537 203.763987L120.311537 198.435619C120.311537 197.777325 119.778393 197.243057 119.121484 197.243057 118.463782 197.243057 117.931432 197.777325 117.931432 198.435619L117.931432 203.763987C117.931432 204.422281 118.463782 204.956549 119.121484 204.956549M119.121484 216.059223C119.778393 216.059223 120.311537 215.524955 120.311537 214.866661L120.311537 209.537498C120.311537 208.879204 119.778393 208.344936 119.121484 208.344936 118.463782 208.344936 117.931432 208.879204 117.931432 209.537498L117.931432 214.866661C117.931432 215.524955 118.463782 216.059223 119.121484 216.059223M129.978332 129.740542C129.32063 129.740542 128.78828 130.27481 128.78828 130.933104L128.78828 201.099485C128.78828 201.757779 129.32063 202.292047 129.978332 202.292047 130.636035 202.292047 131.168385 201.757779 131.168385 201.099485L131.168385 130.933104C131.168385 130.27481 130.636035 129.740542 129.978332 129.740542M136.847473 129.740542C136.189771 129.740542 135.657421 130.27481 135.657421 130.933104L135.657421 201.099485C135.657421 201.757779 136.189771 202.292047 136.847473 202.292047 137.505176 202.292047 138.037526 201.757779 138.037526 201.099485L138.037526 130.933104C138.037526 130.27481 137.505176 129.740542 136.847473 129.740542M161.66427 119.469402C162.321179 119.469402 162.854323 118.935134 162.854323 118.27684L162.854323 107.618515C162.854323 106.96022 162.321179 106.425953 161.66427 106.425953 161.007361 106.425953 160.474218 106.96022 160.474218 107.618515L160.474218 118.27684C160.474218 118.935134 161.007361 119.469402 161.66427 119.469402M170.970877 123.909708C171.627786 123.909708 172.160929 123.375441 172.160929 122.717146L172.160929 117.388779C172.160929 116.730484 171.627786 116.196217 170.970877 116.196217 170.313968 116.196217 169.780824 116.730484 169.780824 117.388779L169.780824 122.717146C169.780824 123.375441 170.313968 123.909708 170.970877 123.909708M161.66427 138.343129C162.321179 138.343129 162.854323 137.808861 162.854323 137.150567L162.854323 131.822199C162.854323 131.163905 162.321179 130.629637 161.66427 130.629637 161.007361 130.629637 160.474218 131.163905 160.474218 131.822199L160.474218 137.150567C160.474218 137.808861 161.007361 138.343129 161.66427 138.343129M161.66427 149.444928C162.321179 149.444928 162.854323 148.91066 162.854323 148.252366L162.854323 142.923999C162.854323 142.265704 162.321179 141.731436 161.66427 141.731436 161.007361 141.731436 160.474218 142.265704 160.474218 142.923999L160.474218 148.252366C160.474218 148.91066 161.007361 149.444928 161.66427 149.444928M161.66427 160.547602C162.321179 160.547602 162.854323 160.013334 162.854323 159.35504L162.854323 154.025877C162.854323 153.367583 162.321179 152.833315 161.66427 152.833315 161.007361 152.833315 160.474218 153.367583 160.474218 154.025877L160.474218 159.35504C160.474218 160.013334 161.007361 160.547602 161.66427 160.547602M161.66427 171.650197C162.321179 171.650197 162.854323 171.115929 162.854323 170.457635L162.854323 165.128472C162.854323 164.470178 162.321179 163.93591 161.66427 163.93591 161.007361 163.93591 160.474218 164.470178 160.474218 165.128472L160.474218 170.457635C160.474218 171.115929 161.007361 171.650197 161.66427 171.650197M161.66427 182.752076C162.321179 182.752076 162.854323 182.217808 162.854323 181.559513L162.854323 176.230351C162.854323 175.572056 162.321179 175.037789 161.66427 175.037789 161.007361 175.037789 160.474218 175.572056 160.474218 176.230351L160.474218 181.559513C160.474218 182.217808 161.007361 182.752076 161.66427 182.752076M161.66427 193.85467C162.321179 193.85467 162.854323 193.320402 162.854323 192.662108L162.854323 187.332945C162.854323 186.674651 162.321179 186.140383 161.66427 186.140383 161.007361 186.140383 160.474218 186.674651 160.474218 187.332945L160.474218 192.662108C160.474218 193.320402 161.007361 193.85467 161.66427 193.85467M161.66427 204.956549C162.321179 204.956549 162.854323 204.422281 162.854323 203.763987L162.854323 198.435619C162.854323 197.777325 162.321179 197.243057 161.66427 197.243057 161.007361 197.243057 160.474218 197.777325 160.474218 198.435619L160.474218 203.763987C160.474218 204.422281 161.007361 204.956549 161.66427 204.956549M161.66427 216.059223C162.321179 216.059223 162.854323 215.524955 162.854323 214.866661L162.854323 209.537498C162.854323 208.879204 162.321179 208.344936 161.66427 208.344936 161.007361 208.344936 160.474218 208.879204 160.474218 209.537498L160.474218 214.866661C160.474218 215.524955 161.007361 216.059223 161.66427 216.059223M150.806629 202.291888C151.464331 202.291888 151.996681 201.75762 151.996681 201.099326L151.996681 130.932945C151.996681 130.274651 151.464331 129.740383 150.806629 129.740383 150.14972 129.740383 149.616577 130.274651 149.616577 130.932945L149.616577 201.099326C149.616577 201.75762 150.14972 202.291888 150.806629 202.291888M143.937488 129.740542C143.280579 129.740542 142.747436 130.27481 142.747436 130.933104L142.747436 201.099485C142.747436 201.757779 143.280579 202.292047 143.937488 202.292047 144.59519 202.292047 145.12754 201.757779 145.12754 201.099485L145.12754 130.933104C145.12754 130.27481 144.59519 129.740542 143.937488 129.740542M66.2376986 224.722312C66.8954008 224.722312 67.4277509 224.188044 67.4277509 223.52975L67.4277509 173.490638C67.4277509 172.831549 66.8954008 172.298076 66.2376986 172.298076 65.5799963 172.298076 65.0476462 172.831549 65.0476462 173.490638L65.0476462 223.52975C65.0476462 224.188044 65.5799963 224.722312 66.2376986 224.722312M73.1061255 224.722312C73.7638278 224.722312 74.2961779 224.188044 74.2961779 223.52975L74.2961779 173.490638C74.2961779 172.831549 73.7638278 172.298076 73.1061255 172.298076 72.4492166 172.298076 71.9160732 172.831549 71.9160732 173.490638L71.9160732 223.52975C71.9160732 224.188044 72.4492166 224.722312 73.1061255 224.722312M87.0659954 224.722312C87.7229043 224.722312 88.2560477 224.188044 88.2560477 223.52975L88.2560477 173.490638C88.2560477 172.831549 87.7229043 172.298076 87.0659954 172.298076 86.4090864 172.298076 85.875943 172.831549 85.875943 173.490638L85.875943 223.52975C85.875943 224.188044 86.4090864 224.722312 87.0659954 224.722312M80.1968543 224.722312C80.8545566 224.722312 81.3869067 224.188044 81.3869067 223.52975L81.3869067 173.490638C81.3869067 172.831549 80.8545566 172.298076 80.1968543 172.298076 79.5399454 172.298076 79.0068019 172.831549 79.0068019 173.490638L79.0068019 223.52975C79.0068019 224.188044 79.5399454 224.722312 80.1968543 224.722312M136.847473 98.2098355C136.189771 98.2098355 135.657421 98.7441033 135.657421 99.4023976L135.657421 121.533171C135.657421 122.191465 136.189771 122.725733 136.847473 122.725733 137.505176 122.725733 138.037526 122.191465 138.037526 121.533171L138.037526 99.4023976C138.037526 98.7441033 137.505176 98.2098355 136.847473 98.2098355M142.747436 99.4023976L142.747436 121.533171C142.747436 122.191465 143.280579 122.725733 143.937488 122.725733 144.59519 122.725733 145.12754 122.191465 145.12754 121.533171L145.12754 99.4023976C145.12754 98.7441033 144.59519 98.2098355 143.937488 98.2098355 143.280579 98.2098355 142.747436 98.7441033 142.747436 99.4023976M140.392084 92.0109771C141.039472 92.0109771 141.566269 92.5380895 141.566269 93.1868433 141.566269 93.834007 141.039472 94.3611195 140.392084 94.3611195 139.746282 94.3611195 139.220279 93.834007 139.220279 93.1868433 139.220279 92.5380895 139.746282 92.0109771 140.392084 92.0109771M140.392084 96.7462438C142.352497 96.7462438 143.946374 95.1490055 143.946374 93.1868433 143.946374 91.223091 142.352497 89.6258528 140.392084 89.6258528 138.433258 89.6258528 136.840174 91.223091 136.840174 93.1868433 136.840174 95.1490055 138.433258 96.7462438 140.392084 96.7462438M133.967626 54.9646705L146.817811 54.9646705C147.475514 54.9646705 148.007864 54.4311977 148.007864 53.7721083 148.007864 53.1138141 147.475514 52.5795462 146.817811 52.5795462L133.967626 52.5795462C133.309924 52.5795462 132.777573 53.1138141 132.777573 53.7721083 132.777573 54.4311977 133.309924 54.9646705 133.967626 54.9646705M138.197945 42.1974183L140.392401 42.1974183C140.436037 42.1974183 140.477292 42.1894679 140.520134 42.1839026 140.562182 42.1894679 140.603437 42.1974183 140.647866 42.1974183L142.842322 42.1974183C142.095763 43.3764647 141.453928 44.8965839 141.822844 46.3038073 142.09735 47.3492867 142.806621 48.3852257 143.55318 49.2494357L140.647866 49.2494357C140.603437 49.2494357 140.562182 49.2573861 140.520134 49.2621564 140.477292 49.2573861 140.436037 49.2494357 140.392401 49.2494357L137.487087 49.2494357C138.233646 48.3852257 138.942124 47.3492867 139.217423 46.3046023 139.586339 44.897379 138.944504 43.3764647 138.197945 42.1974183L138.197945 42.1974183zM140.647866 20.4323644L142.764572 39.8122941 140.647866 39.8122941C140.603437 39.8122941 140.562182 39.8202445 140.520134 39.8258098 140.477292 39.8202445 140.436037 39.8122941 140.392401 39.8122941L138.529573 39.8122941 140.647866 20.4323644zM139.46416 6.14785518C139.97985 6.14785518 140.436037 5.81552786 140.595504 5.32419226L140.647866 5.16518398 140.698641 5.32419226C140.858902 5.81552786 141.315089 6.14785518 141.829985 6.14785518L141.997385 6.14785518 141.862513 6.24644031C141.445994 6.55014614 141.27066 7.08838918 141.430127 7.57972478L141.481696 7.73793802 141.346823 7.64014792C140.929512 7.3364421 140.36384 7.3364421 139.947322 7.64014792L139.812449 7.73793802 139.864811 7.57972478C140.023485 7.08838918 139.848944 6.55014614 139.432426 6.24644031L139.297553 6.14785518 139.46416 6.14785518zM134.520683 51.63456L140.392401 51.63456C140.436037 51.63456 140.477292 51.6258145 140.520134 51.6218393 140.562182 51.6258145 140.603437 51.63456 140.647866 51.63456L146.518791 51.63456C147.02734 51.63456 147.477973 51.3109781 147.643787 50.829183 147.809601 50.348183 147.650927 49.8139151 147.250276 49.5014639 146.214931 48.6913166 144.452067 46.9430206 144.125199 45.6971907 143.867354 44.7169046 145.177205 42.8199358 146.141941 41.8483951 146.481503 41.5073224 146.583847 40.9937256 146.399786 40.5485024 146.214931 40.1024842 145.781752 39.8122941 145.300177 39.8122941L145.158164 39.8122941 142.0196 11.077907 143.045425 11.825246C143.46353 12.1289518 144.027615 12.1289518 144.444926 11.825246 144.861445 11.5215401 145.035986 10.9832971 144.877312 10.4919615L143.960972 7.66638429 146.359324 5.92047333C146.776636 5.61676751 146.950383 5.07852447 146.79171 4.58718887 146.632243 4.09585327 146.175263 3.76273091 145.65878 3.76273091L142.694756 3.76273091 141.779209.937948745C141.619742.445818106 141.162762.113490792 140.647866.113490792 140.132177.113490792 139.674403.445818106 139.514936.937948745L138.599389 3.76273091 135.635365 3.76273091C135.118883 3.76273091 134.662696 4.09585327 134.503229 4.58718887 134.344555 5.07852447 134.518303 5.61676751 134.935614 5.92047333L137.333173 7.66638429 136.417626 10.4919615C136.258159 10.9832971 136.4327 11.5215401 136.850012 11.825246 137.058668 11.9770989 137.303819 12.0526278 137.549763 12.0526278 137.794914 12.0526278 138.040858 11.9770989 138.24872 11.825246L139.274545 11.077907 136.135187 39.8122941 135.74009 39.8122941C135.259309 39.8122941 134.82613 40.1024842 134.642068 40.5477074 134.457213 40.9921355 134.557971 41.5049372 134.897533 41.8468051 135.863062 42.8199358 137.172913 44.7169046 136.915068 45.6971907 136.588201 46.9430206 134.824543 48.6913166 133.789197 49.5014639 133.388546 49.8139151 133.229873 50.348183 133.395687 50.829183 133.561501 51.3109781 134.012927 51.63456 134.520683 51.63456L134.520683 51.63456z" mask="url(#univercity-mobile-d)"/>
    <path fill="#540326" d="M42.3444615,154.462117 C40.6783882,154.462117 39.3233152,153.104186 39.3233152,151.434599 C39.3233152,149.765807 40.6783882,148.407876 42.3444615,148.407876 C44.0105348,148.407876 45.3656078,149.765807 45.3656078,151.434599 C45.3656078,153.104186 44.0105348,154.462117 42.3444615,154.462117 M42.3444615,146.022752 C39.3661571,146.022752 36.9432104,148.450013 36.9432104,151.434599 C36.9432104,154.419184 39.3661571,156.847241 42.3444615,156.847241 C45.3227659,156.847241 47.7457126,154.419184 47.7457126,151.434599 C47.7457126,148.450013 45.3227659,146.022752 42.3444615,146.022752" mask="url(#univercity-mobile-d)"/>
    <path fill="#540326" d="M247.608425,226.327183 L254.423459,226.327183 L254.423459,170.095493 L247.608425,170.095493 L247.608425,226.327183 Z M231.654583,226.327183 L245.228321,226.327183 L245.228321,170.095493 L231.654583,170.095493 L231.654583,226.327183 Z M229.274478,226.327183 L222.459445,226.327183 L222.459445,170.095493 L225.701148,170.095493 L229.274478,170.095493 L229.274478,226.327183 Z M189.444218,226.327183 L220.07934,226.327183 L220.07934,170.095493 L189.444218,170.095493 L189.444218,226.327183 Z M181.689044,226.327183 L187.064114,226.327183 L187.064114,170.095493 L181.689044,170.095493 L181.689044,226.327183 Z M184.376182,162.990208 L186.961769,162.990208 L185.469443,167.710369 L183.282921,167.710369 L181.790595,162.990208 L184.376182,162.990208 Z M172.160691,226.327183 L179.308146,226.327183 L179.308146,170.095493 L172.160691,170.095493 L172.160691,226.327183 Z M157.536534,226.327183 L165.792324,226.327183 L165.792324,128.128437 L157.536534,128.128437 L157.536534,226.327183 Z M149.781359,125.743312 L155.156429,125.743312 L155.156429,88.382726 L149.781359,88.382726 L149.781359,125.743312 Z M155.156429,204.348263 L140.391846,204.348263 L125.629643,204.348263 L125.629643,128.128437 L132.194765,128.128437 L140.391846,128.128437 L148.590513,128.128437 L155.156429,128.128437 L155.156429,204.348263 Z M155.156429,209.232997 L140.391846,209.232997 L125.629643,209.232997 L125.629643,206.733387 L140.391846,206.733387 L155.156429,206.733387 L155.156429,209.232997 Z M155.156429,226.327183 L125.629643,226.327183 L125.629643,211.618121 L140.391846,211.618121 L155.156429,211.618121 L155.156429,226.327183 Z M125.629643,125.743312 L131.004713,125.743312 L131.004713,88.382726 L125.629643,88.382726 L125.629643,125.743312 Z M133.384818,88.382726 L147.400461,88.382726 L147.400461,125.743312 L140.391846,125.743312 L133.384818,125.743312 L133.384818,88.382726 Z M135.157996,58.2951785 L139.201794,58.2951785 L139.201794,85.9976018 L138.392558,85.9976018 L138.392558,79.8638572 C138.392558,79.2055629 137.860208,78.6712951 137.202506,78.6712951 C136.544803,78.6712951 136.012453,79.2055629 136.012453,79.8638572 L136.012453,85.9976018 L135.157996,85.9976018 L135.157996,58.2951785 Z M141.581898,58.2951785 L145.628076,58.2951785 L145.628076,85.9976018 L144.772825,85.9976018 L144.772825,79.8638572 C144.772825,79.2055629 144.240475,78.6712951 143.582773,78.6712951 C142.925864,78.6712951 142.392721,79.2055629 142.392721,79.8638572 L142.392721,85.9976018 L141.581898,85.9976018 L141.581898,58.2951785 Z M114.993748,226.327183 L123.249538,226.327183 L123.249538,128.128437 L114.993748,128.128437 L114.993748,226.327183 Z M101.47634,226.327183 L108.624588,226.327183 L108.624588,170.095493 L101.47634,170.095493 L101.47634,226.327183 Z M93.7219583,226.327183 L99.0962349,226.327183 L99.0962349,170.095493 L93.7219583,170.095493 L93.7219583,226.327183 Z M96.40989,162.990208 L98.9954771,162.990208 L97.5023581,167.710369 L95.3158352,167.710369 L93.8235095,162.990208 L96.40989,162.990208 Z M60.7067318,226.327183 L91.3418536,226.327183 L91.3418536,170.095493 L60.7067318,170.095493 L60.7067318,226.327183 Z M58.326627,226.327183 L51.5115937,226.327183 L51.5115937,170.095493 L55.0849243,170.095493 L58.326627,170.095493 L58.326627,226.327183 Z M35.5577514,226.327183 L49.1314889,226.327183 L49.1314889,170.095493 L35.5577514,170.095493 L35.5577514,226.327183 Z M26.3626134,226.327183 L33.1776467,226.327183 L33.1776467,170.095493 L26.3626134,170.095493 L26.3626134,226.327183 Z M255.613511,167.710369 L246.418373,167.710369 L230.464531,167.710369 L225.701148,167.710369 L221.269393,167.710369 L188.254166,167.710369 L189.721897,162.1578 C189.836936,161.795261 189.771086,161.400125 189.547356,161.093239 C189.323626,160.785558 188.966611,160.605084 188.587381,160.605084 L184.376182,160.605084 L180.164983,160.605084 C179.786547,160.605084 179.428738,160.785558 179.205008,161.093239 C178.980484,161.400125 178.916222,161.795261 179.029673,162.1578 L180.785397,167.710369 L172.160691,167.710369 L172.160691,128.128437 L172.965166,128.128437 C173.622075,128.128437 174.155219,127.594169 174.155219,126.935875 C174.155219,126.27758 173.622075,125.743312 172.965166,125.743312 L166.982376,125.743312 L157.536534,125.743312 L157.536534,123.909947 L166.982376,123.909947 C167.639285,123.909947 168.172429,123.375679 168.172429,122.717385 C168.172429,122.059091 167.639285,121.524823 166.982376,121.524823 L157.536534,121.524823 L157.536534,87.1901639 L157.536534,79.8638572 C157.536534,79.2055629 157.00339,78.6712951 156.346482,78.6712951 C155.689573,78.6712951 155.156429,79.2055629 155.156429,79.8638572 L155.156429,85.9976018 L151.155473,85.9976018 L151.155473,79.8638572 C151.155473,79.2055629 150.62233,78.6712951 149.965421,78.6712951 C149.307718,78.6712951 148.775368,79.2055629 148.775368,79.8638572 L148.775368,85.9976018 L148.008181,85.9976018 L148.008181,57.1026164 C148.008181,56.4443221 147.475831,55.9100542 146.818129,55.9100542 L133.967943,55.9100542 C133.309448,55.9100542 132.777891,56.4443221 132.777891,57.1026164 L132.777891,85.9976018 L132.010704,85.9976018 L132.010704,79.8638572 C132.010704,79.2055629 131.47756,78.6712951 130.820651,78.6712951 C130.163742,78.6712951 129.630599,79.2055629 129.630599,79.8638572 L129.630599,85.9976018 L125.629643,85.9976018 L125.629643,79.8638572 C125.629643,79.2055629 125.096499,78.6712951 124.43959,78.6712951 C123.781888,78.6712951 123.249538,79.2055629 123.249538,79.8638572 L123.249538,87.1901639 L123.249538,121.524823 L113.803696,121.524823 C113.145993,121.524823 112.613643,122.059091 112.613643,122.717385 C112.613643,123.375679 113.145993,123.909947 113.803696,123.909947 L123.249538,123.909947 L123.249538,125.743312 L113.803696,125.743312 L107.820906,125.743312 C107.163203,125.743312 106.630853,126.27758 106.630853,126.935875 C106.630853,127.594169 107.163203,128.128437 107.820906,128.128437 L108.624588,128.128437 L108.624588,167.710369 L100.286287,167.710369 L101.755605,162.1578 C101.86985,161.795261 101.805587,161.400125 101.580271,161.093239 C101.356541,160.785558 100.999525,160.605084 100.620295,160.605084 L96.40989,160.605084 L92.1986913,160.605084 C91.8202546,160.605084 91.4632389,160.785558 91.2387157,161.093239 C91.0141925,161.400125 90.9499296,161.795261 91.0633813,162.1578 L92.8191053,167.710369 L59.5166794,167.710369 L55.0849243,167.710369 L50.3215413,167.710369 L34.3676991,167.710369 L25.172561,167.710369 L22.5131906,167.710369 C21.8554883,167.710369 21.3231382,168.244637 21.3231382,168.902931 C21.3231382,169.56202 21.8554883,170.095493 22.5131906,170.095493 L23.9825086,170.095493 L23.9825086,227.519745 C23.9825086,228.178039 24.5148587,228.712307 25.172561,228.712307 L34.3676991,228.712307 L50.3215413,228.712307 L59.5166794,228.712307 L92.5319059,228.712307 L100.286287,228.712307 L109.81464,228.712307 C110.471549,228.712307 111.004692,228.178039 111.004692,227.519745 L111.004692,168.902931 L111.004692,128.128437 L112.613643,128.128437 L112.613643,227.519745 C112.613643,228.178039 113.145993,228.712307 113.803696,228.712307 L124.43959,228.712307 L156.346482,228.712307 L166.982376,228.712307 C167.639285,228.712307 168.172429,228.178039 168.172429,227.519745 L168.172429,128.128437 L169.780586,128.128437 L169.780586,168.902931 L169.780586,227.519745 C169.780586,228.178039 170.31373,228.712307 170.970639,228.712307 L180.498198,228.712307 L188.254166,228.712307 L221.269393,228.712307 L230.464531,228.712307 L246.418373,228.712307 L255.613511,228.712307 C256.271213,228.712307 256.803563,228.178039 256.803563,227.519745 L256.803563,170.095493 L258.272088,170.095493 C258.92979,170.095493 259.46214,169.56202 259.46214,168.902931 C259.46214,168.244637 258.92979,167.710369 258.272088,167.710369 L255.613511,167.710369 Z" mask="url(#univercity-mobile-d)"/>
    <path fill="#540326" d="M231.654583 163.935512L245.228321 163.935512 245.228321 143.375741 231.654583 143.375741 231.654583 163.935512zM235.420702 140.7688L241.462201 140.7688 241.462201 135.67815 235.420702 135.67815 235.420702 140.7688zM238.441055 129.017293L241.026642 129.017293 239.674743 133.293026 237.208161 133.293026 235.856261 129.017293 238.441055 129.017293zM258.272088 163.935512L251.781542 163.935512 251.781542 137.742078C251.781542 137.083783 251.248399 136.549515 250.59149 136.549515 249.933788 136.549515 249.401438 137.083783 249.401438 137.742078L249.401438 163.935512 247.608425 163.935512 247.608425 142.183179C247.608425 141.524885 247.075282 140.990617 246.418373 140.990617L243.842306 140.990617 243.842306 134.485588C243.842306 133.827294 243.309956 133.293026 242.652254 133.293026L242.171473 133.293026 243.787564 128.184885C243.901015 127.822346 243.836753 127.42721 243.612229 127.120324 243.3885 126.812643 243.03069 126.632169 242.652254 126.632169L238.441055 126.632169 234.23065 126.632169C233.85142 126.632169 233.494404 126.812643 233.270674 127.120324 233.046151 127.42721 232.981095 127.822346 233.09534 128.184885L234.710638 133.293026 234.23065 133.293026C233.572947 133.293026 233.040597 133.827294 233.040597 134.485588L233.040597 140.990617 230.464531 140.990617C229.806828 140.990617 229.274478 141.524885 229.274478 142.183179L229.274478 163.935512 228.146309 163.935512 228.146309 137.742078C228.146309 137.083783 227.613959 136.549515 226.956256 136.549515 226.299347 136.549515 225.766204 137.083783 225.766204 137.742078L225.766204 163.935512 219.274865 163.935512C218.617163 163.935512 218.084812 164.46978 218.084812 165.128074 218.084812 165.786369 218.617163 166.320637 219.274865 166.320637L230.464531 166.320637 246.418373 166.320637 258.272088 166.320637C258.92979 166.320637 259.46214 165.786369 259.46214 165.128074 259.46214 164.46978 258.92979 163.935512 258.272088 163.935512L258.272088 163.935512zM184.376023 158.512614C185.032932 158.512614 185.566076 157.978346 185.566076 157.320052L185.566076 150.732339C185.566076 150.074045 185.032932 149.539777 184.376023 149.539777 183.719114 149.539777 183.185971 150.074045 183.185971 150.732339L183.185971 157.320052C183.185971 157.978346 183.719114 158.512614 184.376023 158.512614M184.376023 179.863849C185.032932 179.863849 185.566076 179.329581 185.566076 178.671287L185.566076 173.342124C185.566076 172.68383 185.032932 172.149562 184.376023 172.149562 183.719114 172.149562 183.185971 172.68383 183.185971 173.342124L183.185971 178.671287C183.185971 179.329581 183.719114 179.863849 184.376023 179.863849M184.376023 190.965728C185.032932 190.965728 185.566076 190.43146 185.566076 189.773166L185.566076 184.444798C185.566076 183.786504 185.032932 183.252236 184.376023 183.252236 183.719114 183.252236 183.185971 183.786504 183.185971 184.444798L183.185971 189.773166C183.185971 190.43146 183.719114 190.965728 184.376023 190.965728M184.376023 202.068322C185.032932 202.068322 185.566076 201.534055 185.566076 200.87576L185.566076 195.547393C185.566076 194.889098 185.032932 194.354831 184.376023 194.354831 183.719114 194.354831 183.185971 194.889098 183.185971 195.547393L183.185971 200.87576C183.185971 201.534055 183.719114 202.068322 184.376023 202.068322M184.376023 213.170201C185.032932 213.170201 185.566076 212.635933 185.566076 211.977639L185.566076 206.649272C185.566076 205.990977 185.032932 205.456709 184.376023 205.456709 183.719114 205.456709 183.185971 205.990977 183.185971 206.649272L183.185971 211.977639C183.185971 212.635933 183.719114 213.170201 184.376023 213.170201M184.376023 224.273591C185.032932 224.273591 185.566076 223.739323 185.566076 223.081029L185.566076 217.751071C185.566076 217.092777 185.032932 216.558509 184.376023 216.558509 183.719114 216.558509 183.185971 217.092777 183.185971 217.751071L183.185971 223.081029C183.185971 223.739323 183.719114 224.273591 184.376023 224.273591M224.510778 173.342045L224.510778 178.671207C224.510778 179.329502 225.043128 179.86377 225.70083 179.86377 226.357739 179.86377 226.890883 179.329502 226.890883 178.671207L226.890883 173.342045C226.890883 172.683751 226.357739 172.149483 225.70083 172.149483 225.043128 172.149483 224.510778 172.683751 224.510778 173.342045M225.70083 183.252077C225.043128 183.252077 224.510778 183.786345 224.510778 184.444639L224.510778 189.773007C224.510778 190.431301 225.043128 190.965569 225.70083 190.965569 226.357739 190.965569 226.890883 190.431301 226.890883 189.773007L226.890883 184.444639C226.890883 183.786345 226.357739 183.252077 225.70083 183.252077M225.70083 194.354751C225.043128 194.354751 224.510778 194.889019 224.510778 195.547313L224.510778 200.875681C224.510778 201.533975 225.043128 202.068243 225.70083 202.068243 226.357739 202.068243 226.890883 201.533975 226.890883 200.875681L226.890883 195.547313C226.890883 194.889019 226.357739 194.354751 225.70083 194.354751M225.70083 205.45655C225.043128 205.45655 224.510778 205.990818 224.510778 206.649113L224.510778 211.97748C224.510778 212.635774 225.043128 213.170042 225.70083 213.170042 226.357739 213.170042 226.890883 212.635774 226.890883 211.97748L226.890883 206.649113C226.890883 205.990818 226.357739 205.45655 225.70083 205.45655M225.70083 216.558429C225.043128 216.558429 224.510778 217.092697 224.510778 217.750991L224.510778 223.080949C224.510778 223.739243 225.043128 224.273511 225.70083 224.273511 226.357739 224.273511 226.890883 223.739243 226.890883 223.080949L226.890883 217.750991C226.890883 217.092697 226.357739 216.558429 225.70083 216.558429M250.960009 180.087415C251.617712 180.087415 252.150062 179.553147 252.150062 178.894853L252.150062 173.56569C252.150062 172.907396 251.617712 172.373128 250.960009 172.373128 250.303101 172.373128 249.769957 172.907396 249.769957 173.56569L249.769957 178.894853C249.769957 179.553147 250.303101 180.087415 250.960009 180.087415M250.960009 191.190089C251.617712 191.190089 252.150062 190.655821 252.150062 189.997527L252.150062 184.668364C252.150062 184.01007 251.617712 183.475802 250.960009 183.475802 250.303101 183.475802 249.769957 184.01007 249.769957 184.668364L249.769957 189.997527C249.769957 190.655821 250.303101 191.190089 250.960009 191.190089M250.960009 202.291888C251.617712 202.291888 252.150062 201.75762 252.150062 201.099326L252.150062 195.770958C252.150062 195.112664 251.617712 194.578396 250.960009 194.578396 250.303101 194.578396 249.769957 195.112664 249.769957 195.770958L249.769957 201.099326C249.769957 201.75762 250.303101 202.291888 250.960009 202.291888M250.960009 213.395357C251.617712 213.395357 252.150062 212.861089 252.150062 212.202795L252.150062 206.872837C252.150062 206.214543 251.617712 205.680275 250.960009 205.680275 250.303101 205.680275 249.769957 206.214543 249.769957 206.872837L249.769957 212.202795C249.769957 212.861089 250.303101 213.395357 250.960009 213.395357M250.960009 224.497156C251.617712 224.497156 252.150062 223.962889 252.150062 223.304594L252.150062 217.975432C252.150062 217.317137 251.617712 216.78287 250.960009 216.78287 250.303101 216.78287 249.769957 217.317137 249.769957 217.975432L249.769957 223.304594C249.769957 223.962889 250.303101 224.497156 250.960009 224.497156M214.547977 224.722312C215.205679 224.722312 215.738029 224.188044 215.738029 223.52975L215.738029 173.490638C215.738029 172.831549 215.205679 172.298076 214.547977 172.298076 213.890274 172.298076 213.357924 172.831549 213.357924 173.490638L213.357924 223.52975C213.357924 224.188044 213.890274 224.722312 214.547977 224.722312M207.679629 224.722312C208.336538 224.722312 208.869681 224.188044 208.869681 223.52975L208.869681 173.490638C208.869681 172.831549 208.336538 172.298076 207.679629 172.298076 207.021927 172.298076 206.489577 172.831549 206.489577 173.490638L206.489577 223.52975C206.489577 224.188044 207.021927 224.722312 207.679629 224.722312M193.719759 224.722312C194.376668 224.722312 194.909812 224.188044 194.909812 223.52975L194.909812 173.490638C194.909812 172.831549 194.376668 172.298076 193.719759 172.298076 193.06285 172.298076 192.529707 172.831549 192.529707 173.490638L192.529707 223.52975C192.529707 224.188044 193.06285 224.722312 193.719759 224.722312M200.5889 224.722312C201.245809 224.722312 201.778953 224.188044 201.778953 223.52975L201.778953 173.490638C201.778953 172.831549 201.245809 172.298076 200.5889 172.298076 199.931991 172.298076 199.398848 172.831549 199.398848 173.490638L199.398848 223.52975C199.398848 224.188044 199.931991 224.722312 200.5889 224.722312" mask="url(#univercity-mobile-d)"/>
    <path fill="#540326" d="M238.441214,148.407717 C240.107287,148.407717 241.46236,149.765648 241.46236,151.435235 C241.46236,153.104027 240.107287,154.461958 238.441214,154.461958 C236.77514,154.461958 235.420067,153.104027 235.420067,151.435235 C235.420067,149.765648 236.77514,148.407717 238.441214,148.407717 M238.441214,156.847082 C241.419518,156.847082 243.842465,154.41982 243.842465,151.435235 C243.842465,148.45065 241.419518,146.022593 238.441214,146.022593 C235.462909,146.022593 233.039963,148.45065 233.039963,151.435235 C233.039963,154.41982 235.462909,156.847082 238.441214,156.847082" mask="url(#univercity-mobile-d)"/>
    <polygon fill="#FFE1B7" points="35.558 226.327 49.131 226.327 49.131 170.095 35.558 170.095"/>
    <polygon fill="#FFE1B7" points="231.473 226.749 245.436 226.749 245.436 169.903 231.473 169.903"/>
    <polygon fill="#FFE1B7" points="172.129 226.749 179.983 226.749 179.983 169.903 172.129 169.903"/>
    <polygon fill="#FFE1B7" points="101.44 226.749 109.294 226.749 109.294 169.903 101.44 169.903"/>
  </g>
</svg>
