<svg xmlns="http://www.w3.org/2000/svg" xmlns:xlink="http://www.w3.org/1999/xlink" width="370" height="320" viewBox="0 0 370 320">
  <defs>
    <polygon id="univercity-a" points="8.291 8.334 8.291 .537 .488 .537 .488 8.334 8.291 8.334"/>
    <polygon id="univercity-c" points=".229 308.572 290.804 308.572 290.804 0 .229 0"/>
  </defs>
  <g fill="none" fill-rule="evenodd" transform="translate(36 10)">
    <path fill="#540326" d="M89.1699289 6.58740729C90.1296937 6.58740729 90.9103847 5.80731611 90.9103847 4.84917021 90.9103847 3.89014286 90.1296937 3.11093313 89.1699289 3.11093313 88.2110463 3.11093313 87.4303553 3.89014286 87.4303553 4.84917021 87.4303553 5.80731611 88.2110463 6.58740729 89.1699289 6.58740729L89.1699289 6.58740729zM111.507572 105.915933C112.297966 105.915933 112.940162 105.27335 112.940162 104.485325 112.940162 103.696419 112.297966 103.054717 111.507572 103.054717 110.718059 103.054717 110.075864 103.696419 110.075864 104.485325 110.075864 105.27335 110.718059 105.915933 111.507572 105.915933M8.56812546 256.747842C9.72460671 256.747842 10.6649645 255.808207 10.6649645 254.652614 10.6649645 253.497021 9.72460671 252.557386 8.56812546 252.557386 7.4116442 252.557386 6.47128645 253.497021 6.47128645 254.652614 6.47128645 255.808207 7.4116442 256.747842 8.56812546 256.747842M298.068287 9.39406079C298.557873 9.79865046 299.265347 9.797769 299.75405 9.39406079L307.457751 3.03786018 315.15704 9.39406079C315.646626 9.79865046 316.353217 9.797769 316.841921 9.39406079L324.54915 3.03786018 332.255496 9.39406079C332.501612 9.59767781 332.800657 9.69728267 333.097055 9.69728267 333.47902 9.69728267 333.856574 9.53333131 334.117687 9.21688754 334.583455 8.65363526 334.504063 7.81977508 333.940377 7.3552462L325.39159.303574468C324.902004-.100133739 324.195413-.100133739 323.706709.303574468L316.000363 6.65977508 308.300191.303574468C307.810605-.100133739 307.104014-.100133739 306.61531.303574468L298.91161 6.65977508 291.212321.303574468C290.646871-.162717325 289.813252-.0825045593 289.348366.48074772 288.882597 1.044 288.96199 1.87786018 289.525675 2.34238906L298.068287 9.39406079zM40.0244111 55.3932675C40.5122328 55.7969757 41.2197064 55.7978571 41.7092923 55.3941489L49.4129924 49.0379483 57.1122818 55.3932675C57.6018677 55.7978571 58.3084592 55.7978571 58.7971629 55.3941489L66.5043915 49.0370669 74.210738 55.3941489C74.4577363 55.597766 74.7567807 55.6973708 75.0531786 55.6973708 75.4342617 55.6973708 75.8126983 55.532538 76.0738108 55.2160942 76.539579 54.6528419 76.4593046 53.8198632 75.8956192 53.3544529L67.3468321 46.3027812C66.8572462 45.8990729 66.1506547 45.8990729 65.661951 46.3027812L57.9556045 52.6589818 50.255433 46.3027812C49.7658471 45.8999544 49.0592555 45.8990729 48.5705518 46.3027812L40.8668517 52.6589818 33.1657981 46.3027812C32.6021127 45.8382523 31.7684935 45.9175836 31.3027253 46.4808359 30.8378392 47.0440881 30.9172315 47.8779483 31.4800348 48.3415957L40.0244111 55.3932675z"/>
    <g transform="translate(282.513 171.946)">
      <mask id="univercity-b" fill="#fff">
        <use xlink:href="#univercity-a"/>
      </mask>
      <path fill="#540326" d="M6.96843911,3.11348936 L5.71315854,3.11348936 L5.71315854,1.85917325 C5.71315854,1.12932523 5.12036266,0.536984802 4.38995344,0.536984802 C3.65954423,0.536984802 3.06674835,1.12932523 3.06674835,1.85917325 L3.06674835,3.11348936 L1.81146778,3.11348936 C1.08017643,3.11348936 0.488262681,3.70582979 0.488262681,4.43567781 C0.488262681,5.16552584 1.08017643,5.75786626 1.81146778,5.75786626 L3.06674835,5.75786626 L3.06674835,7.01218237 C3.06674835,7.7420304 3.65954423,8.33437082 4.38995344,8.33437082 C5.12036266,8.33437082 5.71315854,7.7420304 5.71315854,7.01218237 L5.71315854,5.75786626 L6.96843911,5.75786626 C7.69973046,5.75786626 8.2916442,5.16552584 8.2916442,4.43567781 C8.2916442,3.70582979 7.69973046,3.11348936 6.96843911,3.11348936" mask="url(#univercity-b)"/>
    </g>
    <path fill="#540326" d="M77.3162166 192.819766C76.5858074 192.819766 75.9930115 193.412106 75.9930115 194.141954L75.9930115 195.396271 74.7386131 195.396271C74.0073217 195.396271 73.415408 195.988611 73.415408 196.718459 73.415408 197.448307 74.0073217 198.040647 74.7386131 198.040647L75.9930115 198.040647 75.9930115 199.294964C75.9930115 200.024812 76.5858074 200.617152 77.3162166 200.617152 78.047508 200.617152 78.6394217 200.024812 78.6394217 199.294964L78.6394217 198.040647 79.8955844 198.040647C80.6259936 198.040647 81.2187895 197.448307 81.2187895 196.718459 81.2187895 195.988611 80.6259936 195.396271 79.8955844 195.396271L78.6394217 195.396271 78.6394217 194.141954C78.6394217 193.412106 78.047508 192.819766 77.3162166 192.819766M26.4003431 137.442723L26.6641019 137.442723 26.6641019 137.708043C26.6641019 138.437891 27.2568978 139.030231 27.987307 139.030231 28.7185984 139.030231 29.3105121 138.437891 29.3105121 137.708043L29.3105121 137.442723 29.5777996 137.442723C30.3082088 137.442723 30.9010047 136.851264 30.9010047 136.120535 30.9010047 135.389805 30.3082088 134.798347 29.5777996 134.798347L29.3105121 134.798347 29.3105121 134.533027C29.3105121 133.802298 28.7185984 133.210839 27.987307 133.210839 27.2568978 133.210839 26.6641019 133.802298 26.6641019 134.533027L26.6641019 134.798347 26.4003431 134.798347C25.6690517 134.798347 25.077138 135.389805 25.077138 136.120535 25.077138 136.851264 25.6690517 137.442723 26.4003431 137.442723M230.094712 62.2859179C229.363421 62.2859179 228.771507 62.8773769 228.771507 63.6081064L228.771507 63.874307 228.505984 63.874307C227.774692 63.874307 227.182779 64.465766 227.182779 65.1964954 227.182779 65.9263435 227.774692 66.5186839 228.505984 66.5186839L228.771507 66.5186839 228.771507 66.784003C228.771507 67.5138511 229.363421 68.1061915 230.094712 68.1061915 230.825121 68.1061915 231.417917 67.5138511 231.417917 66.784003L231.417917 66.5186839 231.68344 66.5186839C232.414732 66.5186839 233.006645 65.9263435 233.006645 65.1964954 233.006645 64.465766 232.414732 63.874307 231.68344 63.874307L231.417917 63.874307 231.417917 63.6081064C231.417917 62.8773769 230.825121 62.2859179 230.094712 62.2859179M314.088949 300.347055C313.408821 301.098058 312.476403 301.54055 311.46371 301.590793 310.645087 301.632222 308.572066 301.613711 307.225043 301.603134L306.155893 301.596082C304.792992 301.596082 303.684146 300.488088 303.684146 299.126234 303.684146 297.771432 304.787699 296.664319 306.144425 296.658149 306.576672 296.656386 306.981573 296.443073 307.228571 296.086964 307.473805 295.730854 307.52938 295.276021 307.377653 294.871432 307.270914 294.590246 307.217986 294.301128 307.217986 294.012009 307.217986 292.650155 308.327714 291.542161 309.690615 291.542161 310.842686 291.542161 311.829797 292.324897 312.091791 293.446994 312.18618 293.847176 312.459642 294.181249 312.83455 294.350489 314.139231 294.941948 314.993139 296.191857 315.064592 297.61365 315.115756 298.625565 314.769076 299.596052 314.088949 300.347055M314.483264 292.227055C313.749326 290.237602 311.860671 288.897784 309.690615 288.897784 306.867778 288.897784 304.571576 291.19134 304.571576 294.012009 304.571576 294.095748 304.57334 294.179486 304.578633 294.264106 302.526783 294.930489 301.037736 296.861766 301.037736 299.126234 301.037736 301.946021 303.333938 304.240459 306.155893 304.240459L307.202107 304.247511C307.46322 304.250155 307.753443 304.251918 308.053369 304.254562L308.053369 307.905565C308.053369 308.635413 308.646165 309.227754 309.376574 309.227754 310.106984 309.227754 310.699779 308.635413 310.699779 307.905565L310.699779 304.254562C311.061456 304.250155 311.374614 304.243103 311.596913 304.231644 313.315315 304.146143 314.896986 303.396903 316.051703 302.121432 317.205538 300.84596 317.793923 299.198514 317.708356 297.481432 317.598089 295.27514 316.378976 293.313012 314.483264 292.227055"/>
    <mask id="univercity-d" fill="#fff">
      <use xlink:href="#univercity-c"/>
    </mask>
    <rect width="33.962" height="155.137" x="138.989" y="151.258" fill="#FFE1B7" mask="url(#univercity-d)"/>
    <path fill="#540326" d="M39.5362411 236.75459L54.6287185 236.75459 54.6287185 213.960061 39.5362411 213.960061 39.5362411 236.75459zM43.7237442 211.069757L50.4412154 211.069757 50.4412154 205.425775 43.7237442 205.425775 43.7237442 211.069757zM47.0820387 198.040912L49.9569223 198.040912 48.4537613 202.781398 45.7111982 202.781398 44.2080372 198.040912 47.0820387 198.040912zM25.032149 239.398967L38.213036 239.398967 55.9519235 239.398967 68.3926979 239.398967C69.1239892 239.398967 69.715903 238.806626 69.715903 238.076778 69.715903 237.34693 69.1239892 236.75459 68.3926979 236.75459L61.1759373 236.75459 61.1759373 207.714043C61.1759373 206.984195 60.5831414 206.391854 59.8527322 206.391854 59.1214408 206.391854 58.5295271 206.984195 58.5295271 207.714043L58.5295271 236.75459 57.2751286 236.75459 57.2751286 212.637872C57.2751286 211.908024 56.6823328 211.315684 55.9519235 211.315684L53.0876256 211.315684 53.0876256 204.103587C53.0876256 203.373739 52.4957118 202.781398 51.7644205 202.781398L51.2307278 202.781398 53.0267581 197.118024C53.1529037 196.716079 53.0814506 196.277994 52.8318059 195.937751 52.5830434 195.596626 52.1851997 195.396535 51.7644205 195.396535L47.0820387 195.396535 42.4005391 195.396535C41.9788777 195.396535 41.5819162 195.596626 41.3331536 195.937751 41.0835089 196.277994 41.0120559 196.716079 41.1382014 197.118024L42.9342318 202.781398 42.4005391 202.781398C41.6692477 202.781398 41.077334 203.373739 41.077334 204.103587L41.077334 211.315684 38.213036 211.315684C37.4817447 211.315684 36.8898309 211.908024 36.8898309 212.637872L36.8898309 236.75459 34.8962019 236.75459 34.8962019 207.714043C34.8962019 206.984195 34.303406 206.391854 33.5729968 206.391854 32.8425876 206.391854 32.2497917 206.984195 32.2497917 207.714043L32.2497917 236.75459 25.032149 236.75459C24.3008576 236.75459 23.7089439 237.34693 23.7089439 238.076778 23.7089439 238.806626 24.3008576 239.398967 25.032149 239.398967L25.032149 239.398967zM132.449762 187.455207C133.180172 187.455207 133.772967 186.862866 133.772967 186.133018L133.772967 174.316179C133.772967 173.586331 133.180172 172.993991 132.449762 172.993991 131.718471 172.993991 131.126557 173.586331 131.126557 174.316179L131.126557 186.133018C131.126557 186.862866 131.718471 187.455207 132.449762 187.455207M122.101857 192.378155C122.832267 192.378155 123.425062 191.785815 123.425062 191.055967L123.425062 185.148429C123.425062 184.418581 122.832267 183.82624 122.101857 183.82624 121.371448 183.82624 120.778652 184.418581 120.778652 185.148429L120.778652 191.055967C120.778652 191.785815 121.371448 192.378155 122.101857 192.378155M107.196834 230.742246C107.927243 230.742246 108.520039 230.149906 108.520039 229.420058L108.520039 222.116289C108.520039 221.386441 107.927243 220.7941 107.196834 220.7941 106.465543 220.7941 105.873629 221.386441 105.873629 222.116289L105.873629 229.420058C105.873629 230.149906 106.465543 230.742246 107.196834 230.742246M132.449762 208.380426C133.180172 208.380426 133.772967 207.788085 133.772967 207.058237L133.772967 201.150699C133.772967 200.420851 133.180172 199.828511 132.449762 199.828511 131.718471 199.828511 131.126557 200.420851 131.126557 201.150699L131.126557 207.058237C131.126557 207.788085 131.718471 208.380426 132.449762 208.380426M142.673551 155.677906C141.943141 155.677906 141.350346 156.270246 141.350346 157.000094L141.350346 162.909395C141.350346 163.639243 141.943141 164.231584 142.673551 164.231584 143.40396 164.231584 143.996756 163.639243 143.996756 162.909395L143.996756 157.000094C143.996756 156.270246 143.40396 155.677906 142.673551 155.677906M142.673551 168.317058C141.943141 168.317058 141.350346 168.909398 141.350346 169.639246L141.350346 175.546784C141.350346 176.276632 141.943141 176.868973 142.673551 176.868973 143.40396 176.868973 143.996756 176.276632 143.996756 175.546784L143.996756 169.639246C143.996756 168.909398 143.40396 168.317058 142.673551 168.317058M142.673551 180.954447C141.943141 180.954447 141.350346 181.546787 141.350346 182.276635L141.350346 188.184173C141.350346 188.914021 141.943141 189.506362 142.673551 189.506362 143.40396 189.506362 143.996756 188.914021 143.996756 188.184173L143.996756 182.276635C143.996756 181.546787 143.40396 180.954447 142.673551 180.954447M169.528792 164.231672C170.259201 164.231672 170.851997 163.639331 170.851997 162.909483L170.851997 157.000182C170.851997 156.270334 170.259201 155.677994 169.528792 155.677994 168.797501 155.677994 168.205587 156.270334 168.205587 157.000182L168.205587 162.909483C168.205587 163.639331 168.797501 164.231672 169.528792 164.231672M169.528792 176.869149C170.259201 176.869149 170.851997 176.276809 170.851997 175.54696L170.851997 169.639422C170.851997 168.909574 170.259201 168.317234 169.528792 168.317234 168.797501 168.317234 168.205587 168.909574 168.205587 169.639422L168.205587 175.54696C168.205587 176.276809 168.797501 176.869149 169.528792 176.869149M169.528792 189.506538C170.259201 189.506538 170.851997 188.914198 170.851997 188.18435L170.851997 182.276812C170.851997 181.546964 170.259201 180.954623 169.528792 180.954623 168.797501 180.954623 168.205587 181.546964 168.205587 182.276812L168.205587 188.18435C168.205587 188.914198 168.797501 189.506538 169.528792 189.506538M132.449762 220.688942C133.180172 220.688942 133.772967 220.096602 133.772967 219.366754L133.772967 213.459216C133.772967 212.729368 133.180172 212.137027 132.449762 212.137027 131.718471 212.137027 131.126557 212.729368 131.126557 213.459216L131.126557 219.366754C131.126557 220.096602 131.718471 220.688942 132.449762 220.688942M132.449762 232.998429C133.180172 232.998429 133.772967 232.406088 133.772967 231.67624L133.772967 225.767821C133.772967 225.037973 133.180172 224.445632 132.449762 224.445632 131.718471 224.445632 131.126557 225.037973 131.126557 225.767821L131.126557 231.67624C131.126557 232.406088 131.718471 232.998429 132.449762 232.998429M132.449762 245.307827C133.180172 245.307827 133.772967 244.715486 133.772967 243.985638L133.772967 238.077219C133.772967 237.347371 133.180172 236.75503 132.449762 236.75503 131.718471 236.75503 131.126557 237.347371 131.126557 238.077219L131.126557 243.985638C131.126557 244.715486 131.718471 245.307827 132.449762 245.307827M132.449762 257.616432C133.180172 257.616432 133.772967 257.024091 133.772967 256.294243L133.772967 250.385824C133.772967 249.655976 133.180172 249.063635 132.449762 249.063635 131.718471 249.063635 131.126557 249.655976 131.126557 250.385824L131.126557 256.294243C131.126557 257.024091 131.718471 257.616432 132.449762 257.616432M107.196834 254.414267C107.927243 254.414267 108.520039 253.821927 108.520039 253.092079L108.520039 247.18366C108.520039 246.453812 107.927243 245.861471 107.196834 245.861471 106.465543 245.861471 105.873629 246.453812 105.873629 247.18366L105.873629 253.092079C105.873629 253.821927 106.465543 254.414267 107.196834 254.414267M107.196834 266.722872C107.927243 266.722872 108.520039 266.130532 108.520039 265.400684L108.520039 259.493146C108.520039 258.763298 107.927243 258.170957 107.196834 258.170957 106.465543 258.170957 105.873629 258.763298 105.873629 259.493146L105.873629 265.400684C105.873629 266.130532 106.465543 266.722872 107.196834 266.722872M107.196834 279.032271C107.927243 279.032271 108.520039 278.43993 108.520039 277.710082L108.520039 271.802544C108.520039 271.072696 107.927243 270.480356 107.196834 270.480356 106.465543 270.480356 105.873629 271.072696 105.873629 271.802544L105.873629 277.710082C105.873629 278.43993 106.465543 279.032271 107.196834 279.032271M107.196834 291.340875C107.927243 291.340875 108.520039 290.748535 108.520039 290.018687L108.520039 284.111149C108.520039 283.381301 107.927243 282.78896 107.196834 282.78896 106.465543 282.78896 105.873629 283.381301 105.873629 284.111149L105.873629 290.018687C105.873629 290.748535 106.465543 291.340875 107.196834 291.340875M107.196834 303.651155C107.927243 303.651155 108.520039 303.058815 108.520039 302.328967L108.520039 296.419666C108.520039 295.689818 107.927243 295.097477 107.196834 295.097477 106.465543 295.097477 105.873629 295.689818 105.873629 296.419666L105.873629 302.328967C105.873629 303.058815 106.465543 303.651155 107.196834 303.651155M59.9249792 247.183571L59.9249792 253.091991C59.9249792 253.821839 60.5177751 254.414179 61.2481843 254.414179 61.9794756 254.414179 62.5713894 253.821839 62.5713894 253.091991L62.5713894 247.183571C62.5713894 246.453723 61.9794756 245.861383 61.2481843 245.861383 60.5177751 245.861383 59.9249792 246.453723 59.9249792 247.183571M61.2481843 258.170781C60.5177751 258.170781 59.9249792 258.763122 59.9249792 259.49297L59.9249792 265.400508C59.9249792 266.130356 60.5177751 266.722696 61.2481843 266.722696 61.9794756 266.722696 62.5713894 266.130356 62.5713894 265.400508L62.5713894 259.49297C62.5713894 258.763122 61.9794756 258.170781 61.2481843 258.170781M61.2481843 270.480267C60.5177751 270.480267 59.9249792 271.072608 59.9249792 271.802456L59.9249792 277.709994C59.9249792 278.439842 60.5177751 279.032182 61.2481843 279.032182 61.9794756 279.032182 62.5713894 278.439842 62.5713894 277.709994L62.5713894 271.802456C62.5713894 271.072608 61.9794756 270.480267 61.2481843 270.480267M61.2481843 282.788784C60.5177751 282.788784 59.9249792 283.381125 59.9249792 284.110973L59.9249792 290.018511C59.9249792 290.748359 60.5177751 291.340699 61.2481843 291.340699 61.9794756 291.340699 62.5713894 290.748359 62.5713894 290.018511L62.5713894 284.110973C62.5713894 283.381125 61.9794756 282.788784 61.2481843 282.788784M61.2481843 295.097389C60.5177751 295.097389 59.9249792 295.689729 59.9249792 296.419578L59.9249792 302.328878C59.9249792 303.058726 60.5177751 303.651067 61.2481843 303.651067 61.9794756 303.651067 62.5713894 303.058726 62.5713894 302.328878L62.5713894 296.419578C62.5713894 295.689729 61.9794756 295.097389 61.2481843 295.097389M33.1619211 254.662134C33.8932124 254.662134 34.4851262 254.069793 34.4851262 253.339945L34.4851262 247.431526C34.4851262 246.701678 33.8932124 246.109337 33.1619211 246.109337 32.4306297 246.109337 31.838716 246.701678 31.838716 247.431526L31.838716 253.339945C31.838716 254.069793 32.4306297 254.662134 33.1619211 254.662134M33.1619211 266.97162C33.8932124 266.97162 34.4851262 266.37928 34.4851262 265.649432L34.4851262 259.741012C34.4851262 259.011164 33.8932124 258.418824 33.1619211 258.418824 32.4306297 258.418824 31.838716 259.011164 31.838716 259.741012L31.838716 265.649432C31.838716 266.37928 32.4306297 266.97162 33.1619211 266.97162M33.1619211 279.280137C33.8932124 279.280137 34.4851262 278.687796 34.4851262 277.957948L34.4851262 272.05041C34.4851262 271.320562 33.8932124 270.728222 33.1619211 270.728222 32.4306297 270.728222 31.838716 271.320562 31.838716 272.05041L31.838716 277.957948C31.838716 278.687796 32.4306297 279.280137 33.1619211 279.280137M33.1619211 291.590505C33.8932124 291.590505 34.4851262 290.998164 34.4851262 290.268316L34.4851262 284.359015C34.4851262 283.629167 33.8932124 283.036827 33.1619211 283.036827 32.4306297 283.036827 31.838716 283.629167 31.838716 284.359015L31.838716 290.268316C31.838716 290.998164 32.4306297 291.590505 33.1619211 291.590505M33.1619211 303.899021C33.8932124 303.899021 34.4851262 303.306681 34.4851262 302.576833L34.4851262 296.668413C34.4851262 295.938565 33.8932124 295.346225 33.1619211 295.346225 32.4306297 295.346225 31.838716 295.938565 31.838716 296.668413L31.838716 302.576833C31.838716 303.306681 32.4306297 303.899021 33.1619211 303.899021M132.449762 269.92583C133.180172 269.92583 133.772967 269.333489 133.772967 268.603641L133.772967 262.695222C133.772967 261.965374 133.180172 261.373033 132.449762 261.373033 131.718471 261.373033 131.126557 261.965374 131.126557 262.695222L131.126557 268.603641C131.126557 269.333489 131.718471 269.92583 132.449762 269.92583M132.449762 282.234435C133.180172 282.234435 133.772967 281.642094 133.772967 280.912246L133.772967 275.004708C133.772967 274.27486 133.180172 273.68252 132.449762 273.68252 131.718471 273.68252 131.126557 274.27486 131.126557 275.004708L131.126557 280.912246C131.126557 281.642094 131.718471 282.234435 132.449762 282.234435M132.449762 294.543921C133.180172 294.543921 133.772967 293.951581 133.772967 293.221733L133.772967 287.313313C133.772967 286.583465 133.180172 285.991125 132.449762 285.991125 131.718471 285.991125 131.126557 286.583465 131.126557 287.313313L131.126557 293.221733C131.126557 293.951581 131.718471 294.543921 132.449762 294.543921M144.521362 198.842775C143.790071 198.842775 143.198157 199.435116 143.198157 200.164964L143.198157 277.958125C143.198157 278.687973 143.790071 279.280313 144.521362 279.280313 145.252654 279.280313 145.844568 278.687973 145.844568 277.958125L145.844568 200.164964C145.844568 199.435116 145.252654 198.842775 144.521362 198.842775M152.159079 198.842775C151.427787 198.842775 150.835874 199.435116 150.835874 200.164964L150.835874 277.958125C150.835874 278.687973 151.427787 279.280313 152.159079 279.280313 152.89037 279.280313 153.482284 278.687973 153.482284 277.958125L153.482284 200.164964C153.482284 199.435116 152.89037 198.842775 152.159079 198.842775M179.75258 187.455207C180.482989 187.455207 181.075785 186.862866 181.075785 186.133018L181.075785 174.316179C181.075785 173.586331 180.482989 172.993991 179.75258 172.993991 179.022171 172.993991 178.429375 173.586331 178.429375 174.316179L178.429375 186.133018C178.429375 186.862866 179.022171 187.455207 179.75258 187.455207M190.100485 192.378155C190.830894 192.378155 191.42369 191.785815 191.42369 191.055967L191.42369 185.148429C191.42369 184.418581 190.830894 183.82624 190.100485 183.82624 189.370076 183.82624 188.77728 184.418581 188.77728 185.148429L188.77728 191.055967C188.77728 191.785815 189.370076 192.378155 190.100485 192.378155M179.75258 208.380426C180.482989 208.380426 181.075785 207.788085 181.075785 207.058237L181.075785 201.150699C181.075785 200.420851 180.482989 199.828511 179.75258 199.828511 179.022171 199.828511 178.429375 200.420851 178.429375 201.150699L178.429375 207.058237C178.429375 207.788085 179.022171 208.380426 179.75258 208.380426M179.75258 220.688942C180.482989 220.688942 181.075785 220.096602 181.075785 219.366754L181.075785 213.459216C181.075785 212.729368 180.482989 212.137027 179.75258 212.137027 179.022171 212.137027 178.429375 212.729368 178.429375 213.459216L178.429375 219.366754C178.429375 220.096602 179.022171 220.688942 179.75258 220.688942M179.75258 232.998429C180.482989 232.998429 181.075785 232.406088 181.075785 231.67624L181.075785 225.767821C181.075785 225.037973 180.482989 224.445632 179.75258 224.445632 179.022171 224.445632 178.429375 225.037973 178.429375 225.767821L178.429375 231.67624C178.429375 232.406088 179.022171 232.998429 179.75258 232.998429M179.75258 245.307827C180.482989 245.307827 181.075785 244.715486 181.075785 243.985638L181.075785 238.077219C181.075785 237.347371 180.482989 236.75503 179.75258 236.75503 179.022171 236.75503 178.429375 237.347371 178.429375 238.077219L178.429375 243.985638C178.429375 244.715486 179.022171 245.307827 179.75258 245.307827M179.75258 257.616432C180.482989 257.616432 181.075785 257.024091 181.075785 256.294243L181.075785 250.385824C181.075785 249.655976 180.482989 249.063635 179.75258 249.063635 179.022171 249.063635 178.429375 249.655976 178.429375 250.385824L178.429375 256.294243C178.429375 257.024091 179.022171 257.616432 179.75258 257.616432M179.75258 269.92583C180.482989 269.92583 181.075785 269.333489 181.075785 268.603641L181.075785 262.695222C181.075785 261.965374 180.482989 261.373033 179.75258 261.373033 179.022171 261.373033 178.429375 261.965374 178.429375 262.695222L178.429375 268.603641C178.429375 269.333489 179.022171 269.92583 179.75258 269.92583M179.75258 282.234435C180.482989 282.234435 181.075785 281.642094 181.075785 280.912246L181.075785 275.004708C181.075785 274.27486 180.482989 273.68252 179.75258 273.68252 179.022171 273.68252 178.429375 274.27486 178.429375 275.004708L178.429375 280.912246C178.429375 281.642094 179.022171 282.234435 179.75258 282.234435M179.75258 294.543921C180.482989 294.543921 181.075785 293.951581 181.075785 293.221733L181.075785 287.313313C181.075785 286.583465 180.482989 285.991125 179.75258 285.991125 179.022171 285.991125 178.429375 286.583465 178.429375 287.313313L178.429375 293.221733C178.429375 293.951581 179.022171 294.543921 179.75258 294.543921M167.680098 279.280137C168.411389 279.280137 169.003303 278.687796 169.003303 277.957948L169.003303 200.164787C169.003303 199.434939 168.411389 198.842599 167.680098 198.842599 166.949689 198.842599 166.356893 199.434939 166.356893 200.164787L166.356893 277.957948C166.356893 278.687796 166.949689 279.280137 167.680098 279.280137M160.042382 198.842775C159.311973 198.842775 158.719177 199.435116 158.719177 200.164964L158.719177 277.958125C158.719177 278.687973 159.311973 279.280313 160.042382 279.280313 160.773673 279.280313 161.365587 278.687973 161.365587 277.958125L161.365587 200.164964C161.365587 199.435116 160.773673 198.842775 160.042382 198.842775M73.6489096 304.14865C74.3802009 304.14865 74.9721147 303.55631 74.9721147 302.826462L74.9721147 247.348316C74.9721147 246.617587 74.3802009 246.026128 73.6489096 246.026128 72.9176182 246.026128 72.3257045 246.617587 72.3257045 247.348316L72.3257045 302.826462C72.3257045 303.55631 72.9176182 304.14865 73.6489096 304.14865M81.2858319 304.14865C82.0171233 304.14865 82.609037 303.55631 82.609037 302.826462L82.609037 247.348316C82.609037 246.617587 82.0171233 246.026128 81.2858319 246.026128 80.5554227 246.026128 79.9626268 246.617587 79.9626268 247.348316L79.9626268 302.826462C79.9626268 303.55631 80.5554227 304.14865 81.2858319 304.14865M96.8076452 304.14865C97.5380544 304.14865 98.1308503 303.55631 98.1308503 302.826462L98.1308503 247.348316C98.1308503 246.617587 97.5380544 246.026128 96.8076452 246.026128 96.077236 246.026128 95.4844401 246.617587 95.4844401 247.348316L95.4844401 302.826462C95.4844401 303.55631 96.077236 304.14865 96.8076452 304.14865M89.1699289 304.14865C89.9012203 304.14865 90.493134 303.55631 90.493134 302.826462L90.493134 247.348316C90.493134 246.617587 89.9012203 246.026128 89.1699289 246.026128 88.4395197 246.026128 87.8467238 246.617587 87.8467238 247.348316L87.8467238 302.826462C87.8467238 303.55631 88.4395197 304.14865 89.1699289 304.14865M152.159079 163.884818C151.427787 163.884818 150.835874 164.477158 150.835874 165.207006L150.835874 189.743298C150.835874 190.473146 151.427787 191.065486 152.159079 191.065486 152.89037 191.065486 153.482284 190.473146 153.482284 189.743298L153.482284 165.207006C153.482284 164.477158 152.89037 163.884818 152.159079 163.884818M158.719177 165.207006L158.719177 189.743298C158.719177 190.473146 159.311973 191.065486 160.042382 191.065486 160.773673 191.065486 161.365587 190.473146 161.365587 189.743298L161.365587 165.207006C161.365587 164.477158 160.773673 163.884818 160.042382 163.884818 159.311973 163.884818 158.719177 164.477158 158.719177 165.207006M156.100289 157.01217C156.820113 157.01217 157.405852 157.596578 157.405852 158.315848 157.405852 159.033356 156.820113 159.617763 156.100289 159.617763 155.38223 159.617763 154.797373 159.033356 154.797373 158.315848 154.797373 157.596578 155.38223 157.01217 156.100289 157.01217M156.100289 162.26214C158.280049 162.26214 160.052262 160.491289 160.052262 158.315848 160.052262 156.138644 158.280049 154.367793 156.100289 154.367793 153.922294 154.367793 152.150963 156.138644 152.150963 158.315848 152.150963 160.491289 153.922294 162.26214 156.100289 162.26214M148.957011 115.939091L163.244979 115.939091C163.976271 115.939091 164.568184 115.347632 164.568184 114.616903 164.568184 113.887055 163.976271 113.294714 163.244979 113.294714L148.957011 113.294714C148.225719 113.294714 147.633805 113.887055 147.633805 114.616903 147.633805 115.347632 148.225719 115.939091 148.957011 115.939091M153.660652 101.784094L156.100642 101.784094C156.14916 101.784094 156.195031 101.77528 156.242666 101.769109 156.289419 101.77528 156.33529 101.784094 156.38469 101.784094L158.82468 101.784094C157.99459 103.091298 157.280941 104.776647 157.691135 106.33683 157.996354 107.495948 158.784984 108.644489 159.615075 109.602635L156.38469 109.602635C156.33529 109.602635 156.289419 109.61145 156.242666 109.616739 156.195031 109.61145 156.14916 109.602635 156.100642 109.602635L152.870257 109.602635C153.700348 108.644489 154.488096 107.495948 154.794198 106.337711 155.204391 104.777529 154.490742 103.091298 153.660652 101.784094L153.660652 101.784094zM156.38469 77.6532736L158.738231 99.1397173 156.38469 99.1397173C156.33529 99.1397173 156.289419 99.1485319 156.242666 99.1547021 156.195031 99.1485319 156.14916 99.1397173 156.100642 99.1397173L154.029385 99.1397173 156.38469 77.6532736zM155.068542 61.8161003C155.641931 61.8161003 156.14916 61.4476505 156.326469 60.9029088L156.38469 60.726617 156.441147 60.9029088C156.619338 61.4476505 157.126567 61.8161003 157.699074 61.8161003L157.885205 61.8161003 157.735241 61.9254012C157.27212 62.2621185 157.077167 62.8588663 157.254477 63.4036079L157.311816 63.5790182 157.161852 63.4705988C156.697849 63.1338815 156.068885 63.1338815 155.605763 63.4705988L155.4558 63.5790182 155.514021 63.4036079C155.690448 62.8588663 155.496378 62.2621185 155.033257 61.9254012L154.883293 61.8161003 155.068542 61.8161003zM149.571948 112.247012L156.100642 112.247012C156.14916 112.247012 156.195031 112.237316 156.242666 112.232909 156.289419 112.237316 156.33529 112.247012 156.38469 112.247012L162.912502 112.247012C163.477951 112.247012 163.979005 111.888258 164.163372 111.354094 164.347738 110.820812 164.171311 110.228471 163.725832 109.882058 162.574643 108.983851 160.614536 107.045523 160.251095 105.664277 159.964401 104.577438 161.420809 102.474277 162.493487 101.397134 162.871041 101.018988 162.984837 100.449565 162.780181 99.9559483 162.574643 99.4614498 162.092997 99.1397173 161.55754 99.1397173L161.399637 99.1397173 157.909904 67.2820274 159.050507 68.1105988C159.515393 68.4473161 160.142593 68.4473161 160.606596 68.1105988 161.069718 67.7738815 161.263788 67.1771337 161.087361 66.6323921L160.068493 63.4996869 162.735192 61.564003C163.199196 61.2272857 163.392384 60.630538 163.215957 60.0857964 163.038647 59.5410547 162.530537 59.1717234 161.956266 59.1717234L158.660603 59.1717234 157.642617 56.0398997C157.465308 55.4942766 156.957197 55.1258267 156.38469 55.1258267 155.811301 55.1258267 155.302308 55.4942766 155.124999 56.0398997L154.107013 59.1717234 150.81135 59.1717234C150.237079 59.1717234 149.729851 59.5410547 149.552541 60.0857964 149.376114 60.630538 149.569302 61.2272857 150.033306 61.564003L152.699123 63.4996869 151.681137 66.6323921C151.503827 67.1771337 151.697898 67.7738815 152.161901 68.1105988 152.393903 68.2789574 152.666484 68.362696 152.939946 68.362696 153.212526 68.362696 153.485989 68.2789574 153.717109 68.1105988L154.857711 67.2820274 151.367096 99.1397173 150.927792 99.1397173C150.393217 99.1397173 149.911571 99.4614498 149.706915 99.9550669 149.501377 100.447802 149.613408 101.016343 149.990963 101.395371 151.064523 102.474277 152.520931 104.577438 152.234237 105.664277 151.870796 107.045523 149.909806 108.983851 148.758618 109.882058 148.313139 110.228471 148.136712 110.820812 148.321078 111.354094 148.505445 111.888258 149.007381 112.247012 149.571948 112.247012L149.571948 112.247012z" mask="url(#univercity-d)"/>
    <path fill="#540326" d="M47.0823034,226.251477 C45.2298162,226.251477 43.7231267,224.745945 43.7231267,222.894881 C43.7231267,221.044699 45.2298162,219.539167 47.0823034,219.539167 C48.9347905,219.539167 50.44148,221.044699 50.44148,222.894881 C50.44148,224.745945 48.9347905,226.251477 47.0823034,226.251477 M47.0823034,216.89479 C43.7707621,216.89479 41.0767165,219.585884 41.0767165,222.894881 C41.0767165,226.203878 43.7707621,228.895854 47.0823034,228.895854 C50.3938446,228.895854 53.0878902,226.203878 53.0878902,222.894881 C53.0878902,219.585884 50.3938446,216.89479 47.0823034,216.89479" mask="url(#univercity-d)"/>
    <path fill="#540326" d="M275.312864,305.927964 L282.890419,305.927964 L282.890419,243.584134 L275.312864,243.584134 L275.312864,305.927964 Z M257.573977,305.927964 L272.666454,305.927964 L272.666454,243.584134 L257.573977,243.584134 L257.573977,305.927964 Z M254.927567,305.927964 L247.350012,305.927964 L247.350012,243.584134 L250.954423,243.584134 L254.927567,243.584134 L254.927567,305.927964 Z M210.640774,305.927964 L244.703602,305.927964 L244.703602,243.584134 L210.640774,243.584134 L210.640774,305.927964 Z M202.017888,305.927964 L207.994364,305.927964 L207.994364,243.584134 L202.017888,243.584134 L202.017888,305.927964 Z M205.005685,235.706535 L207.880568,235.706535 L206.221269,240.939757 L203.7901,240.939757 L202.130801,235.706535 L205.005685,235.706535 Z M191.423426,305.927964 L199.370595,305.927964 L199.370595,243.584134 L191.423426,243.584134 L191.423426,305.927964 Z M175.162999,305.927964 L184.342514,305.927964 L184.342514,197.055441 L175.162999,197.055441 L175.162999,305.927964 Z M166.540113,194.411064 L172.516589,194.411064 L172.516589,152.989544 L166.540113,152.989544 L166.540113,194.411064 Z M172.516589,281.56003 L156.100025,281.56003 L139.686106,281.56003 L139.686106,197.055441 L146.985788,197.055441 L156.100025,197.055441 L165.216025,197.055441 L172.516589,197.055441 L172.516589,281.56003 Z M172.516589,286.975714 L156.100025,286.975714 L139.686106,286.975714 L139.686106,284.204407 L156.100025,284.204407 L172.516589,284.204407 L172.516589,286.975714 Z M172.516589,305.927964 L139.686106,305.927964 L139.686106,289.620091 L156.100025,289.620091 L172.516589,289.620091 L172.516589,305.927964 Z M139.686106,194.411064 L145.662583,194.411064 L145.662583,152.989544 L139.686106,152.989544 L139.686106,194.411064 Z M148.308993,152.989544 L163.89282,152.989544 L163.89282,194.411064 L156.100025,194.411064 L148.308993,194.411064 L148.308993,152.989544 Z M150.280568,119.631611 L154.776819,119.631611 L154.776819,150.345167 L153.87704,150.345167 L153.87704,143.544711 C153.87704,142.814863 153.285126,142.222523 152.553835,142.222523 C151.822543,142.222523 151.23063,142.814863 151.23063,143.544711 L151.23063,150.345167 L150.280568,150.345167 L150.280568,119.631611 Z M157.42323,119.631611 L161.922127,119.631611 L161.922127,150.345167 L160.971184,150.345167 L160.971184,143.544711 C160.971184,142.814863 160.37927,142.222523 159.647978,142.222523 C158.917569,142.222523 158.324773,142.814863 158.324773,143.544711 L158.324773,150.345167 L157.42323,150.345167 L157.42323,119.631611 Z M127.860181,305.927964 L137.039696,305.927964 L137.039696,197.055441 L127.860181,197.055441 L127.860181,305.927964 Z M112.830336,305.927964 L120.778388,305.927964 L120.778388,243.584134 L112.830336,243.584134 L112.830336,305.927964 Z M104.208331,305.927964 L110.183926,305.927964 L110.183926,243.584134 L104.208331,243.584134 L104.208331,305.927964 Z M107.197011,235.706535 L110.071894,235.706535 L108.411713,240.939757 L105.980544,240.939757 L104.321245,235.706535 L107.197011,235.706535 Z M67.4990934,305.927964 L101.561921,305.927964 L101.561921,243.584134 L67.4990934,243.584134 L67.4990934,305.927964 Z M64.8526832,305.927964 L57.2751286,305.927964 L57.2751286,243.584134 L61.2482725,243.584134 L64.8526832,243.584134 L64.8526832,305.927964 Z M39.5362411,305.927964 L54.6287185,305.927964 L54.6287185,243.584134 L39.5362411,243.584134 L39.5362411,305.927964 Z M29.3122764,305.927964 L36.8898309,305.927964 L36.8898309,243.584134 L29.3122764,243.584134 L29.3122764,305.927964 Z M284.213624,240.939757 L273.989659,240.939757 L256.250772,240.939757 L250.954423,240.939757 L246.026807,240.939757 L209.317569,240.939757 L210.949522,234.783647 C211.077432,234.381702 211.004215,233.943617 210.755452,233.603374 C210.50669,233.262249 210.109728,233.062158 209.688067,233.062158 L205.005685,233.062158 L200.323303,233.062158 C199.902524,233.062158 199.50468,233.262249 199.255918,233.603374 C199.006273,233.943617 198.93482,234.381702 199.060965,234.783647 L201.013134,240.939757 L191.423426,240.939757 L191.423426,197.055441 L192.317912,197.055441 C193.048321,197.055441 193.641117,196.4631 193.641117,195.733252 C193.641117,195.003404 193.048321,194.411064 192.317912,194.411064 L185.665719,194.411064 L175.162999,194.411064 L175.162999,192.378419 L185.665719,192.378419 C186.396128,192.378419 186.988924,191.786079 186.988924,191.056231 C186.988924,190.326383 186.396128,189.734043 185.665719,189.734043 L175.162999,189.734043 L175.162999,151.667356 L175.162999,143.544711 C175.162999,142.814863 174.570203,142.222523 173.839794,142.222523 C173.109385,142.222523 172.516589,142.814863 172.516589,143.544711 L172.516589,150.345167 L168.067974,150.345167 L168.067974,143.544711 C168.067974,142.814863 167.475178,142.222523 166.744768,142.222523 C166.013477,142.222523 165.421563,142.814863 165.421563,143.544711 L165.421563,150.345167 L164.568537,150.345167 L164.568537,118.309422 C164.568537,117.579574 163.976623,116.987234 163.245332,116.987234 L148.957363,116.987234 C148.22519,116.987234 147.634158,117.579574 147.634158,118.309422 L147.634158,150.345167 L146.781132,150.345167 L146.781132,143.544711 C146.781132,142.814863 146.188336,142.222523 145.457927,142.222523 C144.727518,142.222523 144.134722,142.814863 144.134722,143.544711 L144.134722,150.345167 L139.686106,150.345167 L139.686106,143.544711 C139.686106,142.814863 139.09331,142.222523 138.362901,142.222523 C137.63161,142.222523 137.039696,142.814863 137.039696,143.544711 L137.039696,151.667356 L137.039696,189.734043 L126.536976,189.734043 C125.805685,189.734043 125.213771,190.326383 125.213771,191.056231 C125.213771,191.786079 125.805685,192.378419 126.536976,192.378419 L137.039696,192.378419 L137.039696,194.411064 L126.536976,194.411064 L119.884783,194.411064 C119.153492,194.411064 118.561578,195.003404 118.561578,195.733252 C118.561578,196.4631 119.153492,197.055441 119.884783,197.055441 L120.778388,197.055441 L120.778388,240.939757 L111.507131,240.939757 L113.140848,234.783647 C113.267876,234.381702 113.196422,233.943617 112.945896,233.603374 C112.697133,233.262249 112.300172,233.062158 111.87851,233.062158 L107.197011,233.062158 L102.514629,233.062158 C102.09385,233.062158 101.696888,233.262249 101.447243,233.603374 C101.197599,233.943617 101.126146,234.381702 101.252291,234.783647 L103.20446,240.939757 L66.1758883,240.939757 L61.2482725,240.939757 L55.9519235,240.939757 L38.213036,240.939757 L27.9890713,240.939757 L25.032149,240.939757 C24.3008576,240.939757 23.7089439,241.532097 23.7089439,242.261945 C23.7089439,242.992675 24.3008576,243.584134 25.032149,243.584134 L26.6658662,243.584134 L26.6658662,307.250152 C26.6658662,307.98 27.25778,308.57234 27.9890713,308.57234 L38.213036,308.57234 L55.9519235,308.57234 L66.1758883,308.57234 L102.885126,308.57234 L111.507131,308.57234 L122.101593,308.57234 C122.832002,308.57234 123.424798,307.98 123.424798,307.250152 L123.424798,242.261945 L123.424798,197.055441 L125.213771,197.055441 L125.213771,307.250152 C125.213771,307.98 125.805685,308.57234 126.536976,308.57234 L138.362901,308.57234 L173.839794,308.57234 L185.665719,308.57234 C186.396128,308.57234 186.988924,307.98 186.988924,307.250152 L186.988924,197.055441 L188.777015,197.055441 L188.777015,242.261945 L188.777015,307.250152 C188.777015,307.98 189.369811,308.57234 190.100221,308.57234 L200.693801,308.57234 L209.317569,308.57234 L246.026807,308.57234 L256.250772,308.57234 L273.989659,308.57234 L284.213624,308.57234 C284.944915,308.57234 285.536829,307.98 285.536829,307.250152 L285.536829,243.584134 L287.169664,243.584134 C287.900956,243.584134 288.492869,242.992675 288.492869,242.261945 C288.492869,241.532097 287.900956,240.939757 287.169664,240.939757 L284.213624,240.939757 Z" mask="url(#univercity-d)"/>
    <path fill="#540326" d="M257.573977 236.75459L272.666454 236.75459 272.666454 213.960061 257.573977 213.960061 257.573977 236.75459zM261.76148 211.069757L268.478951 211.069757 268.478951 205.425775 261.76148 205.425775 261.76148 211.069757zM265.119775 198.040912L267.994658 198.040912 266.491497 202.781398 263.748934 202.781398 262.245773 198.040912 265.119775 198.040912zM287.169664 236.75459L279.952904 236.75459 279.952904 207.714043C279.952904 206.984195 279.360108 206.391854 278.629699 206.391854 277.898407 206.391854 277.306494 206.984195 277.306494 207.714043L277.306494 236.75459 275.312864 236.75459 275.312864 212.637872C275.312864 211.908024 274.720069 211.315684 273.989659 211.315684L271.125361 211.315684 271.125361 204.103587C271.125361 203.373739 270.533448 202.781398 269.802156 202.781398L269.267581 202.781398 271.064494 197.118024C271.19064 196.716079 271.119186 196.277994 270.869542 195.937751 270.620779 195.596626 270.222936 195.396535 269.802156 195.396535L265.119775 195.396535 260.438275 195.396535C260.016614 195.396535 259.619652 195.596626 259.370889 195.937751 259.121245 196.277994 259.04891 196.716079 259.175937 197.118024L260.971968 202.781398 260.438275 202.781398C259.706984 202.781398 259.11507 203.373739 259.11507 204.103587L259.11507 211.315684 256.250772 211.315684C255.519481 211.315684 254.927567 211.908024 254.927567 212.637872L254.927567 236.75459 253.673168 236.75459 253.673168 207.714043C253.673168 206.984195 253.081255 206.391854 252.349963 206.391854 251.619554 206.391854 251.026758 206.984195 251.026758 207.714043L251.026758 236.75459 243.809115 236.75459C243.077824 236.75459 242.48591 237.34693 242.48591 238.076778 242.48591 238.806626 243.077824 239.398967 243.809115 239.398967L256.250772 239.398967 273.989659 239.398967 287.169664 239.398967C287.900956 239.398967 288.492869 238.806626 288.492869 238.076778 288.492869 237.34693 287.900956 236.75459 287.169664 236.75459L287.169664 236.75459zM205.005508 230.742246C205.735918 230.742246 206.328714 230.149906 206.328714 229.420058L206.328714 222.116289C206.328714 221.386441 205.735918 220.7941 205.005508 220.7941 204.275099 220.7941 203.682303 221.386441 203.682303 222.116289L203.682303 229.420058C203.682303 230.149906 204.275099 230.742246 205.005508 230.742246M205.005508 254.414267C205.735918 254.414267 206.328714 253.821927 206.328714 253.092079L206.328714 247.18366C206.328714 246.453812 205.735918 245.861471 205.005508 245.861471 204.275099 245.861471 203.682303 246.453812 203.682303 247.18366L203.682303 253.092079C203.682303 253.821927 204.275099 254.414267 205.005508 254.414267M205.005508 266.722872C205.735918 266.722872 206.328714 266.130532 206.328714 265.400684L206.328714 259.493146C206.328714 258.763298 205.735918 258.170957 205.005508 258.170957 204.275099 258.170957 203.682303 258.763298 203.682303 259.493146L203.682303 265.400684C203.682303 266.130532 204.275099 266.722872 205.005508 266.722872M205.005508 279.032271C205.735918 279.032271 206.328714 278.43993 206.328714 277.710082L206.328714 271.802544C206.328714 271.072696 205.735918 270.480356 205.005508 270.480356 204.275099 270.480356 203.682303 271.072696 203.682303 271.802544L203.682303 277.710082C203.682303 278.43993 204.275099 279.032271 205.005508 279.032271M205.005508 291.340875C205.735918 291.340875 206.328714 290.748535 206.328714 290.018687L206.328714 284.111149C206.328714 283.381301 205.735918 282.78896 205.005508 282.78896 204.275099 282.78896 203.682303 283.381301 203.682303 284.111149L203.682303 290.018687C203.682303 290.748535 204.275099 291.340875 205.005508 291.340875M205.005508 303.651155C205.735918 303.651155 206.328714 303.058815 206.328714 302.328967L206.328714 296.419666C206.328714 295.689818 205.735918 295.097477 205.005508 295.097477 204.275099 295.097477 203.682303 295.689818 203.682303 296.419666L203.682303 302.328967C203.682303 303.058815 204.275099 303.651155 205.005508 303.651155M249.630865 247.183571L249.630865 253.091991C249.630865 253.821839 250.222779 254.414179 250.95407 254.414179 251.684479 254.414179 252.277275 253.821839 252.277275 253.091991L252.277275 247.183571C252.277275 246.453723 251.684479 245.861383 250.95407 245.861383 250.222779 245.861383 249.630865 246.453723 249.630865 247.183571M250.95407 258.170781C250.222779 258.170781 249.630865 258.763122 249.630865 259.49297L249.630865 265.400508C249.630865 266.130356 250.222779 266.722696 250.95407 266.722696 251.684479 266.722696 252.277275 266.130356 252.277275 265.400508L252.277275 259.49297C252.277275 258.763122 251.684479 258.170781 250.95407 258.170781M250.95407 270.480267C250.222779 270.480267 249.630865 271.072608 249.630865 271.802456L249.630865 277.709994C249.630865 278.439842 250.222779 279.032182 250.95407 279.032182 251.684479 279.032182 252.277275 278.439842 252.277275 277.709994L252.277275 271.802456C252.277275 271.072608 251.684479 270.480267 250.95407 270.480267M250.95407 282.788784C250.222779 282.788784 249.630865 283.381125 249.630865 284.110973L249.630865 290.018511C249.630865 290.748359 250.222779 291.340699 250.95407 291.340699 251.684479 291.340699 252.277275 290.748359 252.277275 290.018511L252.277275 284.110973C252.277275 283.381125 251.684479 282.788784 250.95407 282.788784M250.95407 295.097389C250.222779 295.097389 249.630865 295.689729 249.630865 296.419578L249.630865 302.328878C249.630865 303.058726 250.222779 303.651067 250.95407 303.651067 251.684479 303.651067 252.277275 303.058726 252.277275 302.328878L252.277275 296.419578C252.277275 295.689729 251.684479 295.097389 250.95407 295.097389M279.039451 254.662134C279.770742 254.662134 280.362656 254.069793 280.362656 253.339945L280.362656 247.431526C280.362656 246.701678 279.770742 246.109337 279.039451 246.109337 278.309042 246.109337 277.716246 246.701678 277.716246 247.431526L277.716246 253.339945C277.716246 254.069793 278.309042 254.662134 279.039451 254.662134M279.039451 266.97162C279.770742 266.97162 280.362656 266.37928 280.362656 265.649432L280.362656 259.741012C280.362656 259.011164 279.770742 258.418824 279.039451 258.418824 278.309042 258.418824 277.716246 259.011164 277.716246 259.741012L277.716246 265.649432C277.716246 266.37928 278.309042 266.97162 279.039451 266.97162M279.039451 279.280137C279.770742 279.280137 280.362656 278.687796 280.362656 277.957948L280.362656 272.05041C280.362656 271.320562 279.770742 270.728222 279.039451 270.728222 278.309042 270.728222 277.716246 271.320562 277.716246 272.05041L277.716246 277.957948C277.716246 278.687796 278.309042 279.280137 279.039451 279.280137M279.039451 291.590505C279.770742 291.590505 280.362656 290.998164 280.362656 290.268316L280.362656 284.359015C280.362656 283.629167 279.770742 283.036827 279.039451 283.036827 278.309042 283.036827 277.716246 283.629167 277.716246 284.359015L277.716246 290.268316C277.716246 290.998164 278.309042 291.590505 279.039451 291.590505M279.039451 303.899021C279.770742 303.899021 280.362656 303.306681 280.362656 302.576833L280.362656 296.668413C280.362656 295.938565 279.770742 295.346225 279.039451 295.346225 278.309042 295.346225 277.716246 295.938565 277.716246 296.668413L277.716246 302.576833C277.716246 303.306681 278.309042 303.899021 279.039451 303.899021M238.553345 304.14865C239.284636 304.14865 239.87655 303.55631 239.87655 302.826462L239.87655 247.348316C239.87655 246.617587 239.284636 246.026128 238.553345 246.026128 237.822053 246.026128 237.23014 246.617587 237.23014 247.348316L237.23014 302.826462C237.23014 303.55631 237.822053 304.14865 238.553345 304.14865M230.916511 304.14865C231.64692 304.14865 232.239716 303.55631 232.239716 302.826462L232.239716 247.348316C232.239716 246.617587 231.64692 246.026128 230.916511 246.026128 230.185219 246.026128 229.593306 246.617587 229.593306 247.348316L229.593306 302.826462C229.593306 303.55631 230.185219 304.14865 230.916511 304.14865M215.394697 304.14865C216.125107 304.14865 216.717902 303.55631 216.717902 302.826462L216.717902 247.348316C216.717902 246.617587 216.125107 246.026128 215.394697 246.026128 214.664288 246.026128 214.071492 246.617587 214.071492 247.348316L214.071492 302.826462C214.071492 303.55631 214.664288 304.14865 215.394697 304.14865M223.032414 304.14865C223.762823 304.14865 224.355619 303.55631 224.355619 302.826462L224.355619 247.348316C224.355619 246.617587 223.762823 246.026128 223.032414 246.026128 222.302004 246.026128 221.709209 246.617587 221.709209 247.348316L221.709209 302.826462C221.709209 303.55631 222.302004 304.14865 223.032414 304.14865" mask="url(#univercity-d)"/>
    <path fill="#540326" d="M265.119951,219.538991 C266.972438,219.538991 268.479128,221.044523 268.479128,222.895587 C268.479128,224.745769 266.972438,226.251301 265.119951,226.251301 C263.267464,226.251301 261.760774,224.745769 261.760774,222.895587 C261.760774,221.044523 263.267464,219.538991 265.119951,219.538991 M265.119951,228.895678 C268.431492,228.895678 271.125538,226.204584 271.125538,222.895587 C271.125538,219.58659 268.431492,216.894614 265.119951,216.894614 C261.80841,216.894614 259.114364,219.58659 259.114364,222.895587 C259.114364,226.204584 261.80841,228.895678 265.119951,228.895678" mask="url(#univercity-d)"/>
    <g fill="#540326" transform="translate(253.49 106.657)">
      <path d="M21.3949914 22.4357751L39.9480912 22.4357751C43.9741632 22.4357751 47.2486547 19.1629179 47.2486547 15.1399392 47.2486547 11.5479939 44.7028081 8.58893617 41.2757069 7.97103343 40.3732811 3.50732523 36.4812938.263556231 31.8121441.263556231 27.1721049.263556231 23.288939 3.51525836 22.3653418 7.91197568 22.0442441 7.86790274 21.7204999 7.84586626 21.3949914 7.84586626 20.8612987 7.84586626 20.340838 7.90756839 19.8389022 8.0168693L12.7668121 8.0168693C12.0355207 8.0168693 11.443607 8.60832827 11.443607 9.33905775 11.443607 10.0697872 12.0355207 10.6612462 12.7668121 10.6612462L15.6452242 10.6612462C14.6775202 11.899696 14.09531 13.4510638 14.09531 15.1399392 14.09531 19.1629179 17.3706837 22.4357751 21.3949914 22.4357751M1.82858123 16.1465653L11.5656065 16.1465653C12.2960157 16.1465653 12.8888116 15.5542249 12.8888116 14.8243769 12.8888116 14.0936474 12.2960157 13.5021884 11.5656065 13.5021884L1.82858123 13.5021884C1.09728988 13.5021884.505376133 14.0936474.505376133 14.8243769.505376133 15.5542249 1.09728988 16.1465653 1.82858123 16.1465653M11.5656947 19.2592614L6.69629993 19.2592614C5.96589071 19.2592614 5.37309483 19.8516018 5.37309483 20.5814498 5.37309483 21.3112979 5.96589071 21.9036383 6.69629993 21.9036383L11.5656947 21.9036383C12.2961039 21.9036383 12.8888998 21.3112979 12.8888998 20.5814498 12.8888998 19.8516018 12.2961039 19.2592614 11.5656947 19.2592614"/>
      <path d="M19.0888214,5.56905775 L20.9148444,5.56905775 C21.6461358,5.56905775 22.2380495,4.97671733 22.2380495,4.2468693 C22.2380495,3.51613982 21.6461358,2.92468085 20.9148444,2.92468085 L19.0888214,2.92468085 C18.35753,2.92468085 17.7656163,3.51613982 17.7656163,4.2468693 C17.7656163,4.97671733 18.35753,5.56905775 19.0888214,5.56905775"/>
    </g>
    <path fill="#FFF" d="M274.885557,117.146778 C275.435129,117.146778 275.983818,117.247264 276.515746,117.446474 C276.911826,117.597204 277.356422,117.544316 277.709277,117.311611 C278.063014,117.078024 278.283548,116.688419 278.301191,116.266201 C278.46615,112.50766 281.541279,109.564468 285.30271,109.564468 C288.961813,109.564468 291.964607,112.310213 292.287469,115.949757 C292.347454,116.617903 292.897907,117.136201 293.569213,117.154711 C296.105357,117.225228 298.092811,119.264043 298.092811,121.796474 C298.092811,124.36152 296.004793,126.447933 293.438657,126.447933 L274.885557,126.447933 C272.320304,126.447933 270.232286,124.36152 270.232286,121.796474 C270.232286,119.23231 272.320304,117.146778 274.885557,117.146778"/>
    <polygon fill="#FFE1B7" points="39.536 305.928 54.629 305.928 54.629 243.584 39.536 243.584"/>
    <polygon fill="#FFE1B7" points="257.372 306.395 272.898 306.395 272.898 243.371 257.372 243.371"/>
    <polygon fill="#FFE1B7" points="191.388 306.395 200.121 306.395 200.121 243.371 191.388 243.371"/>
    <polygon fill="#FFE1B7" points="112.79 306.395 121.523 306.395 121.523 243.371 112.79 243.371"/>
  </g>
</svg>
