<svg xmlns="http://www.w3.org/2000/svg" width="100" height="100" viewBox="0 0 100 100">
    <g fill="none" fill-rule="evenodd">
        <g>
            <path fill="#FFE5C4" d="M0 50.9C0 22.4 22.39 0 50.9 0 77.62 0 100 22.39 100 50.9c0 26.71-22.39 49.1-49.1 49.1C22.4 100 0 77.61 0 50.9z" opacity=".6"/>
            <g transform="translate(32 23)">
                <path fill="#FFF" d="M33.55 24.02a2.4 2.4 0 0 1-2.41 2.4h-.2a2.4 2.4 0 0 1-2.41-2.4v-4.38a2.4 2.4 0 0 1 2.4-2.4h.21a2.4 2.4 0 0 1 2.41 2.4v4.38z"/>
                <path fill="#282D33" d="M30.94 18.26c-.77 0-1.39.62-1.39 1.38v4.38c0 .76.62 1.38 1.39 1.38h.2c.76 0 1.38-.62 1.38-1.38v-4.38c0-.76-.62-1.38-1.38-1.38h-.2zm.2 9.17h-.2a3.43 3.43 0 0 1-3.44-3.4v-4.4a3.43 3.43 0 0 1 3.44-3.4h.2c1.9 0 3.44 1.52 3.44 3.4v4.4a3.43 3.43 0 0 1-3.44 3.4z"/>
                <path fill="#FFF" d="M1.03 52.67v-6c0-2.65 2.45-4.8 5.47-4.8h24c3.02 0 5.47 2.15 5.47 4.8v6"/>
                <path fill="#282D33" d="M37 52.67h-2.06v-6c0-2.09-1.99-3.78-4.44-3.78h-24c-2.45 0-4.44 1.7-4.44 3.78v6H0v-6c0-3.21 2.91-5.82 6.5-5.82h24c3.59 0 6.5 2.6 6.5 5.82v6z"/>
                <path fill="#FFF" d="M30.72 26.46c0 6.7-5.47 12.12-12.22 12.12A12.17 12.17 0 0 1 6.28 26.46v-9.7c0-6.68 5.47-12.11 12.22-12.11 6.75 0 12.22 5.43 12.22 12.12v9.7z"/>
                <path fill="#282D33" d="M18.5 5.67c-6.17 0-11.2 4.98-11.2 11.1v9.7c0 6.11 5.03 11.1 11.2 11.1 6.17 0 11.2-4.99 11.2-11.1v-9.7c0-6.12-5.03-11.1-11.2-11.1m0 33.93A13.2 13.2 0 0 1 5.25 26.46v-9.7A13.2 13.2 0 0 1 18.5 3.64c7.3 0 13.25 5.9 13.25 13.14v9.7A13.2 13.2 0 0 1 18.5 39.6"/>
                <path fill="#FFF" d="M6.28 17.27c-1.21.12-3.2 1.13-3.2 2.37v4.38c0 1.24 1.99 2.25 3.2 2.37v-9.12z"/>
                <path fill="#282D33" d="M5.25 18.63c-.63.3-1.13.74-1.13 1v4.4c0 .26.5.7 1.13 1v-6.4zm2.06 8.9l-1.14-.13c-1.68-.17-4.11-1.47-4.11-3.38v-4.38c0-1.9 2.43-3.21 4.11-3.39l1.14-.11v11.38z"/>
                <polygon points="0 52.67 37 52.67 37 0 0 0"/>
                <polygon fill="#282D33" points="17.62 47.18 19.68 47.18 19.68 45.19 17.62 45.19"/>
                <polygon fill="#282D33" points="17.62 51.64 19.68 51.64 19.68 49.65 17.62 49.65"/>
                <path fill="#FFE5C4" d="M18.5 4.65A12.17 12.17 0 0 0 6.28 16.77v2.26h15.89l2.13-3.67 2.14 3.67h4.28v-2.26c0-6.7-5.47-12.12-12.22-12.12"/>
                <path fill="#282D33" d="M27.03 18h2.66v-1.23c0-6.12-5.02-11.1-11.19-11.1S7.3 10.65 7.3 16.77V18h14.27l2.73-4.69 2.73 4.69zm4.72 2.05h-5.9L24.3 17.4l-1.54 2.65H5.26v-3.28A13.2 13.2 0 0 1 18.5 3.63c7.3 0 13.25 5.9 13.25 13.14v3.28z"/>
            </g>
            <g transform="translate(28 19)">
                <path fill="#FFE5C4" d="M43.41 8.21L22.33.06a.93.93 0 0 0-.66 0L.59 8.21a.9.9 0 0 0-.58.84c0 .38.23.7.58.85l6.74 2.6v8.25c0 2.17 7.92 6.41 14.67 6.41s14.67-4.24 14.67-6.4V12.5l6.74-2.6a.9.9 0 0 0 .58-.85.9.9 0 0 0-.58-.84z"/>
                <polygon fill="#F8A914" points="22 16.23 3.43 9.05 22 1.87 40.57 9.05"/>
                <path fill="#282D33" fill-rule="nonzero" d="M43.41 8.21L22.33.06a.93.93 0 0 0-.66 0L.59 8.21a.9.9 0 0 0-.58.84c0 .38.23.7.58.85l6.74 2.6v8.25c0 2.17 7.92 6.41 14.67 6.41s14.67-4.24 14.67-6.4V12.5l6.74-2.6a.9.9 0 0 0 .58-.85.9.9 0 0 0-.58-.84zm-8.58 12.44c-.58 1-6.51 4.7-12.83 4.7s-12.25-3.7-12.83-4.7v-7.43l12.5 4.82c.21.08.45.08.66 0l12.5-4.82v7.43zM22 16.23L3.43 9.05 22 1.87l18.57 7.18L22 16.23z"/>
            </g>
        </g>
        <g transform="translate(23 61)">
            <polygon fill="#E89802" points="9.27 10.09 6.82 11.12 13.37 24.6 15.34 22.45 18.27 22.55 11.72 9.07"/>
            <polygon fill="#E89802" points="1.56 22.64 4.49 22.48 6.5 24.6 12.84 11.03 10.37 10.05 7.9 9.07"/>
            <path fill="#F8A914" d="M19.38 10.01c0 .48-.88.88-.95 1.34-.07.46.63 1.11.49 1.55-.15.45-1.1.56-1.32.98-.22.42.25 1.25-.03 1.63-.28.37-1.22.2-1.56.52-.33.33-.15 1.27-.53 1.54-.38.28-1.23-.19-1.65.03-.42.2-.53 1.16-.99 1.3-.44.14-1.1-.55-1.57-.48-.46.07-.87.94-1.35.94-.48 0-.9-.87-1.35-.94-.48-.07-1.13.62-1.58.48-.45-.14-.57-1.1-.99-1.3-.42-.22-1.26.25-1.64-.03-.39-.27-.2-1.2-.54-1.54-.33-.33-1.28-.15-1.56-.52-.28-.38.2-1.21-.03-1.63-.2-.42-1.17-.53-1.31-.98-.15-.44.56-1.09.48-1.55-.07-.46-.95-.86-.95-1.34 0-.47.88-.87.95-1.33.08-.46-.63-1.11-.48-1.55.14-.45 1.1-.57 1.31-.98.22-.42-.25-1.25.03-1.63.28-.37 1.23-.2 1.56-.52.34-.33.15-1.27.53-1.54.39-.28 1.23.18 1.65-.03.42-.21.54-1.16 1-1.3.44-.14 1.1.55 1.57.48.46-.07.87-.94 1.35-.94.48 0 .89.87 1.35.94.47.07 1.13-.62 1.57-.48.46.14.57 1.09 1 1.3.41.21 1.26-.25 1.64.03.38.27.2 1.2.53 1.54.34.33 1.28.15 1.56.52.28.38-.19 1.21.03 1.63.21.41 1.17.53 1.32.98.14.44-.56 1.09-.49 1.55.07.46.95.86.95 1.33"/>
            <polygon fill="#FFF" points="12.47 13.49 10 12.24 7.53 13.49 8 10.84 6 8.96 8.76 8.57 10 6.16 11.24 8.57 14 8.96 12 10.84"/>
        </g>
    </g>
</svg>
