<svg xmlns="http://www.w3.org/2000/svg" width="100" height="100" viewBox="0 0 100 100">
    <g fill="none" fill-rule="evenodd">
        <path fill="#FFE5C4" d="M0 50.9C0 22.4 22.39 0 50.9 0 77.62 0 100 22.39 100 50.9c0 26.71-22.39 49.1-49.1 49.1C22.4 100 0 77.61 0 50.9z" opacity=".6"/>
        <g transform="matrix(-1 0 0 1 79 27)">
            <path fill="#FFF" d="M55.07 17.73H42a.93.93 0 0 0-.93.94v2.8h-2.3l-2.16-3.24a17.85 17.85 0 0 0-5.38-5.2l5.99-6a3.57 3.57 0 1 0-5.05-5.05l-2.03 2.03-2.8 2.8-3.63 3.62a.93.93 0 0 0-.29-.08c-.56-.06-1.13-.08-1.69-.08H11.2c-.25 0-.48.1-.66.27L1.98 19.1a3.57 3.57 0 1 0 5.05 5.05l.92-.92.27.9c.14.44.3.88.48 1.31l-3.76 3.77-1.87 1.86c-.1.1-.17.23-.22.37l-1.87 5.6a.93.93 0 0 0 1.18 1.18l5.6-1.87a.93.93 0 0 0 .37-.22l1.86-1.87 3.2-3.2a13.1 13.1 0 0 0 7.77 2.54h7.97l.12-.02a8.63 8.63 0 0 0 6.38 2.82h5.64v.93c0 .52.41.94.93.94h13.07c.51 0 .93-.42.93-.94V18.67a.93.93 0 0 0-.93-.94z"/>
            <polygon fill="#FF7502" points="54.13 36.4 42.93 36.4 42.93 19.6 54.13 19.6"/>
            <polygon fill="#F8C44F" points="30.8 5.99 33.21 8.4 31.73 9.88 29.32 7.47"/>
            <path fill="#282D33" fill-rule="nonzero" d="M55.07 17.73H42a.93.93 0 0 0-.93.94v2.8h-2.3l-2.16-3.24a17.85 17.85 0 0 0-5.38-5.2l5.99-6a3.57 3.57 0 1 0-5.05-5.05l-2.03 2.03-2.8 2.8-3.63 3.62a.93.93 0 0 0-.29-.08c-.56-.06-1.13-.08-1.69-.08H11.2c-.25 0-.48.1-.66.27L1.98 19.1a3.57 3.57 0 1 0 5.05 5.05l.92-.92.27.9c.14.44.3.88.48 1.31l-3.76 3.77-1.87 1.86c-.1.1-.17.23-.22.37l-1.87 5.6a.93.93 0 0 0 1.18 1.18l5.6-1.87a.93.93 0 0 0 .37-.22l1.86-1.87 3.2-3.2a13.1 13.1 0 0 0 7.77 2.54h7.97l.12-.02a8.63 8.63 0 0 0 6.38 2.82h5.64v.93c0 .52.41.94.93.94h13.07c.51 0 .93-.42.93-.94V18.67a.93.93 0 0 0-.93-.94zM33.49 3.3A1.7 1.7 0 0 1 35.9 5.7l-1.37 1.37-2.41-2.41 1.37-1.37zM30.8 5.99l2.41 2.41-1.48 1.48-2.41-2.41 1.48-1.48zM5.71 22.83a1.7 1.7 0 0 1-2.41-2.41l8.29-8.29h10.14l.27.02-3.72 3.72h-5.21c-.25 0-.49.1-.66.27l-6.7 6.7zm10.7-5.1L10.16 24l-.15-.4-.56-1.86 4-4h2.96zM6.96 34.65l-3.62 1.2 1.2-3.61 1.4-1.4a2.79 2.79 0 0 1 2.42 2.41l-1.4 1.4zm2.91-2.91a4.7 4.7 0 0 0-2.4-2.41l11.86-11.87L28 8.8l2.41 2.41-9.33 9.33h-1.25a3.71 3.71 0 0 0-3.55 4.85.9.9 0 0 0-.14.1l-6.27 6.26zm11.09 0c-2.3 0-4.55-.7-6.44-2l2.76-2.76c.69.65 1.6 1.01 2.55 1.02h5.76l2.13 3.73h-6.76zm20.1 2.8h-5.63a6.81 6.81 0 0 1-5.92-3.44l-2.57-4.5a.93.93 0 0 0-.8-.47h-6.31a1.87 1.87 0 1 1 0-3.73h9.1a.93.93 0 1 0 0-1.87h-5.21l6.15-6.15a15.52 15.52 0 0 1 5.18 4.88l2.44 3.66c.17.26.46.41.78.41h2.8v11.2zm13.07 1.86h-11.2V19.6h11.2v16.8z"/>
            <circle cx="48.53" cy="32.67" r="1.87" fill="#282D33" fill-rule="nonzero"/>
            <path fill="#282D33" fill-rule="nonzero" d="M20.53 40.13a.93.93 0 0 1 0 1.87H.93a.93.93 0 0 1 0-1.87h19.6zM25.2 42h-.93a.93.93 0 1 1 0-1.87h.93a.93.93 0 0 1 0 1.87z"/>
        </g>
    </g>
</svg>
