<svg xmlns="http://www.w3.org/2000/svg" width="100" height="100" viewBox="0 0 100 100">
    <g fill="none">
        <path fill="#FFE5C4" d="M0 50.9C0 22.4 22.4 0 50.9 0 77.6 0 100 22.4 100 50.9c0 26.7-22.4 49.1-49.1 49.1C22.4 100 0 77.6 0 50.9z" opacity=".6"/>
        <path fill="#FFF" d="M46.4 71.9h16.2c1.7 0 3.1-1.4 3.1-3v-16c0-.6-.5-1.1-1.1-1.1h-5c.1-.2.2-.5.2-.7.2-1.1 0-2.3-.7-3.2a4.4 4.4 0 0 0-6-1.1c-.9.7-1.6 1.6-1.8 2.8-.2.8-.1 1.6.2 2.3h-3.9v-6.1c0-.5-.3-.9-.8-1.1-.4-.2-.9 0-1.2.4-.5.7-1.4 1.1-2.2.8-.6-.1-1-.4-1.3-.9-.3-.5-.4-1.1-.3-1.5.2-.9 1.1-1.6 2.1-1.6.7 0 1.3.3 1.7.9.3.4.8.6 1.2.4.4-.2.8-.6.8-1.1v-7.2c0-.6-.5-1.1-1.1-1.1H30.2a3.1 3.1 0 0 0-3.1 3v32c0 1.7 1.4 3 3.1 3l16.2.1z"/>
        <path fill="#282D33" d="M46.4 71.9l-16.1.1a3.1 3.1 0 0 1-3.1-3V37c0-1.7 1.4-3 3.1-3h16.2c.6 0 1.1.5 1.1 1.1v7.2c0 .5-.3.9-.8 1.1-.4.1-.9-.1-1.2-.4-.4-.6-1.1-.9-1.7-.9-1 0-1.8.7-2.1 1.6-.1.5 0 1.1.3 1.5.3.5.7.8 1.3.9.8.2 1.7-.1 2.2-.8.3-.4.8-.6 1.2-.4.4.2.8.6.8 1.1v6.1h3.9c-.3-.7-.4-1.5-.2-2.3.2-1.2.8-2.1 1.8-2.8 2-1.3 4.7-.8 6 1.1.7.9.9 2.1.7 3.2-.1.2-.1.5-.2.7h5c.6 0 1.1.5 1.1 1.1v16c0 1.7-1.4 3-3.1 3H46.4v-.2zm7.2-18v-.2h-6.3v3.9c.1 0 .2-.1.3-.1.1 0 .1-.1.2-.1s.2-.1.3-.1c.2 0 .3-.1.4-.1h.4c2.2 0 4.1 1.7 4.3 3.9.2 1.4-.4 2.7-1.3 3.5l-.1.1c-.1.1-.2.1-.2.2l-.1.1c-.1.1-.1.1-.2.1-.1.1-.2.1-.3.2 0 .1-.1.1-.1.1-.1.1-.2.1-.3.2 0 .1-.1.1-.1.1-.1.1-.2.1-.3.1h-.1c-.1.1-.2.1-.3.1h-.1c-.2.1-.5.1-.8.1h-.7-.2c-.1-.1-.1-.1-.2-.1-.2 0-.3-.1-.4-.1v3.9h15.1c.4 0 .8-.4.8-.8v-15h-6.1c-.5 0-.9-.3-1.1-.8-.1-.4.1-.9.4-1.2.5-.3.8-.8.9-1.3.1-.5 0-1.1-.3-1.5-.7-.9-2-1.2-2.9-.6-.5.3-.8.8-.9 1.3-.1.6 0 1.1.3 1.5.2.2.3.4.6.6.4.3.6.8.4 1.2 0 .5-.5.8-1 .8zM29.4 36.8v14.9H35.6c.5 0 .9.3 1.1.8.1.4-.1.9-.4 1.2-.6.4-.9 1.1-.9 1.7V55.7c.1.6.4 1 .8 1.3.4.3 1 .4 1.6.3.6-.1 1-.4 1.3-.8.2-.3.3-.6.4-1v-.2-.1c0-.4-.1-.7-.3-1.1-.2-.2-.3-.4-.6-.6-.4-.3-.6-.8-.4-1.2.1-.4.6-.8 1.1-.8h6.3v-3.9c-.8.3-1.7.4-2.6.2-1.1-.3-2.1-1-2.7-1.9-.6-.9-.8-2.1-.6-3.2a4.2 4.2 0 0 1 5.7-3v-3.9H30.2c-.4.1-.8.5-.8 1zm0 32c0 .4.3.8.8.8h15.1v-6.1c0-.5.3-.9.8-1.1.4-.1.9.1 1.2.4.1.2.3.3.5.5.1.1.1.1.2.1s.1.1.2.1c.1.1.2.1.3.1h.1c.2.1.3.1.4.1H49.3s.2-.1.3-.1h.1c.1-.1.2-.1.2-.1.1-.1.2-.1.3-.2.1 0 .1-.1.1-.1l.2-.2c.2-.3.4-.6.5-.9.3-1.1-.4-2.2-1.6-2.5-.1-.1-.2-.1-.3-.1H49h-.4c-.6.1-1.1.4-1.4.8-.2.4-.8.6-1.2.4-.4-.1-.8-.6-.8-1.1v-6.1h-3.9c.1.3.2.5.2.8.1.2.1.4.1.6v.1c0 .2 0 .4-.1.7v.1c0 .2-.1.3-.1.5 0 .1-.1.2-.1.2-.1.1-.1.3-.2.4-.3.7-.8 1.3-1.5 1.8s-1.6.8-2.4.8c-.3 0-.6 0-.8-.1a4.1 4.1 0 0 1-2.8-1.8c-.4-.7-.7-1.4-.7-2.2v-.1-.4c0-.2.1-.3.1-.4v-.1c0-.2.1-.5.2-.7h-3.9v15.1h.1z"/>
        <path fill="#282D33" d="M74.8 30.7l-14.4-7c-.6-.3-1.2 0-1.5.5l-2.2 4.4a4.35 4.35 0 0 0-7.2 1.5 4.31 4.31 0 0 0 3.7 5.7L51 40.2c-.3.5 0 1.2.5 1.5l6.5 3.2c.5.2.9.1 1.3-.2.3-.3.4-.8.1-1.3a2 2 0 0 1 .8-2.8 2 2 0 0 1 2.8.8c.3.5.4 1 .2 1.6-.1.5-.5 1-1 1.2-.2.1-.5.2-.7.2-.5.1-.8.5-.9.9 0 .5.2.9.6 1.2l6.5 3.2c.6.3 1.2 0 1.5-.5l7-14.3c.8-1.6.2-3.5-1.4-4.2z"/>
        <path fill="#FF7502" d="M67.8 47.1l-3.5-1.7a4.14 4.14 0 0 0 .8-5.2 4.4 4.4 0 0 0-5.8-1.7c-1.3.7-2.1 1.9-2.2 3.3l-3.5-1.7 2.6-5.4c.2-.4.1-1-.2-1.3-.3-.3-.9-.4-1.3-.1-.6.3-1.3.4-1.9 0-1-.5-1.4-1.6-1.1-2.5.4-1 1.5-1.6 2.6-1.2.8.2 1.3.9 1.4 1.7.1.5.5.8.9.9.5 0 .9-.2 1.2-.6l2.7-5.5 13.4 6.5c.5.2.6.7.4 1.2l-6.5 13.3z"/>
    </g>
</svg>
