<svg xmlns="http://www.w3.org/2000/svg" width="100" height="100" viewBox="0 0 100 100">
    <g fill="none" fill-rule="evenodd">
        <path fill="#FFE5C4" d="M0 50.9C0 22.4 22.39 0 50.9 0 77.62 0 100 22.39 100 50.9c0 26.71-22.39 49.1-49.1 49.1C22.4 100 0 77.61 0 50.9z" opacity=".6"/>
        <g transform="translate(32 19)">
            <path fill="#F8C44F" d="M24.47 7.1a6.03 6.03 0 0 1-6 6.07c-3.3 0-5.99-2.71-5.99-6.06a6.03 6.03 0 0 1 6-6.07c3.31 0 6 2.72 6 6.07z"/>
            <path fill="#282D33" d="M18.48 2.08a5 5 0 0 0-4.97 5.03 5 5 0 0 0 4.97 5.02 5 5 0 0 0 4.97-5.02 5 5 0 0 0-4.97-5.03m0 12.13a7.07 7.07 0 0 1-7.02-7.1C11.46 3.19 14.6 0 18.48 0a7.07 7.07 0 0 1 7.02 7.1c0 3.92-3.15 7.11-7.02 7.11"/>
            <path fill="#FFF" d="M33.55 25.44a2.43 2.43 0 0 1-2.41 2.44h-.2a2.43 2.43 0 0 1-2.41-2.44v-4.48a2.43 2.43 0 0 1 2.4-2.44h.21c1.33 0 2.41 1.1 2.41 2.44v4.48z"/>
            <path fill="#282D33" d="M30.94 19.56a1.4 1.4 0 0 0-1.39 1.4v4.48c0 .77.62 1.4 1.39 1.4h.2a1.4 1.4 0 0 0 1.38-1.4v-4.48c0-.77-.62-1.4-1.38-1.4h-.2zm.2 9.36h-.2a3.46 3.46 0 0 1-3.44-3.48v-4.48a3.46 3.46 0 0 1 3.44-3.48h.2c1.9 0 3.44 1.56 3.44 3.48v4.48a3.46 3.46 0 0 1-3.44 3.48z"/>
            <path fill="#FFF" d="M1.03 54.66v-6.12c0-2.7 2.45-4.9 5.47-4.9h24c3.02 0 5.47 2.2 5.47 4.9v6.12"/>
            <path fill="#282D33" d="M37 54.66h-2.06v-6.12c0-2.13-1.99-3.86-4.44-3.86h-24c-2.45 0-4.44 1.73-4.44 3.86v6.12H0v-6.12c0-3.27 2.91-5.94 6.5-5.94h24c3.59 0 6.5 2.67 6.5 5.94v6.12z"/>
            <path fill="#FFF" d="M30.72 27.93A12.3 12.3 0 0 1 18.5 40.29 12.3 12.3 0 0 1 6.28 27.93v-9.9A12.3 12.3 0 0 1 18.5 5.69a12.3 12.3 0 0 1 12.22 12.36v9.89z"/>
            <path fill="#282D33" d="M18.5 6.72c-6.17 0-11.2 5.08-11.2 11.32v9.89c0 6.24 5.03 11.32 11.2 11.32 6.17 0 11.2-5.08 11.2-11.32v-9.9c0-6.23-5.03-11.31-11.2-11.31m0 34.61c-7.3 0-13.25-6.01-13.25-13.4v-9.9c0-7.38 5.95-13.4 13.25-13.4s13.25 6.02 13.25 13.4v9.9c0 7.39-5.94 13.4-13.25 13.4"/>
            <path fill="#FFF" d="M6.28 18.55c-1.21.12-3.2 1.15-3.2 2.41v4.48c0 1.26 1.99 2.29 3.2 2.41v-9.3z"/>
            <path fill="#282D33" d="M5.25 19.94c-.63.31-1.13.75-1.13 1.02v4.48c0 .27.5.71 1.13 1.02v-6.52zM7.31 29l-1.14-.12c-1.68-.18-4.11-1.5-4.11-3.45v-4.48c0-1.94 2.43-3.27 4.11-3.45l1.14-.12v11.62z"/>
            <polygon points="0 54.66 37 54.66 37 .93 0 .93"/>
            <polygon fill="#282D33" points="17.62 49.06 19.68 49.06 19.68 47.03 17.62 47.03"/>
            <polygon fill="#282D33" points="17.62 53.61 19.68 53.61 19.68 51.58 17.62 51.58"/>
            <path fill="#FFE5C4" d="M18.5 5.68A12.3 12.3 0 0 0 6.28 18.04v2.3h15.89l2.13-3.74 2.14 3.74h4.28v-2.3A12.3 12.3 0 0 0 18.5 5.68"/>
            <path fill="#282D33" d="M27.03 19.3h2.66v-1.26c0-6.24-5.02-11.32-11.19-11.32S7.3 11.8 7.3 18.04v1.26h14.27l2.73-4.78 2.73 4.78zm4.72 2.08h-5.9l-1.55-2.7-1.54 2.7H5.26v-3.34c0-7.4 5.94-13.4 13.24-13.4s13.25 6 13.25 13.4v3.34z"/>
        </g>
        <g transform="translate(60 57)">
            <polygon fill="#EA6A00" points="13.9 15.14 10.22 16.68 20.06 36.9 23.01 33.67 27.41 33.83 17.57 13.6"/>
            <polygon fill="#EA6A00" points="2.34 33.95 6.74 33.72 9.74 36.9 19.26 16.55 15.56 15.07 11.85 13.6"/>
            <g transform="translate(0 .241)">
                <path fill="#FF7502" d="M29.07 14.78c0 .71-1.31 1.32-1.42 2-.11.7.94 1.67.73 2.33-.22.67-1.66.85-1.98 1.47-.33.62.38 1.87-.04 2.44-.42.57-1.84.3-2.34.79-.5.5-.23 1.9-.8 2.3-.57.42-1.84-.27-2.47.05-.63.31-.8 1.73-1.49 1.95-.67.21-1.65-.83-2.36-.72-.7.1-1.3 1.4-2.02 1.4-.73 0-1.34-1.3-2.03-1.4-.7-.11-1.7.93-2.36.72-.68-.22-.86-1.64-1.48-1.95-.64-.32-1.9.37-2.48-.04-.57-.42-.3-1.82-.8-2.31-.5-.5-1.92-.23-2.34-.8-.41-.56.29-1.8-.04-2.43-.32-.62-1.76-.8-1.98-1.47-.21-.66.84-1.63.73-2.33-.1-.68-1.42-1.29-1.42-2s1.31-1.31 1.42-2c.11-.7-.94-1.67-.73-2.33.22-.67 1.66-.84 1.98-1.46.33-.63-.38-1.88.04-2.45.42-.56 1.84-.29 2.34-.78.5-.5.23-1.9.8-2.32.57-.4 1.84.28 2.47-.04.63-.31.8-1.73 1.49-1.95.67-.21 1.65.83 2.36.72.7-.1 1.3-1.4 2.03-1.4.72 0 1.33 1.3 2.02 1.4.71.11 1.7-.93 2.36-.72.68.22.86 1.64 1.49 1.95.63.33 1.9-.37 2.47.04.57.42.3 1.82.8 2.32.5.49 1.92.22 2.34.78.42.57-.28 1.82.04 2.45.32.62 1.76.79 1.98 1.46.22.66-.84 1.63-.73 2.33.1.69 1.42 1.29 1.42 2"/>
                <polygon points="29.75 29.47 29.75 .1 0 .1 0 29.47 29.75 29.47"/>
                <polygon fill="#FFF" points="18.71 20 15 18.12 11.29 20 12 16.02 9 13.2 13.15 12.62 15 9 16.85 12.62 21 13.2 18 16.02"/>
            </g>
        </g>
    </g>
</svg>
