<svg xmlns="http://www.w3.org/2000/svg" width="100" height="100" viewBox="0 0 100 100">
    <g fill="none" fill-rule="evenodd">
        <path fill="#FFE5C4" d="M0 50.9C0 22.4 22.39 0 50.9 0 77.62 0 100 22.39 100 50.9c0 26.71-22.39 49.1-49.1 49.1C22.4 100 0 77.61 0 50.9z" opacity=".6"/>
        <polygon fill="#FFF" points="34.79 72.98 71 72.98 71 35.71 59.47 24 34.79 24"/>
        <g transform="translate(34.793 24)">
            <polyline fill="#FFF" points="25.86 47.27 35.34 47.27 35.34 22.4 35.34 11.17"/>
            <polygon fill="#282D33" points="33.75 11.17 33.75 46.49 25.86 46.49 25.86 48.98 36.21 48.98 36.21 11.17"/>
            <polygon fill="#282D33" points="0 0 0 48.98 25.96 48.98 25.96 46.51 2.47 46.51 2.47 2.48 25 2.48 25 0"/>
            <polygon fill="#F8C44F" points="27.59 8.59 36.21 8.59 27.59 0"/>
        </g>
        <g transform="translate(40.828 36.89)">
            <path fill="#FFE5C4" d="M5.96 2.96a2.89 2.89 0 1 1-5.78-.01 2.89 2.89 0 0 1 5.78.01"/>
            <path fill="#FF7502" d="M3.79 5.42L1.83 3.47a.72.72 0 0 1 0-1.02.72.72 0 0 1 1.02 0l.94.93 2.38-2.37a.72.72 0 0 1 1.02 0c.29.28.29.74 0 1.02l-3.4 3.4z"/>
            <path fill="#FFE5C4" d="M5.96 11.6a2.89 2.89 0 1 1-5.78 0 2.89 2.89 0 0 1 5.78 0"/>
            <path fill="#FF7502" d="M3.79 14.07l-1.96-1.95a.72.72 0 0 1 0-1.02.72.72 0 0 1 1.02 0l.94.93 2.38-2.37a.72.72 0 0 1 1.02 0c.29.28.29.74 0 1.02l-3.4 3.39z"/>
            <path fill="#FFE5C4" d="M5.96 20.26a2.89 2.89 0 1 1-5.78-.01 2.89 2.89 0 0 1 5.78 0"/>
            <path fill="#FF7502" d="M3.79 22.72l-1.96-1.95a.72.72 0 0 1 0-1.02.72.72 0 0 1 1.02 0l.94.93 2.38-2.37a.72.72 0 0 1 1.02 0c.29.28.29.73 0 1.02l-3.4 3.39z"/>
            <polygon fill="#000" points="9.58 2.24 22.6 2.24 22.6 .8 9.58 .8"/>
            <polygon fill="#000" points="9.58 5.12 18.26 5.12 18.26 3.68 9.58 3.68"/>
            <polygon fill="#000" points="9.58 10.89 22.6 10.89 22.6 9.45 9.58 9.45"/>
            <polygon fill="#000" points="9.58 13.77 15.36 13.77 15.36 12.33 9.58 12.33"/>
            <polygon fill="#000" points="9.58 19.54 22.6 19.54 22.6 18.1 9.58 18.1"/>
            <polygon fill="#000" points="9.58 22.42 13.92 22.42 13.92 20.98 9.58 20.98"/>
            <polygon fill="#000" points="15.36 22.42 19.7 22.42 19.7 20.98 15.36 20.98"/>
        </g>
        <path fill="#FF7502" d="M51 64.11c0 8.2-6.72 14.86-15 14.86-8.28 0-15-6.66-15-14.86s6.72-14.85 15-14.85c8.28 0 15 6.65 15 14.85"/>
        <polygon fill="#FFF" points="45 60.27 41.82 57 33.64 65.42 31.18 62.89 28 66.16 33.6 72"/>
        <path fill="#282D33" d="M28 66.16L32.63 71 43 60.3 40.78 58l-8.12 8.38-2.44-2.51-2.22 2.3zM32.58 73L26 66.17l4.15-4.26 2.47 2.53L40.85 56 45 60.26 32.58 73z"/>
    </g>
</svg>
