<svg xmlns="http://www.w3.org/2000/svg" width="100" height="100" viewBox="0 0 100 100">
    <g fill="none" fill-rule="evenodd">
        <path fill="#FFE5C4" d="M0 50.9C0 22.4 22.39 0 50.9 0 77.62 0 100 22.39 100 50.9c0 26.71-22.39 49.1-49.1 49.1C22.4 100 0 77.61 0 50.9z" opacity=".6"/>
        <g transform="translate(30 20)">
            <path fill="#FFF" d="M36.12 38.71H.98v1.94a2.9 2.9 0 0 1 0 5.8v1.94h35.14A4.87 4.87 0 0 0 41 43.55a4.87 4.87 0 0 0-4.88-4.84zM4.88 50.32h35.14v1.94a2.92 2.92 0 0 0-2.92 2.9c0 1.6 1.3 2.9 2.92 2.9V60H4.88A4.87 4.87 0 0 1 0 55.16a4.87 4.87 0 0 1 4.88-4.84z"/>
            <path fill="#000" fill-rule="nonzero" d="M20.5 33.87c7 0 12.69-5.64 12.69-12.58S27.49 8.71 20.5 8.71c-7 0-12.69 5.64-12.69 12.58s5.7 12.58 12.69 12.58zm0-23.22a10.7 10.7 0 0 1 10.74 10.64A10.7 10.7 0 0 1 20.5 31.94 10.7 10.7 0 0 1 9.76 21.29 10.7 10.7 0 0 1 20.5 10.65z"/>
            <path fill="#282D33" fill-rule="nonzero" d="M0 55.16A4.87 4.87 0 0 0 4.88 60h35.14v-1.94a2.92 2.92 0 0 1-2.92-2.9c0-1.6 1.3-2.9 2.92-2.9v-1.94H4.88A4.87 4.87 0 0 0 0 55.16zm36.12 2.9H4.88a2.92 2.92 0 0 1-2.93-2.9c0-1.6 1.32-2.9 2.93-2.9h31.24a4.79 4.79 0 0 0 0 5.8z"/>
            <rect width="25.38" height="1.94" x="3.9" y="54.19" fill="#282D33" fill-rule="nonzero"/>
            <rect width="1.95" height="1.94" x="31.24" y="54.19" fill="#282D33" fill-rule="nonzero"/>
            <ellipse cx="20.5" cy="21.29" fill="#FFF" rx="15.62" ry="15.48"/>
            <ellipse cx="20.5" cy="21.29" fill="#FF7502" rx="12.69" ry="12.58"/>
            <path fill="#282D33" fill-rule="nonzero" d="M36.12 38.71h-.3l-2.6-6.87a16.29 16.29 0 0 0 3.88-10.55c0-6.65-4.02-12.39-9.77-14.97V2.9c0-1.6-1.31-2.9-2.93-2.9h-7.8a2.92 2.92 0 0 0-2.93 2.9v3.42A16.46 16.46 0 0 0 3.9 21.29c0 4.01 1.46 7.69 3.88 10.55l-2.6 6.87H.98v1.94a2.9 2.9 0 0 1 0 5.8v1.94h35.14A4.87 4.87 0 0 0 41 43.55a4.87 4.87 0 0 0-4.88-4.84zm-15.62-.97c2.71 0 5.27-.66 7.53-1.8l2.8 2.77H10.17l2.8-2.78a16.59 16.59 0 0 0 7.53 1.81zm13.1.97l-3.82-3.79a16 16 0 0 0 1.94-1.54l2.01 5.33h-.14zM15.61 2.91c0-.54.44-.97.98-.97h7.8c.54 0 .98.43.98.96v2.67a16.66 16.66 0 0 0-9.76 0V2.9zm4.88 3.86A14.6 14.6 0 0 1 35.14 21.3c0 8-6.57 14.52-14.64 14.52A14.6 14.6 0 0 1 5.86 21.29c0-8 6.57-14.52 14.64-14.52zM9.28 33.37c.61.57 1.25 1.1 1.94 1.55l-3.81 3.79h-.14l2.01-5.33zm26.84 13.08H4.88a4.79 4.79 0 0 0 0-5.8h31.24c1.61 0 2.93 1.3 2.93 2.9 0 1.6-1.32 2.9-2.93 2.9z"/>
            <rect width="25.38" height="1.94" x="11.71" y="42.58" fill="#000" fill-rule="nonzero"/>
            <polygon fill="#000" fill-rule="nonzero" points="7.81 42.58 9.76 42.58 9.76 44.52 7.81 44.52"/>
            <polygon fill="#FFF" fill-rule="nonzero" points="25.17 25.52 21.48 20.95 21.48 12.58 19.52 12.58 19.52 21.63 23.64 26.73"/>
        </g>
    </g>
</svg>
