<svg xmlns="http://www.w3.org/2000/svg" width="100" height="100" viewBox="0 0 100 100">
    <g fill="none" fill-rule="evenodd">
        <path fill="#FFE5C4" d="M0 50.9C0 22.4 22.39 0 50.9 0 77.62 0 100 22.39 100 50.9c0 26.71-22.39 49.1-49.1 49.1C22.4 100 0 77.61 0 50.9z" opacity=".6"/>
        <path fill="#FFF" fill-rule="nonzero" stroke="#282D33" stroke-width="2.2" d="M69.43 61.77a2.78 2.78 0 0 0-5-1.21 2.83 2.83 0 0 0 .61 3.93c1.18.86 3.03.56 3.89-.62.44-.61.61-1.35.5-2.1zm-26.7 10.66a2.82 2.82 0 0 0 3.34-3.95 2.77 2.77 0 0 0-2.48-1.53 2.8 2.8 0 1 0-.86 5.48zM25.68 50a3.9 3.9 0 1 0 7.82-.01 3.9 3.9 0 0 0-7.82 0zm7.4 9.13a19.36 19.36 0 0 0 3.05 4.21 9.75 9.75 0 0 1 10.5-2.99A9.88 9.88 0 0 1 53.4 69c1.73-.31 3.41-.86 4.98-1.62a9.92 9.92 0 0 1 .4-10.98 9.72 9.72 0 0 1 10.22-3.75 19.97 19.97 0 0 0 0-5.27c-.76.2-1.53.3-2.3.3a9.85 9.85 0 0 1-8.36-15.06 18.93 18.93 0 0 0-4.94-1.63 9.89 9.89 0 0 1-9.8 9.14 9.75 9.75 0 0 1-7.46-3.48 19.38 19.38 0 0 0-3.05 4.22 9.9 9.9 0 0 1 0 18.26zm9.65-31.56c-.7.23-1.28.72-1.62 1.4a2.8 2.8 0 0 0 3.34 3.94 2.82 2.82 0 0 0-.86-5.48c-.29 0-.58.05-.86.14zm-.68-2.1zm24.62 9.5a2.83 2.83 0 0 0-2.25 4.46 2.87 2.87 0 0 0 3.89.63 2.8 2.8 0 0 0-1.64-5.08z"/>
        <circle cx="43.5" cy="30.5" r="5.3" fill="#FF7502" stroke="#282D33" stroke-width="2.4"/>
        <circle cx="67.5" cy="62.5" r="5.3" fill="#FF7502" stroke="#282D33" stroke-width="2.4"/>
        <circle cx="43.5" cy="69.5" r="5.3" fill="#F8C44F" stroke="#282D33" stroke-width="2.4"/>
        <circle cx="29.5" cy="49.5" r="5.3" fill="#FFF5E7" stroke="#282D33" stroke-width="2.4"/>
        <circle cx="66.5" cy="37.5" r="5.3" fill="#FFF5E7" stroke="#282D33" stroke-width="2.4"/>
    </g>
</svg>
