<svg xmlns="http://www.w3.org/2000/svg" width="100" height="100" viewBox="0 0 100 100">
    <g fill="none" fill-rule="evenodd">
        <path fill="#FFE5C4" d="M0 50.9C0 22.4 22.39 0 50.9 0 77.62 0 100 22.39 100 50.9c0 26.71-22.39 49.1-49.1 49.1C22.4 100 0 77.61 0 50.9z" opacity=".6"/>
        <g transform="translate(24 30)">
            <polygon fill="#FFF" points="1.08 35.95 52.92 35.95 52.92 1.07 1.08 1.07"/>
            <path fill="#282D33" d="M0 37.02h54V0H0v37.02zm2.16-2.14h49.68V2.15H2.16v32.73z"/>
            <polygon fill="#282D33" points="8.37 42.25 47.72 42.25 47.72 40.11 8.37 40.11"/>
            <polygon fill="#282D33" points="50.94 42.25 54 42.25 54 40.11 50.94 40.11"/>
            <polygon fill="#282D33" points="0 43.13 2.16 43.13 2.16 39.24 0 39.24"/>
            <polygon fill="#282D33" points="3.24 43.13 5.4 43.13 5.4 39.24 3.24 39.24"/>
            <path fill="#FF7502" d="M18.11 41.18a2.31 2.31 0 1 1-4.64 0c0-1.27 1.04-2.3 2.33-2.3a2.31 2.31 0 0 1 2.31 2.3M17.18 17.93c0 5.4 4.38 9.77 9.78 9.77h.08a9.78 9.78 0 0 0 0-19.56h-.08a9.78 9.78 0 0 0-9.78 9.79z"/>
            <path fill="#FFF" d="M25.36 20.15v-4.87a.6.6 0 0 1 .33-.54c.2-.1.44-.1.63.03L30 17.2a.6.6 0 0 1 0 1.02l-3.68 2.43a.62.62 0 0 1-.63.03.6.6 0 0 1-.33-.53z"/>
        </g>
    </g>
</svg>
