<svg xmlns="http://www.w3.org/2000/svg" width="100" height="100" viewBox="0 0 100 100">
    <g fill="none" fill-rule="evenodd">
        <path fill="#FFE5C4" d="M0 50.9C0 22.4 22.39 0 50.9 0 77.62 0 100 22.39 100 50.9c0 26.71-22.39 49.1-49.1 49.1C22.4 100 0 77.61 0 50.9z" opacity=".6"/>
        <g transform="translate(27 30)">
            <g transform="translate(9.482)">
                <path fill="#FF7502" d="M9.31 2.5c2.5 0 4.6 2.43 5.73 3.74.7.81 1.08 1.26 1.79 1.26.7 0 1.09-.45 1.79-1.26 1.12-1.3 3.22-3.74 5.72-3.74a6.26 6.26 0 0 1 5.19 9.75c-2.86 5.27-10.38 10.84-12.7 12.48-2.33-1.64-9.84-7.2-12.7-12.48a6.21 6.21 0 0 1-1.07-3.5c0-3.45 2.8-6.25 6.25-6.25z"/>
                <path fill="#282D33" fill-rule="nonzero" d="M16.13 27.29a1.25 1.25 0 0 0 1.4 0C17.94 27 28 20.26 31.7 13.49A8.77 8.77 0 0 0 24.34 0c-3.55 0-6.19 2.94-7.51 4.48C15.5 2.94 12.87 0 9.3 0a8.77 8.77 0 0 0-7.36 13.49C5.65 20.26 15.7 27 16.13 27.29zM9.31 2.49c2.5 0 4.6 2.44 5.73 3.75.7.81 1.08 1.26 1.79 1.26.7 0 1.09-.45 1.79-1.26 1.12-1.3 3.22-3.74 5.72-3.74a6.26 6.26 0 0 1 5.19 9.75c-2.86 5.27-10.38 10.84-12.7 12.48-2.33-1.64-9.84-7.2-12.7-12.48a6.21 6.21 0 0 1-1.07-3.5c0-3.45 2.8-6.25 6.25-6.25z"/>
            </g>
            <path fill="#FFF" d="M41.37 26.99c-2.3-1.34-4.21.64-4.94 1.4a55.22 55.22 0 0 1-4.29 3.9c-.4-.18-.83-.28-1.29-.29-2.83-.15-7.3-.66-8.4-1.32-1.21-.72-2.17-1.41-3.02-2.03-2.44-1.76-4.36-3.15-9.15-3.15-1.39 0-2.6.38-3.79.76-1.2.38-2.35.74-3.72.74A2.75 2.75 0 0 0 0 29.75v7a2.75 2.75 0 0 0 2.76 2.75c2.61 0 6.71.13 7.61.44 1.63.54 5.45 2.8 6.78 3.62l.05.03c.49.27 1.03.41 1.59.41h12.73c1.35 0 2.85-1.24 3.37-2.1 1.67-2.77 7.65-10.3 7.71-10.37.06-.07.1-.14.14-.22.78-1.55.18-3.4-1.38-4.32z"/>
            <path fill="#282D33" fill-rule="nonzero" d="M41.37 26.99c-2.3-1.34-4.21.64-4.94 1.4a55.22 55.22 0 0 1-4.29 3.9c-.4-.18-.83-.28-1.29-.29-2.83-.15-7.3-.66-8.4-1.32-1.21-.72-2.17-1.41-3.02-2.03-2.44-1.76-4.36-3.15-9.15-3.15-1.39 0-2.6.38-3.79.76-1.2.38-2.35.74-3.72.74A2.75 2.75 0 0 0 0 29.75v7a2.75 2.75 0 0 0 2.76 2.75c2.61 0 6.71.13 7.61.44 1.63.54 5.45 2.8 6.78 3.62l.05.03c.49.27 1.03.41 1.59.41h12.73c1.35 0 2.85-1.24 3.37-2.1 1.67-2.77 7.65-10.3 7.71-10.37.06-.07.1-.14.14-.22.78-1.55.18-3.4-1.38-4.32zm-9.84 14.5H18.8a.76.76 0 0 1-.35-.07c-.47-.3-5.1-3.13-7.27-3.86-1.62-.53-7.3-.56-8.41-.56a.25.25 0 0 1-.26-.25v-7c0-.14.12-.25.26-.25 1.76 0 3.2-.46 4.48-.86 1.09-.34 2.03-.64 3.03-.64 3.98 0 5.37 1 7.68 2.68.9.64 1.9 1.37 3.2 2.14.65.4 1.73.7 2.94.93a54.38 54.38 0 0 0 6.72.75.75.75 0 0 1 0 1.5h-.07l-9.48.5c-.75-.03-2.53-1.29-3.71-2.12l-.9-.63c-.64-.44-1.25-.84-1.81-1.12a1.25 1.25 0 1 0-1.12 2.24c.64.32 1.49.92 2.38 1.55C17.99 37.75 19.76 39 21.3 39h.07l9.49-.5a3.26 3.26 0 0 0 3-4.4c1.01-.82 2.82-2.37 4.38-3.98 1.06-1.1 1.49-1.2 1.86-.97.34.19.58.57.45.95-.83 1.05-6.15 7.77-7.8 10.5-.22.37-.95.87-1.22.9z"/>
        </g>
    </g>
</svg>
