<svg xmlns="http://www.w3.org/2000/svg" width="100" height="100" viewBox="0 0 100 100">
    <g fill="none" fill-rule="evenodd">
        <path fill="#FFE5C4" d="M0 50.9C0 22.4 22.39 0 50.9 0 77.62 0 100 22.39 100 50.9c0 26.71-22.39 49.1-49.1 49.1C22.4 100 0 77.61 0 50.9z" opacity=".6"/>
        <g transform="translate(27 22)">
            <polygon fill="#FFF" points="6.89 0 34 .12 43.07 9.1 43.07 23.81 43.07 38.57 29.75 52.31 6.46 52.04"/>
            <path fill="#282D33" d="M6.43 9.15H2.75V46.7h3.68v2.75H0V6.4h6.43v2.74z"/>
            <g transform="translate(4.59)">
                <path fill="#282D33" d="M38.56 23.8h-2.62V11.9h2.62v11.9zM27.54 52.18v-2.66 2.66zM11.02 49.54v2.64H0V0h26.62v2.64H2.63v46.9h8.39z"/>
                <polygon fill="#FF7502" points="29.38 9.15 38.56 9.15 29.38 0"/>
            </g>
            <g transform="translate(11.016 13.732)">
                <path fill="#FFE5C4" d="M6.34 3.15a3.08 3.08 0 1 1-6.15 0 3.08 3.08 0 0 1 6.15 0"/>
                <path fill="#FF7502" d="M4.03 5.77L1.95 3.7a.77.77 0 0 1 0-1.09c.3-.3.79-.3 1.09 0l1 1 2.53-2.54c.3-.3.79-.3 1.09 0 .3.3.3.79 0 1.09L4.03 5.77z"/>
                <path fill="#FFE5C4" d="M6.34 12.37a3.08 3.08 0 1 1-6.15-.01 3.08 3.08 0 0 1 6.15 0"/>
                <path fill="#FF7502" d="M4.03 14.99L1.95 12.9a.77.77 0 0 1 0-1.09c.3-.3.79-.3 1.09 0l1 1 2.53-2.53c.3-.3.79-.3 1.09 0 .3.3.3.78 0 1.08L4.03 15z"/>
                <path fill="#FFE5C4" d="M6.34 21.58a3.08 3.08 0 1 1-6.15-.01 3.08 3.08 0 0 1 6.15.01"/>
                <path fill="#FF7502" d="M4.03 24.2l-2.08-2.08a.77.77 0 0 1 0-1.08c.3-.3.79-.3 1.09 0l1 1 2.53-2.54c.3-.3.79-.3 1.09 0 .3.3.3.79 0 1.09L4.03 24.2z"/>
                <polygon fill="#000" points="10.2 2.39 24.07 2.39 24.07 .85 10.2 .85"/>
                <polygon fill="#000" points="10.2 5.46 19.44 5.46 19.44 3.92 10.2 3.92"/>
                <polygon fill="#000" points="10.2 11.6 24.07 11.6 24.07 10.06 10.2 10.06"/>
                <polygon fill="#000" points="10.2 14.67 16.36 14.67 16.36 13.13 10.2 13.13"/>
                <polygon fill="#000" points="10.2 20.81 24.07 20.81 24.07 19.28 10.2 19.28"/>
                <polygon fill="#000" points="10.2 23.88 14.82 23.88 14.82 22.35 10.2 22.35"/>
                <polygon fill="#000" points="16.36 23.88 20.98 23.88 20.98 22.35 16.36 22.35"/>
            </g>
            <g transform="translate(15.607 25.634)">
                <polygon fill="#282D33" points="0 38.35 1.02 39.37 2.75 37.63 1.74 36.62"/>
                <polygon fill="#282D33" points="33.97 2.31 35.13 3.47 36.28 2.32 38.07 4.1 36.92 5.25 38.08 6.41 40.39 4.1 36.28 0"/>
                <polyline fill="#FFF" points="23.57 13.73 8.26 29 11.31 32.04 26.62 16.77"/>
                <polygon fill="#282D33" points="10.66 33.87 6.43 29.65 22.39 13.73 23.56 14.89 8.76 29.65 10.66 31.55 25.46 16.79 26.62 17.95"/>
                <polygon fill="#282D33" points="0 36.78 2.59 39.37 4.59 37.37 3.55 36.33 2.59 37.28 2.09 36.78 3.04 35.83 2 34.79"/>
                <polygon fill="#FF7502" points="22.95 13.71 26.64 17.39 37.64 6.43 33.95 2.75"/>
                <path fill="#282D33" d="M24.28 13.61l2.46 2.46 9.57-9.54-2.46-2.46-9.57 9.54zm2.46 4.7l-4.7-4.7 11.8-11.78 4.72 4.7L26.74 18.3z"/>
                <polygon fill="#282D33" points="21.32 12.82 20.2 11.68 29.92 1.83 35.8 7.79 34.68 8.92 29.92 4.11"/>
                <polygon fill="#FFE5C4" points="5.45 37.54 11.02 31.98 8.33 29.3 2.75 34.85"/>
                <path fill="#282D33" d="M4.07 34.78l1.44 1.45 4.2-4.18-1.45-1.45-4.2 4.18zm1.44 3.67l-3.67-3.67 6.42-6.4 3.67 3.67-6.42 6.4z"/>
            </g>
        </g>
    </g>
</svg>
