<svg xmlns="http://www.w3.org/2000/svg" width="100" height="100" viewBox="0 0 100 100">
    <g fill="none" fill-rule="evenodd">
        <path fill="#FFE5C4" d="M0 50.9C0 22.4 22.39 0 50.9 0 77.62 0 100 22.39 100 50.9c0 26.71-22.39 49.1-49.1 49.1C22.4 100 0 77.61 0 50.9z" opacity=".6"/>
        <g transform="translate(28 27)">
            <path fill="#FFF" d="M41 8h-8c-.4 0-.7.1-1 .2V3c0-1.7-1.3-3-3-3H19c-1.7 0-3 1.3-3 3v8.2c-.3-.1-.6-.2-1-.2h-2a3 3 0 0 0-2.9 2.2c-.3-.1-.7-.2-1.1-.2H3c-1.7 0-3 1.3-3 3v25c0 1.7 1.3 3 3 3h6c.8 0 1.5-.3 2-.8.5.5 1.2.8 2 .8h2c.8 0 1.5-.3 2-.8.5.5 1.2.8 2 .8h10c.8 0 1.5-.3 2-.8.5.5 1.2.8 2 .8h8c1.7 0 3-1.3 3-3V11c0-1.7-1.3-3-3-3z"/>
            <path fill="#FF7502" d="M29 42H19c-.6 0-1-.4-1-1V3c0-.6.4-1 1-1h10c.6 0 1 .4 1 1v38c0 .6-.4 1-1 1z"/>
            <path fill="#282D33" fill-rule="nonzero" d="M25 38h-2c-.6 0-1 .4-1 1s.4 1 1 1h2c.6 0 1-.4 1-1s-.4-1-1-1zM7 35H5c-.6 0-1 .4-1 1s.4 1 1 1h2c.6 0 1-.4 1-1s-.4-1-1-1zM7 32H5c-.6 0-1 .4-1 1s.4 1 1 1h2c.6 0 1-.4 1-1s-.4-1-1-1zM7 29H5c-.6 0-1 .4-1 1s.4 1 1 1h2c.6 0 1-.4 1-1s-.4-1-1-1z"/>
            <polygon fill="#F8C44F" points="25 20 23 20 23 8 25 8"/>
            <path fill="#282D33" fill-rule="nonzero" d="M26 6h-4c-.6 0-1 .4-1 1v14c0 .6.4 1 1 1h4c.6 0 1-.4 1-1V7c0-.6-.4-1-1-1zm-1 14h-2V8h2v12zM35 33c.6 0 1-.4 1-1V20c0-.6-.4-1-1-1s-1 .4-1 1v12c0 .6.4 1 1 1zM39 33c.6 0 1-.4 1-1v-6c0-.6-.4-1-1-1s-1 .4-1 1v6c0 .6.4 1 1 1zM25 33v-6c0-.6-.4-1-1-1s-1 .4-1 1v6c0 .6.4 1 1 1s1-.4 1-1z"/>
            <path fill="#282D33" fill-rule="nonzero" d="M41 8h-8c-.4 0-.7.1-1 .2V3c0-1.7-1.3-3-3-3H19c-1.7 0-3 1.3-3 3v8.2c-.3-.1-.6-.2-1-.2h-2a3 3 0 0 0-2.9 2.2c-.3-.1-.7-.2-1.1-.2H3c-1.7 0-3 1.3-3 3v25c0 1.7 1.3 3 3 3h6c.8 0 1.5-.3 2-.8.5.5 1.2.8 2 .8h2c.8 0 1.5-.3 2-.8.5.5 1.2.8 2 .8h10c.8 0 1.5-.3 2-.8.5.5 1.2.8 2 .8h8c1.7 0 3-1.3 3-3V11c0-1.7-1.3-3-3-3zM2 16c0-.6.4-1 1-1h6c.6 0 1 .4 1 1v1H2v-1zm0 3h8v19H2V19zm7 23H3c-.6 0-1-.4-1-1v-1h8v1c0 .6-.4 1-1 1zm6 0h-2c-.6 0-1-.4-1-1V14c0-.6.4-1 1-1h2c.6 0 1 .4 1 1v27c0 .6-.4 1-1 1zm14 0H19c-.6 0-1-.4-1-1V3c0-.6.4-1 1-1h10c.6 0 1 .4 1 1v38c0 .6-.4 1-1 1zm13-1c0 .6-.4 1-1 1h-8c-.6 0-1-.4-1-1v-1h10v1zm0-3H32V14h10v24zm0-26H32v-1c0-.6.4-1 1-1h8c.6 0 1 .4 1 1v1z"/>
            <circle cx="14" cy="40" r="1" fill="#282D33" fill-rule="nonzero"/>
            <circle cx="14" cy="37" r="1" fill="#282D33" fill-rule="nonzero"/>
            <circle cx="14" cy="34" r="1" fill="#282D33" fill-rule="nonzero"/>
        </g>
    </g>
</svg>
