<svg xmlns="http://www.w3.org/2000/svg" width="100" height="100" viewBox="0 0 100 100">
    <g fill="none" fill-rule="evenodd">
        <path fill="#FFE5C4" d="M0 50.9C0 22.4 22.39 0 50.9 0 77.62 0 100 22.39 100 50.9c0 26.71-22.39 49.1-49.1 49.1C22.4 100 0 77.61 0 50.9z" opacity=".6"/>
        <polygon fill="#FFF" points="40.7 43.8 40.7 62.8 43.69 62.17 46.82 64.92 55.19 65.8 66.19 65.3 68.2 62.92 68.07 60.42 67.57 58.92 69.81 57.18 71.31 54.68 69.69 51.93 71.81 50.06 72.19 47.43 70.06 44.81 73.56 43.81 73.69 41.93 73.69 39.81 72.06 38.68 68.94 38.18 61.44 38.06 59.19 38.43 57.94 40.06 56.44 39.06 57.06 36.81 57.94 33.06 57.81 28.43 56.44 26.18 54.19 25.06 51.81 25.18 51.94 31.18 43.94 40.81 42.94 43.06 41.82 44.06"/>
        <g transform="translate(29 24)">
            <path fill="#282D33" d="M18.18 30.33c-.8 0-1.6-.1-2.38-.34l.51-1.84c4.25 1.22 8.87-1.9 10.28-6.96.6-2.15.55-4.42-.14-6.39l-.11-.31 1.57-4.65V5.2c0-1.82-1.47-3.3-3.26-3.3h-.63v5.87l-1.88 2.67-6.12 6.75a6.55 6.55 0 0 0-1.6 2.96l-.18.73h-2.8v-1.92h1.35a8.45 8.45 0 0 1 1.84-3.08l6.07-6.7 1.42-2.02V.06l.9-.05.22-.01h1.4a5.2 5.2 0 0 1 5.16 5.21v4.95l-1.46 4.32c.72 2.27.75 4.82.08 7.23-1.45 5.16-5.76 8.62-10.24 8.62zM33.09 42.3h-12.4c-2.5 0-4.8-1.09-6.4-3.01h-2.86v-1.92h3.8l.29.39a6.38 6.38 0 0 0 5.17 2.63h12.4v1.92z"/>
            <g transform="translate(27.505 13.177)">
                <polygon points="18.22 8.74 18.22 .03 .19 .03 .19 8.74"/>
                <path fill="#282D33" d="M4.5 1.95A2.43 2.43 0 0 0 2.1 4.39 2.43 2.43 0 0 0 4.5 6.82h9.41c1.33 0 2.41-1.09 2.41-2.43a2.43 2.43 0 0 0-2.41-2.44h-9.4zm9.41 6.79h-9.4A4.34 4.34 0 0 1 .18 4.39C.2 1.99 2.12.03 4.5.03h9.41c2.38 0 4.3 1.95 4.3 4.36 0 2.4-1.92 4.35-4.3 4.35z"/>
            </g>
            <path fill="#282D33" d="M30.21 21.92a2.43 2.43 0 0 0-2.4 2.43 2.43 2.43 0 0 0 2.4 2.44h9.41c1.33 0 2.41-1.1 2.41-2.44a2.43 2.43 0 0 0-2.4-2.43H30.2zm9.41 6.79h-9.4a4.34 4.34 0 0 1-4.32-4.36c0-2.4 1.94-4.35 4.31-4.35h9.41c2.38 0 4.31 1.95 4.31 4.35 0 2.4-1.93 4.36-4.3 4.36z"/>
            <path fill="#282D33" d="M29.32 28.7a2.43 2.43 0 0 0-2.42 2.44 2.43 2.43 0 0 0 2.42 2.44h9.4c1.34 0 2.42-1.1 2.42-2.44a2.43 2.43 0 0 0-2.41-2.43h-9.41zm9.4 6.8h-9.4A4.34 4.34 0 0 1 25 31.14c0-2.4 1.93-4.35 4.3-4.35h9.42c2.37 0 4.3 1.95 4.3 4.35 0 2.4-1.93 4.36-4.3 4.36z"/>
            <path fill="#282D33" d="M29.32 35.5a2.43 2.43 0 0 0-2.42 2.44 2.43 2.43 0 0 0 2.42 2.43h6.72c1.33 0 2.41-1.1 2.41-2.43a2.43 2.43 0 0 0-2.41-2.44h-6.72zm6.72 6.79h-6.72A4.34 4.34 0 0 1 25 37.94c0-2.4 1.93-4.36 4.3-4.36h6.73c2.37 0 4.3 1.95 4.3 4.36 0 2.4-1.93 4.35-4.3 4.35z"/>
            <g transform="translate(0 18.927)">
                <polygon points="10.35 26.83 0 26.83 0 13.48 0 .12 10.35 .12"/>
                <polyline fill="#FF7502" points="0 .12 10.35 .12 10.35 26.83 0 26.83"/>
            </g>
            <polygon points="0 45.76 45.72 45.76 45.72 0 0 0"/>
            <polygon fill="#FFF" points="3.38 42.79 5.28 42.79 5.28 40.84 3.38 40.84"/>
        </g>
    </g>
</svg>
