<svg xmlns="http://www.w3.org/2000/svg" width="276" height="207" viewBox="0 0 276 207">
    <g fill="none" fill-rule="evenodd">
        <rect width="276" height="207" fill="#D7EFE6"/>
        <g fill="#000" fill-rule="nonzero" opacity=".56" transform="translate(57 57)">
            <g transform="translate(64.53)">
                <path d="M29.23 3.76l-1.93-.3S22.23.27 17.68 0c-4.55.27-9.62 3.46-9.62 3.46l-1.93.3S-1.44 23.36.24 24.53C8.06 29.89 1.98 43.5 13.26 43.5V28.55c.56.6 1.15 1.1 1.77 1.47v8.95c0 1.5 2.65 2.72 2.65 2.72s2.65-1.22 2.65-2.72v-8.95a8.4 8.4 0 0 0 1.77-1.47V43.5c11.28 0 5.2-13.61 13.01-18.97 1.69-1.16-5.88-20.77-5.88-20.77zm-.8 30.68h-4.57v-1.81h4.92l-.29 1.46-.07.35zm-4.57 3.63v-1.82h4.18a17 17 0 0 1-.5 1.82h-3.68zm0-7.26v-1.8h5.9c-.22.6-.4 1.2-.56 1.8h-5.34zm0-3.62v-1.06l.41-.75h7.4c-.43.55-.8 1.15-1.14 1.81h-6.67zm3.27-16.31h2.83l.63 1.8h-3.84l.38-1.8zm-.66 3.62h4.73l.6 1.81h-5.23v-.1c0-.6-.04-1.17-.1-1.7zm-.01 3.63h5.89l.51 1.8h-6.69c.13-.6.22-1.2.29-1.8zm2.85-9.07h-1.8l.65-3.12 1.15 3.12zM26.53 5.1l-1.57 7.5a8.15 8.15 0 0 0-1.03-.68l1.31-7.56c.7.37 1.13.64 1.14.65l.15.1zm-9.73 5.42l-.89.07-.82-8.3c.56-.15 1.14-.28 1.7-.37v8.6zm-3.7.66l-1.33-7.64c.5-.23 1.03-.46 1.6-.67l.8 8c-.39.1-.74.2-1.08.31zm5.46-9.26c.57.09 1.15.22 1.71.38l-.82 8.29-.89-.07v-8.6zm3.43.95c.57.21 1.1.44 1.6.67l-1.32 7.64c-.34-.1-.7-.21-1.08-.3l.8-8.01zM10.12 4.36l1.3 7.56c-.4.23-.74.46-1.02.68L8.83 5.1l.15-.1c.01 0 .44-.27 1.14-.64zm1.38 22.83H4.83c-.34-.66-.71-1.26-1.13-1.81h7.39l.4.75v1.06zM7.82 38.07a17.3 17.3 0 0 1-.5-1.82h4.18v1.82H7.82zm-.88-3.63l-.07-.35-.3-1.46h4.93v1.81H6.94zm4.56-3.63H6.16c-.16-.6-.34-1.2-.56-1.8h5.9v1.8zM8.6 12.7H4.78a224 224 0 0 1 .63-1.81h2.83l.38 1.8zm.3 1.81c-.07.54-.1 1.1-.1 1.7v.11H3.56l.59-1.8h4.73zm0 3.63c.07.6.16 1.2.29 1.8h-6.7l.52-1.8H8.9zM7.2 5.94l.65 3.12h-1.8c.44-1.23.84-2.31 1.15-3.12zM2.05 21.75h7.59c.18.62.39 1.23.62 1.82h-8.3a6.3 6.3 0 0 0-.19-.15c.03-.3.1-.81.28-1.67zm8.15 19.37c-.6-.3-1.07-.69-1.47-1.24h2.77v1.66a5.4 5.4 0 0 1-1.3-.42zm6.6-6.68h1.76v1.81H16.8v-1.8zm1.76-1.81H16.8v-2.47h1.76v2.47zm-.76 6.92l-.12.08-.12-.08a2.91 2.91 0 0 1-.76-.69v-.8h1.76v.8c-.07.11-.29.36-.76.69zm2.25-11.53l-.45.33h-3.84c-.15-.1-.3-.2-.45-.33a10.5 10.5 0 0 1-2.39-2.98 18.62 18.62 0 0 1-2.3-10.15c.05-.07.47-.67 1.47-1.27 1.79-1.08 4.03-1.3 5.59-1.3 1.56 0 3.8.22 5.6 1.3 1 .6 1.41 1.2 1.45 1.27.05.42.07.85.07 1.31a18.6 18.6 0 0 1-2.37 8.84 10.5 10.5 0 0 1-2.38 2.98zm3.81 13.52v-1.66h2.77a4.14 4.14 0 0 1-2.77 1.66zm9.55-17.97H25.1c.23-.6.44-1.2.62-1.82h7.59c.19.86.25 1.37.27 1.67l-.17.15z"/>
                <path d="M16.02 19.34c.48 0 .87-.43.87-.94 0-.38-.2-.7-.49-.85l-3.54-1.88a.81.81 0 0 0-.38-.1c-.48 0-.87.43-.87.95 0 .37.2.69.49.84l1.37.73a1 1 0 0 0-.05.3c0 .52.39.95.87.95.3 0 .57-.18.72-.43l.63.33c.11.06.24.1.38.1zM23.26 17.36a.95.95 0 0 0 .49-.84c0-.52-.39-.94-.87-.94a.81.81 0 0 0-.38.1l-3.54 1.87a.95.95 0 0 0-.49.85c0 .51.39.94.87.94a.8.8 0 0 0 .38-.1l.63-.33c.15.25.42.43.72.43.48 0 .87-.43.87-.94a1 1 0 0 0-.05-.31l1.37-.73zM18.6 23.63h-1.84c-.51 0-.93.36-.93.8 0 .45.42.81.93.81h1.84c.51 0 .93-.36.93-.8 0-.45-.42-.8-.93-.8z"/>
            </g>
            <g transform="translate(120.221 .888)">
                <path d="M20.94 6.55l2.49-4.33a.89.89 0 0 0-.77-1.33.88.88 0 0 0-.76.44l-1.57 2.74V.89c0-.5-.4-.89-.88-.89-.49 0-.88.4-.88.89v3.18l-1.58-2.74a.88.88 0 1 0-1.52.89l2.49 4.33L.03 42.62H38.87L20.94 6.55zm1.16 7.66a.89.89 0 1 0-1.77 0h-1.76a.88.88 0 1 0-1.77 0h-.67l3.32-6.69 3.32 6.69h-.67zm-5.73 26.63l3.08-13.41 3.08 13.41h-6.16zm7.97 0l-4.9-21.3-4.88 21.3H2.88l12.36-24.86h.68c0 .5.4.89.88.89.49 0 .88-.4.88-.89h.89c0 .5.39.89.88.89s.88-.4.88-.89h.88a.88.88 0 1 0 1.76 0h.68l12.36 24.86H24.34z"/>
                <path d="M13.9 37.55l-1.77-1.78a.88.88 0 0 0-1.25 0l-1.14 1.15-1.14-1.15a.88.88 0 0 0-1.25 0l-1.77 1.78a.89.89 0 0 0 .63 1.52c.24 0 .46-.1.62-.26l1.14-1.15 1.14 1.15a.88.88 0 0 0 1.25 0l1.14-1.15 1.14 1.15a.88.88 0 0 0 1.51-.63c0-.25-.1-.47-.26-.63zM33.31 37.55l-1.76-1.78a.88.88 0 0 0-1.25 0l-1.14 1.15-1.14-1.15a.88.88 0 0 0-1.25 0L25 37.55a.89.89 0 0 0 1.25 1.26l1.14-1.15 1.14 1.15a.88.88 0 0 0 1.25 0l1.14-1.15 1.15 1.15a.88.88 0 0 0 1.5-.63c0-.25-.1-.47-.26-.63zM11.5 28.41c.5 0 .89-.4.89-.89s-.4-.88-.89-.88a.89.89 0 0 0 0 1.78zM15.03 26.64a.89.89 0 0 0 0 1.78.89.89 0 0 0 0-1.78zM23.86 26.64a.89.89 0 0 0 0 1.78c.49 0 .88-.4.88-.9 0-.49-.4-.88-.88-.88zM27.4 28.41c.48 0 .87-.4.87-.89s-.39-.88-.88-.88-.88.4-.88.88c0 .5.4.9.88.9z"/>
            </g>
            <g transform="translate(121.105 57.71)">
                <path d="M18.46 21.07a.82.82 0 0 0-.82.83c0 .45.37.82.82.82.44 0 .8-.37.8-.82a.82.82 0 0 0-.8-.83z"/>
                <path d="M38.71 20.92c-.3-1.87-1-3.4-1.58-4.37l1.77-.18-.2-.9a11.81 11.81 0 0 0-1.65-3.8l1.42-.7-.59-.8a20.33 20.33 0 0 0-2.77-3l1.3-.6-.54-.82c-.06-.1-1.56-2.31-4.01-3.7l.3-1.5-.83-.13a41.3 41.3 0 0 0-6.14-.41C20.37 0 13.61.73 7.87 4c-5.3 2.3-4.29 5.65-4.24 5.8l.11.35-.56.89.14 1.81a8.64 8.64 0 0 0-3.31 6.96l.03.65 2.38.44-.32 1.79.3.59-.65.67 1.09 2.16c-.13.25-.3.6-.45.97-.4.94-.69 1.9-.18 2.5.76.9 2.08 1.36 3.82 1.36 1.39 0 3-.31 4.54-.93a84 84 0 0 0 .5 7.26h13.04c-.43-1.5-.8-3.17-1.13-4.85.86.72 1.45 1.14 1.5 1.17l.65.45.46-.66a7.7 7.7 0 0 0 1.16-2.5l3.67 1.87.34-.8c.41-.97.66-1.8.8-2.42l3.5 1.57.15-1.1c.17-1.35-.07-2.8-.31-3.83l2.06.37-.06-1.05c-.1-1.48-.4-2.81-.66-3.72l2.63.15-.16-1zm-26-12.62a8.08 8.08 0 0 0-3.89 2.77 16.9 16.9 0 0 0-1.37-1.02c.55-1 1.62-1.74 2.5-2.21.56-.3 1.1-.54 1.53-.7.4.35.82.74 1.24 1.16zm5.75 15.91a2.3 2.3 0 0 1-2.27-2.31 2.3 2.3 0 0 1 2.27-2.31 2.3 2.3 0 0 1 2.26 2.3 2.3 2.3 0 0 1-2.26 2.32zm0-6.27c-1 0-1.92.38-2.6 1.01l-1-1.33a10 10 0 0 1 2.92-2.08c.38.81.7 1.62.94 2.4h-.26zm-4.62-1.62a54.56 54.56 0 0 0-1.23-1.47 9.52 9.52 0 0 1 3.48-2.34c.34.52.65 1.04.94 1.56-.88.44-2.17 1.19-3.2 2.25zm-2.33-2.69c-.5-.53-.98-1.02-1.46-1.47 1.1-1.65 3.16-2.32 3.9-2.51a27.07 27.07 0 0 1 1.18 1.48c-.9.4-2.47 1.22-3.62 2.5zM6.04 9.25c-.3-.15-.6-.26-.9-.36.04-.7.5-2.13 3.4-3.37l.1-.01c.24 0 .68.14 1.29.5-1.34.62-3.03 1.67-3.9 3.24zm0 20.05c-1.12 0-2-.24-2.47-.65.07-.4.46-1.33.89-2.13l.2-.39-.93-1.86.66-.67-.6-1.16.51-2.86-2.65-.5c.03-.37.11-.9.29-1.47a6.7 6.7 0 0 1 1.58-2.74c.1-.07.51-.35 1.3-.5a.81.81 0 0 0 1.58-.07c.47.04 1 .13 1.58.28l.4-1.6a9.18 9.18 0 0 0-3.44-.29l-.1-1.21.48-.75c1.78.81 3.97 2.73 6.44 5.63a59.97 59.97 0 0 1 3.1 4.01 4.01 4.01 0 0 0 .22 3.5 7.59 7.59 0 0 1-3.2 3.67 11.7 11.7 0 0 1-5.85 1.76zM22 35.63h-9.47c-.25-2.69-.33-4.8-.34-6.37a9.8 9.8 0 0 0 4.1-4.07c.3.21.65.38 1.02.5a20.4 20.4 0 0 0 3.68 4.9c.29 1.66.62 3.4 1.01 5.04zm11.88-15.64l.47 1.2c0 .02.56 1.47.82 3.36l-2.67-.49.49 1.36c0 .02.57 1.6.65 3.24l-2.38-1.06-1.05-.47-.08 1.17s-.08.88-.54 2.19l-4.33-2.22.04 1.38c0 .01 0 .91-.6 2.07a23.98 23.98 0 0 1-5.46-5.94 3.95 3.95 0 0 0 3.1-3.88c0-1.4-.7-2.61-1.76-3.32-.3-1.27-.77-2.58-1.41-3.93a28.27 28.27 0 0 0-3.35-5.3 24.09 24.09 0 0 0-3.8-3.88c-.03-.03-.18-.19-.22-.18-.44-.32-.85-.6-1.23-.81 4.99-2.29 10.53-2.82 14.62-2.82 2.24 0 4.04.16 5.04.28L30 2.98l.58.27c1.5.72 2.67 1.88 3.33 2.65l-1.9.87 1.08.84c.02.02 1.55 1.21 2.86 2.76l-1.41.7.65.8c.01.02 1.07 1.36 1.66 3.04l-2.81.28 1 1.2c.02.02 1.24 1.5 1.84 3.78l-3.01-.18z"/>
            </g>
            <g transform="translate(0 1.776)">
                <path d="M31 35.06c.51 0 .93-.42.93-.95a.94.94 0 0 0-.94-.94.94.94 0 0 0-.94.94c0 .53.43.95.94.95zM21.6 35.06c.52 0 .94-.42.94-.95a.94.94 0 0 0-.94-.94.94.94 0 0 0-.94.94c0 .53.42.95.94.95zM12.21 35.07a.94.94 0 1 0 0-1.9.94.94 0 0 0-.94.96c0 .52.42.94.94.94z"/>
                <path d="M42.7 20.2a2.8 2.8 0 0 0-5.13 1.61 2.83 2.83 0 0 0 3.83 2.65c.78 2.83-.9 5.32-8.05 6.72a3.72 3.72 0 0 0-5.41.75c-.98.09-2.02.16-3.12.23a3.78 3.78 0 0 0-2.28-1.71V27.2a69.5 69.5 0 0 1 11.08 1.2l1.05.23.07-1.02.13-.43c.44-1.48 1.6-5.44 1.6-9.93a20 20 0 0 0-1.13-6.96 14.26 14.26 0 0 0-4.48-6.27l-.25-.21h-8.07V.98a.94.94 0 0 0-.94-.95.94.94 0 0 0-.94.95v2.84H5.62l1.15 1.52a18.5 18.5 0 0 1 3.39 7.45c.46 2.2.55 4.56.28 7-.47 4.22-1.88 7.27-1.9 7.3L7.7 28.9l1.94-.5c3.2-.82 6.91-1.23 11.03-1.23v3.27a3.77 3.77 0 0 0-2.37 1.87c-1-.01-1.94-.05-2.83-.1a3.75 3.75 0 0 0-6-.66c-4.56-.83-6.75-2.12-7.87-2.86a.93.93 0 0 0-.65-.26.94.94 0 0 0-.94.95c-.06 2.62 1.15 9.84 3.74 12.3h33.85s6.57-3.96 7.4-12.13c.53-5.09-1.44-8.26-2.28-9.36zm-2.31 2.56a.94.94 0 0 1 0-1.9c.51 0 .93.43.93.95s-.42.95-.93.95zm-9.4 9.47c1.04 0 1.88.85 1.88 1.9 0 1.04-.84 1.9-1.88 1.9a1.89 1.89 0 0 1-1.88-1.9c0-1.05.85-1.9 1.88-1.9zM12 12.44a20.4 20.4 0 0 0-2.69-6.73h20.63c3.1 2.63 4.67 6.5 4.66 11.55 0 3.98-1 7.56-1.46 9.14a72.35 72.35 0 0 0-12.47-1.12c-3.55 0-6.82.3-9.75.9a28.97 28.97 0 0 0 1.38-6.1c.3-2.66.2-5.23-.3-7.64zm9.6 19.78c1.04 0 1.88.85 1.88 1.9 0 1.04-.84 1.89-1.88 1.89a1.89 1.89 0 0 1-1.88-1.9c0-1.04.85-1.89 1.88-1.89zm-9.39.01c1.04 0 1.88.85 1.88 1.9 0 1.04-.84 1.9-1.88 1.9a1.89 1.89 0 0 1-1.88-1.9c0-1.05.85-1.9 1.88-1.9zm30.92-2.86c-.17 1.61-.6 3.17-1.3 4.63a15.33 15.33 0 0 1-4.82 5.8H4.6c-.7-.97-1.38-2.62-1.9-4.67a29.8 29.8 0 0 1-.72-4 20.8 20.8 0 0 0 4.24 1.63c.74.21 1.51.4 2.33.55a3.77 3.77 0 0 0 3.67 4.6 3.77 3.77 0 0 0 3.76-3.76l1.88.06a3.77 3.77 0 0 0 3.75 3.7c2.08 0 3.76-1.7 3.76-3.8v-.09l1.89-.13-.01.24c0 2.09 1.68 3.79 3.75 3.79a3.77 3.77 0 0 0 3.55-5.05c.76-.17 1.48-.35 2.14-.55 3.2-.97 5.2-2.33 6.17-4.16.14-.26.25-.54.35-.82.02.66 0 1.34-.07 2.03z"/>
            </g>
            <path d="M39.82 8.9V5.43l1.73-.05L39.82.05S29.45.5 20.77.5C12.1.5 1.73.05 1.73.05L0 5.37l1.73.05v3.49h7.11l-.24 1.77H4.33l-.87 7.08h4.17l-2.44 17.7h8.66l1.04-17.7h11.76l1.04 17.7h8.65l-2.43-17.7h4.18l-.87-7.08h-4.29L32.7 8.9h7.13zM2.96 1.89c3.07.11 11 .39 17.81.39 6.81 0 14.75-.28 17.82-.4l.58 1.8c-3.94.13-12.13.37-18.4.37-6.27 0-14.46-.24-18.4-.37l.6-1.8zm.5 3.6c4.23.13 11.54.33 17.31.33s13.08-.2 17.32-.33v1.66H3.46V5.48zm13.85 3.43v1.77h-2l.1-1.77h1.9zm1.73 0h3.47v1.77h-3.47V8.9zm5.2 0h1.89l.1 1.77h-2V8.9zm-13.65 0h3.08l-.1 1.77h-3.22l.24-1.77zm1.63 24.78H7.18l2.2-15.93h3.77l-.93 15.93zm22.13 0h-5.03l-.94-15.93h3.78l2.19 15.93zm1.77-17.7H5.42l.44-3.54h29.83l.43 3.54zm-4.93-5.31h-3.22l-.1-1.77h3.07l.25 1.77z" transform="translate(1.768 58.598)"/>
            <g transform="translate(58.343 63.037)">
                <path d="M48.11 6.96L41.1 2.87A54.17 54.17 0 0 0 24.3.03C15.49.03 8.09 2.7 7.78 2.8l-.25.1L.51 7c-.49.28-.65.9-.37 1.4l10.12 17.7a1.01 1.01 0 0 0 1.39.37l7.12-4.16c.01 0 .01 0 0 0 .76-.31 2.73-.82 5.57-.82 3 0 4.98.55 5.61.85l7.02 4.09a1 1 0 0 0 1.38-.37l10.13-17.7c.28-.5.12-1.12-.37-1.4zm-36.6 17.22L2.4 8.25 7.66 5.2l1.01 1.77L5.17 9c-.49.28-.66.9-.38 1.4a1 1 0 0 0 1.39.37l3.5-2.04 1.02 1.77-3.51 2.04c-.49.29-.65.9-.37 1.4.28.49.9.65 1.38.37l3.51-2.04 1.01 1.77-3.5 2.04c-.49.28-.65.91-.38 1.4a1 1 0 0 0 1.39.37l3.5-2.04 1.02 1.77-3.5 2.04c-.5.29-.66.91-.38 1.4a1 1 0 0 0 1.38.37l3.51-2.04 1.02 1.77-5.27 3.06zm7.09-3.97L9.52 4.34a51.5 51.5 0 0 1 3.34-.88l5.83 16.72-.1.03zm2.08-.48l-5.82-16.7c1.06-.2 2.22-.4 3.45-.56l2.65 17.21-.28.05zm2.62-.26l-.32.02-2.65-17.23c.96-.09 1.95-.15 2.97-.17v17.38zm2.02 0V2.09c1 .02 2 .08 2.95.17l-2.65 17.22-.3-.01zm2.32.2l2.65-17.2c1.22.16 2.38.35 3.43.56l-5.81 16.69-.27-.04zm2.26.5l5.82-16.72c1.44.33 2.59.66 3.36.89L30.01 20.2l-.11-.03zm7.2 3.98l-5.26-3.07 9.12-15.93 5.26 3.07-9.11 15.93z"/>
                <path d="M40.32 8.32c-.28.49-.12 1.11.37 1.4a1 1 0 0 0 1.38-.38c.28-.49.11-1.11-.37-1.4a1 1 0 0 0-1.38.38zM41.94 11.62a1 1 0 0 0-1.39.38c-.28.48-.11 1.1.37 1.4.49.27 1.1.1 1.39-.38.28-.5.1-1.12-.37-1.4zM37.65 15.02a1 1 0 0 0 1.38-.37c.28-.49.12-1.11-.37-1.4a1 1 0 0 0-1.38.38c-.28.49-.12 1.11.37 1.4zM38.9 16.93a1 1 0 0 0-1.39.37c-.28.5-.11 1.12.37 1.4.49.28 1.1.12 1.39-.37.28-.5.11-1.12-.37-1.4zM35.62 18.56a1 1 0 0 0-1.38.38c-.28.49-.11 1.11.37 1.4a1 1 0 0 0 1.38-.38c.28-.49.12-1.11-.37-1.4z"/>
            </g>
        </g>
        <rect width="276" height="207" fill="#FFF" opacity=".34"/>
    </g>
</svg>
