<svg xmlns="http://www.w3.org/2000/svg" width="300" height="300" fill="none" viewBox="0 0 300 300">
    <path fill="#E9E8E8" d="M0 0h300v300H0z"/>
    <path fill="#B4B4B4" d="m174.011 224-.044-.001H97.675a2.097 2.097 0 0 1-2.082-2.324l13.033-118.209a2.094 2.094 0 0 1 2.082-1.865h18.287v-8.32c0-9.529 7.753-17.281 17.281-17.281 1.589 0 3.129.216 4.592.62a17.246 17.246 0 0 1 4.592-.62c9.529 0 17.281 7.752 17.281 17.28v8.321h19.443c1.088 0 1.993.832 2.087 1.916l10.14 118.202a2.09 2.09 0 0 1-.527 1.583 2.086 2.086 0 0 1-1.375.689l-.006.001h-.014l-.007.001-.006.001c-.003-.001-.005-.002-.007 0h-.007c-.002 0-.002.002-.007.001h-.007l-.007.001c-.004-.001-.006.001-.007.001h-.017c-.035.002-.071.002-.106.002h-28.259l-.041.001Zm3.417-4.19h19.421l-13.343-11.959-6.078 11.959Zm-77.415 0h72.057l5.814-77.569.007-.081 2.725-36.369h-17.06v6.865a2.095 2.095 0 1 1-4.189 0v-6.865h-26.183v6.865a2.095 2.095 0 0 1-4.189 0v-6.865h-16.411L100.013 219.81Zm84.913-16.313 14.86 13.318-9.525-111.024h-5.443l-2.744 36.6 2.852 61.106Zm-5.437-26.626-2.605 34.764 3.872-7.619-1.267-27.145Zm-15.932-75.27h4.995v-8.32c0-6.428-4.657-11.789-10.774-12.886 3.544 3.167 5.778 7.77 5.778 12.886l.001 8.32Zm-21.187 0h16.998v-8.32c0-5.603-3.54-10.397-8.5-12.26-4.96 1.863-8.498 6.656-8.498 12.26v8.32Zm-9.185 0h4.995v-8.32c0-5.116 2.235-9.72 5.779-12.886-6.117 1.097-10.774 6.458-10.774 12.886v8.32Z"/>
</svg>
