<svg xmlns="http://www.w3.org/2000/svg" xmlns:xlink="http://www.w3.org/1999/xlink" width="276" height="207" viewBox="0 0 276 207">
    <defs>
        <linearGradient id="mathematics-a" x1="100%" x2="4.35%" y1="0%" y2="96.87%">
            <stop offset="0%" stop-color="#FFC15E"/>
            <stop offset="50.22%" stop-color="#FFDCAD"/>
            <stop offset="100%" stop-color="#FFEBDB"/>
        </linearGradient>
        <rect id="mathematics-b" width="41.04" height="41.98"/>
        <rect id="mathematics-d" width="41.04" height="41.98"/>
        <rect id="mathematics-f" width="41" height="42"/>
        <rect id="mathematics-h" width="50" height="50"/>
        <rect id="mathematics-j" width="47" height="47"/>
        <rect id="mathematics-l" width="130" height="130"/>
        <rect id="mathematics-n" width="276" height="207"/>
    </defs>
    <g fill="none" fill-rule="evenodd">
        <rect width="276" height="207" fill="#FDD7BA"/>
        <rect width="276" height="207" fill="#FFD3A4"/>
        <path fill="url(#mathematics-a)" fill-rule="nonzero" d="M123.5 56a2.5 2.5 0 1 1 0-5 2.5 2.5 0 0 1 0 5zm7.5 0a3 3 0 1 1 0-6 3 3 0 0 1 0 6zm9-2a1 1 0 1 1 0-2 1 1 0 0 1 0 2zm10.5 3a3.5 3.5 0 1 1 0-7 3.5 3.5 0 0 1 0 7zm7.5-3a1 1 0 1 1 0-2 1 1 0 0 1 0 2zm9 0a1 1 0 1 1 0-2 1 1 0 0 1 0 2zm7.5 3a3.5 3.5 0 1 1 0-7 3.5 3.5 0 0 1 0 7zm10.5-3a1 1 0 1 1 0-2 1 1 0 0 1 0 2zm9.5 2a2.5 2.5 0 1 1 0-5 2.5 2.5 0 0 1 0 5zm8 0a2.5 2.5 0 1 1 0-5 2.5 2.5 0 0 1 0 5zm8.5-2a1 1 0 1 1 0-2 1 1 0 0 1 0 2zm8 2a3 3 0 1 1 0-6 3 3 0 0 1 0 6zm10-2a1 1 0 1 1 0-2 1 1 0 0 1 0 2zm8.5 3a3.5 3.5 0 1 1 0-7 3.5 3.5 0 0 1 0 7zm10 0a3.5 3.5 0 1 1 0-7 3.5 3.5 0 0 1 0 7zm8-1a2.5 2.5 0 1 1 0-5 2.5 2.5 0 0 1 0 5zm9 0a2.5 2.5 0 1 1 0-5 2.5 2.5 0 0 1 0 5zm8.5 0a3 3 0 1 1 0-6 3 3 0 0 1 0 6zM123 66a3 3 0 1 1 0-6 3 3 0 0 1 0 6zm9.5-1a2.5 2.5 0 1 1 0-5 2.5 2.5 0 0 1 0 5zm7.5-3a1 1 0 1 1 0-2 1 1 0 0 1 0 2zm10 0a1 1 0 1 1 0-2 1 1 0 0 1 0 2zm8.5 3a3.5 3.5 0 1 1 0-7 3.5 3.5 0 0 1 0 7zm9-2a1.5 1.5 0 1 1 0-3 1.5 1.5 0 0 1 0 3zm7.5-1a1 1 0 1 1 0-2 1 1 0 0 1 0 2zm10.5 0c-.83 0-1.5-.45-1.5-1s.67-1 1.5-1 1.5.45 1.5 1-.67 1-1.5 1zm8 1a1.5 1.5 0 1 1 0-3 1.5 1.5 0 0 1 0 3zm8.5 1a3 3 0 1 1 0-6 3 3 0 0 1 0 6zm7-2a1 1 0 1 1 0-2 1 1 0 0 1 0 2zm10.5 1a1.5 1.5 0 1 1 0-3 1.5 1.5 0 0 1 0 3zm9 2a3.5 3.5 0 1 1 0-7 3.5 3.5 0 0 1 0 7zm9.5 1a3 3 0 1 1 0-6 3 3 0 0 1 0 6zm8.5-1a2.5 2.5 0 1 1 0-5 2.5 2.5 0 0 1 0 5zm8-2a1.5 1.5 0 1 1 0-3 1.5 1.5 0 0 1 0 3zm10 2a2.5 2.5 0 1 1 0-5 2.5 2.5 0 0 1 0 5zm8.5 1a3 3 0 1 1 0-6 3 3 0 0 1 0 6zm-150 5a1 1 0 1 1 0-2 1 1 0 0 1 0 2zm8 0a1 1 0 1 1 0-2 1 1 0 0 1 0 2zm9 0a1 1 0 1 1 0-2 1 1 0 0 1 0 2zm10 4a3 3 0 1 1 0-6 3 3 0 0 1 0 6zm7.5-3a1.5 1.5 0 1 1 0-3 1.5 1.5 0 0 1 0 3zm9 2a2.5 2.5 0 1 1 0-5 2.5 2.5 0 0 1 0 5zm10.5 1a3 3 0 1 1 0-6 3 3 0 0 1 0 6zm6.5-1a2.5 2.5 0 1 1 0-5 2.5 2.5 0 0 1 0 5zm10 0a2.5 2.5 0 1 1 0-5 2.5 2.5 0 0 1 0 5zm8.5-3a1 1 0 1 1 0-2 1 1 0 0 1 0 2zm9.5 3a3.5 3.5 0 1 1 0-7 3.5 3.5 0 0 1 0 7zm7.5 1a3 3 0 1 1 0-6 3 3 0 0 1 0 6zm10-4a1 1 0 1 1 0-2 1 1 0 0 1 0 2zm9 0a1 1 0 1 1 0-2 1 1 0 0 1 0 2zm8.5 3a2.5 2.5 0 1 1 0-5 2.5 2.5 0 0 1 0 5zm9 0a3.5 3.5 0 1 1 0-7 3.5 3.5 0 0 1 0 7zm9 0a2.5 2.5 0 1 1 0-5 2.5 2.5 0 0 1 0 5zm9.5-3a1 1 0 1 1 0-2 1 1 0 0 1 0 2zM123 81a1 1 0 1 1 0-2 1 1 0 0 1 0 2zm9.5 1a2.5 2.5 0 1 1 0-5 2.5 2.5 0 0 1 0 5zm7.5-1a1 1 0 1 1 0-2 1 1 0 0 1 0 2zm9.5 1a2.5 2.5 0 1 1 0-5 2.5 2.5 0 0 1 0 5zm9.5 1a3 3 0 1 1 0-6 3 3 0 0 1 0 6zm8.5-1a1.5 1.5 0 1 1 0-3 1.5 1.5 0 0 1 0 3zm9 0a2.5 2.5 0 1 1 0-5 2.5 2.5 0 0 1 0 5zm7.5 1a3 3 0 1 1 0-6 3 3 0 0 1 0 6zm10.5 0c-1.93 0-3.5-1.34-3.5-3s1.57-3 3.5-3 3.5 1.34 3.5 3-1.57 3-3.5 3zm7.5-2a1 1 0 1 1 0-2 1 1 0 0 1 0 2zm9.5 2c-1.93 0-3.5-1.34-3.5-3s1.57-3 3.5-3 3.5 1.34 3.5 3-1.57 3-3.5 3zm7.5 0a3 3 0 1 1 0-6 3 3 0 0 1 0 6zm10.5-1a2.5 2.5 0 1 1 0-5 2.5 2.5 0 0 1 0 5zm9 0a1.5 1.5 0 1 1 0-3 1.5 1.5 0 0 1 0 3zm9 2a3.5 3.5 0 1 1 0-7 3.5 3.5 0 0 1 0 7zm8 0a3.5 3.5 0 1 1 0-7 3.5 3.5 0 0 1 0 7zm8.5-3a1 1 0 1 1 0-2 1 1 0 0 1 0 2zm8.5 3a3.5 3.5 0 1 1 0-7 3.5 3.5 0 0 1 0 7zm-150 5a1.5 1.5 0 1 1 0-3 1.5 1.5 0 0 1 0 3zm10 0c-1.38 0-2.5-.67-2.5-1.5s1.12-1.5 2.5-1.5 2.5.67 2.5 1.5-1.12 1.5-2.5 1.5zm7.5-1a1 1 0 1 1 0-2 1 1 0 0 1 0 2zm10 4a3 3 0 1 1 0-6 3 3 0 0 1 0 6zm8.5-3a1.5 1.5 0 1 1 0-3 1.5 1.5 0 0 1 0 3zm8.5 3a3 3 0 1 1 0-6 3 3 0 0 1 0 6zm8-4a1 1 0 1 1 0-2 1 1 0 0 1 0 2zm10.5 1a1.5 1.5 0 1 1 0-3 1.5 1.5 0 0 1 0 3zm8 0a1.5 1.5 0 1 1 0-3 1.5 1.5 0 0 1 0 3zm8.5 3a3 3 0 1 1 0-6 3 3 0 0 1 0 6zm9 0a3 3 0 1 1 0-6 3 3 0 0 1 0 6zm8 0a3 3 0 1 1 0-6 3 3 0 0 1 0 6zm9.5-3a1.5 1.5 0 1 1 0-3 1.5 1.5 0 0 1 0 3zm9.5-1a1 1 0 1 1 0-2 1 1 0 0 1 0 2zm8.5 1a1.5 1.5 0 1 1 0-3 1.5 1.5 0 0 1 0 3zm9 2a2.5 2.5 0 1 1 0-5 2.5 2.5 0 0 1 0 5zm9.5 1a3 3 0 1 1 0-6 3 3 0 0 1 0 6zm7-4a1 1 0 1 1 0-2 1 1 0 0 1 0 2zm-148.5 13a3.5 3.5 0 1 1 0-7 3.5 3.5 0 0 1 0 7zm9-2a2.5 2.5 0 1 1 0-5 2.5 2.5 0 0 1 0 5zm8 2a3.5 3.5 0 1 1 0-7 3.5 3.5 0 0 1 0 7zm10 0a3.5 3.5 0 1 1 0-7 3.5 3.5 0 0 1 0 7zm7.5-1a3 3 0 1 1 0-6 3 3 0 0 1 0 6zm9-2a1 1 0 1 1 0-2 1 1 0 0 1 0 2zm8.5 1a1.5 1.5 0 1 1 0-3 1.5 1.5 0 0 1 0 3zm9.5-1a1 1 0 1 1 0-2 1 1 0 0 1 0 2zm9.5 3a3.5 3.5 0 1 1 0-7 3.5 3.5 0 0 1 0 7zm7-2a2.5 2.5 0 1 1 0-5 2.5 2.5 0 0 1 0 5zm9.5 0a1 1 0 1 1 0-2 1 1 0 0 1 0 2zm8-1a1 1 0 1 1 0-2 1 1 0 0 1 0 2zm10.5 1a2.5 2.5 0 1 1 0-5 2.5 2.5 0 0 1 0 5zm8 0a2.5 2.5 0 1 1 0-5 2.5 2.5 0 0 1 0 5zm9 0a2.5 2.5 0 1 1 0-5 2.5 2.5 0 0 1 0 5zm9 0a2.5 2.5 0 1 1 0-5 2.5 2.5 0 0 1 0 5zm9.5 1a3 3 0 1 1 0-6 3 3 0 0 1 0 6zm7.5 1a3.5 3.5 0 1 1 0-7 3.5 3.5 0 0 1 0 7zm-149 9c-1.93 0-3.5-1.34-3.5-3s1.57-3 3.5-3 3.5 1.34 3.5 3-1.57 3-3.5 3zm8-3a1.5 1.5 0 1 1 0-3 1.5 1.5 0 0 1 0 3zm9 4a3.5 3.5 0 1 1 0-7 3.5 3.5 0 0 1 0 7zm8-4a1.5 1.5 0 1 1 0-3 1.5 1.5 0 0 1 0 3zm10 0a1.5 1.5 0 1 1 0-3 1.5 1.5 0 0 1 0 3zm8 2a2.5 2.5 0 1 1 0-5 2.5 2.5 0 0 1 0 5zm9.5-2a1 1 0 1 1 0-2 1 1 0 0 1 0 2zm8.5 4a3.5 3.5 0 1 1 0-7 3.5 3.5 0 0 1 0 7zm10 0a3.5 3.5 0 1 1 0-7 3.5 3.5 0 0 1 0 7zm7.5-4a1 1 0 1 1 0-2 1 1 0 0 1 0 2zm9 3a3 3 0 1 1 0-6 3 3 0 0 1 0 6zm9.5-1a2.5 2.5 0 1 1 0-5 2.5 2.5 0 0 1 0 5zm8 2a3.5 3.5 0 1 1 0-7 3.5 3.5 0 0 1 0 7zm9-2a2.5 2.5 0 1 1 0-5 2.5 2.5 0 0 1 0 5zm9.5 1a3 3 0 1 1 0-6 3 3 0 0 1 0 6zm8 0a3 3 0 1 1 0-6 3 3 0 0 1 0 6zm10 0a3 3 0 1 1 0-6 3 3 0 0 1 0 6zm9-3a1 1 0 1 1 0-2 1 1 0 0 1 0 2zm-151 9a1 1 0 1 1 0-2 1 1 0 0 1 0 2zm8 2a3 3 0 1 1 0-6 3 3 0 0 1 0 6zm9.5-1a2.5 2.5 0 1 1 0-5 2.5 2.5 0 0 1 0 5zm10 2a3.5 3.5 0 1 1 0-7 3.5 3.5 0 0 1 0 7zm8-2a1.5 1.5 0 1 1 0-3 1.5 1.5 0 0 1 0 3zm9 0a1.5 1.5 0 1 1 0-3 1.5 1.5 0 0 1 0 3zm7 2a3.5 3.5 0 1 1 0-7 3.5 3.5 0 0 1 0 7zm9.5-1a3 3 0 1 1 0-6 3 3 0 0 1 0 6zm10.5 1a3.5 3.5 0 1 1 0-7 3.5 3.5 0 0 1 0 7zm8 0a3.5 3.5 0 1 1 0-7 3.5 3.5 0 0 1 0 7zm7-2a1.5 1.5 0 1 1 0-3 1.5 1.5 0 0 1 0 3zm10 0a1.5 1.5 0 1 1 0-3 1.5 1.5 0 0 1 0 3zm10 0a2.5 2.5 0 1 1 0-5 2.5 2.5 0 0 1 0 5zm8.5-1a1 1 0 1 1 0-2 1 1 0 0 1 0 2zm7.5 1a1.5 1.5 0 1 1 0-3 1.5 1.5 0 0 1 0 3zm8.5-1a1 1 0 1 1 0-2 1 1 0 0 1 0 2zm10 0a1 1 0 1 1 0-2 1 1 0 0 1 0 2zm8 0a1 1 0 1 1 0-2 1 1 0 0 1 0 2zm-149 11a3 3 0 1 1 0-6 3 3 0 0 1 0 6zm8-2a1 1 0 1 1 0-2 1 1 0 0 1 0 2zm9.5 2a2.5 2.5 0 1 1 0-5 2.5 2.5 0 0 1 0 5zm9.5 0a3 3 0 1 1 0-6 3 3 0 0 1 0 6zm8.5 1a3.5 3.5 0 1 1 0-7 3.5 3.5 0 0 1 0 7zm8-1a2.5 2.5 0 1 1 0-5 2.5 2.5 0 0 1 0 5zm8 1a3.5 3.5 0 1 1 0-7 3.5 3.5 0 0 1 0 7zm10.5-3a1 1 0 1 1 0-2 1 1 0 0 1 0 2zm9 2a3 3 0 1 1 0-6 3 3 0 0 1 0 6zm8 0a3 3 0 1 1 0-6 3 3 0 0 1 0 6zm7.5-2a1.5 1.5 0 1 1 0-3 1.5 1.5 0 0 1 0 3zm9.5 2a3 3 0 1 1 0-6 3 3 0 0 1 0 6zm10-2a1 1 0 1 1 0-2 1 1 0 0 1 0 2zm8 2a3 3 0 1 1 0-6 3 3 0 0 1 0 6zm9.5-2a1.5 1.5 0 1 1 0-3 1.5 1.5 0 0 1 0 3zm7.5 0a1 1 0 1 1 0-2 1 1 0 0 1 0 2zm10.5 2a2.5 2.5 0 1 1 0-5 2.5 2.5 0 0 1 0 5zm8 1a3.5 3.5 0 1 1 0-7 3.5 3.5 0 0 1 0 7zm-150 6a1.5 1.5 0 1 1 0-3 1.5 1.5 0 0 1 0 3zm8.5 1a3 3 0 1 1 0-6 3 3 0 0 1 0 6zm9-2a1 1 0 1 1 0-2 1 1 0 0 1 0 2zm10 2a3 3 0 1 1 0-6 3 3 0 0 1 0 6zm7.5-1a1.5 1.5 0 1 1 0-3 1.5 1.5 0 0 1 0 3zm9.5 1a3 3 0 1 1 0-6 3 3 0 0 1 0 6zm7.5 1a3.5 3.5 0 1 1 0-7 3.5 3.5 0 0 1 0 7zm9.5-1a3 3 0 1 1 0-6 3 3 0 0 1 0 6zm10-2a1 1 0 1 1 0-2 1 1 0 0 1 0 2zm7.5 1a1.5 1.5 0 1 1 0-3 1.5 1.5 0 0 1 0 3zm8 0a1.5 1.5 0 1 1 0-3 1.5 1.5 0 0 1 0 3zm9.5 1a3 3 0 1 1 0-6 3 3 0 0 1 0 6zm9 0a3 3 0 1 1 0-6 3 3 0 0 1 0 6zm9.5 1a2.5 2.5 0 1 1 0-5 2.5 2.5 0 0 1 0 5zm9 0a2.5 2.5 0 1 1 0-5 2.5 2.5 0 0 1 0 5zm8-2a1.5 1.5 0 1 1 0-3 1.5 1.5 0 0 1 0 3zm10 2a2.5 2.5 0 1 1 0-5 2.5 2.5 0 0 1 0 5zm8.5-1a3 3 0 1 1 0-6 3 3 0 0 1 0 6zm-149.5 10a2.5 2.5 0 1 1 0-5 2.5 2.5 0 0 1 0 5zm7.5-3a1 1 0 1 1 0-2 1 1 0 0 1 0 2zm9.5 4a3.5 3.5 0 1 1 0-7 3.5 3.5 0 0 1 0 7zm10-3a1.5 1.5 0 1 1 0-3 1.5 1.5 0 0 1 0 3zm8 2a2.5 2.5 0 1 1 0-5 2.5 2.5 0 0 1 0 5zm8.5 1a3 3 0 1 1 0-6 3 3 0 0 1 0 6zm8-4a1 1 0 1 1 0-2 1 1 0 0 1 0 2zm10 0a1 1 0 1 1 0-2 1 1 0 0 1 0 2zm9.5 3a2.5 2.5 0 1 1 0-5 2.5 2.5 0 0 1 0 5zm7.5-3a1 1 0 1 1 0-2 1 1 0 0 1 0 2zm9 0a1 1 0 1 1 0-2 1 1 0 0 1 0 2zm8.5 4a3.5 3.5 0 1 1 0-7 3.5 3.5 0 0 1 0 7zm9-3a1.5 1.5 0 1 1 0-3 1.5 1.5 0 0 1 0 3zm9 3a3.5 3.5 0 1 1 0-7 3.5 3.5 0 0 1 0 7zm10 0a3.5 3.5 0 1 1 0-7 3.5 3.5 0 0 1 0 7zm8-1a2.5 2.5 0 1 1 0-5 2.5 2.5 0 0 1 0 5zm9 1a3.5 3.5 0 1 1 0-7 3.5 3.5 0 0 1 0 7zm9-3c-1.38 0-2.5-.67-2.5-1.5s1.12-1.5 2.5-1.5 2.5.67 2.5 1.5-1.12 1.5-2.5 1.5zm-150 10c-1.93 0-3.5-1.34-3.5-3s1.57-3 3.5-3 3.5 1.34 3.5 3-1.57 3-3.5 3zm9 0a2.5 2.5 0 1 1 0-5 2.5 2.5 0 0 1 0 5zm7.5 1a3 3 0 1 1 0-6 3 3 0 0 1 0 6zm9.5-1a2.5 2.5 0 1 1 0-5 2.5 2.5 0 0 1 0 5zm9 1a3.5 3.5 0 1 1 0-7 3.5 3.5 0 0 1 0 7zm9-1a1.5 1.5 0 1 1 0-3 1.5 1.5 0 0 1 0 3zm7.5-1a1 1 0 1 1 0-2 1 1 0 0 1 0 2zm8.5 1a2.5 2.5 0 1 1 0-5 2.5 2.5 0 0 1 0 5zm10.5 0a3 3 0 1 1 0-6 3 3 0 0 1 0 6zm8-1a1 1 0 1 1 0-2 1 1 0 0 1 0 2zm9.5 2a3.5 3.5 0 1 1 0-7 3.5 3.5 0 0 1 0 7zm8 0a3.5 3.5 0 1 1 0-7 3.5 3.5 0 0 1 0 7zm10-1a2.5 2.5 0 1 1 0-5 2.5 2.5 0 0 1 0 5zm8.5 1a3 3 0 1 1 0-6 3 3 0 0 1 0 6zm9.5-1c-1.93 0-3.5-1.34-3.5-3s1.57-3 3.5-3 3.5 1.34 3.5 3-1.57 3-3.5 3zm6.5-1a1 1 0 1 1 0-2 1 1 0 0 1 0 2zm10.5 1a2.5 2.5 0 1 1 0-5 2.5 2.5 0 0 1 0 5zm7.5-1a1 1 0 1 1 0-2 1 1 0 0 1 0 2zm-148.5 9a2.5 2.5 0 1 1 0-5 2.5 2.5 0 0 1 0 5zm9 0a2.5 2.5 0 1 1 0-5 2.5 2.5 0 0 1 0 5zm8 0c-1.93 0-3.5-1.34-3.5-3s1.57-3 3.5-3 3.5 1.34 3.5 3-1.57 3-3.5 3zm9 0a2.5 2.5 0 1 1 0-5 2.5 2.5 0 0 1 0 5zm9 1a3.5 3.5 0 1 1 0-7 3.5 3.5 0 0 1 0 7zm8-1a2.5 2.5 0 1 1 0-5 2.5 2.5 0 0 1 0 5zm10.5 1a3 3 0 1 1 0-6 3 3 0 0 1 0 6zm8-2a1 1 0 1 1 0-2 1 1 0 0 1 0 2zm8.5 1a2.5 2.5 0 1 1 0-5 2.5 2.5 0 0 1 0 5zm8.5-1a1 1 0 1 1 0-2 1 1 0 0 1 0 2zm9 2a3 3 0 1 1 0-6 3 3 0 0 1 0 6zm8.5-1a1.5 1.5 0 1 1 0-3 1.5 1.5 0 0 1 0 3zm9.5-1a1 1 0 1 1 0-2 1 1 0 0 1 0 2zm8.5 1a2.5 2.5 0 1 1 0-5 2.5 2.5 0 0 1 0 5zm8.5-1a1 1 0 1 1 0-2 1 1 0 0 1 0 2zm8.5 1a1.5 1.5 0 1 1 0-3 1.5 1.5 0 0 1 0 3zm10 1a3.5 3.5 0 1 1 0-7 3.5 3.5 0 0 1 0 7zm8-3a1.5 1.5 0 1 1 0-3 1.5 1.5 0 0 1 0 3zM123 170a1 1 0 1 1 0-2 1 1 0 0 1 0 2zm8 1a3 3 0 1 1 0-6 3 3 0 0 1 0 6zm10 0a3 3 0 1 1 0-6 3 3 0 0 1 0 6zm9 0a3 3 0 1 1 0-6 3 3 0 0 1 0 6zm7.5-3a1.5 1.5 0 1 1 0-3 1.5 1.5 0 0 1 0 3zm9 2a2.5 2.5 0 1 1 0-5 2.5 2.5 0 0 1 0 5zm10 0a2.5 2.5 0 1 1 0-5 2.5 2.5 0 0 1 0 5zm7.5 1a3 3 0 1 1 0-6 3 3 0 0 1 0 6zm10 0a3 3 0 1 1 0-6 3 3 0 0 1 0 6zm7.5-2a1.5 1.5 0 1 1 0-3 1.5 1.5 0 0 1 0 3zm8 0a1.5 1.5 0 1 1 0-3 1.5 1.5 0 0 1 0 3zm11.5 2a3 3 0 1 1 0-6 3 3 0 0 1 0 6zm8-3a1 1 0 1 1 0-2 1 1 0 0 1 0 2zm8.5 4a3.5 3.5 0 1 1 0-7 3.5 3.5 0 0 1 0 7zm9-3a1.5 1.5 0 1 1 0-3 1.5 1.5 0 0 1 0 3zm8.5 2a3 3 0 1 1 0-6 3 3 0 0 1 0 6zm9-3a1 1 0 1 1 0-2 1 1 0 0 1 0 2zm9 3a3 3 0 1 1 0-6 3 3 0 0 1 0 6zm-150 7a1 1 0 1 1 0-2 1 1 0 0 1 0 2zm9.5 2a2.5 2.5 0 1 1 0-5 2.5 2.5 0 0 1 0 5zm8 2a3.5 3.5 0 1 1 0-7 3.5 3.5 0 0 1 0 7zm10-4a1.5 1.5 0 1 1 0-3 1.5 1.5 0 0 1 0 3zm8.5 3a3 3 0 1 1 0-6 3 3 0 0 1 0 6zm8 0a3 3 0 1 1 0-6 3 3 0 0 1 0 6zm9.5-1a2.5 2.5 0 1 1 0-5 2.5 2.5 0 0 1 0 5zm9-2a1.5 1.5 0 1 1 0-3 1.5 1.5 0 0 1 0 3zm7.5-1a1 1 0 1 1 0-2 1 1 0 0 1 0 2zm9 1a1 1 0 1 1 0-2 1 1 0 0 1 0 2zm7.5 0a1.5 1.5 0 1 1 0-3 1.5 1.5 0 0 1 0 3zm9.5 3a3 3 0 1 1 0-6 3 3 0 0 1 0 6zm9.5-3a1.5 1.5 0 1 1 0-3 1.5 1.5 0 0 1 0 3zm9 2a2.5 2.5 0 1 1 0-5 2.5 2.5 0 0 1 0 5zm9 0a2.5 2.5 0 1 1 0-5 2.5 2.5 0 0 1 0 5zm9 0a2.5 2.5 0 1 1 0-5 2.5 2.5 0 0 1 0 5zm9-1a3.5 3.5 0 1 1 0-7 3.5 3.5 0 0 1 0 7zm8 0a3.5 3.5 0 1 1 0-7 3.5 3.5 0 0 1 0 7zM123 189a3 3 0 1 1 0-6 3 3 0 0 1 0 6zm8-3a1 1 0 1 1 0-2 1 1 0 0 1 0 2zm9 0a1 1 0 1 1 0-2 1 1 0 0 1 0 2zm9.5 2a2.5 2.5 0 1 1 0-5 2.5 2.5 0 0 1 0 5zm9 2a3.5 3.5 0 1 1 0-7 3.5 3.5 0 0 1 0 7zm9-3a1.5 1.5 0 1 1 0-3 1.5 1.5 0 0 1 0 3zm7.5-1a1 1 0 1 1 0-2 1 1 0 0 1 0 2zm9.5 4a3.5 3.5 0 1 1 0-7 3.5 3.5 0 0 1 0 7zm8.5-4a1 1 0 1 1 0-2 1 1 0 0 1 0 2zm9.5 4a3.5 3.5 0 1 1 0-7 3.5 3.5 0 0 1 0 7zm9-1a3.5 3.5 0 1 1 0-7 3.5 3.5 0 0 1 0 7zm7.5 0a3 3 0 1 1 0-6 3 3 0 0 1 0 6zm10-3a1 1 0 1 1 0-2 1 1 0 0 1 0 2zm9 0a1 1 0 1 1 0-2 1 1 0 0 1 0 2zm8 0a1 1 0 1 1 0-2 1 1 0 0 1 0 2zm8 0a1 1 0 1 1 0-2 1 1 0 0 1 0 2zm10.5 2a2.5 2.5 0 1 1 0-5 2.5 2.5 0 0 1 0 5zm8 0a2.5 2.5 0 1 1 0-5 2.5 2.5 0 0 1 0 5zM123 196a1 1 0 1 1 0-2 1 1 0 0 1 0 2zm10 1c-1.66 0-3-1.12-3-2.5s1.34-2.5 3-2.5 3 1.12 3 2.5-1.34 2.5-3 2.5zm7-2a1 1 0 1 1 0-2 1 1 0 0 1 0 2zm10.5 4a3.5 3.5 0 1 1 0-7 3.5 3.5 0 0 1 0 7zm8.5-1a3 3 0 1 1 0-6 3 3 0 0 1 0 6zm8.5 1a3.5 3.5 0 1 1 0-7 3.5 3.5 0 0 1 0 7zm8-3a1.5 1.5 0 1 1 0-3 1.5 1.5 0 0 1 0 3zm9 3a3.5 3.5 0 1 1 0-7 3.5 3.5 0 0 1 0 7zm8.5-4a1 1 0 1 1 0-2 1 1 0 0 1 0 2zm8 0a1 1 0 1 1 0-2 1 1 0 0 1 0 2zm10 3a3 3 0 1 1 0-6 3 3 0 0 1 0 6zm8.5-2a1.5 1.5 0 1 1 0-3 1.5 1.5 0 0 1 0 3zm10 1a2.5 2.5 0 1 1 0-5 2.5 2.5 0 0 1 0 5zm7.5 1a3 3 0 1 1 0-6 3 3 0 0 1 0 6zm9-2a1 1 0 1 1 0-2 1 1 0 0 1 0 2zm9.5 2a2.5 2.5 0 1 1 0-5 2.5 2.5 0 0 1 0 5zm9-2a1.5 1.5 0 1 1 0-3 1.5 1.5 0 0 1 0 3zm8 1a3.5 3.5 0 1 1 0-7 3.5 3.5 0 0 1 0 7zM123 204a1 1 0 1 1 0-2 1 1 0 0 1 0 2zm8-1a1 1 0 1 1 0-2 1 1 0 0 1 0 2zm8.5 1a1.5 1.5 0 1 1 0-3 1.5 1.5 0 0 1 0 3zm10.5 0a1 1 0 1 1 0-2 1 1 0 0 1 0 2zm8 0a1 1 0 1 1 0-2 1 1 0 0 1 0 2zm9 2a3 3 0 1 1 0-6 3 3 0 0 1 0 6zm9.5 0a2.5 2.5 0 1 1 0-5 2.5 2.5 0 0 1 0 5zm7.5 0a3 3 0 1 1 0-6 3 3 0 0 1 0 6zm9.5-1a2.5 2.5 0 1 1 0-5 2.5 2.5 0 0 1 0 5zm8-1a1.5 1.5 0 1 1 0-3 1.5 1.5 0 0 1 0 3zm9.5 0a1 1 0 1 1 0-2 1 1 0 0 1 0 2zm8.5 3a3.5 3.5 0 1 1 0-7 3.5 3.5 0 0 1 0 7zm9-3a1.5 1.5 0 1 1 0-3 1.5 1.5 0 0 1 0 3zm9 0c-1.38 0-2.5-.67-2.5-1.5s1.12-1.5 2.5-1.5 2.5.67 2.5 1.5-1.12 1.5-2.5 1.5zm8.5 0a1 1 0 1 1 0-2 1 1 0 0 1 0 2zm10 2a3 3 0 1 1 0-6 3 3 0 0 1 0 6zm8.5-2a1.5 1.5 0 1 1 0-3 1.5 1.5 0 0 1 0 3zm8.5 2a3 3 0 1 1 0-6 3 3 0 0 1 0 6z"/>
        <g transform="rotate(180 91.019 33.49)">
            <mask id="mathematics-c" fill="#fff">
                <use xlink:href="#mathematics-b"/>
            </mask>
            <use fill="#D8D8D8" opacity="0" xlink:href="#mathematics-b"/>
            <g mask="url(#mathematics-c)">
                <g transform="translate(2.462 4.198)">
                    <path stroke="#FFF" stroke-width="2.4" d="M32.5 35.74L1.2 3v32.35c0 .22.18.4.4.4h30.9z"/>
                    <path stroke="#FFF" stroke-width="2.4" d="M7.7 19.43v9.5h9.09l-9.09-9.5z"/>
                    <path fill="#FFF" d="M1.96 35.6v-1.61h2.61v1.61h-2.6zm0-2.93v-1.61h1.5v1.61h-1.5zm0-2.93v-1.61h2.61v1.61h-2.6zm0-2.93V25.2h1.5v1.61h-1.5zm0-2.92v-1.62h2.61v1.62h-2.6zm0-2.93v-1.62h1.5v1.62h-1.5zm0-2.93v-1.61h2.61v1.61h-2.6zm0-2.93V13.5h1.5v1.61h-1.5zm0-2.93v-1.61h2.61v1.61h-2.6zm0-2.93v-1.6h1.5v1.6h-1.5zm0-2.92V4.7h2.61v1.62h-2.6z"/>
                </g>
            </g>
        </g>
        <g fill="#FFF" fill-rule="nonzero" transform="translate(18 25)">
            <path d="M140 62.17v-.63c0-.15-.16-.15-.16-.15 0-.16-.15-.16-.15-.31l-.16-.16c-.15 0-.15-.16-.3-.16h-.63c-2.64 0-4.82-1.09-6.69-2.64.47-.16.62-.63.78-.94.15-.47.15-.78-.16-1.25-.15-.46-.62-.62-.93-.77-.47-.16-.78-.16-1.24.15-.32.16-.47.31-.63.62a40.92 40.92 0 0 1-3.1-5.14c.46.31 1.08.31 1.55 0 .78-.46 1.09-1.4.62-2.18-.47-.78-1.4-1.09-2.18-.78-.46.31-.78.78-.78 1.25l-1.4-2.8-1.4-2.81c.47.16.94.16 1.4 0 .78-.47 1.1-1.4.63-2.18l-.47-.47c-.47-.47-1.24-.47-1.87-.15-.46.3-.77.62-.77 1.09-1.72-3.28-3.74-6.24-6.07-8.26.15-.47.15-.78-.16-1.25-.46-.78-1.4-1.09-2.17-.78-.16 0-.16.16-.32.31a9.88 9.88 0 0 0-2.8-.93c0-.16 0-.31-.15-.47l-.47-.46c-.15-.16-.3-.32-.62-.32-.47-.15-.78-.15-1.24.16l-.47.47c-.16.15-.31.3-.31.62-2.18.16-4.05 1.1-5.91 2.65-.16 0-.47 0-.63.15-.46.32-.77.63-.77 1.25-2.18 2.18-4.2 5.3-6.07 8.73-.47-.78-1.4-1.1-2.18-.63-.78.47-1.09 1.4-.62 2.18.31.63.93.94 1.56.94-.47.78-.78 1.56-1.25 2.34a2.16 2.16 0 0 0-1.4 0l-.15.15c-.94-.31-2.03-.62-3.12-.78 0-.15 0-.3-.15-.3-.47-.79-1.4-1.1-2.18-.79-.31.16-.47.31-.62.47-.78-.16-1.71-.31-2.65-.47v-.62c0-.16 0-.47-.15-.62-.16-.47-.62-.63-.93-.78-.47-.16-.78-.16-1.25.15l-.47.47c-.15.16-.3.31-.3.62v.63c-1.25-.16-2.34-.16-3.74-.32.16 0 .31 0 .62-.15.78-.47 1.1-1.4.62-2.18a1.79 1.79 0 0 0-2.17-.78c-.78.47-1.1 1.4-.63 2.18.32.47.78.78 1.25.78-1.25 0-2.49-.16-3.89-.16h-1.87c-.3-.78-.62-1.71-.93-2.49.47.78 1.4.94 2.18.62.78-.46 1.09-1.4.62-2.18-.47-.78-1.4-1.09-2.18-.78-.62.31-.93.94-.93 1.56-.78-2.02-1.4-3.9-2.18-5.92.31 0 .47 0 .78-.16l.47-.46c.46-.47.46-1.25.15-1.87-.47-.78-1.4-1.1-2.18-.78-.15 0-.3.15-.3.31C56.15 14.65 48.68 0 39.5 0 16.18 0 .62 59.52 0 62.17v.78c0 .15 0 .15.16.3 0 .16.15.16.15.32l.16.16.15.15c.16 0 .16.16.31.16h.94c0 .15.15.3.15.46l.47-.46h2.8c-.16.15-.16.3-.31.46-.16.47-.16.78.15 1.25.47.78 1.4 1.1 2.18.78.47-.16.62-.62.78-.94.15-.46.15-.77-.16-1.24 0-.16-.15-.31-.3-.31 3.73-.16 7-.47 9.95-.94 0 .31 0 .63.15.94.47.78 1.4 1.09 2.18.78.78-.47 1.09-1.4.62-2.19 2.03-.46 3.9-.93 5.6-1.4.31 0 .63 0 .94-.15.15 0 .15-.16.3-.32a80.7 80.7 0 0 0 10.43-4.2c-.31.47-.47 1.24-.16 1.71.47.78 1.4 1.1 2.18.78.78-.47 1.1-1.4.62-2.18-.3-.62-.77-.78-1.4-.94 1.87-.93 3.74-1.7 5.6-2.49-.15.31 0 .78.16 1.1.31.62.93.93 1.56.93.15 0 .46 0 .62-.16l.46-.47c.16-.15.16-.15.16-.3.78 1.7 1.56 3.26 2.33 4.98-.3 0-.62 0-.77.15-.63.32-.94.94-.94 1.56 0 .16 0 .47.16.63.3.62.93.93 1.55.93.16 0 .47 0 .63-.16l.46-.46s0-.16.16-.16c.93 1.72 1.7 3.27 2.64 4.83-.3 0-.62 0-.93.16-.47.15-.62.62-.78.93-.15.47-.15.78.16 1.25.46.78 1.4 1.09 2.17.78.47-.16.63-.63.78-.94 2.02 3.12 4.2 5.77 6.54 7.48a1.66 1.66 0 0 0-.32 1.87c.47.78 1.4 1.1 2.18.78.31-.16.62-.47.78-.93.78.3 1.56.62 2.49.77-.16.47-.16.78.15 1.25.47.78 1.4 1.1 2.18.78.62-.31.94-1.1.78-1.71 2.02-.16 3.89-.78 5.6-1.87h.16C83.06 95.98 90.53 110 99.7 110c23.65 0 38.89-44.87 39.51-46.74v-.31c.78-.63.78-.78.78-.78zm-31.89-28.98c6.53 0 9.96 6.85 13.53 14.18 2.34 4.83 4.83 9.81 8.4 12.93-13.84-.94-21.15-4.37-28.3-7.64-2.5-1.09-4.98-2.33-7.78-3.27 4.2-8.57 8.7-16.2 14.15-16.2zM70 48.46c8.56 0 14.62 1.09 19.76 2.64-.32.47-.47 1.1-.78 1.56-3.42 7.33-7 14.65-11.2 19.01-2.34-5.92-4.51-12.15-6.7-18.07-.61-1.72-1.24-3.43-1.86-5.3.31.16.47.16.78.16zm-56.47-16.2C22.1 12.92 31.11 2.64 39.51 2.64c8.87 0 17.58 21.19 25.36 42.85a59.44 59.44 0 0 0-16.03 2.8c-4.82-9.82-9.64-18.23-16.95-18.23-8.4 0-12.29 7.95-16.02 15.74C12.6 52.66 9.49 59.2 3.42 60.3c1.4-4.52 4.98-16.36 10.11-28.05zM10.27 60.3c3.73-3.27 6.22-8.42 8.4-13.09 3.42-7.17 6.69-14.02 13.22-14.02 5.44 0 9.8 7.63 14 16.2a89.86 89.86 0 0 0-7.78 3.43c-7 3.11-14.31 6.54-27.84 7.48zm40.75-7.64c-.3-.46-.46-1.09-.78-1.56 4.2-1.4 9.34-2.33 15.87-2.49.78 2.03 1.56 4.2 2.18 6.23a865.04 865.04 0 0 0 7 19.17A8.77 8.77 0 0 1 70 75.88c-7.93-.16-13.53-11.84-18.98-23.22zm49.47 53.76c-7.47 0-14.62-14.34-21.47-31.48C84 70.27 87.9 62.17 91.78 54.22l.93-1.87c2.8 1.1 5.29 2.18 7.78 3.27 8.4 3.9 17.27 7.95 35.93 8.26-3.26 8.41-17.1 42.54-35.93 42.54z"/>
            <g transform="translate(4.444)">
                <ellipse cx="100.04" cy="5.27" rx="1.76" ry="1.76" transform="rotate(62.794 100.044 5.275)"/>
                <ellipse cx="98.87" cy="9.96" rx="1.76" ry="1.76" transform="rotate(62.794 98.874 9.963)"/>
                <path d="M106.76 8.07a1.82 1.82 0 0 0 .85-1.96 12.01 12.01 0 0 0-1.7-1.42c-.34 0-.51 0-.85.18a1.84 1.84 0 0 0-.68 2.48 2.05 2.05 0 0 0 2.38.72z"/>
                <ellipse cx="94.19" cy="2.93" rx="1.76" ry="1.76" transform="rotate(62.794 94.194 2.93)"/>
                <ellipse cx="108.24" cy="19.34" rx="1.76" ry="1.76" transform="rotate(152.794 108.235 19.34)"/>
                <ellipse cx="105.89" cy="25.2" rx="1.76" ry="1.76" transform="rotate(-117.206 105.895 25.201)"/>
                <ellipse cx="112.92" cy="21.68" rx="1.76" ry="1.76" transform="rotate(62.794 112.915 21.685)"/>
                <ellipse cx="102.38" cy="18.17" rx="1.76" ry="1.76" transform="rotate(152.794 102.384 18.168)"/>
                <ellipse cx="109.41" cy="14.65" rx="1.76" ry="1.76" transform="rotate(62.794 109.405 14.652)"/>
                <ellipse cx="115.26" cy="34.58" rx="1.76" ry="1.76" transform="rotate(-117.206 115.256 34.579)"/>
                <ellipse cx="121.11" cy="35.75" rx="1.76" ry="1.76" transform="rotate(152.794 121.106 35.75)"/>
                <ellipse cx="117.6" cy="28.72" rx="1.76" ry="1.76" transform="rotate(152.794 117.596 28.718)"/>
                <ellipse cx="129.3" cy="50.99" rx="1.76" ry="1.76" transform="rotate(62.794 129.297 50.989)"/>
                <ellipse cx="124.62" cy="43.96" rx="1.76" ry="1.76" transform="rotate(152.794 124.617 43.956)"/>
                <ellipse cx="86" cy="12.31" rx="1.76" ry="1.76" transform="rotate(62.794 86.003 12.308)"/>
                <ellipse cx="83.66" cy="18.17" rx="1.76" ry="1.76" transform="rotate(62.794 83.663 18.168)"/>
                <ellipse cx="90.68" cy="14.65" rx="1.76" ry="1.76" transform="rotate(62.794 90.683 14.652)"/>
                <path d="M80.98 12.67c.86-.5 1.2-1.48.69-2.3-.35-.5-.86-.83-1.38-1-.69.5-1.38 1-1.9 1.49a2 2 0 0 0 .18.98c.34 1 1.55 1.32 2.4.83z"/>
                <ellipse cx="88.34" cy="6.45" rx="1.76" ry="1.76" transform="rotate(62.794 88.343 6.447)"/>
                <ellipse cx="93.02" cy="27.55" rx="1.76" ry="1.76" transform="rotate(62.794 93.024 27.546)"/>
                <ellipse cx="90.68" cy="33.41" rx="1.76" ry="1.76" transform="rotate(62.794 90.683 33.407)"/>
                <ellipse cx="98.87" cy="28.72" rx="1.76" ry="1.76" transform="rotate(-117.206 98.874 28.718)"/>
                <ellipse cx="88.34" cy="25.2" rx="1.76" ry="1.76" transform="rotate(62.794 88.343 25.201)"/>
                <ellipse cx="95.36" cy="21.68" rx="1.76" ry="1.76" transform="rotate(62.794 95.364 21.685)"/>
                <ellipse cx="70.79" cy="20.51" rx="1.76" ry="1.76" transform="rotate(62.794 70.792 20.513)"/>
                <ellipse cx="69.62" cy="25.2" rx="1.76" ry="1.76" transform="rotate(62.794 69.621 25.201)"/>
                <ellipse cx="76.64" cy="21.68" rx="1.76" ry="1.76" transform="rotate(62.794 76.642 21.685)"/>
                <ellipse cx="78.98" cy="34.58" rx="1.76" ry="1.76" transform="rotate(62.794 78.982 34.579)"/>
                <ellipse cx="76.64" cy="40.44" rx="1.76" ry="1.76" transform="rotate(-117.206 76.642 40.44)"/>
                <ellipse cx="84.83" cy="36.92" rx="1.76" ry="1.76" transform="rotate(62.794 84.833 36.923)"/>
                <ellipse cx="73.13" cy="33.41" rx="1.76" ry="1.76" transform="rotate(62.794 73.132 33.407)"/>
                <ellipse cx="80.15" cy="29.89" rx="1.76" ry="1.76" transform="rotate(62.794 80.152 29.89)"/>
                <ellipse cx="66.11" cy="36.92" rx="1.76" ry="1.76" transform="rotate(152.794 66.111 36.923)"/>
                <ellipse cx="62.6" cy="84.98" rx="1.76" ry="1.76" transform="rotate(-117.206 62.6 84.982)"/>
                <ellipse cx="33.35" cy="62.71" rx="1.76" ry="1.76" transform="rotate(-117.206 33.348 62.71)"/>
                <ellipse cx="40.37" cy="59.19" rx="1.76" ry="1.76" transform="rotate(-117.206 40.369 59.194)"/>
                <ellipse cx="42.71" cy="72.09" rx="1.76" ry="1.76" transform="rotate(-117.206 42.709 72.088)"/>
                <ellipse cx="40.37" cy="77.95" rx="1.76" ry="1.76" transform="rotate(62.794 40.369 77.949)"/>
                <ellipse cx="48.56" cy="74.43" rx="1.76" ry="1.76" transform="rotate(62.794 48.56 74.432)"/>
                <ellipse cx="36.86" cy="69.74" rx="1.76" ry="1.76" transform="rotate(-117.206 36.858 69.744)"/>
                <ellipse cx="43.88" cy="66.23" rx="1.76" ry="1.76" transform="rotate(-117.206 43.88 66.227)"/>
                <ellipse cx="49.73" cy="86.15" rx="1.76" ry="1.76" transform="rotate(-27.206 49.73 86.154)"/>
                <ellipse cx="48.56" cy="92.01" rx="1.76" ry="1.76" transform="rotate(-117.206 48.56 92.015)"/>
                <ellipse cx="55.58" cy="88.5" rx="1.76" ry="1.76" transform="rotate(-117.206 55.58 88.498)"/>
                <ellipse cx="45.05" cy="84.98" rx="1.76" ry="1.76" transform="rotate(-117.206 45.05 84.982)"/>
                <ellipse cx="52.07" cy="81.47" rx="1.76" ry="1.76" transform="rotate(-117.206 52.07 81.465)"/>
                <ellipse cx="20.48" cy="65.05" rx="1.76" ry="1.76" transform="rotate(-117.206 20.477 65.055)"/>
                <ellipse cx="19.31" cy="70.92" rx="1.76" ry="1.76" transform="rotate(-117.206 19.307 70.916)"/>
                <ellipse cx="25.16" cy="66.23" rx="1.76" ry="1.76" transform="rotate(-117.206 25.157 66.227)"/>
                <path d="M34.85 74.08c-.85.5-1.19 1.5-.68 2.32.5.84 1.52 1.17 2.36.84.84-.5 1.18-1.5.68-2.33-.34-1-1.35-1.33-2.36-.83z"/>
                <ellipse cx="28.67" cy="79.12" rx="1.76" ry="1.76" transform="rotate(62.794 28.668 79.12)"/>
                <ellipse cx="26.33" cy="84.98" rx="1.76" ry="1.76" transform="rotate(-117.206 26.327 84.982)"/>
                <ellipse cx="33.35" cy="81.47" rx="1.76" ry="1.76" transform="rotate(62.794 33.348 81.465)"/>
                <ellipse cx="22.82" cy="77.95" rx="1.76" ry="1.76" transform="rotate(-117.206 22.817 77.949)"/>
                <ellipse cx="29.84" cy="74.43" rx="1.76" ry="1.76" transform="rotate(-117.206 29.838 74.432)"/>
                <ellipse cx="35.69" cy="94.36" rx="1.76" ry="1.76" transform="rotate(-27.206 35.688 94.359)"/>
                <ellipse cx="34.52" cy="100.22" rx="1.76" ry="1.76" transform="rotate(-117.206 34.518 100.22)"/>
                <ellipse cx="40.37" cy="95.53" rx="1.76" ry="1.76" transform="rotate(-117.206 40.369 95.531)"/>
                <ellipse cx="29.84" cy="92.01" rx="1.76" ry="1.76" transform="rotate(-27.206 29.838 92.015)"/>
                <ellipse cx="36.86" cy="89.67" rx="1.76" ry="1.76" transform="rotate(-117.206 36.858 89.67)"/>
                <ellipse cx="45.05" cy="103.74" rx="1.76" ry="1.76" transform="rotate(-117.206 45.05 103.736)"/>
                <ellipse cx="6.44" cy="72.09" rx="1.76" ry="1.76" transform="rotate(-27.206 6.436 72.088)"/>
                <path d="M3.06 76.32c-.36.17-.54.34-.72.68.54.84.9 1.86 1.45 2.7.36 0 .72 0 1.08-.16.9-.51 1.27-1.53.73-2.37-.55-.85-1.63-1.19-2.54-.85z"/>
                <ellipse cx="11.12" cy="74.43" rx="1.76" ry="1.76" transform="rotate(-117.206 11.116 74.432)"/>
                <path d="M.14 69.38c-.14 0-.14.17-.14.17.29.99.71 1.97 1.14 3.12.14 0 .29 0 .43-.16.71-.5 1-1.48.57-2.3-.29-.99-1.28-1.32-2-.83z"/>
                <ellipse cx="7.61" cy="66.23" rx="1.76" ry="1.76" transform="rotate(62.794 7.606 66.227)"/>
                <path d="M16.2 92.74a1.94 1.94 0 0 0-.99 1.74c0 .17 0 .52.17.7l.49.52c.33.35.82.52 1.3.35.17 0 .5 0 .66-.18a1.82 1.82 0 0 0 .66-2.44c-.5-.7-1.48-1.04-2.3-.7z"/>
                <ellipse cx="13.46" cy="87.33" rx="1.76" ry="1.76" transform="rotate(-117.206 13.456 87.326)"/>
                <path d="M10.67 90.5l-.14.19c.57 1.09 1.14 2.18 1.7 3.08.58-.54.86-1.63.44-2.36-.29-1.08-1.29-1.45-2-.9z"/>
                <ellipse cx="19.31" cy="88.5" rx="1.76" ry="1.76" transform="rotate(-27.206 19.307 88.498)"/>
                <path d="M6.36 83.35c-.26.17-.38.34-.5.68.37.85.75 1.86 1.13 2.71.13 0 .39 0 .51-.17.64-.5.9-1.52.51-2.37-.25-.85-1.02-1.19-1.65-.85z"/>
                <ellipse cx="15.8" cy="81.47" rx="1.76" ry="1.76" transform="rotate(-27.206 15.796 81.465)"/>
                <ellipse cx="26.33" cy="103.74" rx="1.76" ry="1.76" transform="rotate(-117.206 26.327 103.736)"/>
                <path d="M16.38 98.46c.24.24.47.7.94.94-.24-.47-.7-.7-.94-.94z"/>
                <ellipse cx="22.82" cy="95.53" rx="1.76" ry="1.76" transform="rotate(-117.206 22.817 95.531)"/>
                <path d="M25.98 92.36c.5-.17.66-.68.82-1.01.17-.5.17-.84-.16-1.35-.17-.5-.5-.84-.99-.84-.16 0-.5-.17-.66 0-.16 0-.5 0-.66.17l-.49.5c-.16.17-.33.34-.33.68-.16.5-.16.84.17 1.34.49.68 1.48 1.01 2.3.5z"/>
            </g>
            <g transform="translate(13.333 6.667)">
                <path d="M101.18 19.63c0 .16 0 .47.15.62.45.78 1.34 1.1 2.09.78a1.6 1.6 0 0 0 .6-2.17c-.15-.47-.6-.63-.9-.78-.45-.16-.74-.16-1.2.15-.44.16-.74.78-.74 1.4zm4.48-9.63c.44.16.74.16 1.19-.15l.15-.16c-.3-.62-.6-1.09-1.04-1.55-.3-.31-.45-.78-.75-1.09-.6.47-.9 1.4-.6 2.17.3.32.6.63 1.05.78zM91.93 17.23c.77-.47 1.08-1.4.62-2.18a1.76 1.76 0 0 0-2.16-.78c-.77.47-1.08 1.4-.62 2.18.3.94 1.23 1.25 2.16.78zm9.4-14.65c-.3-.31-.46-.63-.77-.94-.15-.15-.3-.3-.3-.47 0 .16 0 .32.15.47.15.47.46.78.92.94zm-6 3.58c.6-.3.92-.93.92-1.56 0-.15 0-.46-.16-.62-.46-.78-1.39-1.1-2.16-.78-.77.47-1.08 1.4-.61 2.18.3.94 1.23 1.25 2 .78zm18.5 18.4l.15-.16a17 17 0 0 1-1.24-2.96c-.15 0-.3 0-.3.15-.47.16-.62.63-.78.94-.15.47-.15.78.16 1.25.15.77 1.08 1.09 2 .77zM109.57 18.65c.49.16.81.16 1.3-.16.16-.16.33-.16.33-.33-.33-.48-.5-.96-.82-1.44-.32-.48-.48-.96-.81-1.45-.16 0-.33 0-.49.17-.49.16-.65.64-.81.96-.16.48-.16.8.16 1.28.33.65.81.8 1.14.97zm11.39 22.47c-.17-.64-.5-1.28-.66-1.92 0 .16-.16.48 0 .64 0 .16 0 .48.17.64.16.32.32.48.49.64zM116.52 32.24c.16.15.31.3.62.3.31.16.47.16.78 0-.16-.46-.31-.93-.62-1.4-.16-.46-.47-.93-.62-1.55-.16.15-.31.15-.31.3-.16.16-.31.32-.31.63-.16.47-.16.78.15 1.25 0 .15.16.31.31.47zm7.61 20.42c.16 0 .16-.16.31-.31-.15-.78-.46-1.72-.77-2.8-.31 0-.62 0-1.09.15-.78.46-1.09 1.4-.62 2.18.47.93 1.4 1.25 2.17.78zM87.32 7.45c-.47.15-.62.62-.78.93-.15.47-.15.78.16 1.25.46.78 1.4 1.1 2.17.78.47-.16.62-.62.78-.94.15-.46.15-.78-.16-1.24-.15-.47-.62-.63-.93-.78-.46-.16-.93-.16-1.24 0zm-8.23 5.3c0 .15 0 .47.15.62l.47.47c.3.31.77.47 1.24.31.16 0 .47 0 .62-.16.47-.15.62-.62.78-.93.15-.47.15-.78-.16-1.25-.15-.47-.62-.62-.93-.78-.47-.15-.78-.15-1.24.16-.62.31-.93.93-.93 1.56zm4.66-9.51c.46.15.77.15 1.24-.16.78-.47 1.09-1.4.62-2.18a1.78 1.78 0 0 0-2.17-.78l-.47.47c-.31.3-.47.78-.31 1.24 0 .16 0 .47.15.63.16.31.47.62.94.78zM82.24 32.9c.16 0 .48 0 .64-.16.8-.48 1.11-1.43.63-2.22l-.47-.48c-.16-.16-.32-.32-.64-.32-.48-.16-.8-.16-1.28.16-.47.16-.63.64-.8.95 0 .16-.15.48 0 .64 0 .16 0 .48.17.64.32.47.95.79 1.75.79zm-3.35-7.78c.64-.32.96-.96.96-1.6 0-.15 0-.47-.16-.63-.48-.79-1.43-1.1-2.23-.79-.48.16-.64.64-.8.95-.16.48-.16.8.16 1.27.32.96 1.28 1.27 2.07.8zm-5.41-10.48l-.48.47c-.32.32-.48.8-.32 1.27 0 .16 0 .48.16.64l.48.47c.31.32.8.48 1.27.32.16 0 .48 0 .64-.16l.48-.47c.31-.32.47-.8.31-1.27 0-.16 0-.48-.15-.64l-.48-.48c-.32-.31-.8-.47-1.28-.31-.16 0-.32.16-.63.16zm-8.13 6.19l.48.48c.32.31.8.47 1.27.31.16 0 .48 0 .64-.16.8-.47 1.11-1.42.64-2.22a1.83 1.83 0 0 0-2.23-.8c-.96.48-1.28 1.44-.8 2.39zm5.9-10.64c.8-.48 1.11-1.43.63-2.22a1.83 1.83 0 0 0-2.23-.8l-.48.48c-.32.32-.47.8-.32 1.27 0 .16 0 .47.16.63.32.64 1.44 1.12 2.23.64zM65.2 8.76c.62-.31.93-1.09.77-1.71-.62.62-1.39 1.24-2 1.86.46.16.92.16 1.23-.15zm7.71 27.3c.31.3.77.46 1.24.3.15 0 .46 0 .61-.15.77-.47 1.08-1.4.62-2.17a1.7 1.7 0 0 0-1.54-.93c-.16 0-.47 0-.62.15-.46.16-.62.62-.77.93-.15.47-.15.78.15 1.24 0 .31.16.47.31.62zM56.47 17.99c.64-.3.96-.92.96-1.54-.32.46-.64.77-.96 1.23-.16.16-.16.31-.32.46 0 0 .16-.15.32-.15zm-1.75 5.55c.8-.47 1.12-1.39.64-2.16-.32-.46-.8-.77-1.27-.77-.64.77-1.12 1.54-1.75 2.31.63.62 1.59.92 2.38.62zm7.96 6.16l-.48.46c-.32.31-.48.77-.32 1.23 0 .16 0 .47.16.62a1.86 1.86 0 0 0 2.23.77c.8-.46 1.11-1.39.64-2.16a1.5 1.5 0 0 0-2.23-.92zM57.67 25.23c.31.31.78.47 1.25.31.16 0 .47 0 .62-.16.47-.15.63-.63.78-.94.16-.48.16-.8-.15-1.26l-.47-.48c-.31-.31-.78-.47-1.25-.31-.15 0-.47 0-.62.15l-.47.48c-.47.47-.47 1.26-.15 1.89.15 0 .3.16.46.32zm1.1 53.32c-.79.47-1.1 1.42-.63 2.2 0 .17.16.32.31.32.31-.31.47-.63.78-.94.47-.48.78-1.1 1.25-1.58-.16 0-.16-.16-.31-.16a1.5 1.5 0 0 0-1.4.16zM60.47 73.17c-.76.47-1.06 1.41-.6 2.2.45.78 1.36 1.1 2.11.78.16 0 .16-.16.3-.31.16-.32.31-.47.46-.79.15-.31 0-.78-.15-1.1-.45-.78-1.36-1.25-2.12-.78zm-8.17 9.25c-.15 0-.46 0-.6.16l-.46.47c-.15.15-.3.31-.3.62-.16.47-.16.79.15 1.26l.45.47c.3.31.76.47 1.21.31.15 0 .45 0 .6-.16l.46-.47c.3-.3.45-.78.3-1.25 0-.16 0-.47-.15-.63-.45-.62-1.06-.94-1.66-.78zm-22.4-25.7c-.76.46-1.06 1.4-.61 2.19l.45.47c.3.31.76.47 1.21.31.16 0 .46 0 .61-.16l.45-.47c.3-.31.46-.78.3-1.25 0-.16 0-.47-.14-.63-.16-.47-.61-.62-.91-.78-.6 0-1.06 0-1.37.31zM47.03 86.43c-.49-.46-1.3-.46-1.95-.16-.82.46-1.14 1.38-.66 2.15.5.76 1.47 1.07 2.29.76.81-.46 1.14-1.38.65-2.14 0-.3-.16-.46-.33-.61zm3.26-8.26c.82-.46 1.14-1.38.65-2.15l-.49-.46c-.48-.45-1.3-.45-1.95-.15-.49.15-.65.61-.82.92-.16.46-.16.76.17 1.22.65.77 1.63 1.07 2.44.62zM37.94 90.13c-.46-.16-.76-.16-1.22.16-.45.15-.6.63-.76.94-.15.32-.15.8.15 1.26.16.48.61.63.92.8.45.15.76.15 1.21-.17l.46-.47c.15-.16.3-.31.3-.63 0-.16.16-.47 0-.63 0-.16 0-.47-.15-.63a2.34 2.34 0 0 0-.91-.63zm7.45-22.06c-.45-.48-1.21-.48-1.82-.16-.46.16-.61.63-.76.94 0 .16-.16.48 0 .64 0 .15 0 .47.15.63.15.47.6.63.91.78.15 0 .46.16.61 0 .15 0 .46 0 .6-.15.47-.16.62-.63.77-.95.15-.47.15-.79-.15-1.26 0-.16-.15-.47-.3-.47zm-8.97 3.46c-.76.48-1.07 1.42-.61 2.21l.46.47c.3.32.76.48 1.21.32.15 0 .46 0 .61-.16.76-.47 1.07-1.42.61-2.2-.46-.64-1.37-.95-2.28-.64zm5.78 20.5c-.76.46-1.07 1.4-.61 2.2.3.63.91.94 1.52.94l1.37-.94c.15-.48.15-.95 0-1.42-.6-.79-1.52-1.1-2.28-.79zm7-3.8c-.76.48-1.07 1.43-.61 2.21l.15.16c.76-.63 1.52-1.42 2.43-2.05-.6-.47-1.21-.63-1.97-.31zM21.97 60.5l-.46.48c-.15.15-.3.31-.3.63-.16.47-.16.78.15 1.26l.45.47c.3.31.76.47 1.22.31.15 0 .46 0 .61-.15.46-.16.6-.63.76-.95.15-.47.15-.79-.15-1.26-.3-.63-.91-.95-1.52-.95-.3 0-.61 0-.76.16zm-7.15 3.78c-.46.16-.61.63-.76.95-.16.47-.16.79.15 1.26.15.47.6.63.91.79.46.16.76.16 1.22-.16l.45-.47c.46-.47.46-1.26.16-1.9-.3-.62-1.22-.94-2.13-.47zm3.5-11.18c-.76.47-1.07 1.41-.61 2.2.15.47.6.63.91.79.46.16.76.16 1.22-.16.76-.47 1.06-1.42.6-2.2-.45-.8-1.36-1.1-2.12-.63zM11.32 75.42c-.79.49-1.1 1.45-.63 2.25.16.48.63.64.94.8.47.16.79.16 1.26-.16.78-.48 1.1-1.44.63-2.24-.32-.8-1.42-1.13-2.2-.65zM30.8 94.2c-.15 0-.47 0-.62.16-.63.32-.95.96-.95 1.6 0 .17 0 .49.16.65.47.8 1.41 1.12 2.2.8.79-.48 1.1-1.44.63-2.25-.16-.8-.79-1.12-1.42-.96zm4.4-8.34c.79-.48 1.1-1.44.63-2.25a1.79 1.79 0 0 0-2.2-.8c-.78.48-1.1 1.45-.63 2.25a1.49 1.49 0 0 0 2.2.8zM25.41 98.18l-.47-.47c-.16-.16-.31-.31-.63-.31-.47-.16-.78-.16-1.25.15l-.47.47a1.2 1.2 0 0 0-.31 1.25c0 .15 0 .46.15.62.32.62.94.93 1.57.93.16 0 .47 0 .63-.15l.47-.47c.15-.16.31-.31.31-.62.31-.47.16-.94 0-1.4zm-4.7-8.1c-.47-.15-.78-.15-1.25.16-.79.47-1.1 1.4-.63 2.18a1.8 1.8 0 0 0 2.2.78c.78-.47 1.09-1.4.62-2.18a2.65 2.65 0 0 0-.94-.94zm10.97-11.82c.47-.16.63-.63.78-.94.16-.3.16-.77-.15-1.24-.16-.47-.63-.62-.94-.78-.47-.16-.79-.16-1.26.16-.78.46-1.1 1.4-.63 2.17.32.63.94.94 1.57.94.32-.16.47-.16.63-.31zm-8.78.78c-.78.46-1.1 1.4-.62 2.17.47.78 1.4 1.1 2.19.78.63-.3.94-.93.94-1.55 0-.16 0-.47-.16-.63a2.02 2.02 0 0 0-2.35-.77zm5.8 20.23c-.78.46-1.1 1.4-.63 2.17.16.32.47.63.94.78.63-.15 1.1-.3 1.73-.46.47-.47.63-1.25.16-1.87-.32-.62-1.26-.94-2.2-.62zM8.1 67.4c-.46.16-.62.63-.77.94-.16.48-.16.8.15 1.27.16.47.62.63.92.78.31.16.77.16 1.23-.15l.46-.48c.16-.15.3-.31.3-.63 0-.15.16-.47 0-.63-.14-.16 0-.47-.14-.63l-.47-.47c-.15-.16-.3-.32-.6-.32-.32 0-.78 0-1.08.32zm-4.61-5.84c0 .16 0 .48.15.63.46.8 1.38 1.1 2.15.8.62-.32.92-.95.92-1.59 0-.15 0-.47-.15-.63l-.46-.47c-.3-.31-.77-.47-1.23-.31-.15 0-.46 0-.61.15-.46.16-.77.8-.77 1.42zM2.99 72.57c-.15-.48-.6-.64-.9-.8-.45-.15-.75-.15-1.2.16-.6.32-.89.95-.89 1.58 0 .16 0 .48.15.64.45.79 1.34 1.1 2.1.79.89-.48 1.19-1.43.74-2.37zm8.81 21.8c-.6.3-.74.78-.9 1.41.6.64 1.2 1.11 1.8 1.74.15 0 .3 0 .45-.16a1.65 1.65 0 0 0 .6-2.2c-.3-.95-1.2-1.27-1.95-.8z"/>
            </g>
        </g>
        <g transform="translate(224 22)">
            <mask id="mathematics-e" fill="#fff">
                <use xlink:href="#mathematics-d"/>
            </mask>
            <use fill="#D8D8D8" opacity="0" xlink:href="#mathematics-d"/>
            <path fill="#FFF" fill-rule="nonzero" d="M31.85 39.46H9.23c-.57 0-1.02-.47-1.02-1.07V3.6c0-.6.45-1.07 1.02-1.07H31.8c.57 0 1.02.47 1.02 1.07v34.8a1 1 0 0 1-.98 1.07zm-21.56-2.18h20.54V4.65H10.29v32.63zm3.6-25.09h13.3V8.24H13.9v3.95zm3.38 5.32c0-.6-.45-1.07-1.02-1.07h-1.47c-.57 0-1.02.47-1.02 1.07 0 .6.45 1.07 1.02 1.07h1.47c.57.04 1.02-.47 1.02-1.07zm5.06 0c0-.6-.44-1.07-1.02-1.07h-1.47c-.57 0-1.02.47-1.02 1.07 0 .6.45 1.07 1.02 1.07h1.47c.53.04 1.02-.47 1.02-1.07zm5.03 0c0-.6-.45-1.07-1.02-1.07h-1.47c-.58 0-1.02.47-1.02 1.07 0 .6.44 1.07 1.02 1.07h1.47c.57.04 1.02-.47 1.02-1.07zm-10.09 4.7c0-.6-.45-1.07-1.02-1.07h-1.47c-.57 0-1.02.47-1.02 1.07 0 .6.45 1.07 1.02 1.07h1.47c.57 0 1.02-.47 1.02-1.07zm5.06 0c0-.6-.44-1.07-1.02-1.07h-1.47c-.57 0-1.02.47-1.02 1.07 0 .6.45 1.07 1.02 1.07h1.47c.53 0 1.02-.47 1.02-1.07zm5.03 0c0-.6-.45-1.07-1.02-1.07h-1.47c-.58 0-1.02.47-1.02 1.07 0 .6.44 1.07 1.02 1.07h1.47c.57 0 1.02-.47 1.02-1.07zm-10.09 4.7c0-.6-.45-1.07-1.02-1.07h-1.47c-.57 0-1.02.47-1.02 1.07 0 .6.45 1.06 1.02 1.06h1.47c.57 0 1.02-.47 1.02-1.06zm5.06 0c0-.6-.44-1.07-1.02-1.07h-1.47c-.57 0-1.02.47-1.02 1.07 0 .6.45 1.06 1.02 1.06h1.47c.53 0 1.02-.47 1.02-1.06zm5.03 0c0-.6-.45-1.07-1.02-1.07h-1.47c-.58 0-1.02.47-1.02 1.07 0 .6.44 1.06 1.02 1.06h1.47c.57 0 1.02-.47 1.02-1.06zm-10.09 4.65c0-.6-.45-1.07-1.02-1.07h-1.47c-.57 0-1.02.47-1.02 1.07 0 .6.45 1.07 1.02 1.07h1.47c.57 0 1.02-.47 1.02-1.07zm5.06 0c0-.6-.44-1.07-1.02-1.07h-1.47c-.57 0-1.02.47-1.02 1.07 0 .6.45 1.07 1.02 1.07h1.47c.53 0 1.02-.47 1.02-1.07zm5.03 0c0-.6-.45-1.07-1.02-1.07h-1.47c-.58 0-1.02.47-1.02 1.07 0 .6.44 1.07 1.02 1.07h1.47c.57 0 1.02-.47 1.02-1.07z" mask="url(#mathematics-e)"/>
        </g>
        <g transform="translate(188 22)">
            <mask id="mathematics-g" fill="#fff">
                <use xlink:href="#mathematics-f"/>
            </mask>
            <use fill="#D8D8D8" opacity="0" xlink:href="#mathematics-f"/>
            <path fill="#FFF" d="M22.02 14.66l3.02 10.94c.81-.25 1.6-.57 2.38-.95l.96 2.12c-.89.43-1.8.8-2.72 1.08l3.04 10.98-2.15.65-3.07-11.11a17.54 17.54 0 0 1-5.96 0l-3.07 11.11-2.15-.65 3.04-10.98c-.93-.29-1.83-.65-2.72-1.08l.96-2.12c.77.38 1.57.7 2.38.95l3.02-10.94a4.5 4.5 0 0 1-2.77-4.2 4.47 4.47 0 0 1 3.17-4.33V1.68h2.24v4.45a4.47 4.47 0 0 1 3.17 4.33 4.5 4.5 0 0 1-2.77 4.2zm.83 11.44l-2.35-8.5-2.35 8.5c1.56.24 3.14.24 4.7 0zm-4.4-15.64a2.1 2.1 0 0 0 2.05 2.15 2.1 2.1 0 0 0 2.05-2.15 2.1 2.1 0 0 0-2.05-2.14 2.1 2.1 0 0 0-2.05 2.14z" mask="url(#mathematics-g)"/>
        </g>
        <g transform="translate(86 142)">
            <mask id="mathematics-i" fill="#fff">
                <use xlink:href="#mathematics-h"/>
            </mask>
            <use fill="#D8D8D8" opacity="0" xlink:href="#mathematics-h"/>
            <path fill="#FFF" fill-rule="nonzero" d="M23.65 21.5c2.5-3.07 4.42-5.02 5.93-5.9a8.81 8.81 0 0 1 4.65-1.3 7.5 7.5 0 0 1 3.43.77 9.28 9.28 0 0 1 2.85 2.12c.8.94 1.5 2 1.97 3.3.47 1.3.7 2.77.7 4.3a11.92 11.92 0 0 1-2.5 7.44c-.7 1-1.57 1.7-2.56 2.18-.99.47-1.97.76-3.02.76-1.4 0-2.85-.53-4.3-1.53-1.51-1-3.2-3.12-5.18-6.37-1.27 1.65-2.44 3.01-3.43 4.13a23.28 23.28 0 0 1-2.55 2.48 9.79 9.79 0 0 1-6 2.12 9.03 9.03 0 0 1-6.8-3.13A11.8 11.8 0 0 1 4 24.8c0-1.6.23-3.07.76-4.43a11.37 11.37 0 0 1 2.03-3.47 9.22 9.22 0 0 1 2.96-2.25 8.24 8.24 0 0 1 3.55-.82c1.63 0 3.31.59 4.94 1.7.82.6 1.69 1.37 2.62 2.37.87 1 1.8 2.18 2.79 3.6zm-1.05 1.35a12.66 12.66 0 0 0-3.72-3.18 11.1 11.1 0 0 0-5.52-1.42c-1.16 0-2.27.18-3.26.53a7.06 7.06 0 0 0-4.12 3.72c-.41.88-.58 1.83-.58 2.83s.17 1.94.46 2.77c.3.82.7 1.53 1.28 2.12A5.24 5.24 0 0 0 9 31.58c.7.3 1.45.47 2.27.47 1.33 0 2.5-.35 3.6-1.06 1.98-1.3 4.53-4.01 7.73-8.14zm4.07 3.13c2.03 2.24 3.6 3.71 4.77 4.3 1.16.59 2.5.88 3.95.88 1.98 0 3.49-.53 4.6-1.65a6.45 6.45 0 0 0 1.62-4.54c0-.94-.17-1.82-.47-2.65-.29-.83-.7-1.47-1.16-2.06-.52-.6-1.1-1-1.74-1.36a5.38 5.38 0 0 0-5 .3 12.5 12.5 0 0 0-2.8 2.12l-3.77 4.66z" mask="url(#mathematics-i)"/>
        </g>
        <g transform="translate(41 142)">
            <mask id="mathematics-k" fill="#fff">
                <use xlink:href="#mathematics-j"/>
            </mask>
            <use fill="#D8D8D8" opacity="0" xlink:href="#mathematics-j"/>
            <path fill="#FFF" fill-rule="nonzero" d="M30.73 2c-10.4 0-10.34 15.08-10.34 21.46.05 3.98-.16 18.41-4.77 18.8-2.97.21-2.44-3.55-4.93-2.3C8.57 41.06 11.8 44 14.24 44c10.44.05 10.4-15.03 10.4-21.4-.06-3.99.15-18.42 4.76-18.8 2.97-.22 2.44 3.54 4.93 2.29C36.4 4.94 33.22 2 30.73 2z" mask="url(#mathematics-k)"/>
        </g>
        <g transform="translate(145 81)">
            <mask id="mathematics-m" fill="#fff">
                <use xlink:href="#mathematics-l"/>
            </mask>
            <use fill="#D8D8D8" opacity="0" xlink:href="#mathematics-l"/>
            <path fill="#FFF" fill-rule="nonzero" d="M39.02 81.67c7.34-8.7 11.85-23.22 11.62-41.22H45c-7.9-.23-10.15 5.92-12.18 9.52H30C35.87 38.13 32.03 30 54.81 30h41.96v10.45H80.98c-3.72 35.53-3.16 40.64 2.26 43.89 2.48 1.5 10.15 2.2 11.17-8.13H97c0 23.92-27.63 26.47-28.2 5.92-.11-3.13.9-16.02 3.16-41.8H56.85s-2.82 36.58-4.07 41.69c-.9 3.71-1.57 12.42-8.9 13.47-5.08.92-12.3-5.11-4.86-13.82z" mask="url(#mathematics-m)"/>
        </g>
        <use fill="#FFD3AE" opacity=".43" xlink:href="#mathematics-n"/>
    </g>
</svg>
