<svg xmlns="http://www.w3.org/2000/svg" width="132" height="63" fill="none">
    <path fill="#fff" d="m118.554 33.511-2.876-2.247v21.01l-2.265 1.15V54h7.694v-.575l-2.553-1.043V41.38c.456-.408 1.067-.72 1.834-.935.791-.215 1.51-.323 2.157-.323 1.055 0 1.906.275 2.553.827.671.55 1.007 1.354 1.007 2.409v9.024l-2.553 1.043V54h7.694v-.575l-2.265-1.15V41.667c0-1.39-.455-2.433-1.366-3.128-.887-.72-2.038-1.079-3.452-1.079-1.03 0-1.977.216-2.84.647-.839.432-1.714 1.103-2.625 2.014h-.144v-6.61ZM21.44 31.363l1.163.597c.79.407 1.294.815 1.51 1.222.216.384.323.78.323 1.187 0 .743-.335 1.366-1.006 1.87a5.246 5.246 0 0 1-2.157 1.006V38c1.198-.24 2.18-.659 2.948-1.258.79-.623 1.366-1.294 1.726-2.014.383-.743.575-1.402.575-1.977 0-.935-.228-1.726-.683-2.373-.354-.531-.862-1.022-1.522-1.472l-2.876 2.457ZM67.535 33.11c-.623 0-1.138-.203-1.546-.61a2.173 2.173 0 0 1-.61-1.547c0-.623.203-1.138.61-1.546.408-.407.923-.611 1.546-.611.624 0 1.139.204 1.547.611.407.408.61.923.61 1.546 0 .6-.203 1.115-.61 1.546-.408.408-.923.611-1.546.611ZM63.94 53.425V54h7.407v-.575l-2.265-1.15V37.46h-.007l-3.826 3.27.956.829v10.714l-2.265 1.15Z"/>
    <path fill="#fff" fill-rule="evenodd" d="M3.919 54.36c-1.127 0-2.061-.324-2.804-.971C.372 52.718 0 51.795 0 50.62c0-1.174.431-2.193 1.294-3.056.887-.863 2.361-1.534 4.423-2.013l3.415-.791v-2.625c0-.815-.335-1.51-1.006-2.085-.647-.6-1.39-.9-2.23-.9-.91 0-1.546.253-1.905.756-.36.48-.54 1.127-.54 1.941v1.007l-.18.18H1.403c-.36 0-.611-.06-.755-.18-.12-.12-.18-.395-.18-.827 0-.527.156-1.066.468-1.618.311-.551.79-1.03 1.438-1.438a12.29 12.29 0 0 1 2.085-1.078 6.514 6.514 0 0 1 2.373-.432c.84 0 1.654.12 2.445.36.815.24 1.474.647 1.978 1.222.503.551.755 1.33.755 2.337v10.211c.168.168.407.312.719.431.311.12.743.18 1.294.18h1.367l.107.072v.108c-.287.527-.719.995-1.294 1.402-.551.384-1.235.575-2.05.575-.742 0-1.354-.191-1.833-.575-.456-.407-.78-.934-.97-1.582h-.217c-.623.623-1.402 1.139-2.337 1.546-.91.408-1.87.611-2.876.611ZM2.804 49.9c0 1.486.9 2.23 2.697 2.23.575 0 1.139-.06 1.69-.18.575-.12 1.222-.336 1.941-.648v-5.32c-1.917.359-3.32.742-4.206 1.15-.887.383-1.462.803-1.726 1.258a2.96 2.96 0 0 0-.396 1.51ZM32.718 62.27v-.576l2.265-1.15V41.56l-1.15-.996 3.631-3.103h.036l.288 2.193h.251c.911-.767 1.786-1.318 2.625-1.654.839-.36 1.75-.539 2.732-.539 1.223 0 2.301.312 3.236.935s1.666 1.51 2.193 2.66c.552 1.127.827 2.481.827 4.063 0 1.966-.371 3.644-1.114 5.034-.72 1.366-1.702 2.409-2.948 3.128-1.247.719-2.613 1.078-4.1 1.078-1.342 0-2.552-.12-3.63-.359v6.544l2.552 1.15v.575h-7.694Zm8.7-22.328c-.574 0-1.174.096-1.797.288-.6.167-1.186.43-1.762.79v10.104c.72.575 1.45.97 2.194 1.186.743.216 1.57.324 2.48.324 1.151 0 2.146-.48 2.985-1.438.839-.983 1.258-2.613 1.258-4.89 0-1.486-.24-2.697-.72-3.632-.478-.934-1.126-1.618-1.94-2.049a5.434 5.434 0 0 0-2.697-.683Z" clip-rule="evenodd"/>
    <path fill="#fff" d="M87.687 52.238c1.342 1.414 3.176 2.121 5.501 2.121 1.462 0 2.733-.371 3.811-1.114 1.103-.743 1.93-1.63 2.481-2.66v-.36h-.108c-1.774.959-3.32 1.438-4.638 1.438-1.582 0-2.828-.312-3.74-.935a5.393 5.393 0 0 1-1.905-2.48 9.306 9.306 0 0 1-.575-3.273c0-1.87.371-3.32 1.115-4.35.767-1.055 1.81-1.582 3.128-1.582.79 0 1.45.156 1.977.467a3.985 3.985 0 0 1 1.366 1.15l1.223 1.655h.252l1.366-1.15c.311-.24.467-.528.467-.864 0-.263-.192-.623-.575-1.078-.48-.528-1.175-.947-2.085-1.259a8.05 8.05 0 0 0-2.805-.503c-1.558 0-2.96.395-4.207 1.187-1.246.766-2.24 1.845-2.984 3.235-.719 1.367-1.078 2.949-1.078 4.746 0 2.325.67 4.195 2.013 5.61ZM53.012 0 25 25 53.012 2l22.355 15L86 12.5 107 25 86.571 9l-11.204 4.726L53.011 0Z"/>
</svg>
