<svg xmlns="http://www.w3.org/2000/svg" width="100" height="100" viewBox="0 0 100 100">
  <g fill="none" fill-rule="evenodd" transform="translate(21 26)">
    <g transform="translate(1.714 2.579)">
      <polygon fill="#FFF" points="1.131 37.929 55.44 37.929 55.44 1.132 1.131 1.132"/>
      <path fill="#282D33" d="M0,39.061108 L56.5714286,39.061108 L56.5714286,5.661104e-05 L0,5.661104e-05 L0,39.061108 Z M2.26285714,36.7972325 L54.3091371,36.7972325 L54.3091371,2.2644982 L2.26285714,2.2644982 L2.26285714,36.7972325 Z"/>
      <polygon fill="#282D33" points="8.769 44.578 49.995 44.578 49.995 42.314 8.769 42.314"/>
      <polygon fill="#282D33" points="53.365 44.578 56.571 44.578 56.571 42.314 53.365 42.314"/>
      <polygon fill="#282D33" points="0 45.498 2.263 45.498 2.263 41.394 0 41.394"/>
      <polygon fill="#282D33" points="3.394 45.498 5.657 45.498 5.657 41.394 3.394 41.394"/>
      <path fill="#FF7502" d="M18.9746794,43.4461991 C18.9746794,44.7878807 17.8873766,45.8759449 16.5471994,45.8759449 C15.2058909,45.8759449 14.118588,44.7878807 14.118588,43.4461991 C14.118588,42.1045175 15.2058909,41.0164533 16.5471994,41.0164533 C17.8873766,41.0164533 18.9746794,42.1045175 18.9746794,43.4461991"/>
    </g>
    <polygon fill="#FF7502" points="8.571 18.912 50.571 18.912 50.571 23.211 8.571 23.211" transform="rotate(-90 29.571 21.061)"/>
    <g fill="#FF7502" transform="translate(0 12.895)">
      <rect width="60" height="3.751" y="8.44"/>
      <polygon points="31.925 9.564 30.313 10.239 34.628 19.113 35.92 17.695 37.851 17.762 33.537 8.888" transform="rotate(-15 34.082 14)"/>
      <polygon points="21.23 17.818 23.16 17.718 24.477 19.113 28.65 10.182 27.026 9.534 25.403 8.886" transform="rotate(15 24.94 14)"/>
      <g transform="translate(18.75)">
        <path d="M6.42217918,7.21257452 L8.05048977,7.58250856 L8.06283821,5.93136605 L8.05947045,5.81040521 C8.03477357,4.63768179 7.025569,3.42373404 5.85583468,3.15848808 C4.86683666,2.9333816 4.12593008,3.49750388 4.12031715,4.47983603 C4.11077517,5.64171095 5.09359897,6.87410116 6.26726235,7.17351991 L6.42217918,7.21257452 L6.42217918,7.21257452 Z M10.276016,10.3157895 L4.85841727,9.08665382 L4.85841727,8.97111724 C3.11672552,8.15639449 1.85942951,6.32299709 1.87514571,4.46519055 C1.88693286,2.45550494 3.41140427,0.937799043 5.42083271,0.937799043 C5.73235025,0.937799043 6.05172589,0.974141536 6.36829506,1.0462841 C8.19025169,1.45906972 9.70461983,2.99630293 10.1631961,4.7602699 L10.3125,4.77003355 L10.276016,10.3157895 L10.276016,10.3157895 Z" transform="scale(-1 1) rotate(-15 -4.687 87.519)"/>
        <path d="M6.42217918,7.21257452 L8.05048977,7.58250856 L8.06283821,5.93136605 L8.05947045,5.81040521 C8.03477357,4.63768179 7.025569,3.42373404 5.85583468,3.15848808 C4.86683666,2.9333816 4.12593008,3.49750388 4.12031715,4.47983603 C4.11077517,5.64171095 5.09359897,6.87410116 6.26726235,7.17351991 L6.42217918,7.21257452 L6.42217918,7.21257452 Z M10.276016,10.3157895 L4.85841727,9.08665382 L4.85841727,8.97111724 C3.11672552,8.15639449 1.85942951,6.32299709 1.87514571,4.46519055 C1.88693286,2.45550494 3.41140427,0.937799043 5.42083271,0.937799043 C5.73235025,0.937799043 6.05172589,0.974141536 6.36829506,1.0462841 C8.19025169,1.45906972 9.70461983,2.99630293 10.1631961,4.7602699 L10.3125,4.77003355 L10.276016,10.3157895 L10.276016,10.3157895 Z" transform="rotate(-15 6.094 5.627)"/>
      </g>
    </g>
  </g>
</svg>
