<svg xmlns="http://www.w3.org/2000/svg" width="100" height="100" viewBox="0 0 100 100">
  <g fill="none" fill-rule="evenodd" transform="translate(27 28)">
    <path stroke="#484F59" stroke-width="1.89" d="M14.0463836,3.7107493 C14.0608767,1.2467493 16.0514795,-0.293870423 18.4907397,0.267594366 C20.8877808,0.821622535 22.8197808,3.19948169 22.8701918,5.61948169 L22.8764932,5.62010141 L22.843726,10.2091155 L18.3029589,9.16055211 L18.303589,9.15373521 C15.9235616,8.53711549 14.0268493,6.13012958 14.0463836,3.7107493 L14.0463836,3.7107493 Z"/>
    <path stroke="#484F59" stroke-width="1.89" d="M31.6127123,3.7107493 C31.5950685,1.2467493 29.6038356,-0.293870423 27.1639452,0.267594366 C24.7694247,0.821622535 22.8367945,3.19948169 22.7870137,5.61948169 L22.7794521,5.62010141 L22.811589,10.2091155 L27.3536164,9.16055211 L27.3536164,9.15373521 C29.7330137,8.53711549 31.6284658,6.13012958 31.6127123,3.7107493 L31.6127123,3.7107493 Z"/>
    <polygon fill="#FF7502" points=".173 18.419 45.505 18.419 45.505 10.39 .173 10.39"/>
    <polygon stroke="#484F59" stroke-width="1.89" points=".173 18.419 45.505 18.419 45.505 10.39 .173 10.39"/>
    <polygon fill="#FFE5C4" points="1.429 43.73 44.251 43.73 44.251 18.419 1.429 18.419"/>
    <polygon stroke="#484F59" stroke-width="1.89" points="1.429 43.73 44.251 43.73 44.251 18.419 1.429 18.419"/>
    <polygon fill="#FFF" points="19.171 18.419 26.507 18.419 26.507 10.39 19.171 10.39"/>
    <polygon stroke="#484F59" stroke-width="1.89" points="19.171 18.419 26.507 18.419 26.507 10.39 19.171 10.39"/>
    <polygon fill="#FFF" points="19.374 43.73 26.304 43.73 26.304 18.419 19.374 18.419"/>
    <polygon stroke="#484F59" stroke-width="1.89" points="19.374 43.73 26.304 43.73 26.304 18.419 19.374 18.419"/>
    <path stroke="#484F59" stroke-width="1.89" d="M41.5324548 22.4012676L33.8094959 22.4012676M41.5324548 26.2911155L37.7654959 26.2911155"/>
  </g>
</svg>
