<svg xmlns="http://www.w3.org/2000/svg" xmlns:xlink="http://www.w3.org/1999/xlink" width="100" height="100" viewBox="0 0 100 100">
  <defs>
    <polygon id="predict-a" points="0 .005 0 46.523 46.135 46.523 46.135 .005"/>
  </defs>
  <g fill="none" fill-rule="evenodd" transform="translate(27 25)">
    <path fill="#F7F8FC" d="M44.2180364,23.81192 C44.2158545,12.04467 34.7429455,2.49337 23.0653091,2.48292 C11.3854909,2.48237 1.92403636,12.04192 1.91585455,23.80092 C1.92512727,35.58467 11.3893091,45.13927 23.0702182,45.13597 C34.7511273,45.14257 44.2169455,35.58742 44.2180364,23.81192"/>
    <path fill="#FFF" d="M44.8545818,23.81192 C44.8518545,11.69047 35.0947636,1.85207 23.0653091,1.84107 C11.0342182,1.84052 1.28803636,11.68772 1.27985455,23.79982 C1.28912727,35.93887 11.0380364,45.78112 23.0707636,45.77727 C35.1024,45.78387 44.8534909,35.94162 44.8545818,23.81192"/>
    <path fill="#FF7502" d="M39.5819455,23.812195 C39.5803091,14.624445 32.1839455,7.166445 23.0661273,7.158745 C13.9461273,7.158195 6.55849091,14.622795 6.55303636,23.802845 C6.56012727,33.004345 13.9499455,40.463995 23.0699455,40.461795 C32.1894,40.467295 39.5808545,33.006545 39.5819455,23.812195"/>
    <path fill="#FFF" d="M34.3998545,23.81247 C34.3982182,17.50782 29.3227636,12.39062 23.0664,12.38457 C16.8089455,12.38457 11.7394909,17.50672 11.7356727,23.80697 C11.7400364,30.12042 16.8111273,35.23872 23.0696727,35.23762 C29.3276727,35.24092 34.3993091,30.12152 34.3998545,23.81247"/>
    <path fill="#FF7502" d="M28.2179455,23.81247 C28.2174,20.94697 25.9112182,18.62157 23.0672182,18.61882 C20.2232182,18.61882 17.9192182,20.94697 17.9175818,23.80972 C17.9203091,26.67907 20.2243091,29.00612 23.0688545,29.00447 C25.9128545,29.00667 28.2179455,26.67962 28.2179455,23.81247"/>
    <g transform="translate(0 .545)">
      <mask id="predict-b" fill="#fff">
        <use xlink:href="#predict-a"/>
      </mask>
      <path fill="#282D33" d="M23.0646545,2.20484 C11.5555636,2.20484 2.18847273,11.64724 2.18192727,23.25389 C2.19065455,34.87044 11.5599273,44.32274 23.0662909,44.32274 L23.0859273,44.32274 L23.0870182,44.32274 C28.6610182,44.32274 33.9006545,42.13209 37.8421091,38.15449 C41.7830182,34.17689 43.9533818,28.88974 43.9533818,23.26654 C43.9512,11.66319 34.5802909,2.21529 23.0646545,2.20484 M23.0870182,46.52274 L23.0853818,46.52274 L23.0701091,46.52274 C10.3577455,46.52274 0.00992727273,36.08429 0.000109090909,23.25389 C0.0072,10.43339 10.3533818,0.00484 23.0630182,0.00484 C35.7841091,0.01639 46.1330182,10.45099 46.1352,23.26599 C46.1352,29.47659 43.7379273,35.31649 39.3857455,39.70934 C35.0319273,44.10274 29.2435636,46.52274 23.0870182,46.52274" mask="url(#predict-b)"/>
    </g>
    <polyline fill="#FFF" points="26.006 32.17 25.463 31.623 22.857 23.653 30.762 26.281 31.305 26.827"/>
    <polygon fill="#282D33" points="25.234 32.947 24.509 32.216 21.143 21.925 31.35 25.318 32.076 26.049 30.534 27.605 30.175 27.243 24.57 25.38 26.418 31.03 26.777 31.392"/>
    <polygon fill="#FFE5C4" points="26.011 32.243 31.376 26.832 49.986 45.596 44.619 51.007"/>
    <path fill="#282D33" d="M31.3764545,25.276075 L24.4677273,32.242925 L44.6195455,52.562675 L51.5282727,45.596375 L31.3764545,25.276075 Z M31.3764545,28.387425 L48.4426364,45.596375 L44.6195455,49.451325 L27.5533636,32.242925 L31.3764545,28.387425 Z"/>
    <polygon fill="#282D33" points="46.8 49.35 28.61 31.009 30.153 29.454 48.343 47.795"/>
    <path fill="#282D33" d="M47.7669818,54.99516 C47.3208,54.99516 46.8871636,54.83291 46.5609818,54.50401 L44.4048,52.33041 L45.9478909,50.77501 L47.8122545,52.65491 L51.6195273,48.81426 L49.7557091,46.93491 L51.2982545,45.37951 L53.4538909,47.55311 C53.7702545,47.87156 53.9448,48.30386 53.9448,48.76916 C53.9448,49.28616 53.7255273,49.80316 53.3426182,50.18816 L49.1709818,54.39621 C48.7755273,54.79386 48.2638909,54.99516 47.7669818,54.99516"/>
  </g>
</svg>
