<svg xmlns="http://www.w3.org/2000/svg" xmlns:xlink="http://www.w3.org/1999/xlink" width="100" height="100" viewBox="0 0 100 100">
  <defs>
    <polygon id="master-classes-a" points="0 .159 0 19.343 8.72 19.343 8.72 .159 0 .159"/>
    <polygon id="master-classes-c" points="37.012 .489 .394 .489 .394 28.971 37.012 28.971 37.012 .489"/>
    <polygon id="master-classes-e" points="0 55.511 54.639 55.511 54.639 .549 0 .549"/>
  </defs>
  <g fill="none" fill-rule="evenodd" transform="translate(25 21)">
    <path fill="#282D33" d="M21.9392026,55.3950353 C10.2921207,55.3950353 4.38733377,51.0852314 4.38733377,42.5847608 L4.38733377,27.2819373 C4.38733377,17.6356627 12.261301,9.78742745 21.9392026,9.78742745 L28.205878,9.78742745 C37.8837797,9.78742745 45.7577469,17.6356627 45.7577469,27.2819373 L45.7577469,42.5847608 L43.5544682,42.5847608 L43.5544682,27.2819373 C43.5544682,18.846251 36.6692223,11.9835059 28.205878,11.9835059 L21.9392026,11.9835059 C13.4758584,11.9835059 6.59061246,18.846251 6.59061246,27.2819373 L6.59061246,42.5847608 C6.59061246,49.7269569 11.6113338,53.1989569 21.9392026,53.1989569 L21.9392026,55.3950353 L21.9392026,55.3950353 Z"/>
    <path fill="#FFF" d="M23.5679764,52.9769882 C23.5679764,53.7708706 22.9224157,54.4132235 22.1264813,54.4132235 L18.4288289,54.4132235 C17.6328944,54.4132235 16.9873338,53.7708706 16.9873338,52.9769882 C16.9873338,52.1831059 17.6328944,51.5407529 18.4288289,51.5407529 L22.1264813,51.5407529 C22.9224157,51.5407529 23.5679764,52.1831059 23.5679764,52.9769882"/>
    <path fill="#282D33" d="M18.4287738,52.6386824 C18.2414951,52.6386824 18.088918,52.7902118 18.088918,52.9768784 C18.088918,53.1635451 18.2414951,53.3150745 18.4287738,53.3150745 L22.1264262,53.3150745 C22.3137049,53.3150745 22.466282,53.1635451 22.466282,52.9768784 C22.466282,52.7902118 22.3137049,52.6386824 22.1264262,52.6386824 L18.4287738,52.6386824 Z M22.1264262,55.5111529 L18.4287738,55.5111529 C17.0263869,55.5111529 15.8856393,54.3746824 15.8856393,52.9768784 C15.8856393,51.5796235 17.0263869,50.4426039 18.4287738,50.4426039 L22.1264262,50.4426039 C23.5288131,50.4426039 24.6695607,51.5796235 24.6695607,52.9768784 C24.6695607,54.3746824 23.5288131,55.5111529 22.1264262,55.5111529 L22.1264262,55.5111529 Z"/>
    <path fill="#FFF" d="M42.293697,20.9183059 C41.5770807,20.9183059 40.8791921,20.5554039 40.4820511,19.9004235 C37.8579462,15.5752471 33.2685167,12.9926588 28.2059331,12.9926588 L21.9392577,12.9926588 C16.8755725,12.9926588 12.2866938,15.5752471 9.66203803,19.9004235 C9.05833967,20.8968941 7.75785443,21.2158745 6.75811672,20.6136 C5.75892984,20.0107765 5.43835279,18.7150902 6.04260197,17.7186196 C9.43950689,12.1191686 15.3823003,8.77728627 21.9392577,8.77728627 L28.2059331,8.77728627 C34.7617889,8.77728627 40.7034807,12.1191686 44.1009364,17.7186196 C44.7057364,18.7150902 44.3851593,20.0107765 43.3854216,20.6136 C43.0433626,20.8200314 42.6660511,20.9183059 42.293697,20.9183059"/>
    <path fill="#282D33" d="M21.9392026,11.8948941 L28.205878,11.8948941 C33.6578911,11.8948941 38.5998452,14.6751294 41.4249993,19.3324627 C41.7042649,19.7936392 42.3465207,19.9577961 42.8147174,19.6739529 C43.0471633,19.534502 43.2102059,19.3132471 43.2752026,19.0508157 C43.3396485,18.7894824 43.298337,18.5177176 43.1584289,18.2871294 C39.9625731,13.0198353 34.3728551,9.87505098 28.205878,9.87505098 L21.9392026,9.87505098 C15.7705731,9.87505098 10.1803043,13.0198353 6.98555016,18.2871294 C6.69636984,18.7636784 6.85004852,19.3857176 7.32871082,19.6739529 C7.79635672,19.956149 8.43916328,19.7941882 8.71897967,19.3330118 C11.5457862,14.6751294 16.4871895,11.8948941 21.9392026,11.8948941 M42.293642,22.0166196 C41.1732748,22.0166196 40.1179043,21.4231294 39.5389928,20.4683843 C37.1170387,16.4753647 32.879583,14.0909725 28.205878,14.0909725 L21.9392026,14.0909725 C17.2654977,14.0909725 13.028042,16.4753647 10.6044354,20.4689333 C10.0266256,21.4231294 8.97125508,22.0160706 7.85088787,22.0160706 C7.26536656,22.0160706 6.69031082,21.8563059 6.18796328,21.5532471 C4.67045508,20.6380314 4.18242885,18.6632078 5.10064525,17.1506588 C8.6974977,11.220149 14.9928157,7.67897255 21.9392026,7.67897255 L28.205878,7.67897255 C35.1506125,7.67897255 41.4453797,11.220149 45.0433338,17.1506588 C45.4883961,17.883051 45.620042,18.7450118 45.4145862,19.5767765 C45.2091305,20.4079922 44.69136,21.1096392 43.9560157,21.5532471 C43.4536682,21.8563059 42.8791633,22.0166196 42.293642,22.0166196"/>
    <path fill="#FFE5C4" d="M7.6189377,28.2193882 L6.36582295,28.2193882 C3.45859672,28.2193882 1.10163934,30.5680941 1.10163934,33.4658196 L1.10163934,39.9612706 C1.10163934,42.8595451 3.45859672,45.207702 6.36582295,45.207702 L7.6189377,45.207702 L7.6189377,28.2193882 Z"/>
    <g transform="translate(0 26.962)">
      <mask id="master-classes-b" fill="#fff">
        <use xlink:href="#master-classes-a"/>
      </mask>
      <path fill="#282D33" d="M6.36560262,2.35507451 C4.07033705,2.35507451 2.20305836,4.21625098 2.20305836,6.50346667 L2.20305836,12.9989176 C2.20305836,15.2866824 4.07033705,17.1473098 6.36560262,17.1473098 L6.51707803,17.1473098 L6.51707803,2.35507451 L6.36560262,2.35507451 Z M8.72035672,19.3433882 L6.36560262,19.3433882 C2.85577967,19.3433882 -0.000220327869,16.4972706 -0.000220327869,12.9989176 L-0.000220327869,6.50346667 C-0.000220327869,3.00511373 2.85577967,0.158996078 6.36560262,0.158996078 L8.72035672,0.158996078 L8.72035672,19.3433882 Z" mask="url(#master-classes-b)"/>
    </g>
    <path fill="#FFF" d="M11.1293666,44.8017569 C11.1293666,45.7757176 10.336737,46.5652078 9.35958295,46.5652078 L7.38324197,46.5652078 C6.40663869,46.5652078 5.61345836,45.7757176 5.61345836,44.8017569 L5.61345836,28.733051 C5.61345836,27.7596392 6.40663869,26.9696 7.38324197,26.9696 L9.35958295,26.9696 C10.336737,26.9696 11.1293666,27.7596392 11.1293666,28.733051 L11.1293666,44.8017569 Z"/>
    <path fill="#282D33" d="M7.38335213,28.0676392 C7.01485377,28.0676392 6.71520787,28.3663059 6.71520787,28.733051 L6.71520787,44.8017569 C6.71520787,45.168502 7.01485377,45.4671686 7.38335213,45.4671686 L9.35969311,45.4671686 C9.72819148,45.4671686 10.0278374,45.168502 10.0278374,44.8017569 L10.0278374,28.733051 C10.0278374,28.3663059 9.72819148,28.0676392 9.35969311,28.0676392 L7.38335213,28.0676392 Z M9.35969311,47.6632471 L7.38335213,47.6632471 C5.80029639,47.6632471 4.51192918,46.3796392 4.51192918,44.8017569 L4.51192918,28.733051 C4.51192918,27.1551686 5.80029639,25.8715608 7.38335213,25.8715608 L9.35969311,25.8715608 C10.9427489,25.8715608 12.2311161,27.1551686 12.2311161,28.733051 L12.2311161,44.8017569 C12.2311161,46.3796392 10.9427489,47.6632471 9.35969311,47.6632471 L9.35969311,47.6632471 Z"/>
    <path fill="#FFE5C4" d="M42.6809784,45.3167373 L43.9340931,45.3167373 C46.842421,45.3167373 49.1982767,42.9674824 49.1982767,40.0697569 L49.1982767,33.5737569 C49.1982767,30.6760314 46.842421,28.3267765 43.9340931,28.3267765 L42.6809784,28.3267765 L42.6809784,45.3167373 Z"/>
    <path fill="#282D33" d="M43.7826177,44.218698 L43.9340931,44.218698 C46.2293587,44.218698 48.0966374,42.3575216 48.0966374,40.0697569 L48.0966374,33.5737569 C48.0966374,31.2859922 46.2293587,29.4248157 43.9340931,29.4248157 L43.7826177,29.4248157 L43.7826177,44.218698 Z M43.9340931,46.4147765 L41.579339,46.4147765 L41.579339,27.2287373 L43.9340931,27.2287373 C47.4444669,27.2287373 50.2999161,30.0748549 50.2999161,33.5737569 L50.2999161,40.0697569 C50.2999161,43.5681098 47.4444669,46.4147765 43.9340931,46.4147765 L43.9340931,46.4147765 Z"/>
    <path fill="#FFF" d="M39.1716511,28.7345882 C39.1716511,27.7595294 39.963179,26.9711373 40.9414348,26.9711373 L42.9177757,26.9711373 C43.894379,26.9711373 44.6864577,27.7595294 44.6864577,28.7345882 L44.6864577,44.8021961 C44.6864577,45.7761569 43.894379,46.5656471 42.9177757,46.5656471 L40.9414348,46.5656471 C39.963179,46.5656471 39.1716511,45.7761569 39.1716511,44.8021961 L39.1716511,28.7345882 Z"/>
    <path fill="#282D33" d="M40.9413797,28.0689569 C40.5728813,28.0689569 40.2732354,28.3676235 40.2732354,28.7343686 L40.2732354,44.8025255 C40.2732354,45.1692706 40.5728813,45.4679373 40.9413797,45.4679373 L42.9177207,45.4679373 C43.2856682,45.4679373 43.5847633,45.1692706 43.5847633,44.8025255 L43.5847633,28.7343686 C43.5847633,28.3676235 43.2856682,28.0689569 42.9177207,28.0689569 L40.9413797,28.0689569 Z M42.9177207,47.6640157 L40.9413797,47.6640157 C39.3583239,47.6640157 38.0699567,46.3804078 38.0699567,44.8025255 L38.0699567,28.7343686 C38.0699567,27.1564863 39.3583239,25.8728784 40.9413797,25.8728784 L42.9177207,25.8728784 C44.5002256,25.8728784 45.788042,27.1564863 45.788042,28.7343686 L45.788042,44.8025255 C45.788042,46.3804078 44.5002256,47.6640157 42.9177207,47.6640157 L42.9177207,47.6640157 Z"/>
    <g transform="translate(17.626 .06)">
      <mask id="master-classes-d" fill="#fff">
        <use xlink:href="#master-classes-c"/>
      </mask>
      <polygon fill="#FF7502" points=".394 .488 37.012 .488 37.012 22.095 14.13 22.095 7.232 28.971 7.232 22.095 .394 22.095" mask="url(#master-classes-d)"/>
    </g>
    <path fill="#FFF" d="M48.0052013,8.83262745 L24.6532013,8.83262745"/>
    <mask id="master-classes-f" fill="#fff">
      <use xlink:href="#master-classes-e"/>
    </mask>
    <polygon fill="#FFF" points="24.653 9.931 48.005 9.931 48.005 7.735 24.653 7.735" mask="url(#master-classes-f)"/>
    <path fill="#FFF" d="M48.0052013,13.9209961 L24.6532013,13.9209961" mask="url(#master-classes-f)"/>
    <polygon fill="#FFF" points="24.653 15.019 48.005 15.019 48.005 12.823 24.653 12.823" mask="url(#master-classes-f)"/>
    <polygon fill="#282D33" points="19.75 37.549 21.985 37.549 21.985 35.353 19.75 35.353" mask="url(#master-classes-f)"/>
    <polygon fill="#282D33" points="23.971 37.549 26.206 37.549 26.206 35.353 23.971 35.353" mask="url(#master-classes-f)"/>
    <polygon fill="#282D33" points="28.194 37.549 30.429 37.549 30.429 35.353 28.194 35.353" mask="url(#master-classes-f)"/>
  </g>
</svg>
