<svg xmlns="http://www.w3.org/2000/svg" xmlns:xlink="http://www.w3.org/1999/xlink" width="100" height="100" viewBox="0 0 100 100">
  <defs>
    <rect id="book-a" width="38" height="52" rx="2.054"/>
    <path id="book-b" d="M10.2702703,15.5740917 C10.2702703,14.4396482 11.1843843,13.52 12.3244334,13.52 L25.6755666,13.52 C26.8100496,13.52 27.7297297,14.4345184 27.7297297,15.5740917 L27.7297297,22.88 L10.2702703,22.88 L10.2702703,15.5740917 Z"/>
  </defs>
  <g fill="none" fill-rule="evenodd" transform="translate(32 25)">
    <use fill="#FFF" xlink:href="#book-a"/>
    <rect width="36.357" height="50.357" x=".822" y=".822" stroke="#000" stroke-width="1.643" rx="2.054"/>
    <use fill="#FFE5C4" xlink:href="#book-b"/>
    <path stroke="#000" stroke-width="1.643" d="M11.0918919,22.0583784 L26.9081081,22.0583784 L26.9081081,15.5740917 C26.9081081,14.8903835 26.3583789,14.3416216 25.6755666,14.3416216 L12.3244334,14.3416216 C11.6404143,14.3416216 11.0918919,14.8911535 11.0918919,15.5740917 L11.0918919,22.0583784 Z"/>
    <rect width="33.892" height="1.664" x="3.081" y="47.84" fill="#000" rx=".832"/>
    <rect width="36.973" height="1.664" x=".089" y="45.257" fill="#000" rx=".832"/>
    <path fill="#FF7502" d="M5.21637458,1.54425781 L8.71167652,1.54425781 L9.24324324,1.54425781 L9.24324324,10.9090443 C9.24324324,11.480777 8.78131021,11.9442578 8.2062245,11.9442578 L6.25339332,11.9442578 C5.68066368,11.9442578 5.21637458,11.4839636 5.21637458,10.9090443 L5.21637458,1.54425781 Z"/>
  </g>
</svg>
