<svg xmlns="http://www.w3.org/2000/svg" width="100" height="100" viewBox="0 0 100 100">
  <g fill="none" fill-rule="evenodd" transform="translate(21 24)">
    <polygon fill="#FFF" points="13.793 48.984 50 48.984 50 11.709 38.474 0 13.793 0"/>
    <g transform="translate(13.793)">
      <polyline fill="#FFF" points="25.862 47.266 35.345 47.266 35.345 22.402 35.345 11.172"/>
      <polygon fill="#282D33" points="33.75 11.172 33.75 46.487 25.862 46.487 25.862 48.984 36.207 48.984 36.207 11.172"/>
      <polygon fill="#282D33" points="0 0 0 48.984 25.961 48.984 25.961 46.506 2.473 46.506 2.473 2.478 25 2.478 25 0"/>
      <polygon fill="#FF7502" points="27.586 8.594 36.207 8.594 27.586 0"/>
    </g>
    <g transform="translate(19.828 12.89)">
      <path fill="#FFE5C4" d="M5.95751232,2.95975958 C5.95751232,4.55193196 4.66168411,5.84282409 3.06342365,5.84282409 C1.46516318,5.84282409 0.169334975,4.55193196 0.169334975,2.95975958 C0.169334975,1.3675872 1.46516318,0.0766950605 3.06342365,0.0766950605 C4.66168411,0.0766950605 5.95751232,1.3675872 5.95751232,2.95975958"/>
      <path fill="#FF7502" d="M3.78694581,5.42052722 L1.82837131,3.46941331 C1.54547414,3.18759375 1.54547414,2.73206956 1.82837131,2.45025 C2.11126847,2.16843044 2.56853448,2.16843044 2.85143165,2.45025 L3.78694581,3.3822006 L6.16950431,1.00871774 C6.45240148,0.726898185 6.90966749,0.726898185 7.19256466,1.00871774 C7.47546182,1.2905373 7.47546182,1.74606149 7.19256466,2.02788105 L3.78694581,5.42052722 Z"/>
      <path fill="#FFE5C4" d="M5.95751232,11.6089531 C5.95751232,13.2011255 4.66168411,14.4920176 3.06342365,14.4920176 C1.46516318,14.4920176 0.169334975,13.2011255 0.169334975,11.6089531 C0.169334975,10.0167807 1.46516318,8.72588861 3.06342365,8.72588861 C4.66168411,8.72588861 5.95751232,10.0167807 5.95751232,11.6089531"/>
      <path fill="#FF7502" d="M3.78694581,14.0697208 L1.82837131,12.1186069 C1.54547414,11.8367873 1.54547414,11.3812631 1.82837131,11.0994435 C2.11126847,10.817624 2.56853448,10.817624 2.85143165,11.0994435 L3.78694581,12.0313942 L6.16950431,9.65791129 C6.45240148,9.37609173 6.90966749,9.37609173 7.19256466,9.65791129 C7.47546182,9.93973085 7.47546182,10.395255 7.19256466,10.6770746 L3.78694581,14.0697208 Z"/>
      <path fill="#FFE5C4" d="M5.95751232,20.2581467 C5.95751232,21.8503191 4.66168411,23.1412112 3.06342365,23.1412112 C1.46516318,23.1412112 0.169334975,21.8503191 0.169334975,20.2581467 C0.169334975,18.6659743 1.46516318,17.3750822 3.06342365,17.3750822 C4.66168411,17.3750822 5.95751232,18.6659743 5.95751232,20.2581467"/>
      <path fill="#FF7502" d="M3.78694581,22.7189143 L1.82837131,20.7678004 C1.54547414,20.4859808 1.54547414,20.0304567 1.82837131,19.7486371 C2.11126847,19.4668175 2.56853448,19.4668175 2.85143165,19.7486371 L3.78694581,20.6805877 L6.16950431,18.3071048 C6.45240148,18.0252853 6.90966749,18.0252853 7.19256466,18.3071048 C7.47546182,18.5889244 7.47546182,19.0444486 7.19256466,19.3262681 L3.78694581,22.7189143 Z"/>
      <polygon fill="#000" points="9.575 2.239 22.599 2.239 22.599 .797 9.575 .797"/>
      <polygon fill="#000" points="9.575 5.122 18.257 5.122 18.257 3.681 9.575 3.681"/>
      <polygon fill="#000" points="9.575 10.888 22.599 10.888 22.599 9.447 9.575 9.447"/>
      <polygon fill="#000" points="9.575 13.771 15.363 13.771 15.363 12.33 9.575 12.33"/>
      <polygon fill="#000" points="9.575 19.537 22.599 19.537 22.599 18.096 9.575 18.096"/>
      <polygon fill="#000" points="9.575 22.42 13.916 22.42 13.916 20.979 9.575 20.979"/>
      <polygon fill="#000" points="15.363 22.42 19.704 22.42 19.704 20.979 15.363 20.979"/>
    </g>
    <g transform="translate(0 27.5)">
      <path fill="#FF7502" d="M0,13.75 C0,21.3439153 6.15654768,27.5 13.752694,27.5 L13.8335129,27.5 C21.4289161,27.5 27.5862069,21.345585 27.5862069,13.75 L27.5862069,13.75 C27.5862069,6.15608469 21.4296592,0 13.8335129,0 L13.752694,0 C6.15729084,0 0,6.154415 0,13.75 L0,13.75 Z"/>
      <path fill="#FFF" d="M11.4942529,16.8713775 L11.4942529,10.0227185 C11.4942529,9.70682407 11.6701149,9.41661215 11.9502874,9.26765381 C12.2304598,9.11869548 12.5701149,9.13581713 12.8347701,9.31045793 L18.0071839,12.7347874 C18.2468391,12.8940188 18.3908046,13.1602604 18.3908046,13.447048 C18.3908046,13.7329795 18.2468391,14.0000772 18.0063218,14.1593085 L12.833908,17.583638 C12.5701149,17.7591349 12.2295977,17.7754005 11.9494253,17.6264421 C11.6692529,17.4766277 11.4942529,17.1872719 11.4942529,16.8713775 Z"/>
    </g>
  </g>
</svg>
