<svg xmlns="http://www.w3.org/2000/svg" xmlns:xlink="http://www.w3.org/1999/xlink" width="100" height="100" viewBox="0 0 100 100">
  <defs>
    <polygon id="teacher-a" points="0 57.638 40 57.638 40 0 0 0"/>
    <polygon id="teacher-c" points="29.751 29.465 29.751 .095 0 .095 0 29.465 29.751 29.465"/>
  </defs>
  <g fill="none" fill-rule="evenodd">
    <g transform="translate(31 18)">
      <path fill="#F8C44F" d="M26.4583333,7.62220385 C26.4583333,11.2154154 23.5566667,14.1282423 19.9772222,14.1282423 C16.3977778,14.1282423 13.4955556,11.2154154 13.4955556,7.62220385 C13.4955556,4.02899231 16.3977778,1.11560769 19.9772222,1.11560769 C23.5566667,1.11560769 26.4583333,4.02899231 26.4583333,7.62220385 L26.4583333,7.62220385 Z"/>
      <path fill="#282D33" d="M19.9772222,2.23099231 C17.0161111,2.23099231 14.6066667,4.64970385 14.6066667,7.62220385 C14.6066667,10.5947038 17.0161111,13.0128577 19.9772222,13.0128577 C22.9383333,13.0128577 25.3472222,10.5947038 25.3472222,7.62220385 C25.3472222,4.64970385 22.9383333,2.23099231 19.9772222,2.23099231 M19.9772222,15.2436269 C15.7905556,15.2436269 12.3844444,11.8249731 12.3844444,7.62220385 C12.3844444,3.41943462 15.7905556,0.000223076923 19.9772222,0.000223076923 C24.1633333,0.000223076923 27.5694444,3.41943462 27.5694444,7.62220385 C27.5694444,11.8249731 24.1633333,15.2436269 19.9772222,15.2436269"/>
      <path fill="#FFF" d="M36.2727778,26.2885558 C36.2727778,27.7352096 35.1038889,28.9069212 33.6644444,28.9069212 L33.4461111,28.9069212 C32.0061111,28.9069212 30.8383333,27.7352096 30.8383333,26.2885558 L30.8383333,21.4879404 C30.8383333,20.0412865 32.0061111,18.8684596 33.4461111,18.8684596 L33.6644444,18.8684596 C35.1038889,18.8684596 36.2727778,20.0412865 36.2727778,21.4879404 L36.2727778,26.2885558 Z"/>
      <path fill="#282D33" d="M33.4461667,19.9840673 C32.6211667,19.9840673 31.9495,20.6583173 31.9495,21.4876058 L31.9495,26.2887788 C31.9495,27.1175096 32.6211667,27.7917596 33.4461667,27.7917596 L33.6645,27.7917596 C34.4900556,27.7917596 35.1617222,27.1175096 35.1617222,26.2887788 L35.1617222,21.4876058 C35.1617222,20.6583173 34.4900556,19.9840673 33.6645,19.9840673 L33.4461667,19.9840673 Z M33.6645,30.0225288 L33.4461667,30.0225288 C31.3956111,30.0225288 29.7272778,28.3477788 29.7272778,26.2887788 L29.7272778,21.4876058 C29.7272778,19.4286058 31.3956111,17.7532981 33.4461667,17.7532981 L33.6645,17.7532981 C35.7150556,17.7532981 37.3839444,19.4286058 37.3839444,21.4876058 L37.3839444,26.2887788 C37.3839444,28.3477788 35.7150556,30.0225288 33.6645,30.0225288 L33.6645,30.0225288 Z"/>
      <path fill="#FFF" d="M1.11111111,57.6380577 L1.11111111,51.0706731 C1.11111111,48.169 3.75944444,45.8172115 7.025,45.8172115 L32.9761111,45.8172115 C36.2422222,45.8172115 38.8888889,48.169 38.8888889,51.0706731 L38.8888889,57.6380577"/>
      <path fill="#282D33" d="M40,57.6380577 L37.7777778,57.6380577 L37.7777778,51.0706731 C37.7777778,48.7885962 35.6238889,46.9325962 32.9761111,46.9325962 L7.025,46.9325962 C4.37666667,46.9325962 2.22222222,48.7885962 2.22222222,51.0706731 L2.22222222,57.6380577 L0,57.6380577 L0,51.0706731 C0,47.5588846 3.15111111,44.7018269 7.025,44.7018269 L32.9761111,44.7018269 C36.8488889,44.7018269 40,47.5588846 40,51.0706731 L40,57.6380577 Z"/>
      <path fill="#FFF" d="M33.2118333,28.9605154 C33.2118333,36.2852462 27.2973889,42.2229962 20.0001667,42.2229962 C12.7040556,42.2229962 6.7885,36.2852462 6.7885,28.9605154 L6.7885,18.3504192 C6.7885,11.0268038 12.7040556,5.08905385 20.0001667,5.08905385 C27.2973889,5.08905385 33.2118333,11.0268038 33.2118333,18.3504192 L33.2118333,28.9605154 Z"/>
      <path fill="#282D33" d="M20,6.20455 C13.3277778,6.20455 7.9,11.6532038 7.9,18.3505308 L7.9,28.9606269 C7.9,35.6585115 13.3277778,41.1077231 20,41.1077231 C26.6722222,41.1077231 32.1005556,35.6585115 32.1005556,28.9606269 L32.1005556,18.3505308 C32.1005556,11.6532038 26.6722222,6.20455 20,6.20455 M20,43.3384923 C12.1027778,43.3384923 5.67777778,36.8887808 5.67777778,28.9606269 L5.67777778,18.3505308 C5.67777778,10.4229346 12.1027778,3.97378077 20,3.97378077 C27.8977778,3.97378077 34.3227778,10.4229346 34.3227778,18.3505308 L34.3227778,28.9606269 C34.3227778,36.8887808 27.8977778,43.3384923 20,43.3384923"/>
      <path fill="#FFF" d="M6.78872222,18.8958981 C5.4765,19.0330904 3.33816667,20.133975 3.33816667,21.4874942 L3.33816667,26.2886673 C3.33816667,27.6427442 5.4765,28.7430712 6.78872222,28.8797058 L6.78872222,18.8958981 Z"/>
      <path fill="#282D33" d="M5.67761111,20.3881712 C4.99927778,20.7222288 4.44927778,21.1929212 4.44927778,21.4879404 L4.44927778,26.2885558 C4.44927778,26.583575 4.99927778,27.0542673 5.67761111,27.388325 L5.67761111,20.3881712 Z M7.89983333,30.1171135 L6.67427778,29.9894019 C4.85705556,29.7997865 2.22705556,28.3732096 2.22705556,26.2885558 L2.22705556,21.4879404 C2.22705556,19.4038442 4.85594444,17.9767096 6.67372222,17.7865365 L7.89983333,17.6582673 L7.89983333,30.1171135 Z"/>
      <mask id="teacher-b" fill="#fff">
        <use xlink:href="#teacher-a"/>
      </mask>
      <polygon fill="#282D33" points="19.051 51.631 21.273 51.631 21.273 49.449 19.051 49.449" mask="url(#teacher-b)"/>
      <polygon fill="#282D33" points="19.051 56.513 21.273 56.513 21.273 54.331 19.051 54.331" mask="url(#teacher-b)"/>
      <path fill="#FFE5C4" d="M20,5.08916538 C12.7038889,5.08916538 6.78888889,11.0263577 6.78888889,18.3505308 L6.78888889,20.8211077 L23.965,20.8211077 L26.2738889,16.8068385 L28.5827778,20.8211077 L33.2116667,20.8211077 L33.2116667,18.3505308 C33.2116667,11.0263577 27.2972222,5.08916538 20,5.08916538" mask="url(#teacher-b)"/>
      <path fill="#282D33" d="M29.2241667,19.7057231 L32.1008333,19.7057231 L32.1008333,18.3505308 C32.1008333,11.6532038 26.6719444,6.20455 19.9997222,6.20455 C13.3280556,6.20455 7.89972222,11.6532038 7.89972222,18.3505308 L7.89972222,19.7057231 L23.3236111,19.7057231 L26.2736111,14.5760692 L29.2241667,19.7057231 Z M34.3230556,21.9364923 L27.9413889,21.9364923 L26.2736111,19.03705 L24.6058333,21.9364923 L5.6775,21.9364923 L5.6775,18.3505308 C5.6775,10.4229346 12.1030556,3.97378077 19.9997222,3.97378077 C27.8975,3.97378077 34.3230556,10.4229346 34.3230556,18.3505308 L34.3230556,21.9364923 Z" mask="url(#teacher-b)"/>
    </g>
    <g transform="translate(60 57)">
      <polygon fill="#EA6A00" points="13.9 15.142 10.225 16.682 20.061 36.905 23.008 33.673 27.41 33.826 17.574 13.603"/>
      <polygon fill="#EA6A00" points="2.341 33.953 6.74 33.725 9.744 36.905 19.256 16.55 15.555 15.073 11.853 13.598"/>
      <g transform="translate(0 .241)">
        <path fill="#FF7502" d="M29.0697955,14.780399 C29.0697955,15.493524 27.7566136,16.0962644 27.6482045,16.7784279 C27.5367273,17.4794375 28.5949091,18.4516971 28.3780909,19.111649 C28.1568409,19.7837163 26.7195682,19.9556875 26.3991136,20.5762644 C26.0749091,21.2035721 26.7754773,22.4528029 26.3588864,23.017851 C25.94025,23.5855913 24.5196818,23.3113125 24.0182045,23.8063606 C23.5163864,24.3017452 23.7935455,25.7037644 23.2191136,26.1170337 C22.6463864,26.5279471 21.3812727,25.836024 20.7461591,26.1560721 C20.1175227,26.4727548 19.9433182,27.8912644 19.2621818,28.1096779 C18.594,28.3237163 17.6094545,27.2787644 16.8996818,27.389149 C16.2076364,27.4961683 15.5974091,28.7925144 14.8757045,28.7925144 C14.1536591,28.7925144 13.54275,27.4961683 12.8520682,27.389149 C12.1422955,27.2787644 11.1570682,28.3237163 10.4885455,28.1090048 C9.80809091,27.8912644 9.63422727,26.4727548 9.00559091,26.1557356 C8.37047727,25.8356875 7.10502273,26.527274 6.53263636,26.1166971 C5.95786364,25.7030913 6.23502273,24.3010721 5.73320455,23.8056875 C5.23138636,23.3106394 3.81081818,23.5849183 3.39252273,23.0171779 C2.97559091,22.4521298 3.67684091,21.202899 3.35229545,20.5759279 C3.03081818,19.9556875 1.59388636,19.7833798 1.37331818,19.111649 C1.15615909,18.4513606 2.21468182,17.4794375 2.10320455,16.7784279 C1.99411364,16.0959279 0.681954545,15.4931875 0.681954545,14.780399 C0.681954545,14.0682837 1.99411364,13.4652067 2.10320455,12.7823702 C2.21468182,12.0820337 1.15513636,11.1101106 1.37331818,10.4501587 C1.59354545,9.77876442 3.03013636,9.60578365 3.35195455,8.98520673 C3.67547727,8.35857212 2.97490909,7.10934135 3.39115909,6.54429327 C3.81013636,5.97655288 5.23104545,6.25049519 5.73252273,5.75511058 C6.23434091,5.25972596 5.9565,3.85770673 6.53195455,3.44410096 C7.10434091,3.0331875 8.36979545,3.7244375 9.00490909,3.40472596 C9.63320455,3.08804327 9.80775,1.66953365 10.4882045,1.45145673 C11.1567273,1.23674519 12.1416136,2.28169712 12.8520682,2.17198558 C13.54275,2.06429327 14.1536591,0.768283654 14.8757045,0.768283654 C15.59775,0.768283654 16.2083182,2.06429327 16.9003636,2.17198558 C17.6101364,2.28169712 18.5943409,1.23674519 19.2632045,1.45179327 C19.944,1.66987019 20.1182045,3.08804327 20.7465,3.40472596 C21.3819545,3.72511058 22.64775,3.03352404 23.2197955,3.44477404 C23.7949091,3.85804327 23.5174091,5.25972596 24.0192273,5.75578365 C24.5203636,6.25049519 25.9412727,5.97655288 26.3595682,6.54429327 C26.7765,7.10900481 26.0755909,8.35857212 26.3997955,8.98554327 C26.7205909,9.60578365 28.1571818,9.77809135 28.3784318,10.4498221 C28.59525,11.109774 27.5367273,12.0820337 27.6482045,12.7823702 C27.7566136,13.4652067 29.0697955,14.0682837 29.0697955,14.780399"/>
        <polygon fill="#FFF" points="18.709 20 15 18.121 11.292 20 12 16.02 9 13.202 13.146 12.621 15 9 16.854 12.621 21 13.202 18 16.02"/>
      </g>
    </g>
  </g>
</svg>
