<svg xmlns="http://www.w3.org/2000/svg" width="80" height="72" viewBox="0 0 80 72">
  <path fill="#FEF1E0" fill-rule="evenodd" d="M655.011755,1438 L655.011755,1403.45794 L640.142158,1403.45794 C640.142158,1397.92521 641.193533,1393.25236 643.296315,1389.43925 C645.399097,1385.62615 649.304204,1382.74767 655.011755,1380.80374 L655.011755,1366 C650.355595,1366.59813 646.037447,1367.9813 642.057182,1370.14953 C638.076916,1372.31777 634.659947,1375.04671 631.806171,1378.33645 C628.952396,1381.62618 626.736999,1385.43923 625.159912,1389.7757 C623.582826,1394.11217 622.869393,1398.74764 623.019591,1403.68224 L623.019591,1438 L655.011755,1438 Z M703,1438 L703,1403.45794 L688.130403,1403.45794 C688.130403,1397.92521 689.181778,1393.25236 691.28456,1389.43925 C693.387342,1385.62615 697.292449,1382.74767 703,1380.80374 L703,1366 C698.34384,1366.59813 694.025692,1367.9813 690.045427,1370.14953 C686.065161,1372.31777 682.648192,1375.04671 679.794417,1378.33645 C676.940641,1381.62618 674.725244,1385.43923 673.148157,1389.7757 C671.571071,1394.11217 670.857638,1398.74764 671.007837,1403.68224 L671.007837,1438 L703,1438 Z" transform="rotate(-180 351.5 719)"/>
</svg>
