<svg xmlns="http://www.w3.org/2000/svg" width="80" height="72" viewBox="0 0 80 72">
  <path fill="#FEF1E0" fill-rule="evenodd" d="M82.0117548,1013 L82.0117548,978.457944 L67.1421577,978.457944 C67.1421577,972.925206 68.1935329,968.252356 70.2963147,964.439252 C72.3990965,960.626149 76.3042042,957.747673 82.0117548,955.803738 L82.0117548,941 C77.3555951,941.598134 73.0374472,942.981298 69.0571816,945.149533 C65.076916,947.317768 61.6599468,950.046713 58.8061715,953.336449 C55.9523961,956.626185 53.7369985,960.439231 52.1599122,964.775701 C50.5828258,969.112171 49.8693927,973.747639 50.0195914,978.682243 L50.0195914,1013 L82.0117548,1013 Z M130,1013 L130,978.457944 L115.130403,978.457944 C115.130403,972.925206 116.181778,968.252356 118.28456,964.439252 C120.387342,960.626149 124.292449,957.747673 130,955.803738 L130,941 C125.34384,941.598134 121.025692,942.981298 117.045427,945.149533 C113.065161,947.317768 109.648192,950.046713 106.794417,953.336449 C103.940641,956.626185 101.725244,960.439231 100.148157,964.775701 C98.571071,969.112171 97.8576378,973.747639 98.0078365,978.682243 L98.0078365,1013 L130,1013 Z" transform="translate(-50 -941)"/>
</svg>
