<svg xmlns="http://www.w3.org/2000/svg" width="326" height="61" viewBox="0 0 326 61">
    <g fill="none" fill-rule="evenodd">
        <polygon fill="#FF7502" points="77.08 16.13 85.07 16.13 85.07 20.03 81.87 20.03 81.87 23.72 84.86 23.72 84.86 27.43 81.87 27.43 81.87 31.71 85.38 31.71 85.38 35.61 77.08 35.61"/>
        <polygon fill="#FF7502" points="95.07 20.02 91.56 20.02 91.56 35.61 86.76 35.61 86.76 16.12 95.07 16.12"/>
        <g transform="translate(0 .44)">
            <path fill="#FF7502" d="M106.82 29.88c0 1.88-.44 3.25-1.3 4.13-.88.87-2.22 1.3-4.03 1.3-1.93 0-3.31-.42-4.15-1.27-.85-.85-1.27-2.3-1.27-4.37v-1.53h4.6v2.99c0 .79.26 1.18.78 1.18.38 0 .6-.15.67-.46.07-.3.1-1.05.1-2.23V26.4h-2.64v-2.84h2.64v-3.32c0-.63-.03-1.06-.1-1.3-.08-.25-.29-.38-.61-.38-.56 0-.84.39-.84 1.16v2.24h-4.6V20.3c0-1.82.4-3.07 1.19-3.74.78-.68 2.15-1.01 4.1-1.01 1.8 0 3.16.4 4.08 1.22.92.82 1.38 2.02 1.38 3.6v9.5z"/>
            <polygon points="0 60.06 325.89 60.06 325.89 .5 0 .5"/>
            <polygon fill="#FF7502" points="108.15 28.87 114.19 28.87 114.19 25.51 108.15 25.51"/>
            <path fill="#FF7502" d="M126.73 24.17h-4.79V20.8c0-.99-.05-1.6-.15-1.85-.1-.24-.33-.36-.68-.36-.4 0-.64.14-.75.44-.1.3-.16.94-.16 1.93V30c0 .94.06 1.56.16 1.85.1.29.35.43.72.43.36 0 .59-.14.7-.43.1-.29.16-.97.16-2.04v-2.45h4.8v.76c0 2.02-.14 3.45-.41 4.3a4.34 4.34 0 0 1-1.79 2.21c-.92.63-2.05.95-3.4.95-1.4 0-2.56-.27-3.47-.8a3.87 3.87 0 0 1-1.81-2.24c-.3-.95-.44-2.38-.44-4.29v-5.69c0-1.4.04-2.46.13-3.16a4.55 4.55 0 0 1 2.7-3.56c.8-.37 1.71-.56 2.75-.56 1.41 0 2.57.29 3.49.86.92.58 1.52 1.3 1.8 2.16.3.86.44 2.2.44 4.02v1.85z"/>
            <polygon fill="#FF7502" points="137.41 19.2 137.41 22.55 134.78 22.55 134.78 35.17 130.2 35.17 130.2 22.55 127.56 22.55 127.56 19.2"/>
            <path fill="#FF7502" d="M147.95 19.2l-1.32 11.56a48.4 48.4 0 0 1-.52 3.74 4.14 4.14 0 0 1-.7 1.65c-.32.43-.78.75-1.36.95-.58.2-1.5.31-2.78.31h-2.78v-2.55c.71 0 1.17-.04 1.38-.11.2-.08.3-.25.3-.52 0-.12-.09-.68-.28-1.67l-2.52-13.36h4.17L143.05 30l.74-10.79h4.16zM156.6 31.33V22.8h-1.2v.17c0 2.97-.46 5.76-1.37 8.36h2.56zm5.53 6.92h-3.07v-3.08h-7.73v3.08h-3.07v-6.9h.98a13.7 13.7 0 0 0 1.43-4.44c.38-2 .57-4.38.57-7.12v-.59h9.91v12.13h.98v6.92z"/>
            <polygon fill="#FF7502" points="174.66 35.17 170.66 35.17 170.66 26.54 167.46 35.17 163.28 35.17 163.28 19.2 167.28 19.2 167.28 27.76 170.42 19.2 174.66 19.2"/>
            <path fill="#FF7502" d="M182 26.12v-3.81h-.47c-.33 0-.6.1-.8.3-.2.2-.3.69-.3 1.44v.2c0 .78.12 1.28.34 1.52.23.23.64.35 1.23.35zm4.57 9.05H182V28.9c-.6 0-1 .13-1.23.4-.22.26-.33.76-.33 1.5v4.38h-4.2v-3.74c0-.95.04-1.64.14-2.06.1-.43.32-.76.68-1a6.7 6.7 0 0 1 1.8-.72c-1.1-.1-1.81-.43-2.14-1-.33-.55-.49-1.55-.49-2.98 0-1.6.44-2.73 1.3-3.43.87-.69 2.75-1.04 5.64-1.04h3.4v15.97zM23.6 56.77h6.48V21.02H40.6v-6.66h-17v42.4zm-23.6 0h17v-5.98H6.48V39.17H17v-6.53H6.48V21.02H17v-6.66H0v42.4zm56.93-42.4H46.27v6.52h10.66c3.05 0 5.53 2.5 5.53 5.57v6.18H50.18v6.53h12.28v5.5a5.56 5.56 0 0 1-5.53 5.57H46.27v6.53h10.66c6.62 0 12-5.43 12-12.1V26.46c0-6.67-5.38-12.1-12-12.1z"/>
            <polygon fill="#FF7502" points="0 7.23 54.77 7.23 54.77 3.96 0 3.96"/>
            <polygon fill="#FF7502" points="53.69 .5 53.69 10.69 67.58 5.53"/>
            <polygon fill="#FF7502" points="77.47 44.9 85.36 44.9 85.36 46.3 79.08 46.3 79.08 56.77 77.47 56.77"/>
            <path fill="#FF7502" d="M86.33 52.47c0 1.1.25 1.93.74 2.47.5.55 1.12.82 1.87.82.74 0 1.36-.27 1.86-.82.49-.55.74-1.4.74-2.52 0-1.06-.25-1.87-.75-2.41a2.4 2.4 0 0 0-1.85-.83c-.75 0-1.37.28-1.87.82-.5.55-.74 1.37-.74 2.47m-1.54 0c0-1.6.46-2.77 1.37-3.54a4.2 4.2 0 0 1 2.78-.95c1.21 0 2.2.39 2.98 1.16a4.35 4.35 0 0 1 1.16 3.2c0 1.11-.17 1.98-.51 2.62a3.58 3.58 0 0 1-1.5 1.48c-.65.35-1.36.52-2.13.52a4.04 4.04 0 0 1-3-1.16c-.77-.77-1.15-1.88-1.15-3.33"/>
            <polygon fill="#FF7502" points="93.65 48.17 100.84 48.17 100.84 49.38 97.99 49.38 97.99 56.77 96.5 56.77 96.5 49.38 93.65 49.38"/>
            <path fill="#FF7502" d="M103.07 52.47c0 1.1.24 1.93.74 2.47.5.55 1.11.82 1.86.82s1.37-.27 1.86-.82c.5-.55.74-1.4.74-2.52 0-1.06-.25-1.87-.74-2.41a2.4 2.4 0 0 0-1.86-.83c-.75 0-1.37.28-1.86.82-.5.55-.74 1.37-.74 2.47m-1.55 0c0-1.6.46-2.77 1.37-3.54a4.2 4.2 0 0 1 2.78-.95c1.22 0 2.21.39 2.99 1.16a4.35 4.35 0 0 1 1.15 3.2c0 1.11-.17 1.98-.5 2.62a3.58 3.58 0 0 1-1.5 1.48c-.65.35-1.37.52-2.14.52a4.04 4.04 0 0 1-3-1.16c-.76-.77-1.15-1.88-1.15-3.33M113.08 55.57h1.97c.85 0 1.44-.1 1.75-.29.32-.19.48-.52.5-.99 0-.27-.09-.53-.27-.76a1.2 1.2 0 0 0-.72-.45c-.3-.06-.77-.1-1.42-.1h-1.81v2.59zm0-3.78h1.6c.64 0 1.08-.03 1.31-.1.24-.06.46-.2.65-.39.18-.2.28-.43.28-.7 0-.46-.17-.78-.5-.95-.33-.18-.9-.27-1.7-.27h-1.64v2.41zm-1.5-3.62h3.46c.85 0 1.48.07 1.9.2.4.15.76.4 1.06.77.3.36.44.8.44 1.32 0 .4-.08.76-.26 1.07-.17.3-.44.56-.79.76a2.15 2.15 0 0 1 1.45 2.07c-.05.82-.35 1.42-.9 1.82-.54.39-1.33.59-2.37.59h-4v-8.6zM122.1 55.57h1.58c.95 0 1.63-.11 2.03-.34.41-.23.61-.58.61-1.06 0-.37-.15-.7-.45-1-.3-.29-.96-.43-1.99-.43h-1.77v2.83zm-1.5-7.4h1.5v3.36h1.9c1.25 0 2.2.23 2.87.7.67.47 1 1.11 1 1.93a2.4 2.4 0 0 1-.84 1.84c-.55.51-1.45.77-2.67.77h-3.75v-8.6z"/>
            <polygon fill="#FF7502" points="127.38 48.17 134.57 48.17 134.57 49.38 131.72 49.38 131.72 56.77 130.23 56.77 130.23 49.38 127.38 49.38"/>
            <path fill="#FF7502" d="M136.94 51.64h4.94a2.86 2.86 0 0 0-.56-1.62 2.32 2.32 0 0 0-1.86-.84c-.69 0-1.27.22-1.74.67a2.62 2.62 0 0 0-.78 1.8m4.93 2.35l1.55.19c-.25.88-.7 1.56-1.36 2.04-.66.49-1.5.73-2.53.73a4.1 4.1 0 0 1-3.08-1.16 4.46 4.46 0 0 1-1.14-3.26c0-1.44.38-2.56 1.15-3.36.77-.8 1.76-1.2 2.98-1.2 1.19 0 2.15.39 2.9 1.17a4.58 4.58 0 0 1 1.13 3.3l-.01.4h-6.6c.06.94.33 1.66.83 2.16.49.5 1.1.75 1.84.75.55 0 1.02-.14 1.41-.42.4-.28.7-.73.93-1.34M151.07 53.62l1.48.19a3.69 3.69 0 0 1-1.24 2.31c-.67.56-1.48.84-2.45.84a3.86 3.86 0 0 1-2.92-1.15c-.73-.77-1.1-1.87-1.1-3.3 0-.94.16-1.75.48-2.44.31-.7.8-1.22 1.44-1.57a4.38 4.38 0 0 1 2.11-.52c.96 0 1.75.23 2.36.7.61.48 1 1.15 1.17 2.02l-1.45.22a2.34 2.34 0 0 0-.74-1.3c-.35-.3-.78-.44-1.28-.44-.75 0-1.37.26-1.84.78-.47.53-.7 1.36-.7 2.5 0 1.16.22 2 .68 2.52.45.52 1.04.78 1.78.78.59 0 1.08-.17 1.47-.52.4-.35.65-.9.75-1.62M155.3 55.57h1.58c.95 0 1.63-.11 2.03-.34.4-.23.6-.58.6-1.06 0-.37-.14-.7-.44-1-.3-.29-.97-.43-2-.43h-1.77v2.83zm-1.5-7.4h1.5v3.36h1.9c1.24 0 2.2.23 2.86.7.67.47 1 1.11 1 1.93a2.4 2.4 0 0 1-.83 1.84c-.56.51-1.45.77-2.68.77h-3.75v-8.6zM173.23 53.62l1.47.19a3.69 3.69 0 0 1-1.23 2.31c-.67.56-1.48.84-2.45.84a3.86 3.86 0 0 1-2.92-1.15c-.73-.77-1.1-1.87-1.1-3.3 0-.94.16-1.75.47-2.44.32-.7.8-1.22 1.45-1.57a4.38 4.38 0 0 1 2.11-.52c.96 0 1.75.23 2.36.7.6.48 1 1.15 1.17 2.02l-1.46.22a2.34 2.34 0 0 0-.73-1.3c-.36-.3-.78-.44-1.28-.44-.76 0-1.37.26-1.84.78-.47.53-.71 1.36-.71 2.5 0 1.16.23 2 .68 2.52.46.52 1.05.78 1.78.78.6 0 1.09-.17 1.48-.52.4-.35.64-.9.75-1.62"/>
            <polygon fill="#FF7502" points="180.73 48.17 187.71 48.17 187.71 56.77 186.22 56.77 186.22 49.38 182.23 49.38 182.23 56.77 180.73 56.77"/>
            <path fill="#FF7502" d="M191.32 52.52c0 1.1.23 1.92.7 2.45.45.53 1.01.8 1.67.8a2.2 2.2 0 0 0 1.71-.83c.48-.54.71-1.4.71-2.54 0-1.1-.23-1.92-.7-2.46a2.12 2.12 0 0 0-1.66-.82c-.63 0-1.2.29-1.7.87-.48.58-.73 1.42-.73 2.53zm-1.36 7.54V48.17h1.37v1.12a3.3 3.3 0 0 1 1.1-.98c.4-.22.89-.33 1.47-.33.75 0 1.42.19 2 .56.57.38 1 .91 1.3 1.6.3.7.44 1.45.44 2.27 0 .87-.16 1.67-.48 2.37a3.72 3.72 0 0 1-3.37 2.18c-.5 0-.95-.1-1.35-.3-.4-.21-.72-.47-.98-.78v4.18h-1.5zM200.44 52.47c0 1.1.24 1.93.74 2.47.5.55 1.11.82 1.86.82a2.4 2.4 0 0 0 1.86-.82c.5-.55.74-1.4.74-2.52 0-1.06-.25-1.87-.74-2.41a2.4 2.4 0 0 0-1.86-.83 2.4 2.4 0 0 0-1.86.82c-.5.55-.74 1.37-.74 2.47m-1.54 0c0-1.6.45-2.77 1.36-3.54a4.2 4.2 0 0 1 2.78-.95c1.22 0 2.21.39 2.99 1.16a4.35 4.35 0 0 1 1.15 3.2c0 1.11-.17 1.98-.5 2.62a3.57 3.57 0 0 1-1.5 1.48c-.65.35-1.37.52-2.14.52a4.04 4.04 0 0 1-3-1.16c-.76-.77-1.14-1.88-1.14-3.33M215.58 52.5c0 1.3.18 2.17.55 2.61.37.45.82.67 1.37.67.61 0 1.13-.27 1.57-.82.43-.55.64-1.4.64-2.56 0-1.08-.2-1.9-.6-2.43-.4-.54-.9-.8-1.52-.8-.67 0-1.17.28-1.5.83-.34.56-.51 1.39-.51 2.5zm-5.61-.16c0 1.21.2 2.09.62 2.62.42.54.94.8 1.57.8a1.6 1.6 0 0 0 1.45-.8c.33-.52.49-1.32.49-2.39 0-1.13-.17-1.98-.51-2.54a1.67 1.67 0 0 0-1.53-.85c-.62 0-1.12.27-1.51.83a4.02 4.02 0 0 0-.58 2.33zm4.12-7.44h1.5V49a2.87 2.87 0 0 1 2.22-1.03c1.05 0 1.88.43 2.5 1.28.61.85.92 1.92.92 3.21 0 1.35-.33 2.43-1 3.26a3.04 3.04 0 0 1-2.46 1.24c-.32 0-.65-.05-.98-.14-.34-.1-.74-.36-1.2-.8v4.04h-1.5v-4.04a2.94 2.94 0 0 1-2.17.94c-.93 0-1.74-.4-2.44-1.18-.7-.8-1.04-1.93-1.04-3.4 0-1.25.32-2.29.94-3.14a3 3 0 0 1 2.53-1.26c.45 0 .85.08 1.21.25.36.17.69.43.97.78v-4.1zM224.11 51.64h4.94a2.86 2.86 0 0 0-.57-1.62 2.32 2.32 0 0 0-1.86-.84c-.68 0-1.26.22-1.73.67a2.62 2.62 0 0 0-.78 1.8m4.92 2.35l1.55.19c-.24.88-.7 1.56-1.36 2.04-.66.49-1.5.73-2.53.73a4.1 4.1 0 0 1-3.08-1.16 4.46 4.46 0 0 1-1.13-3.26c0-1.44.38-2.56 1.15-3.36.76-.8 1.76-1.2 2.98-1.2 1.18 0 2.15.39 2.9 1.17a4.58 4.58 0 0 1 1.12 3.3v.4h-6.6c.05.94.33 1.66.82 2.16.5.5 1.11.75 1.85.75.55 0 1.02-.14 1.4-.42.4-.28.7-.73.93-1.34M238.24 53.62l1.47.19a3.7 3.7 0 0 1-1.23 2.31c-.67.56-1.48.84-2.45.84a3.86 3.86 0 0 1-2.92-1.15c-.74-.77-1.1-1.87-1.1-3.3 0-.94.15-1.75.47-2.44.32-.7.8-1.22 1.45-1.57a4.38 4.38 0 0 1 2.1-.52c.97 0 1.76.23 2.37.7.6.48 1 1.15 1.17 2.02l-1.46.22a2.34 2.34 0 0 0-.73-1.3c-.36-.3-.78-.44-1.28-.44-.76 0-1.37.26-1.84.78-.48.53-.71 1.36-.71 2.5 0 1.16.23 2 .68 2.52.46.52 1.05.78 1.78.78.6 0 1.08-.17 1.48-.52.4-.35.64-.9.75-1.62M246.77 53.62l1.47.19a3.7 3.7 0 0 1-1.23 2.31c-.67.56-1.48.84-2.45.84a3.86 3.86 0 0 1-2.92-1.15c-.74-.77-1.1-1.87-1.1-3.3 0-.94.16-1.75.47-2.44.32-.7.8-1.22 1.45-1.57a4.38 4.38 0 0 1 2.1-.52c.97 0 1.76.23 2.37.7.6.48 1 1.15 1.17 2.02l-1.46.22a2.34 2.34 0 0 0-.73-1.3c-.36-.3-.78-.44-1.28-.44-.76 0-1.37.26-1.84.78-.48.53-.71 1.36-.71 2.5 0 1.16.23 2 .68 2.52.46.52 1.05.78 1.78.78.6 0 1.08-.17 1.48-.52.4-.35.64-.9.75-1.62"/>
            <polygon fill="#FF7502" points="249.52 48.17 251.02 48.17 251.02 54.73 255.18 48.17 256.8 48.17 256.8 56.77 255.3 56.77 255.3 50.25 251.14 56.77 249.52 56.77"/>
            <path fill="#FF7502" d="M260.04 52.47c0 1.1.25 1.93.74 2.47.5.55 1.12.82 1.87.82a2.4 2.4 0 0 0 1.85-.82c.5-.55.74-1.4.74-2.52 0-1.06-.24-1.87-.74-2.41a2.4 2.4 0 0 0-1.85-.83 2.4 2.4 0 0 0-1.87.82c-.5.55-.74 1.37-.74 2.47m-1.54 0c0-1.6.45-2.77 1.36-3.54a4.2 4.2 0 0 1 2.79-.95c1.21 0 2.2.39 2.98 1.16a4.35 4.35 0 0 1 1.16 3.2c0 1.11-.18 1.98-.52 2.62a3.57 3.57 0 0 1-1.49 1.48c-.65.35-1.36.52-2.13.52a4.04 4.04 0 0 1-3-1.16c-.77-.77-1.15-1.88-1.15-3.33"/>
            <polygon fill="#FF7502" points="268.55 48.17 270.05 48.17 270.05 51.75 274.21 51.75 274.21 48.17 275.71 48.17 275.71 56.77 274.21 56.77 274.21 52.96 270.05 52.96 270.05 56.77 268.55 56.77"/>
            <path fill="#FF7502" d="M283.61 52.45c-.54.22-1.36.4-2.45.55a5.9 5.9 0 0 0-1.3.3 1.22 1.22 0 0 0-.8 1.17c0 .38.15.7.45.96.3.26.74.4 1.33.4.58 0 1.09-.13 1.54-.38a2.3 2.3 0 0 0 .99-1c.16-.33.24-.82.24-1.46v-.54zm.13 3.26a4.76 4.76 0 0 1-3.26 1.25c-.97 0-1.72-.23-2.24-.69a2.26 2.26 0 0 1-.78-1.77 2.38 2.38 0 0 1 1.07-1.99 3.7 3.7 0 0 1 1.07-.48c.3-.07.74-.14 1.34-.22 1.2-.14 2.1-.3 2.67-.5l.01-.38c0-.6-.14-1-.43-1.25-.38-.33-.95-.5-1.7-.5-.7 0-1.23.12-1.56.36-.34.24-.59.67-.75 1.28l-1.47-.2c.14-.6.36-1.1.66-1.47.3-.38.75-.67 1.33-.87.57-.2 1.24-.3 2-.3s1.37.08 1.85.26c.47.17.81.39 1.04.65.22.26.37.6.46 1 .05.24.08.69.08 1.33v1.95c0 1.35.03 2.2.1 2.57.06.36.18.7.37 1.03h-1.56c-.16-.3-.26-.66-.3-1.06zM288.18 48.17h6.97v8.6h-1.5v-7.4h-3.97v4.29c0 1-.03 1.66-.1 1.97-.06.32-.25.6-.55.84-.3.24-.73.35-1.3.35-.34 0-.75-.02-1.2-.06v-1.22h.66c.3 0 .53-.03.66-.09a.49.49 0 0 0 .27-.3c.04-.13.06-.57.06-1.31v-5.67zM303.05 52.45c-.54.22-1.36.4-2.44.55a5.9 5.9 0 0 0-1.31.3 1.22 1.22 0 0 0-.8 1.17c0 .38.15.7.45.96.3.26.75.4 1.33.4.58 0 1.1-.13 1.54-.38a2.3 2.3 0 0 0 1-1c.15-.33.23-.82.23-1.46v-.54zm.13 3.26a4.76 4.76 0 0 1-3.26 1.25c-.97 0-1.72-.23-2.24-.69a2.26 2.26 0 0 1-.78-1.77 2.38 2.38 0 0 1 1.07-1.99 3.7 3.7 0 0 1 1.08-.48c.3-.07.74-.14 1.33-.22 1.21-.14 2.1-.3 2.67-.5l.01-.38c0-.6-.14-1-.42-1.25-.39-.33-.96-.5-1.71-.5-.7 0-1.23.12-1.56.36-.34.24-.59.67-.75 1.28l-1.46-.2c.13-.6.35-1.1.65-1.47.31-.38.75-.67 1.33-.87.58-.2 1.25-.3 2-.3.76 0 1.38.08 1.85.26.47.17.82.39 1.04.65.22.26.38.6.47 1 .05.24.07.69.07 1.33v1.95c0 1.35.03 2.2.1 2.57.06.36.19.7.38 1.03h-1.57c-.16-.3-.26-.66-.3-1.06z"/>
            <polygon fill="#FF7502" points="306.94 48.17 309.27 48.17 311.59 55.05 314.17 48.17 316.33 48.17 316.33 56.77 314.83 56.77 314.83 49.85 312.22 56.77 310.88 56.77 308.4 49.52 308.4 56.77 306.94 56.77"/>
            <polygon fill="#FF7502" points="318.62 48.17 320.12 48.17 320.12 54.73 324.28 48.17 325.9 48.17 325.9 56.77 324.4 56.77 324.4 50.25 320.24 56.77 318.62 56.77"/>
        </g>
    </g>
</svg>
