<svg xmlns="http://www.w3.org/2000/svg" width="66" height="54" viewBox="0 0 66 54">
    <g fill="#FF7502" transform="translate(2 1)">
        <path d="M21.55 52.28h5.92V19.6h9.6v-6.08H21.55v38.75zM0 52.28h15.52V46.8h-9.6V36.2h9.6v-5.96h-9.6V19.61h9.6v-6.08H0v38.75zm51.98-38.75h-9.73v5.96h9.73a5.08 5.08 0 0 1 5.05 5.09v5.65H45.82v5.96h11.2v5.03c0 2.81-2.26 5.1-5.04 5.1h-9.73v5.96h9.73c6.04 0 10.96-4.96 10.96-11.06V24.58c0-6.1-4.92-11.05-10.96-11.05z"/>
        <polygon points="0 7.01 50.01 7.01 50.01 4.02 0 4.02"/>
        <polygon points="49.02 .86 49.02 10.17 61.71 5.45"/>
    </g>
</svg>
