<svg width="197" height="94" fill="none" xmlns="http://www.w3.org/2000/svg">
    <g clip-path="url(#clip0_4118_2)">
        <path d="M14.132 28.009v4.258H5.006v5.666h8.745v4.258H5.006v6.92h9.126v4.26H.063V28.008h14.069zm18.254 0v4.258H23.87V53.37h-4.943V28.01h13.46zm1.884 24.449v-5.78c1.825 1.85 4.056 2.776 6.692 2.776 1.977 0 3.726-.583 5.247-1.75 1.546-1.165 2.497-2.813 2.852-4.942H37.692v-4.259h11.293c-.355-2.078-1.28-3.688-2.776-4.829-1.495-1.166-3.181-1.749-5.057-1.749-2.712 0-5.006.95-6.882 2.852v-5.78c2.028-1.039 4.233-1.558 6.616-1.558 3.98 0 7.136 1.115 9.468 3.346 1.191 1.166 2.116 2.636 2.775 4.41a14.995 14.995 0 0 1 1.027 5.514c0 4.03-1.255 7.262-3.764 9.695-2.358 2.358-5.514 3.536-9.468 3.536-2.383 0-4.6-.494-6.654-1.482z" fill="#FF7502"/>
        <path d="M84.96 46.678v5.78c-1.876.988-3.967 1.483-6.274 1.483-3.701 0-6.794-1.18-9.278-3.537-2.712-2.61-4.068-5.843-4.068-9.696 0-4.106 1.356-7.414 4.068-9.923 2.383-2.231 5.488-3.346 9.316-3.346 2.23 0 4.31.52 6.236 1.558v5.78c-1.648-1.901-3.688-2.852-6.122-2.852-2.484 0-4.512.875-6.084 2.624-1.546 1.724-2.32 3.802-2.32 6.236 0 2.661.863 4.778 2.587 6.35 1.723 1.546 3.726 2.319 6.007 2.319 2.383 0 4.36-.925 5.932-2.776zm18.232-14.41h-5.703V53.37h-4.943V32.267h-5.704V28.01h16.35v4.258zm.319-4.26h5.78l6.425 12.777 5.438-12.776h5.399L114.804 53.37h-5.399l3.536-7.072-9.43-18.29zm26.487 0h17.11v21.104h2.662v9.962h-4.563V53.37h-15.59v5.704h-4.562v-9.962c.861.025 1.647-.28 2.357-.913.71-.659 1.267-1.496 1.673-2.51.608-1.546.913-3.764.913-6.654V28.01zm4.79 4.26v6.767c0 3.17-.291 5.527-.874 7.073a8.381 8.381 0 0 1-1.977 3.004h10.228V32.267h-7.377zm18.249-4.26h4.943v17.035l13.992-17.604h3.422V53.37h-4.943V36.26l-13.992 17.604h-3.422V28.01zm43.963 0V53.37h-4.943v-9.81h-.913l-6.463 9.81h-5.932l7.528-10.266a6.224 6.224 0 0 1-2.775-1.14c-1.901-1.37-2.852-3.41-2.852-6.122 0-2.46.837-4.424 2.51-5.894 1.47-1.293 3.637-1.94 6.502-1.94H197zm-4.943 4.031h-1.521a8.92 8.92 0 0 0-1.179.076c-.38.051-.887.19-1.521.419-.633.202-1.14.595-1.52 1.178-.381.558-.571 1.268-.571 2.13 0 2.56 1.622 3.84 4.867 3.84h1.445v-7.643z" fill="#A7BC0D"/>
        <path fill="#A7BC0D" d="M56.643 38.505H62.852000000000004V42.761H56.643z"/>
        <path fill-rule="evenodd" clip-rule="evenodd" d="M188.939 12.016H.039v-4.21h188.9l-4.827-4.828L187.089 0 197 9.91l-9.911 9.911-2.977-2.977 4.827-4.828z" fill="url(#paint0_linear_4118_2)"/>
        <path d="M0 79.371c0-5.553 4.502-10.055 10.055-10.055H197v13.928c0 5.554-4.502 10.055-10.055 10.055H10.055C4.502 93.3 0 88.798 0 83.244v-3.873z" fill="url(#paint1_linear_4118_2)"/>
        <path d="M14.596 87.137c-1.082 0-2.01-.235-2.78-.706a4.72 4.72 0 0 1-1.782-1.984c-.41-.847-.616-1.828-.616-2.946 0-1.117.206-2.099.616-2.945a4.67 4.67 0 0 1 1.781-1.976c.772-.476 1.699-.714 2.78-.714 1.248 0 2.287.313 3.119.94.832.62 1.415 1.46 1.75 2.516l-1.825.504c-.21-.706-.569-1.258-1.075-1.653-.506-.401-1.162-.602-1.968-.602-.727 0-1.333.163-1.819.489-.48.326-.844.784-1.09 1.375-.24.586-.363 1.275-.368 2.066 0 .792.12 1.483.361 2.075.245.586.611 1.041 1.097 1.367.486.326 1.092.489 1.819.489.806 0 1.462-.2 1.968-.602.506-.4.864-.951 1.075-1.653l1.826.504c-.336 1.057-.92 1.898-1.751 2.525-.832.62-1.871.931-3.118.931zm5.918 1.578v-3.223c.44 0 .753-.15.939-.451.185-.3.333-.822.443-1.563.07-.441.128-.907.173-1.398.045-.49.083-1.01.113-1.555a75.51 75.51 0 0 0 .09-1.729h6.041v6.696h.82v3.223h-1.714v-1.803h-5.2v1.803h-1.705zm2.427-3.223h3.569v-5.275h-2.653a67.457 67.457 0 0 1-.12 1.856c-.025.31-.052.608-.082.894-.026.28-.056.54-.09.781-.056.421-.123.767-.204 1.037-.08.27-.22.506-.42.707zm9.968 1.645c-.586 0-1.082-.11-1.488-.33a2.338 2.338 0 0 1-.924-.895 2.485 2.485 0 0 1-.308-1.224c0-.391.065-.742.195-1.052.13-.316.33-.587.601-.812.27-.23.622-.418 1.052-.564.326-.105.707-.2 1.142-.285.441-.085.917-.163 1.428-.233.516-.075 1.055-.155 1.616-.24l-.646.368c.005-.561-.12-.975-.376-1.24-.256-.266-.686-.398-1.293-.398-.365 0-.718.085-1.06.255-.34.17-.578.464-.713.88l-1.653-.52c.2-.685.581-1.237 1.142-1.652.566-.416 1.328-.624 2.284-.624.722 0 1.355.118 1.901.353.552.236.96.621 1.225 1.157.146.286.233.579.263.88.03.295.045.618.045.969v4.982h-1.585v-1.759l.263.286c-.366.586-.794 1.017-1.285 1.293-.486.27-1.095.405-1.826.405zm.36-1.442c.412 0 .762-.073 1.053-.218.29-.146.52-.324.691-.534.175-.21.293-.408.353-.594.095-.23.148-.493.158-.789.015-.3.023-.543.023-.728l.556.165c-.547.085-1.015.16-1.406.225-.39.065-.726.128-1.007.188-.28.055-.528.118-.743.188-.21.075-.389.163-.534.263-.145.1-.258.215-.338.346a.901.901 0 0 0-.113.458c0 .2.05.378.15.534.1.15.246.27.436.36.196.09.436.136.722.136zm9.78-7.815c-.416 0-.797-.103-1.143-.308a2.354 2.354 0 0 1-.826-.82 2.208 2.208 0 0 1-.308-1.15h1.412c0 .241.083.447.248.617.17.165.376.248.616.248s.444-.083.609-.248a.84.84 0 0 0 .256-.616h1.412c0 .42-.103.804-.308 1.15-.205.34-.48.613-.826.819a2.195 2.195 0 0 1-1.143.308zm3.283.916v8.116h-1.736v-5.298l-3.862 5.298h-1.45v-8.116h1.736v5.163l3.877-5.163h1.435zm5.119 8.116v-10.82h6.988v1.697h-5.177v2.668h4.275v1.698h-4.275v3.059h5.177v1.698h-6.988zm8.79 0v-10.82h6.99v1.697h-5.178v9.123h-1.811zm12.436.225c-.807 0-1.528-.125-2.164-.376a4.173 4.173 0 0 1-1.616-1.142c-.44-.51-.771-1.144-.992-1.9l1.774-.444c.2.641.553 1.162 1.06 1.563.505.4 1.114.599 1.825.594.496-.01.965-.108 1.405-.294.446-.185.81-.47 1.09-.856.225-.286.39-.591.496-.917a5.37 5.37 0 0 0 .218-1.022H71.94v-1.698h3.847c-.08-.611-.256-1.147-.526-1.608a2.86 2.86 0 0 0-1.09-1.082c-.45-.26-.987-.386-1.608-.376-.741.005-1.367.21-1.878.616-.511.406-.86.955-1.045 1.646l-1.81-.256c.27-1.182.826-2.096 1.667-2.742.842-.652 1.901-.977 3.179-.977 1.047 0 1.946.238 2.698.714.756.47 1.337 1.13 1.743 1.976.41.847.619 1.828.624 2.945.005 1.052-.193 2.004-.594 2.856a4.844 4.844 0 0 1-1.743 2.029c-.757.5-1.666.751-2.728.751zm9.564-.225v-8.116h1.811v3.201h3.645v-3.2h1.81v8.115h-1.81v-3.216h-3.645v3.216h-1.81zm11.634.225c-.586 0-1.082-.11-1.488-.33a2.338 2.338 0 0 1-.924-.895 2.485 2.485 0 0 1-.308-1.224c0-.391.065-.742.195-1.052.13-.316.33-.587.601-.812.27-.23.621-.418 1.052-.564.326-.105.706-.2 1.142-.285.441-.085.917-.163 1.428-.233.516-.075 1.054-.155 1.616-.24l-.647.368c.005-.561-.12-.975-.376-1.24-.255-.266-.686-.398-1.292-.398-.366 0-.719.085-1.06.255-.34.17-.578.464-.713.88l-1.653-.52c.2-.685.58-1.237 1.142-1.652.566-.416 1.327-.624 2.284-.624.722 0 1.355.118 1.901.353.551.236.96.621 1.225 1.157.145.286.233.579.263.88.03.295.045.618.045.969v4.982h-1.585v-1.759l.263.286c-.366.586-.794 1.017-1.285 1.293-.486.27-1.095.405-1.826.405zm.36-1.442c.411 0 .762-.073 1.052-.218.29-.146.521-.324.692-.534a1.85 1.85 0 0 0 .353-.594c.095-.23.148-.493.158-.789.015-.3.022-.543.022-.728l.556.165c-.546.085-1.014.16-1.405.225a22.7 22.7 0 0 0-1.007.188c-.28.055-.528.118-.744.188-.21.075-.388.163-.533.263-.145.1-.258.215-.338.346a.901.901 0 0 0-.113.458c0 .2.05.378.15.534.1.15.246.27.436.36.195.09.436.136.721.136zm10.917 1.217v-8.845l-2.029 1.24v-1.999l2.029-1.217H107v10.82h-1.848zm8.603.225c-.766 0-1.443-.163-2.029-.488a3.56 3.56 0 0 1-1.375-1.375c-.325-.586-.488-1.263-.488-2.03v-3.486c0-.766.163-1.443.488-2.029a3.508 3.508 0 0 1 1.375-1.367c.586-.33 1.263-.496 2.029-.496.767 0 1.44.165 2.022.496a3.508 3.508 0 0 1 1.375 1.367c.33.586.496 1.263.496 2.03v3.486c0 .766-.166 1.443-.496 2.029a3.56 3.56 0 0 1-1.375 1.375c-.582.325-1.255.488-2.022.488zm0-1.72c.381 0 .727-.09 1.037-.271a2.08 2.08 0 0 0 .737-.736c.18-.311.27-.657.27-1.037v-3.75c0-.386-.09-.732-.27-1.037a2 2 0 0 0-.737-.736 1.983 1.983 0 0 0-1.037-.278c-.381 0-.726.092-1.037.278-.31.18-.556.425-.736.736a1.995 1.995 0 0 0-.271 1.037v3.75a2.021 2.021 0 0 0 1.007 1.773c.311.18.656.27 1.037.27zm9.892 1.72c-.766 0-1.443-.163-2.029-.488a3.56 3.56 0 0 1-1.375-1.375c-.326-.586-.488-1.263-.488-2.03v-3.486c0-.766.162-1.443.488-2.029a3.508 3.508 0 0 1 1.375-1.367c.586-.33 1.263-.496 2.029-.496.767 0 1.44.165 2.021.496a3.504 3.504 0 0 1 1.376 1.367c.33.586.495 1.263.495 2.03v3.486c0 .766-.165 1.443-.495 2.029a3.555 3.555 0 0 1-1.376 1.375c-.581.325-1.254.488-2.021.488zm0-1.72c.381 0 .726-.09 1.037-.271a2.021 2.021 0 0 0 1.007-1.773v-3.75c0-.386-.09-.732-.271-1.037a1.99 1.99 0 0 0-.736-.736 1.985 1.985 0 0 0-1.037-.278c-.381 0-.726.092-1.037.278-.31.18-.556.425-.736.736a1.995 1.995 0 0 0-.271 1.037v3.75a2.021 2.021 0 0 0 1.007 1.773c.311.18.656.27 1.037.27zm12.382 1.735c-.771-.01-1.428-.183-1.969-.518a3.439 3.439 0 0 1-1.27-1.42c-.305-.612-.49-1.333-.556-2.165-.03-.425-.032-.901-.007-1.427s.08-1.04.165-1.54c.085-.502.203-.927.353-1.278.156-.35.359-.674.609-.97a4.07 4.07 0 0 1 1.886-1.284c.391-.126.799-.22 1.225-.286.426-.07.864-.133 1.315-.188.451-.055.897-.125 1.338-.21l.165 1.6c-.281.07-.606.126-.977.166-.366.035-.746.075-1.142.12-.391.045-.764.11-1.12.195-.356.085-.664.21-.924.376-.361.22-.636.536-.827.947-.19.41-.303.844-.338 1.3.311-.461.697-.784 1.157-.97.466-.19.937-.285 1.413-.285.721 0 1.34.17 1.856.51.521.341.919.805 1.195 1.391.28.581.421 1.23.421 1.946 0 .802-.168 1.503-.504 2.104a3.534 3.534 0 0 1-1.397 1.398c-.597.33-1.285.493-2.067.488zm.09-1.698c.652 0 1.142-.2 1.473-.601.336-.406.504-.944.504-1.616 0-.686-.173-1.227-.519-1.623-.341-.395-.827-.593-1.458-.593-.641 0-1.129.198-1.465.593-.336.396-.503.937-.503 1.623 0 .702.17 1.248.511 1.638.34.386.826.579 1.457.579zm7.802 1.683c-.586 0-1.082-.11-1.488-.33a2.34 2.34 0 0 1-.924-.895 2.489 2.489 0 0 1-.308-1.224c0-.391.065-.742.195-1.052.131-.316.331-.587.601-.812.271-.23.622-.418 1.052-.564.326-.105.707-.2 1.143-.285.44-.085.916-.163 1.427-.233.516-.075 1.055-.155 1.616-.24l-.646.368c.005-.561-.121-.975-.376-1.24-.255-.266-.686-.398-1.292-.398-.366 0-.719.085-1.06.255-.341.17-.579.464-.714.88l-1.653-.52a3.07 3.07 0 0 1 1.142-1.652c.566-.416 1.328-.624 2.285-.624.721 0 1.355.118 1.901.353.551.236.959.621 1.225 1.157.145.286.232.579.262.88.031.295.046.618.046.969v4.982h-1.586v-1.759l.263.286c-.366.586-.794 1.017-1.285 1.293-.486.27-1.094.405-1.826.405zm.361-1.442c.411 0 .761-.073 1.052-.218.29-.146.521-.324.691-.534a1.85 1.85 0 0 0 .353-.594c.095-.23.148-.493.158-.789.015-.3.023-.543.023-.728l.556.165c-.546.085-1.015.16-1.405.225-.391.065-.727.128-1.007.188a6.396 6.396 0 0 0-.744.188 2.29 2.29 0 0 0-.534.263c-.145.1-.258.215-.338.346a.902.902 0 0 0-.113.458c0 .2.05.378.151.534.1.15.245.27.435.36.196.09.436.136.722.136zm5.277 1.217v-1.518c.296.055.524.05.684-.015.161-.07.281-.2.361-.39.08-.191.15-.444.21-.76.08-.446.151-.96.211-1.54.065-.581.12-1.202.165-1.864.05-.661.095-1.337.135-2.029h5.974v8.116h-1.803v-6.417h-2.578a118.112 118.112 0 0 1-.203 2.314c-.04.41-.085.802-.135 1.172-.045.366-.092.679-.143.94-.115.586-.28 1.049-.496 1.39-.21.34-.505.558-.886.653-.381.1-.879.083-1.496-.052zm9.1 0v-1.518c.295.055.523.05.684-.015.16-.07.28-.2.36-.39.08-.191.151-.444.211-.76.08-.446.15-.96.21-1.54.065-.581.12-1.202.165-1.864.051-.661.096-1.337.136-2.029h5.974v8.116h-1.804v-6.417h-2.577a118.112 118.112 0 0 1-.203 2.314c-.04.41-.085.802-.135 1.172a15.11 15.11 0 0 1-.143.94c-.115.586-.281 1.049-.496 1.39-.211.34-.506.558-.887.653-.381.1-.879.083-1.495-.052zm13.435.225c-.812 0-1.52-.183-2.127-.548a3.763 3.763 0 0 1-1.412-1.51c-.331-.647-.496-1.388-.496-2.225 0-.852.17-1.598.511-2.24a3.764 3.764 0 0 1 1.42-1.502c.606-.36 1.307-.541 2.104-.541.816 0 1.528.183 2.134.549a3.76 3.76 0 0 1 1.413 1.517c.335.642.503 1.38.503 2.217 0 .842-.17 1.586-.511 2.232a3.758 3.758 0 0 1-1.413 1.51c-.606.36-1.315.541-2.126.541zm0-1.698c.721 0 1.257-.24 1.608-.721.351-.481.526-1.103.526-1.864 0-.786-.178-1.413-.534-1.879-.355-.47-.889-.706-1.6-.706-.486 0-.887.11-1.202.33a1.906 1.906 0 0 0-.692.91c-.15.386-.225.834-.225 1.345 0 .787.178 1.415.533 1.886.361.466.89.699 1.586.699zm5.691 1.473v-8.116h3.689c.266 0 .514.015.744.045a4.5 4.5 0 0 1 .594.113c.391.115.736.34 1.037.677.3.33.451.788.451 1.375 0 .345-.055.63-.166.856a1.697 1.697 0 0 1-.969.857c.195.03.381.088.556.173.276.135.506.335.691.6.191.266.286.64.286 1.12 0 .547-.133 1.007-.398 1.383-.261.37-.644.629-1.15.774-.185.05-.398.088-.639.113-.24.02-.486.03-.736.03h-3.99zm1.833-1.398h2.029a2.209 2.209 0 0 0 .684-.113c.18-.065.31-.18.391-.345.085-.165.127-.338.127-.519 0-.245-.062-.44-.187-.586a.868.868 0 0 0-.436-.3 1.003 1.003 0 0 0-.331-.068 3.413 3.413 0 0 0-.286-.015h-1.991v1.946zm0-3.366h1.503c.155 0 .306-.008.451-.023.15-.02.275-.052.376-.097a.65.65 0 0 0 .36-.331c.08-.155.121-.328.121-.519 0-.2-.046-.38-.136-.54a.644.644 0 0 0-.413-.331 1.336 1.336 0 0 0-.458-.083 15.938 15.938 0 0 0-.338-.007h-1.466v1.93zm7.328 4.764v-1.66h1.811v1.66h-1.811zm0-2.705V76.09h1.811v8.116h-1.811z" fill="#fff"/>
    </g>
    <defs>
        <linearGradient id="paint0_linear_4118_2" x1="197" y1="9.911" x2=".038" y2="9.911" gradientUnits="userSpaceOnUse">
            <stop stop-color="#FF7502"/>
            <stop offset="1" stop-color="#FF7502" stop-opacity="0"/>
        </linearGradient>
        <linearGradient id="paint1_linear_4118_2" x1="37.945" y1="93.299" x2="48.783" y2="43.509" gradientUnits="userSpaceOnUse">
            <stop stop-color="#FF5426"/>
            <stop offset="1" stop-color="#FFA101"/>
        </linearGradient>
        <clipPath id="clip0_4118_2">
            <path fill="#fff" d="M0 0H197V94H0z"/>
        </clipPath>
    </defs>
</svg>
