<svg xmlns="http://www.w3.org/2000/svg" width="30" height="36" viewBox="0 0 30 36">
    <g fill="none" fill-rule="evenodd" transform="translate(0 -1)">
        <polygon fill="#EA6A00" points="13.9 15.14 10.22 16.68 20.06 36.9 23.01 33.67 27.41 33.83 17.57 13.6"/>
        <polygon fill="#EA6A00" points="2.34 33.95 6.74 33.72 9.74 36.9 19.26 16.55 15.56 15.07 11.85 13.6"/>
        <g transform="translate(0 .241)">
            <path fill="#FF7502" d="M29.07 14.78c0 .71-1.31 1.32-1.42 2-.11.7.94 1.67.73 2.33-.22.67-1.66.85-1.98 1.47-.33.62.38 1.87-.04 2.44-.42.57-1.84.3-2.34.79-.5.5-.23 1.9-.8 2.3-.57.42-1.84-.27-2.47.05-.63.31-.8 1.73-1.49 1.95-.67.21-1.65-.83-2.36-.72-.7.1-1.3 1.4-2.02 1.4-.73 0-1.34-1.3-2.03-1.4-.7-.11-1.7.93-2.36.72-.68-.22-.86-1.64-1.48-1.95-.64-.32-1.9.37-2.48-.04-.57-.42-.3-1.82-.8-2.31-.5-.5-1.92-.23-2.34-.8-.41-.56.29-1.8-.04-2.43-.32-.62-1.76-.8-1.98-1.47-.21-.66.84-1.63.73-2.33-.1-.68-1.42-1.29-1.42-2s1.31-1.31 1.42-2c.11-.7-.94-1.67-.73-2.33.22-.67 1.66-.84 1.98-1.46.33-.63-.38-1.88.04-2.45.42-.56 1.84-.29 2.34-.78.5-.5.23-1.9.8-2.32.57-.4 1.84.28 2.47-.04.63-.31.8-1.73 1.49-1.95.67-.21 1.65.83 2.36.72.7-.1 1.3-1.4 2.03-1.4.72 0 1.33 1.3 2.02 1.4.71.11 1.7-.93 2.36-.72.68.22.86 1.64 1.49 1.95.63.33 1.9-.37 2.47.04.57.42.3 1.82.8 2.32.5.49 1.92.22 2.34.78.42.57-.28 1.82.04 2.45.32.62 1.76.79 1.98 1.46.22.66-.84 1.63-.73 2.33.1.69 1.42 1.29 1.42 2"/>
            <polygon points="29.75 29.47 29.75 .1 0 .1 0 29.47 29.75 29.47"/>
            <polygon fill="#FFF" points="18.71 20 15 18.12 11.29 20 12 16.02 9 13.2 13.15 12.62 15 9 16.85 12.62 21 13.2 18 16.02"/>
        </g>
    </g>
</svg>
