<svg xmlns="http://www.w3.org/2000/svg" width="24" height="24" viewBox="0 0 24 24">
    <g fill-rule="evenodd">
        <path fill-rule="nonzero" d="M4.01 22.33c0-.06-.1-.18-.16-.18h16.3c-.07 0-.17.11-.16.18l-1.47-15.7c-.01-.07-.12-.17-.18-.17H5.66c-.06 0-.17.1-.18.17l-1.47 15.7zM5.66 4.62h12.68c1.02 0 1.92.82 2.01 1.84l1.48 15.7A1.65 1.65 0 0 1 20.15 24H3.85a1.65 1.65 0 0 1-1.68-1.84l1.48-15.7c.1-1.02 1-1.84 2.01-1.84z"/>
        <path d="M16.28 9.22a.93.93 0 0 1-.92-.93V5.21c0-2.12-1.35-3.16-2.85-3.18h-.96c-1.4 0-2.9 1.06-2.9 3.18v3.08c0 .52-.41.93-.93.93h-.25a.93.93 0 0 1-.92-.93V5.21c0-2.8 2.23-5.08 4.97-5.08h.96a5.03 5.03 0 0 1 4.97 5.08v3.08c0 .52-.4.93-.92.93h-.25z"/>
    </g>
</svg>
