<svg width="24" height="24" viewBox="0 0 24 24" fill="none" xmlns="http://www.w3.org/2000/svg">
<g clip-path="url(#clip0_1_2)">
<path d="M5.05261 0.454956L5.15515 0.459839C5.6649 0.506327 6.08478 0.894523 6.16394 1.40906L6.37292 2.76941H22.413C22.766 2.76941 23.0988 2.93582 23.3114 3.21765C23.5239 3.49945 23.592 3.86463 23.495 4.20398L21.1805 12.3055C21.0426 12.7885 20.6008 13.1219 20.0985 13.1219H7.96667L8.33289 15.5009H21.2557C21.8769 15.5009 22.3805 16.0047 22.3807 16.6259C22.3807 17.2472 21.8771 17.7509 21.2557 17.7509H7.36707C6.81192 17.7509 6.33934 17.3464 6.25476 16.7977L5.56238 12.2958C5.53944 12.2125 5.52543 12.1258 5.52234 12.036L4.31628 4.19714C4.29294 4.11336 4.27946 4.02586 4.27625 3.93542L4.08679 2.70496H1.57996C0.958636 2.70496 0.454956 2.20128 0.454956 1.57996C0.454956 0.958636 0.958636 0.454956 1.57996 0.454956H5.05261ZM7.62 10.8719H19.2499L20.9218 5.01941H6.7196L7.62 10.8719Z" fill="black"/>
<path d="M9.6 21.25C9.6 22.4926 8.59264 23.5 7.35 23.5C6.10736 23.5 5.1 22.4926 5.1 21.25C5.1 20.0073 6.10736 19 7.35 19C8.59264 19 9.6 20.0073 9.6 21.25Z" fill="black"/>
<path d="M22.4 21.25C22.4 22.4926 21.3926 23.5 20.15 23.5C18.9074 23.5 17.9 22.4926 17.9 21.25C17.9 20.0073 18.9074 19 20.15 19C21.3926 19 22.4 20.0073 22.4 21.25Z" fill="black"/>
</g>
<defs>
<clipPath id="clip0_1_2">
<rect width="24" height="24" fill="white"/>
</clipPath>
</defs>
</svg>
