<svg xmlns="http://www.w3.org/2000/svg" width="40" height="40" viewBox="0 0 40 40">
  <g fill="#FFF" fill-rule="evenodd">
    <path d="M20.5112703,36.3904277 L9.56382135,25.4429787 C8.97139681,24.8505542 8.02598892,24.8548937 7.44020248,25.4406802 C6.85033205,26.0305506 6.85544513,26.9772432 7.442501,27.564299 L19.3007155,39.4225136 C19.3427817,39.4783001 19.3892745,39.5318878 19.4402025,39.5828158 C19.7360854,39.8786987 20.1237184,40.0262372 20.5112703,40.0234574 C20.8988222,40.0262372 21.2864552,39.8786987 21.5823381,39.5828158 C21.6332661,39.5318878 21.6797589,39.4783001 21.7218251,39.4225136 L33.5800396,27.564299 C34.1670955,26.9772432 34.1722085,26.0305506 33.5823381,25.4406802 C32.9965517,24.8548937 32.0511438,24.8505542 31.4587192,25.4429787 L20.5112703,36.3904277 Z"/>
    <rect width="3" height="34" x="19" y="3" rx="1.5"/>
  </g>
</svg>
