<svg xmlns="http://www.w3.org/2000/svg" width="40" height="40" viewBox="0 0 40 40">
    <g fill="none" fill-rule="evenodd">
        <path fill="#697882" fill-rule="nonzero" d="M18.86 4a1 1 0 1 1 2 0v5.93a1 1 0 0 1-2 0V4zM18.86 33.03a1 1 0 1 1 2 0V36a1 1 0 0 1-2 0v-2.97zM4 21a1 1 0 0 1 0-2h4.6a1 1 0 0 1 0 2H4zM35.02 21a1 1 0 0 1 0-2h.7a1 1 0 1 1 0 2h-.7zM11.06 6.64a1 1 0 0 1 1.74-1l2.64 4.62a1 1 0 0 1-1.74 1l-2.64-4.62zM25.76 32.3a1 1 0 0 1 1.73-.99l1.17 2.05a1 1 0 1 1-1.73 1l-1.17-2.05zM6.63 28.86a1 1 0 0 1-1-1.73l3.6-2.1a1 1 0 0 1 1 1.73l-3.6 2.1zM33.87 13a1 1 0 1 1-1-1.73l.23-.14a1 1 0 1 1 1 1.74l-.23.13zM5.62 12.87a1 1 0 1 1 1-1.73l4.18 2.42a1 1 0 0 1-1 1.73l-4.18-2.42zM31.52 27.94a1 1 0 1 1 1-1.73l1.58.92a1 1 0 1 1-1 1.73l-1.58-.92zM12.8 34.35a1 1 0 1 1-1.74-1l2.02-3.5a1 1 0 1 1 1.73.99l-2.01 3.51z"/>
    </g>
</svg>
