<svg xmlns="http://www.w3.org/2000/svg" width="80" height="72" viewBox="0 0 80 72">
    <path fill="#FEF1E0" fill-rule="evenodd" d="M32.01 72V37.46H17.14c0-5.53 1.05-10.2 3.16-14.02 2.1-3.81 6-6.7 11.71-8.64V0c-4.65.6-8.97 1.98-12.95 4.15A36.62 36.62 0 0 0 8.8 12.34a36.1 36.1 0 0 0-6.65 11.44 37.03 37.03 0 0 0-2.14 13.9V72h32zM80 72V37.46H65.13c0-5.53 1.05-10.2 3.15-14.02 2.1-3.81 6.01-6.7 11.72-8.64V0c-4.66.6-8.97 1.98-12.95 4.15a36.62 36.62 0 0 0-10.26 8.19 36.1 36.1 0 0 0-6.64 11.44A37.03 37.03 0 0 0 48 37.68V72H80z"/>
</svg>
