<svg xmlns="http://www.w3.org/2000/svg" width="80" height="72" viewBox="0 0 80 72">
    <path fill="#FEF1E0" fill-rule="evenodd" d="M47.99 0v34.54h14.87c0 5.53-1.05 10.2-3.16 14.02-2.1 3.81-6 6.7-11.71 8.64V72c4.65-.6 8.97-1.98 12.95-4.15 3.98-2.17 7.4-4.9 10.25-8.19a36.1 36.1 0 0 0 6.65-11.44 37.03 37.03 0 0 0 2.14-13.9V0h-32zM0 0v34.54h14.87c0 5.53-1.05 10.2-3.15 14.02C9.62 52.37 5.7 55.26 0 57.2V72c4.66-.6 8.97-1.98 12.95-4.15 3.98-2.17 7.4-4.9 10.26-8.19a36.1 36.1 0 0 0 6.64-11.44A37.03 37.03 0 0 0 32 34.32V0H0z"/>
</svg>
