<svg xmlns="http://www.w3.org/2000/svg" width="24" height="24" viewBox="0 0 24 24">
    <g fill="none" fill-rule="evenodd">
        <path fill="#FFF" d="M0 12.22A12.1 12.1 0 0 1 12.22 0C18.62 0 24 5.37 24 12.22A11.9 11.9 0 0 1 12.22 24C5.37 24 0 18.63 0 12.22z"/>
        <path fill="#CE1312" d="M0 12.22A12.1 12.1 0 0 1 12.22 0C18.62 0 24 5.37 24 12.22A11.9 11.9 0 0 1 12.22 24C5.37 24 0 18.63 0 12.22zm17.88-2.66s-.12-.84-.48-1.2c-.45-.5-.96-.5-1.2-.52C14.52 7.7 12 7.7 12 7.7s-2.52 0-4.2.13c-.24.03-.75.03-1.2.51-.36.37-.48 1.21-.48 1.21S6 10.55 6 11.54v.92c0 .99.12 1.97.12 1.97s.12.84.48 1.21c.45.49 1.05.47 1.32.52.96.1 4.08.13 4.08.13s2.52 0 4.2-.13c.24-.03.75-.03 1.2-.52.36-.37.48-1.2.48-1.2s.12-1 .12-1.98v-.92c0-.99-.12-1.98-.12-1.98zm-7.38 4.1v-3.6l3.4 1.8-3.4 1.8z"/>
    </g>
</svg>
