<svg xmlns="http://www.w3.org/2000/svg" width="24" height="24" viewBox="0 0 24 24">
    <g fill="none" fill-rule="evenodd">
        <circle cx="12" cy="12" r="12" fill="#4D75A3"/>
        <path fill="#FFF" d="M16.5 12.19s1.72-2.43 1.89-3.23c.06-.29-.07-.45-.37-.45h-1.5c-.33 0-.46.15-.56.37 0 0-.81 1.72-1.8 2.8-.31.36-.47.46-.65.46-.14 0-.2-.11-.2-.43V8.94c0-.4-.05-.5-.37-.5h-2.4c-.18 0-.3.1-.3.24 0 .37.57.45.57 1.44v2.05c0 .4-.02.57-.22.57-.51 0-1.73-1.77-2.42-3.78-.14-.41-.28-.53-.67-.53H6c-.21 0-.37.15-.37.37 0 .4.46 2.25 2.3 4.72 1.23 1.67 2.86 2.57 4.32 2.57.89 0 1.1-.14 1.1-.52v-1.28c0-.32.13-.46.31-.46.2 0 .57.07 1.42.9 1 .96 1.07 1.36 1.62 1.36h1.68c.17 0 .33-.08.33-.36 0-.38-.5-1.05-1.25-1.85-.3-.41-.8-.86-.97-1.06-.22-.24-.16-.38 0-.63"/>
    </g>
</svg>
