<svg xmlns="http://www.w3.org/2000/svg" width="90" height="90" viewBox="0 0 90 90">
  <path fill-rule="evenodd" d="M9.57142857,21.4787202 L2.84622172,14.7535133 C2.42306134,14.3303529 1.74919554,14.3320271 1.33253516,14.7486875 L1.29632552,14.7848971 C0.884796361,15.1964263 0.88182576,15.879258 1.30115138,16.2985836 L9.88416441,24.8815967 C10.0976693,25.0951016 10.3749961,25.2004567 10.6509074,25.1989271 C10.9268186,25.2004567 11.2041454,25.0951016 11.4176503,24.8815967 L20.0006633,16.2985836 C20.4199889,15.879258 20.4170183,15.1964263 20.0054892,14.7848971 L19.9692795,14.7486875 C19.5526192,14.3320271 18.8787534,14.3303529 18.455593,14.7535133 L11.7142857,21.4948206 L11.7142857,1.0672123 C11.7142857,0.482196189 11.2345908,0 10.6428571,0 C10.046998,0 9.57142857,0.477807221 9.57142857,1.0672123 L9.57142857,21.4787202 Z" transform="rotate(-90 44 12)"/>
</svg>
