<svg xmlns="http://www.w3.org/2000/svg" xmlns:xlink="http://www.w3.org/1999/xlink" width="26" height="26" viewBox="0 0 26 26">
    <defs>
        <path id="itunes-a" d="M13 1C6.37 1 1 6.38 1 12.72 1 19.62 6.37 25 13 25s12-5.37 12-11.72C25 6.38 19.62 1 13 1z"/>
        <path id="itunes-b" d="M3.62 6.98V1.56a.6.6 0 0 1 .88-.54c.79.36 1.7.27 2.4-.24.61-.52 1.39-.8 2.19-.78a3.3 3.3 0 0 1 2.12.72.6.6 0 0 1 .2.46v6.45h-.02l.01.17a2.4 2.4 0 1 1-1.18-2.07V1.48a2.4 2.4 0 0 0-2.51.18c-.8.67-1.86.94-2.89.74v6.68H4.8a2.4 2.4 0 1 1-1.18-2.1zM2.4 7.8a1.2 1.2 0 1 0 0 2.4 1.2 1.2 0 0 0 0-2.4zM9 6.56a1.2 1.2 0 1 0 0 2.4 1.2 1.2 0 0 0 0-2.4z"/>
    </defs>
    <g fill="none" fill-rule="evenodd">
        <rect width="24" height="24" x="1" y="1" fill="#D8D8D8" opacity="0"/>
        <use fill="#FF7502" xlink:href="#itunes-a"/>
        <path stroke="#FFF" stroke-opacity=".82" d="M13 .5c6.94 0 12.5 5.65 12.5 12.78 0 6.67-5.64 12.22-12.5 12.22C6.06 25.5.5 19.86.5 12.72.5 6.05 6.15.5 13 .5z"/>
        <g fill-rule="nonzero" transform="translate(7 7)">
            <use fill="#FFF" fill-rule="evenodd" xlink:href="#itunes-b"/>
            <path stroke="#FFF5E7" stroke-opacity=".11" d="M3.12 6.23V1.57a1.1 1.1 0 0 1 1.59-1c.62.28 1.34.2 1.87-.17.7-.6 1.6-.92 2.5-.9.89-.01 1.75.28 2.45.84.25.21.39.52.39.84v6.95h-.04a2.9 2.9 0 1 1-2.16-3.14V1.81c-.58-.2-1.21-.1-1.7.24-.75.63-1.72.95-2.7.91v6.62h-.07a2.9 2.9 0 1 1-2.13-3.35zM2.4 8.3a.7.7 0 1 0 0 1.4.7.7 0 0 0 0-1.4zM9 7.06a.7.7 0 1 0 0 1.4.7.7 0 0 0 0-1.4z"/>
        </g>
    </g>
</svg>
