<svg xmlns="http://www.w3.org/2000/svg" xmlns:xlink="http://www.w3.org/1999/xlink" width="26" height="26" viewBox="0 0 26 26">
    <defs>
        <path id="class-a" d="M13 1C6.37 1 1 6.38 1 12.72 1 19.62 6.37 25 13 25s12-5.37 12-11.72C25 6.38 19.62 1 13 1z"/>
    </defs>
    <g fill="none" fill-rule="evenodd">
        <rect width="24" height="24" x="1" y="1" fill="#D8D8D8" opacity="0"/>
        <use fill="#FF7502" xlink:href="#class-a"/>
        <path stroke="#FFF" stroke-opacity=".82" d="M13 .5c6.94 0 12.5 5.65 12.5 12.78 0 6.67-5.64 12.22-12.5 12.22C6.06 25.5.5 19.86.5 12.72.5 6.05 6.15.5 13 .5z"/>
        <g fill="#FFF" fill-rule="nonzero" transform="translate(5 7)">
            <path d="M15.38 8h-3.07a4.3 4.3 0 0 0-2.49-3.9 2.46 2.46 0 1 0-3.65 0A4.3 4.3 0 0 0 3.7 8H.62a.62.62 0 0 0-.62.62v1.84c0 .34.28.62.62.62h.61v5.54a.62.62 0 1 0 1.23 0v-5.54h11.08v5.54a.62.62 0 1 0 1.23 0v-5.54h.61c.34 0 .62-.28.62-.62V8.62a.62.62 0 0 0-.62-.62zM8 1.23A1.23 1.23 0 1 1 8 3.7a1.23 1.23 0 0 1 0-2.47zm0 3.7c1.7 0 3.08 1.37 3.08 3.07H4.92C4.92 6.3 6.3 4.92 8 4.92zm6.77 4.92H1.23v-.62h13.54v.62z"/>
        </g>
    </g>
</svg>
