<svg xmlns="http://www.w3.org/2000/svg" xmlns:xlink="http://www.w3.org/1999/xlink" width="26" height="26" viewBox="0 0 26 26">
    <defs>
        <path id="download-a" d="M12 0C5.37 0 0 5.38 0 11.72 0 18.62 5.37 24 12 24s12-5.37 12-11.72C24 5.38 18.62 0 12 0z"/>
        <path id="download-b" d="M11.23 15.42l-2-2a.72.72 0 0 0-1.02 1.02l3.1 3.1a.72.72 0 0 0 .69.42.72.72 0 0 0 .7-.43l3.09-3.09a.72.72 0 1 0-1.02-1.02l-2.01 2.01V6.76a.76.76 0 0 0-1.53 0v8.66z"/>
    </defs>
    <g fill="none" fill-rule="evenodd" transform="translate(1 1)">
        <use fill="#FF7502" xlink:href="#download-a"/>
        <path stroke="#FFF" stroke-opacity=".82" d="M12-.5c6.94 0 12.5 5.65 12.5 12.78 0 6.67-5.64 12.22-12.5 12.22-6.94 0-12.5-5.64-12.5-12.78C-.5 5.05 5.15-.5 12-.5z"/>
        <g>
            <use fill="#FFF" xlink:href="#download-b"/>
            <path stroke="#FFF5E7" stroke-opacity=".11" d="M10.73 14.21V6.76a1.26 1.26 0 0 1 2.53 0v7.46l1.15-1.15a1.22 1.22 0 0 1 1.73 1.73l-3.03 3.03a1.22 1.22 0 0 1-1.08.63 1.22 1.22 0 0 1-1.14-.63L7.86 14.8a1.22 1.22 0 1 1 1.73-1.73l1.14 1.14z"/>
        </g>
    </g>
</svg>
