<svg xmlns="http://www.w3.org/2000/svg" xmlns:xlink="http://www.w3.org/1999/xlink" width="26" height="26" viewBox="0 0 26 26">
    <defs>
        <path id="mp3-a" d="M13 1C6.37 1 1 6.38 1 12.72 1 19.62 6.37 25 13 25s12-5.37 12-11.72C25 6.38 19.62 1 13 1z"/>
    </defs>
    <g fill="none" fill-rule="evenodd">
        <rect width="24" height="24" x="1" y="1" fill="#D8D8D8" opacity="0"/>
        <use fill="#FF7502" xlink:href="#mp3-a"/>
        <path stroke="#FFF" stroke-opacity=".82" d="M13 .5c6.94 0 12.5 5.65 12.5 12.78 0 6.67-5.64 12.22-12.5 12.22C6.06 25.5.5 19.86.5 12.72.5 6.05 6.15.5 13 .5z"/>
        <path fill="#FFF" fill-rule="nonzero" d="M6.4 13.8a.7.7 0 0 1-.7.7.7.7 0 0 1-.7-.7v-1.6c0-.39.31-.7.7-.7.4 0 .7.32.7.7v1.6zm2.1 1.49a.7.7 0 0 1-.71.71.71.71 0 0 1-.7-.71V10.7c0-.4.3-.71.7-.71.39 0 .7.32.7.71v4.58zm2.08 3.01a.7.7 0 0 1-.7.7.7.7 0 0 1-.71-.7V7.7c0-.39.31-.7.7-.7.4 0 .7.32.7.7v10.6zm2.08-3.01a.7.7 0 0 1-.7.71.71.71 0 0 1-.7-.71V10.7c0-.4.3-.71.7-.71.39 0 .7.32.7.71v4.58zm2.09-1.49a.7.7 0 0 1-.7.7.7.7 0 0 1-.71-.7v-1.6c0-.39.31-.7.7-.7.4 0 .7.32.7.7v1.6zm2.08 1.49a.7.7 0 0 1-.7.71.71.71 0 0 1-.7-.71V10.7c0-.4.3-.71.7-.71.39 0 .7.32.7.71v4.58zm2.09 2.03a.7.7 0 1 1-1.4 0l-.01-8.64c0-.4.31-.7.7-.7.39 0 .7.3.7.7v8.64zM21 13.8a.7.7 0 0 1-.7.7.7.7 0 0 1-.7-.7v-1.6c0-.39.3-.7.7-.7.38 0 .7.32.7.7v1.6z"/>
    </g>
</svg>
