<svg xmlns="http://www.w3.org/2000/svg" xmlns:xlink="http://www.w3.org/1999/xlink" width="26" height="26" viewBox="0 0 26 26">
    <defs>
        <path id="disc-a" d="M12 0C5.37 0 0 5.38 0 11.72 0 18.62 5.37 24 12 24s12-5.37 12-11.72C24 5.38 18.62 0 12 0z"/>
    </defs>
    <g fill="none" fill-rule="evenodd" transform="translate(1 1)">
        <mask id="disc-b" fill="#fff">
            <use xlink:href="#disc-a"/>
        </mask>
        <use fill="#FF7502" xlink:href="#disc-a"/>
        <path stroke="#FFF" stroke-opacity=".82" d="M12-.5c6.94 0 12.5 5.65 12.5 12.78 0 6.67-5.64 12.22-12.5 12.22-6.94 0-12.5-5.64-12.5-12.78C-.5 5.05 5.15-.5 12-.5z"/>
        <polygon fill="#FFF" points="12 11.78 16.86 1.2 25.93 -2.37 30.86 13.85 26.99 17.49" mask="url(#disc-b)" opacity=".13"/>
        <polygon fill="#FFF" points="-7.89 18.42 -3.03 7.84 6.04 4.27 10.97 20.49 7.11 24.13" mask="url(#disc-b)" opacity=".13" transform="scale(-1 1) rotate(38 0 9.722)"/>
        <path fill="#F3E6D4" d="M12 7.81c-2.52 0-4.57 2-4.57 4.47A4.52 4.52 0 0 0 12 16.74c2.53 0 4.57-2 4.57-4.46A4.52 4.52 0 0 0 12 7.8z"/>
        <path fill="#FFF" d="M12 9.49a2.83 2.83 0 0 0-2.86 2.79c0 1.54 1.28 2.8 2.86 2.79a2.82 2.82 0 0 0 2.86-2.8A2.83 2.83 0 0 0 12 9.5z"/>
    </g>
</svg>
