<svg xmlns="http://www.w3.org/2000/svg" xmlns:xlink="http://www.w3.org/1999/xlink" width="276" height="207" viewBox="0 0 276 207">
    <defs>
        <circle id="teachers-a" cx="137.5" cy="103.5" r="88.5"/>
        <rect id="teachers-c" width="276" height="207"/>
    </defs>
    <g fill="none" fill-rule="evenodd">)
        <rect width="276" height="207" fill="#FEEEBD"/>
        <mask id="teachers-b" fill="#fff">
            <use xlink:href="#teachers-a"/>
        </mask>
        <use fill="#FFF" opacity=".75" style="mix-blend-mode:overlay" xlink:href="#teachers-a"/>
        <g fill="#000" mask="url(#teachers-b)" opacity=".63">
            <g transform="translate(113 69)">
                <path fill-rule="nonzero" d="M15.85 28.9c-2.5.63-5.1.67-7.58.34v7.12h34.87v-7.12c-2.49.33-5.09.29-7.58-.34-5.12-1.29-8.64-4.78-9.86-10.7-1.21 5.92-4.74 9.41-9.85 10.7zm13-15.66c0 7.32 2.8 10.93 7.58 12.13a17.19 17.19 0 0 0 8.05-.06l2.27-.61V38a2 2 0 0 1-2 2H6.65a2 2 0 0 1-2-2V24.7l2.28.6c.03.02.13.04.28.07l.92.18c2.25.36 4.65.38 6.84-.18 4.79-1.2 7.58-4.81 7.58-12.13v-1.82h6.3v1.82z"/>
                <path d="M25.5 15a7.5 7.5 0 1 1 0-15 7.5 7.5 0 0 1 0 15zm0-3.62a3.88 3.88 0 1 0 0-7.75 3.88 3.88 0 0 0 0 7.75zM5 26.07c-2.76 0-5-2.25-5-5.04A5.02 5.02 0 0 1 5 16c2.76 0 5 2.25 5 5.03a5.02 5.02 0 0 1-5 5.04zm0-2.9c1.17 0 2.12-.95 2.12-2.14 0-1.18-.95-2.14-2.12-2.14-1.17 0-2.12.96-2.12 2.14 0 1.19.95 2.15 2.12 2.15zM47 26.07c-2.76 0-5-2.25-5-5.04A5.02 5.02 0 0 1 47 16c2.76 0 5 2.25 5 5.03a5.02 5.02 0 0 1-5 5.04zm0-2.9c1.17 0 2.12-.95 2.12-2.14 0-1.18-.95-2.14-2.12-2.14-1.17 0-2.12.96-2.12 2.14 0 1.19.95 2.15 2.12 2.15z"/>
            </g>
        </g>
        <polygon fill="#000" fill-rule="nonzero" points="153 59 153 57 155 57 155 55 153 55 153 53 151 53 151 55 149 55 149 57 151 57 151 59" mask="url(#teachers-b)" opacity=".28"/>
        <polygon fill="#000" fill-rule="nonzero" points="191 60 189 60 189 62 187 62 187 64 189 64 189 66 191 66 191 64 193 64 193 62 191 62" mask="url(#teachers-b)" opacity=".59"/>
        <path fill="#000" fill-rule="nonzero" d="M178 39a3 3 0 0 1-3-3 1 1 0 0 0-2 0 3 3 0 0 1-3 3 1 1 0 0 0 0 2 3 3 0 0 1 3 3 1 1 0 0 0 2 0 3 3 0 0 1 3-3 1 1 0 0 0 0-2zm-4 2a5.07 5.07 0 0 0-1-1c.38-.28.72-.62 1-1 .28.38.62.72 1 1-.38.28-.72.62-1 1zM97 49a1 1 0 0 0-2 0 3 3 0 0 1-3 3 1 1 0 0 0 0 2 3 3 0 0 1 3 3 1 1 0 0 0 2 0 3 3 0 0 1 3-3 1 1 0 0 0 0-2 3 3 0 0 1-3-3zm-1 5a5.07 5.07 0 0 0-1-1c.38-.28.72-.62 1-1 .28.38.62.72 1 1-.38.28-.72.62-1 1z" mask="url(#teachers-b)"/>
        <polygon fill="#000" fill-rule="nonzero" points="87 73 89 73 89 71 91 71 91 69 89 69 89 67 87 67 87 69 85 69 85 71 87 71" mask="url(#teachers-b)" opacity=".53"/>
        <g fill="#000" fill-rule="nonzero" mask="url(#teachers-b)" opacity=".57">
            <path d="M56.31 52.82l-.25-.07c-3.67-.97-4.9-1.9-6.53-2.52a44.3 44.3 0 0 1-3.2-1.33c2.29-.38 4.37-.86 6.23-1.44 4.19-1.3 5.74-2.65 5.9-2.8l1.23-1.12-1.28-1.06c-3.15-2.62-3.76-8.67-4.4-15.08-.65-6.34-1.3-12.9-4.33-18.16C46.12 3.04 40.02.02 31 0c-9.01.02-15.12 3.05-18.68 9.24C9.3 14.51 8.64 21.06 8 27.4c-.65 6.4-1.26 12.46-4.4 15.08L2.3 43.54l1.23 1.12c.16.15 1.72 1.5 5.9 2.8 1.86.58 3.94 1.06 6.23 1.44-.89.42-1.94.86-3.2 1.33-1.63.62-2.86 1.55-6.53 2.52l-.25.07a8.01 8.01 0 0 0-5.58 7.6V80H61.9V60.4a8 8 0 0 0-5.58-7.59zm-13.42-.6l-2.31 2.2c-.5.48-.6 1.22-.25 1.8l1.12 1.86L35.15 74l4.22-26.66a7.5 7.5 0 0 0 1.91 2.01l1.61 2.89zM30.7 77.09l-3.46-23.61a14.44 14.44 0 0 0 7.54 0l-3.46 23.61h-.62zm-9.26-22.65l-2.32-2.2 1.61-2.89a7.52 7.52 0 0 0 1.91-2.01l4.23 26.68-6.31-15.9 1.13-1.9c.34-.58.24-1.32-.25-1.78zM33.17 16.1l1.1-1.01a36.5 36.5 0 0 0 12.23 6c.29 1.18.47 2.42.55 3.7h-.68c-.42-2.12-2.08-3.65-7.25-3.65-5.16 0-6.82 1.53-7.25 3.64h-1.8c-.31-1.56-1.31-2.81-3.92-3.35a52.27 52.27 0 0 0 7.02-5.33zm10.39 10.14c0 1.26-.13 1.48-.16 1.51-.03.03-.75.68-4.28.68-3.52 0-4.24-.65-4.27-.68-.03-.03-.15-.24-.15-1.5 0-1.14.23-1.35.33-1.43.2-.18 1.1-.77 4.1-.77 2.99 0 3.89.59 4.1.77.1.08.33.29.33 1.42zm-20.74-2.19c3 0 3.9.59 4.1.77.1.08.33.29.33 1.42 0 1.26-.12 1.48-.15 1.51-.03.03-.75.68-4.28.68-3.52 0-4.24-.65-4.27-.68-.03-.03-.15-.24-.15-1.5 0-.57.05-.9.12-1.1.86-.3 1.72-.64 2.57-1.02.48-.05 1.05-.08 1.73-.08zm-7.3 3.65c.27 2.1 1.55 3.65 7.3 3.65 5.76 0 7.04-1.54 7.31-3.65h1.69c.27 2.1 1.55 3.65 7.3 3.65 5.76 0 7.04-1.54 7.32-3.65H47c-.42 4.35-2.55 8.93-5.98 12.8-1.7 1.9-3.6 3.5-5.5 4.62-1.69 1-3.3 1.54-4.52 1.54-1.22 0-2.83-.55-4.52-1.54a23.3 23.3 0 0 1-5.5-4.62c-3.43-3.87-5.56-8.45-5.98-12.8h.51zM35.64 50c-.64.32-2.28 1.03-4.68 1.03s-4-.7-4.61-1.03l-.48-1.87c1.8.92 3.57 1.44 5.12 1.44 1.55 0 3.31-.52 5.12-1.44L35.65 50zm19.5-6.7c-1.8.9-5.63 2.37-12.7 3.18a3.1 3.1 0 0 1-.6-.74l-.04-.09v-1.72c4.52-4.43 8.23-10.97 8.23-17.82 0-1.54-.14-3.01-.4-4.41l.75.09c.27 1.94.48 3.93.67 5.89.63 6.15 1.22 12 4.09 15.62zm-8.04-32.63a26.34 26.34 0 0 1 2.79 8.12c-5.82-.79-10.92-3.93-13.5-5.8 3.4-3.5 5.56-6.48 6.1-7.26a14.04 14.04 0 0 1 4.61 4.94zm-32.22 0a13.93 13.93 0 0 1 5.64-5.55C23.27 3.67 26.8 2.93 31 2.92c3.43 0 6.4.5 8.86 1.47a63.35 63.35 0 0 1-8.72 9.6A45.37 45.37 0 0 1 20.3 21.3c-1.7.23-2.82.72-3.55 1.37-1.81.57-3.6.93-5.38 1.09.56-4.74 1.4-9.37 3.53-13.08zm-4.2 34.11a22.83 22.83 0 0 1-3.84-1.48c2.87-3.62 3.47-9.47 4.09-15.62l.1-.98.93-.08c.18 6.66 3.81 12.99 8.23 17.3l-.01 1.73-.04.09c-.1.19-.28.44-.6.74a52.06 52.06 0 0 1-8.85-1.7zM3.08 60.41a5.1 5.1 0 0 1 3.5-4.8l.17-.05a28.56 28.56 0 0 0 5.5-2.03c.48-.23.89-.42 1.29-.57a54.1 54.1 0 0 0 2.34-.94c-.19.53-.05 1.13.37 1.53l2.3 2.18-1.13 1.91c-.35.59-.24 1.33.26 1.8l8.19 17.64H3.06V60.41zm33.06 16.67l8.2-17.68c.5-.47.61-1.22.26-1.8l-1.13-1.87 2.3-2.18c.42-.4.56-1 .37-1.53.81.35 1.6.66 2.35.94.4.15.8.34 1.28.57 1.22.58 2.75 1.3 5.5 2.03l.17.05a5.1 5.1 0 0 1 3.5 4.8v16.67h-22.8z" transform="translate(107 121)"/>
        </g>
        <use fill="#FFF" opacity=".16" xlink:href="#teachers-c"/>
    </g>
</svg>
