<svg xmlns="http://www.w3.org/2000/svg" xmlns:xlink="http://www.w3.org/1999/xlink" width="276" height="207" viewBox="0 0 276 207">
    <defs>
        <rect id="chemistry-a" width="276" height="207"/>
    </defs>
    <g fill="none" fill-rule="evenodd">
        <mask id="chemistry-b" fill="#fff">
            <use xlink:href="#chemistry-a"/>
        </mask>
        <use fill="#DBE1FD" xlink:href="#chemistry-a"/>
        <circle cx="137.5" cy="103.5" r="88.5" fill="#E1E6FF" mask="url(#chemistry-b)"/>
        <g fill="#000" fill-rule="nonzero" opacity=".53" transform="translate(38 74)">
            <g transform="translate(0 3)">
                <path d="M54.03 46.97c0 3.98-3.63 7.22-8.08 7.22s-8.08-3.24-8.08-7.22c0-3.16 2.26-5.93 5.63-6.89l.65-.19v-4.66h1.8v3.6a2.7 2.7 0 0 0 3.59 2.56v1.96a2.7 2.7 0 0 0 2.7 2.71 2.7 2.7 0 0 0 2.68-2.7V28.9a4.5 4.5 0 0 0-4.48-4.51 4.4 4.4 0 0 0-2.11.54 4.4 4.4 0 0 0-3.28-1.45 4.5 4.5 0 0 0-4.1 6.33h-2.18v5.42h3.59v3.32c-3.79 1.35-6.28 4.65-6.28 8.42 0 4.98 4.43 9.03 9.87 9.03 5.44 0 9.87-4.05 9.87-9.03h-1.8zM40.56 31.6h1.8v-.02c.75.57 1.68.93 2.7.93V30.7a2.7 2.7 0 0 1 0-5.42c.94 0 1.8.5 2.3 1.33l.54.92.8-.7c.35-.3.94-.65 1.74-.65a2.7 2.7 0 0 1 2.69 2.71v14.45c0 .5-.4.9-.9.9a.9.9 0 0 1-.9-.9v-8.12h-1.8v3.6c0 .5-.4.91-.89.91a.9.9 0 0 1-.9-.9V31.6h-1.8v1.8h-5.38v-1.8z"/>
                <path d="M42.9 44.33l-1.08-1.45a5.14 5.14 0 0 0-2.15 4.09c0 1.57.78 3.06 2.15 4.09l1.08-1.45a3.35 3.35 0 0 1-1.44-2.64c0-1 .52-1.96 1.44-2.64zM45.95 52.39v-1.8c-.53 0-1.05-.08-1.54-.23l-.5 1.74c.65.19 1.34.29 2.04.29z"/>
                <rect width="1.79" height="1.81" x="44.15" y="27.1"/>
                <rect width="1.79" height="1.81" x="49.54" y="31.61"/>
                <path d="M13.14 24.34a9.89 9.89 0 0 0 2.5 4.23l3.5 3.53a4.44 4.44 0 0 0 3.17 1.32h4.2c1.2 0 2.33-.47 3.18-1.32l3.5-3.53a9.9 9.9 0 0 0 2.5-4.23 4.5 4.5 0 0 0 2.15-8.08h.03v-2.71C37.87 6.08 31.83 0 24.41 0a13.52 13.52 0 0 0-13.46 13.55v2.7h.03a4.5 4.5 0 0 0 2.16 8.09zm20.82-7.18h.32v4.56a.9.9 0 0 1-.9.86h-5.32a.9.9 0 0 1-.74-.4l-.77-1.15a2.56 2.56 0 0 0-4.28 0l-.77 1.15a.9.9 0 0 1-.74.4h-5.32a.9.9 0 0 1-.9-.86v-4.56h19.42zm-8.28-1.8l1.2-1.2a2.1 2.1 0 0 1 3.08.21l.73.98h-5.01zm6.24 11.94l-3.5 3.52c-.5.5-1.2.8-1.9.8H22.3c-.71 0-1.4-.3-1.9-.8l-3.5-3.52a8.1 8.1 0 0 1-1.87-2.95c.13.02.26.04.4.04h5.32c.9 0 1.74-.45 2.24-1.21l.76-1.15c.3-.44 1-.44 1.3 0l.76 1.15c.5.76 1.34 1.2 2.24 1.2h5.32c.14 0 .27-.01.4-.03a8.1 8.1 0 0 1-1.86 2.95zm4.11-4.87l.04-.63v-.12-4.35a2.7 2.7 0 0 1-.04 5.1zM24.41 1.8c6.43 0 11.67 5.26 11.67 11.74v1.8h-2.12c-.64 0-1.25-.3-1.64-.82l-.92-1.24a3.85 3.85 0 0 0-5.8-.42l-1.86 1.88c-.39.4-.9.6-1.45.6h-9.55v-1.8c0-6.48 5.24-11.74 11.67-11.74zM12.74 17.33v4.22l.01.13v.12l.04.63a2.7 2.7 0 0 1-.05-5.1z"/>
                <path d="M36.28 49.65l-2.6-3.5 3.4-3.42-1.53-6.13 4.1 1.38.56-1.72-7.72-2.59v-1.15h-1.8v1.3l-6.28 3.95-6.28-3.95v-1.3h-1.8v1.15l-7.72 2.6A9.9 9.9 0 0 0 2 44.04L.02 56h37.85v-1.8h-4.6l3-4.55zM17.1 35.3l7.3 4.6 7.3-4.6 1.82.61 1.55 6.25-3.78 3.8 2.78 3.74-2.97 4.48h-2.9l3.36-16.07-1.76-.37-3.44 16.44h-3.92L19 37.75l-1.76.37 3.36 16.07h-2.9l-2.97-4.48 2.78-3.73-3.78-3.8 1.55-6.25 1.82-.62zM3.77 44.35a8.1 8.1 0 0 1 5.41-6.37l4.1-1.38-1.53 6.13 3.4 3.42-2.6 3.5 3 4.54h-5.4l.8-8.04-1.8-.17-.8 8.21H2.13l1.63-9.84z"/>
            </g>
            <g transform="translate(79)">
                <polygon points="35.81 52.26 35.81 47.42 18.39 47.42 18.39 52.26 20.32 52.26 20.32 49.35 33.87 49.35 33.87 52.26"/>
                <path d="M0 54.2V60h45.48v-5.8H0zm43.55 3.86H1.94v-1.93h41.6v1.93zM2.9 23.4v28.86h1.94v-1.94h1.93v1.94h1.94V23.4a5.8 5.8 0 0 0 0-10.04V2.9a2.9 2.9 0 0 0-5.8 0v10.47a5.8 5.8 0 0 0 0 10.04zM6.77 48.4H4.84V24.1a5.8 5.8 0 0 0 1.93 0v24.28zM4.84 2.9a.97.97 0 0 1 1.93 0v9.77a5.8 5.8 0 0 0-1.93 0V2.9zm.97 11.62a3.87 3.87 0 1 1-.01 7.75 3.87 3.87 0 0 1 0-7.75z"/>
                <polygon points="42.58 15.48 13.55 15.48 13.55 17.42 40.65 17.42 40.65 19.35 13.55 19.35 13.55 21.29 42.58 21.29"/>
                <path d="M15.48 23.23v13.54a3.87 3.87 0 0 0 3.87 3.88V38.7a1.94 1.94 0 0 1-1.93-1.94V23.23h-1.94zM38.71 36.77V23.23h-1.94v13.54c0 1.07-.86 1.94-1.93 1.94v1.94a3.87 3.87 0 0 0 3.87-3.88zM21.29 39.51v.17a5.81 5.81 0 0 0 11.61 0c0-2.13-.83-4.14-2.33-5.64l-1.96-1.96-.78 2.33c-.27.81-.76 1.5-1.42 2.01l-2.07-3.1-.83.84a7.52 7.52 0 0 0-2.22 5.35zm4.5-.52l.77-.38a6.15 6.15 0 0 0 2.86-2.97 6 6 0 0 1 1.55 4.04c0 1.8-1.24 3.3-2.9 3.73v-2.76h-1.94v2.76a3.87 3.87 0 0 1-2.9-3.73v-.17c0-1.1.3-2.14.89-3.04l1.68 2.52zM31.94 24.2a2.9 2.9 0 1 0 0 5.8 2.9 2.9 0 0 0 0-5.8zm0 3.86a.97.97 0 1 1 0-1.93.97.97 0 0 1 0 1.93z"/>
                <path d="M21.29 28.06a2.9 2.9 0 1 0 0 5.82 2.9 2.9 0 0 0 0-5.82zm0 3.88a.97.97 0 1 1 0-1.94.97.97 0 0 1 0 1.94z"/>
                <rect width="1.94" height="1.94" x="24.19" y="25.16"/>
                <rect width="1.94" height="1.94" x="32.9" y="32.9"/>
                <path d="M19.35 10.65a2.9 2.9 0 1 0 0-5.82 2.9 2.9 0 0 0 0 5.82zm0-3.88a.97.97 0 1 1 0 1.94.97.97 0 0 1 0-1.94zM30 5.8A2.9 2.9 0 1 0 30 0a2.9 2.9 0 0 0 0 5.8zm0-3.86a.97.97 0 1 1 0 1.93.97.97 0 0 1 0-1.93zM37.74 13.55a2.9 2.9 0 1 0 0-5.82 2.9 2.9 0 0 0 0 5.82zm0-3.87a.97.97 0 1 1 0 1.93.97.97 0 0 1 0-1.93z"/>
            </g>
            <g transform="translate(144 3)">
                <path d="M27.1 34.32c0-.2-.03-.4-.07-.58l2.9-1.82c.47.37 1.05.6 1.68.6a2.7 2.7 0 1 0 .9-5.25v-3.95a2.7 2.7 0 0 0-.9-5.25c-.63 0-1.21.22-1.67.6l-2.91-1.82a2.7 2.7 0 0 0-1.74-3.13V9.77a2.7 2.7 0 0 0 1.74-3.13l2.9-1.82c.47.37 1.05.6 1.68.6.64 0 1.22-.23 1.68-.6l2.9 1.82c-.03.2-.06.39-.06.59a2.71 2.71 0 1 0 2.7-2.71c-.63 0-1.2.23-1.67.6l-2.9-1.82a2.71 2.71 0 1 0-5.28 0l-2.92 1.82a2.68 2.68 0 0 0-1.67-.6c-.64 0-1.22.23-1.68.6l-2.9-1.82c.03-.2.06-.39.06-.59a2.71 2.71 0 1 0-5.35.59l-2.9 1.82a2.68 2.68 0 0 0-1.68-.6 2.7 2.7 0 1 0-.9 5.25v3.95a2.7 2.7 0 0 0-1.75 3.13l-2.9 1.81a2.68 2.68 0 0 0-1.68-.6 2.7 2.7 0 1 0-.9 5.25v3.95a2.7 2.7 0 1 0 2.58 4.66l2.9 1.82a2.7 2.7 0 0 0 1.74 3.13v3.94a2.7 2.7 0 1 0 2.58 4.66l2.9 1.81c-.03.2-.06.39-.06.6a2.71 2.71 0 1 0 5.35-.6l2.91-1.81a2.68 2.68 0 0 0 4.39-2.12 2.7 2.7 0 0 0-1.81-2.54v-3.94a2.7 2.7 0 0 0 1.8-2.55zm-5.42 9.03c0 .2.02.4.07.6l-2.91 1.8a2.69 2.69 0 0 0-1.68-.59c-.63 0-1.21.23-1.68.6l-2.9-1.82a2.7 2.7 0 0 0-1.74-3.13v-3.94a2.7 2.7 0 0 0 1.74-3.13l2.9-1.82a2.68 2.68 0 0 0 3.36 0l2.9 1.82a2.7 2.7 0 0 0 1.74 3.13v3.94a2.7 2.7 0 0 0-1.8 2.54zM3.6 27.26v-3.94a2.7 2.7 0 0 0 1.74-3.13l2.9-1.82a2.69 2.69 0 0 0 3.35 0l2.92 1.82a2.7 2.7 0 0 0 1.74 3.13v3.94a2.7 2.7 0 0 0-1.74 3.13l-2.9 1.82a2.68 2.68 0 0 0-1.68-.6c-.64 0-1.22.23-1.68.6l-2.9-1.82c.03-.19.06-.38.06-.58a2.7 2.7 0 0 0-1.8-2.55zm9.04-20.03c0-.2-.03-.4-.07-.59l2.9-1.81c.47.36 1.05.6 1.68.6.64 0 1.21-.24 1.68-.6l2.9 1.81a2.7 2.7 0 0 0 1.74 3.13v3.95a2.7 2.7 0 0 0-1.73 3.13l-2.91 1.81a2.68 2.68 0 0 0-1.68-.6c-.63 0-1.21.24-1.67.6l-2.91-1.81a2.7 2.7 0 0 0-1.74-3.13V9.77a2.7 2.7 0 0 0 1.8-2.54zM30.7 23.32v3.94a2.7 2.7 0 0 0-1.74 3.13l-2.9 1.82a2.68 2.68 0 0 0-1.68-.6c-.64 0-1.22.23-1.68.6l-2.9-1.82c.03-.19.06-.38.06-.58a2.7 2.7 0 0 0-1.8-2.55v-3.94a2.7 2.7 0 0 0 1.73-3.13l2.91-1.82c.46.37 1.04.6 1.68.6.63 0 1.21-.23 1.67-.6l2.91 1.82a2.7 2.7 0 0 0 1.74 3.13zM16.26 29.8a.9.9 0 1 1 1.8 0 .9.9 0 0 1-1.8 0zm0-9.03a.9.9 0 1 1 1.8 0 .9.9 0 0 1-1.8 0zm8.13-3.62a.9.9 0 1 1 0-1.8.9.9 0 0 1 0 1.8zM9.94 33.42a.9.9 0 1 1 0 1.8.9.9 0 0 1 0-1.8zm14.45 1.8a.9.9 0 1 1 0-1.8.9.9 0 0 1 0 1.8zm7.22-4.5a.9.9 0 1 1 0-1.82.9.9 0 0 1 0 1.81zm0-10.85a.9.9 0 1 1 0 1.81.9.9 0 0 1 0-1.8zm7.23-13.54a.9.9 0 1 1 0 1.8.9.9 0 0 1 0-1.8zM31.6 1.8a.9.9 0 1 1 0 1.8.9.9 0 0 1 0-1.8zM24.4 6.33a.9.9 0 1 1 0 1.8.9.9 0 0 1 0-1.8zM17.16 1.8a.9.9 0 1 1 0 1.8.9.9 0 0 1 0-1.8zM9.94 6.33a.9.9 0 1 1 0 1.8.9.9 0 0 1 0-1.8zm0 9.03a.9.9 0 1 1 0 1.8.9.9 0 0 1 0-1.8zM2.7 19.87a.9.9 0 1 1 0 1.81.9.9 0 0 1 0-1.8zm-.9 9.94a.9.9 0 1 1 1.8 0 .9.9 0 0 1-1.8 0zm7.22 13.54a.9.9 0 1 1 1.81 0 .9.9 0 0 1-1.8 0zm8.13 5.42a.9.9 0 1 1 0-1.8.9.9 0 0 1 0 1.8zm7.23-4.51a.9.9 0 1 1 0-1.81.9.9 0 0 1 0 1.8z"/>
                <path d="M55.52 50.4l-5.96-10.74-1.58.88 5.97 10.73a1.97 1.97 0 0 1-1.72 2.92H32.68a1.97 1.97 0 0 1-1.72-2.92l8.78-15.81V27.1h3.61v3.61a2.71 2.71 0 0 0 3.62 2.55v1.97a2.71 2.71 0 0 0 5.42 0V20.77a4.52 4.52 0 0 0-6.64-3.97 4.52 4.52 0 0 0-7.43 4.88h-2.2v5.42h1.82V35l-8.56 15.4a3.78 3.78 0 0 0 3.3 5.6h19.55a3.78 3.78 0 0 0 3.3-5.6zM37.94 23.48h1.8v-.02c.76.57 1.7.93 2.71.93v-1.8a2.71 2.71 0 0 1 0-5.43c.96 0 1.82.5 2.32 1.33l.55.92.81-.69c.35-.3.94-.66 1.74-.66 1.5 0 2.71 1.22 2.71 2.71v14.46a.9.9 0 0 1-1.8 0V27.1h-1.81v3.61a.9.9 0 0 1-1.8 0v-7.23h-1.82v1.81h-5.41v-1.8z"/>
                <rect width="1.81" height="1.81" x="41.55" y="18.97"/>
                <rect width="1.81" height="1.81" x="46.97" y="23.48"/>
                <rect width="2.02" height="1.81" x="33.76" y="50.58" transform="rotate(-63.435 34.772 51.484)"/>
                <rect width="10.1" height="1.81" x="33.34" y="43.36" transform="rotate(-63.435 38.385 44.259)"/>
            </g>
        </g>
        <rect width="276" height="207" fill="#FFF" opacity=".14"/>
    </g>
</svg>
