<svg xmlns="http://www.w3.org/2000/svg" xmlns:xlink="http://www.w3.org/1999/xlink" width="276" height="207" viewBox="0 0 276 207">
    <defs>
        <rect id="biology-a" width="276" height="207"/>
        <path id="biology-c" d="M0 3a3 3 0 0 1 3-3h270a3 3 0 0 1 3 3v204H0V3z"/>
    </defs>
    <g fill="none" fill-rule="evenodd">
        <mask id="biology-b" fill="#fff">
            <use xlink:href="#biology-a"/>
        </mask>
        <use fill="#DBE1FD" xlink:href="#biology-a"/>
        <g mask="url(#biology-b)" opacity=".5">
            <mask id="biology-d" fill="#fff">
                <use xlink:href="#biology-c"/>
            </mask>
            <use fill="#C7ECCA" xlink:href="#biology-c"/>
            <circle cx="137.5" cy="103.5" r="88.5" fill="#D4F3D7" mask="url(#biology-d)"/>
            <g fill="#000" fill-rule="nonzero" mask="url(#biology-d)">
                <g transform="translate(40 78)">
                    <path d="M29.66 36.9a10.84 10.84 0 0 0 8.08-10.52v-.76c0-4.98-3.3-9.25-8.08-10.52a10.84 10.84 0 0 0 8.08-10.53V0h-1.68v3.35H19.3v1.68h16.76a9.18 9.18 0 0 1-1.8 5.03H21.82v1.68h10.84a9.23 9.23 0 0 1-3.74 1.82l-2.91.68-2.91-.68a9.18 9.18 0 0 1-6.34-5.17h15.12V6.7H16.2a9.35 9.35 0 0 1-.25-2.14v-2.9h15.93V0H14.26v4.57c0 4.98 3.3 9.25 8.08 10.53a10.84 10.84 0 0 0-8.08 10.52v.76c0 4.98 3.3 9.25 8.08 10.52a10.84 10.84 0 0 0-8.08 10.53V52h17.61v-1.68H15.94v-2.9c0-.73.09-1.44.25-2.13h15.68v-1.68H16.75a9.18 9.18 0 0 1 6.34-5.17l2.91-.68 2.91.68c1.42.32 2.68.96 3.74 1.82H21.81v1.68h12.45a9.2 9.2 0 0 1 1.79 5.03H19.29v1.68h16.77V52h1.68v-4.57c0-4.98-3.3-9.25-8.08-10.53zm-13.7-10.06H32.7v-1.68H15.95c.1-1.87.74-3.6 1.8-5.03h12.44v-1.68H19.35a9.23 9.23 0 0 1 3.74-1.82l2.91-.67 2.91.67a9.18 9.18 0 0 1 6.34 5.18H20.13v1.67H35.8c.16.7.25 1.4.25 2.14v.76c0 .73-.09 1.45-.25 2.14H20.13v1.67h15.12a9.18 9.18 0 0 1-6.34 5.18l-2.91.67-2.91-.67a9.24 9.24 0 0 1-3.74-1.82h10.84v-1.68H17.74a9.2 9.2 0 0 1-1.79-5.03z"/>
                    <rect width="1.68" height="1.68" x="42.77" y="4.19"/>
                    <rect width="1.68" height="1.68" x="42.77" y="7.55"/>
                    <rect width="1.68" height="1.68" x="44.45" y="5.87"/>
                    <rect width="1.68" height="1.68" x="41.1" y="5.87"/>
                    <rect width="1.68" height="1.68" x="7.55" y="39.42"/>
                    <rect width="1.68" height="1.68" x="7.55" y="42.77"/>
                    <rect width="1.68" height="1.68" x="9.23" y="41.1"/>
                    <rect width="1.68" height="1.68" x="5.87" y="41.1"/>
                    <rect width="1.68" height="1.68" x="3.35" y="21.81"/>
                    <rect width="1.68" height="1.68" x="3.35" y="25.16"/>
                    <rect width="1.68" height="1.68" x="5.03" y="23.48"/>
                    <rect width="1.68" height="1.68" x="1.68" y="23.48"/>
                    <rect width="1.68" height="1.68" x="46.97" y="25.16"/>
                    <rect width="1.68" height="1.68" x="44.6" y="26.14" transform="rotate(-45 45.434 26.983)"/>
                    <rect width="1.68" height="1.68" x="43.61" y="28.52"/>
                    <rect width="1.68" height="1.68" x="44.6" y="30.89" transform="rotate(-45 45.434 31.727)"/>
                    <rect width="1.68" height="1.68" x="46.97" y="31.87"/>
                    <rect width="1.68" height="1.68" x="49.34" y="30.89" transform="rotate(-45 50.178 31.727)"/>
                    <rect width="1.68" height="1.68" x="50.32" y="28.52"/>
                    <rect width="1.68" height="1.68" x="49.34" y="26.14" transform="rotate(-45 50.178 26.983)"/>
                    <rect width="1.68" height="1.68" x="3.35" y="5.87"/>
                    <rect width="1.68" height="1.68" x=".98" y="6.85" transform="rotate(-45 1.822 7.692)"/>
                    <rect width="1.68" height="1.68" y="9.23"/>
                    <rect width="1.68" height="1.68" x=".98" y="11.6" transform="rotate(-45 1.821 12.436)"/>
                    <rect width="1.68" height="1.68" x="3.35" y="12.58"/>
                    <rect width="1.68" height="1.68" x="5.73" y="11.6" transform="rotate(-45 6.565 12.436)"/>
                    <rect width="1.68" height="1.68" x="6.71" y="9.23"/>
                    <rect width="1.68" height="1.68" x="5.73" y="6.85" transform="rotate(-45 6.565 7.693)"/>
                    <rect width="1.68" height="1.68" x="34.39" y="14.26"/>
                    <rect width="1.68" height="1.68" x="37.74" y="14.26"/>
                    <rect width="1.68" height="1.68" x="41.1" y="14.26"/>
                    <rect width="1.68" height="1.68" x="9.23" y="14.26"/>
                    <rect width="1.68" height="1.68" x="12.58" y="14.26"/>
                    <rect width="1.68" height="1.68" x="15.94" y="14.26"/>
                    <rect width="1.68" height="1.68" x="34.39" y="36.06"/>
                    <rect width="1.68" height="1.68" x="37.74" y="36.06"/>
                    <rect width="1.68" height="1.68" x="41.1" y="36.06"/>
                    <rect width="1.68" height="1.68" x="9.23" y="36.06"/>
                    <rect width="1.68" height="1.68" x="12.58" y="36.06"/>
                    <rect width="1.68" height="1.68" x="15.94" y="36.06"/>
                </g>
            </g>
            <g fill="#000" fill-rule="nonzero" mask="url(#biology-d)">
                <path d="M42.55 50.32l-1.5-4.78h.01l2.46-8a21 21 0 0 0-7.87-23.3l-3.51-2.5h-1.95v.03a4.18 4.18 0 0 0-3.35-1.7h-4.2V0h-5.87v10.06h-3.35v1.68h1.68v9.42l-4.62-2.6-.83 1.46 1.25.7v2.53l-2.82 4.72 5.63 3.37 2.23-3.71v4.24h5.87v-5.01l1.26.7.82-1.45-3.17-1.79h4.44v2.52h7.55v-2.52h1.38c1.09 0 1.97.89 1.97 1.98v10.6h-4.19v-1.67h.84v-1.68H11.74v1.68h13.42v3.35H11.74v1.68h1.68v3.35h10.06v-3.35h1.68v10.06H19.3v-4.2h-1.68v4.2H0V52h52v-1.68h-9.45zm-20.74-8.38H15.1v-1.68h6.7v1.68zm11.74-1.3a2.06 2.06 0 0 1 4.03-.61l3.21 10.3h-7.24v-9.69zm-4.2-26.38a2.52 2.52 0 1 1-5.03 0 2.52 2.52 0 0 1 5.03 0zM20.97 1.68v1.67h-2.52V1.68h2.52zm-2.52 3.35h2.52v5.03h-2.52V5.03zm.34 20.13h-2.62l-3.59-2.15v-1.34l6.21 3.5zm-5.66 3.88l-2.75-1.65 1.65-2.76 2.75 1.66-1.65 2.75zm4.48 1.15v-3.35h2.52v3.35H17.6zm.13-7.54l-.97-.55v-7h4.2v-1.68h-4.2v-1.68h6.74a4.15 4.15 0 0 0 1.65 6.36v4.55h-7.42zm16.35 0h-3.06v2.51h-4.2v-6.7a4.2 4.2 0 0 0 4.12-5.04h.65l3.07 2.2a19.38 19.38 0 0 1 7.25 21.42l-1.75 5.67-1-3.18a3.72 3.72 0 0 0-1.43-1.96V26.3a3.65 3.65 0 0 0-3.65-3.65zm-3.9 12.58v3.35h2.3c-.39.6-.62 1.3-.62 2.06v6.33h-5.03V35.23h3.35zm-3.35 13.42h5.03v1.67h-5.03v-1.67z" transform="translate(184 78)"/>
            </g>
            <g fill="#000" fill-rule="nonzero" mask="url(#biology-d)">
                <g transform="translate(109 77)">
                    <path d="M48.5 32.84l5.15-2.2-.72-1.66-5.34 2.29a11.81 11.81 0 0 0-3.25-3.16l2.5-4.16-1.55-.93-2.53 4.22a11.63 11.63 0 0 0-4.82-1.05h-.28l3.77-6.78-1.57-.88-4.2 7.55a9 9 0 0 1-4.81-2.36l2.3-2.3-1.27-1.28-2.22 2.22a8.97 8.97 0 0 1-1.66-5.2v-.14l4.66-.77-.3-1.79-4.54.76c-.2-1.13-.58-2.2-1.11-3.18l6.21-3.1-.8-1.62-6.41 3.2c-.51-.66-1.1-1.26-1.74-1.78l2.93-3.66-1.41-1.13-3.02 3.77c-.77-.43-1.6-.77-2.48-1.01l.77-3.82-1.77-.36-.77 3.85a10.77 10.77 0 0 0-3.77.3V0h-1.8v7.32c-.5.23-.97.48-1.41.78L7.02 3.03 5.62 4.2l4.2 5.02c-.53.5-1.01 1.03-1.44 1.62L5.92 9.18l-1 1.5 2.53 1.7c-.46.92-.79 1.92-.96 2.97H0v1.81h6.32v.9c0 .66.03 1.31.07 1.96l-3.86.77.36 1.77 3.67-.73c.14 1.25.37 2.48.66 3.69l-5.66 1.61.5 1.74 5.63-1.61c.24.77.5 1.52.8 2.26l-6.18 3.1.8 1.6L9.2 31.2c.44.96.92 1.88 1.45 2.79l-4.82 3.2 1 1.5 4.77-3.17c.64.96 1.33 1.89 2.07 2.77l-2.42 1.61 1 1.5 2.63-1.74c.63.67 1.3 1.33 1.98 1.94l-4 4.8 1.4 1.16 3.98-4.79c.74.59 1.5 1.14 2.28 1.66l-4.11 6.59 1.53.95 4.11-6.58c1.03.6 2.1 1.14 3.2 1.62l-1.7 5.1 1.7.58 1.67-4.99c1.16.44 2.37.8 3.6 1.1l-.69 3.42 1.77.36.69-3.4c.97.17 1.95.3 2.95.39V56h1.8v-6.35l.9.03c1.14 0 2.24-.17 3.28-.47l2.24 4.48 1.62-.8-2.17-4.33c.74-.34 1.43-.76 2.07-1.24l2.18 2.9 1.44-1.08-2.26-3.02c.53-.54 1-1.13 1.42-1.76l5.04 3.36 1-1.5-5.17-3.45c.44-.95.74-1.96.9-3.03H56v-1.8h-6.32c0-1.83-.43-3.55-1.18-5.1zM8.13 18.06v-.9a9.04 9.04 0 0 1 18.06 0C26.2 23.14 31.06 28 37.03 28h.9a9.95 9.95 0 0 1 0 19.87 29.84 29.84 0 0 1-29.8-29.8z"/>
                    <path d="M18.06 21.68a5.42 5.42 0 1 0 0-10.85 5.42 5.42 0 0 0 0 10.85zm0-9.03a3.62 3.62 0 1 1 0 7.23 3.62 3.62 0 0 1 0-7.23zM16.26 26.2a2.71 2.71 0 1 0 0 5.42 2.71 2.71 0 0 0 0-5.43zm0 3.6a.9.9 0 1 1 0-1.8.9.9 0 0 1 0 1.8zM25.29 35.23a3.62 3.62 0 1 0 0 7.23 3.62 3.62 0 0 0 0-7.23zm0 5.42a1.8 1.8 0 1 1 0-3.62 1.8 1.8 0 0 1 0 3.62zM30.71 28a2.71 2.71 0 1 0 0 5.43 2.71 2.71 0 0 0 0-5.43zm0 3.61a.9.9 0 1 1 0-1.8.9.9 0 0 1 0 1.8zM39.74 34.32a3.62 3.62 0 1 0 0 7.24 3.62 3.62 0 0 0 0-7.24zm0 5.42a1.8 1.8 0 1 1 0-3.61 1.8 1.8 0 0 1 0 3.61zM54.2 10.84v-.22c0-.63-.08-1.24-.2-1.83l1.5-.76-.8-1.61-1.27.63a8.83 8.83 0 0 0-1.56-2.37l2.87-2.15-1.09-1.45-3.16 2.37c-.48-.34-1-.64-1.54-.88l.63-1.26L47.97.5 47.2 2c-.59-.12-1.2-.2-1.83-.2h-.22V0h-1.8v1.9c-.5.1-.96.3-1.38.55l-.53-1.05-1.61.81.75 1.5c-.32.45-.55.95-.7 1.5l-2.64-.67-.44 1.76 3 .75c.09.51.27 1 .51 1.44l-1.77.59.58 1.71 2.48-.83c.35.26.73.46 1.15.6l-1.06 1.58 1.5 1 1.47-2.2c.29.16.5.45.5.8 0 .6.12 1.18.33 1.7l-1.74 1.16 1 1.5 1.74-1.15c.4.38.86.7 1.37.93v4h1.8v-3.62c.69 0 1.33-.16 1.9-.44l1.98 1.98 1.28-1.28-1.8-1.8c.53-.57.91-1.28 1.07-2.07H56v-1.81h-1.8zm-7.23.9c0-1.5-1.22-2.7-2.71-2.7a2.71 2.71 0 0 1 0-5.43h1.12a7.02 7.02 0 0 1 7 7.01v1.12a2.71 2.71 0 0 1-5.41 0z"/>
                </g>
            </g>
        </g>
        <rect width="276" height="207" fill="#FFF" mask="url(#biology-b)" opacity=".17"/>
    </g>
</svg>
