<svg xmlns="http://www.w3.org/2000/svg" xmlns:xlink="http://www.w3.org/1999/xlink" width="276" height="207" viewBox="0 0 276 207">
    <defs>
        <circle id="russian-literatura-a" cx="88.5" cy="88.5" r="88.5"/>
    </defs>
    <g fill="none" fill-rule="evenodd">
        <rect width="276" height="207" fill="#96C7F2"/>
        <g transform="translate(50 15)">
            <mask id="russian-literatura-b" fill="#fff">
                <use xlink:href="#russian-literatura-a"/>
            </mask>
            <use fill="#FFF" fill-opacity="0" xlink:href="#russian-literatura-a"/>
            <circle cx="88.5" cy="88.5" r="89.5" stroke="#FFF" stroke-width="2"/>
            <path fill="#FFF" fill-rule="nonzero" d="M57.19 19.38l.42-1.66a2.57 2.57 0 0 0-2.45-3.2c-1.16 0-2.17.8-2.46 1.93l-.42 1.65-2.2-.57a.67.67 0 0 0-.52.07.68.68 0 0 0-.31.42l-1.49 6.05a.68.68 0 0 0 .66.85c.3 0 .58-.2.65-.52l1.33-5.38.93.24-2.2 8.63H47.2V15.81h-6.52v12.08h-.54L36.4 13.2a2.48 2.48 0 0 0-3.01-1.8l-.22.06a2.5 2.5 0 0 0-1.78 3.04l3.4 13.4h-.91v17.27c0 1.47 1.08 2.7 2.47 2.91v.38a2.2 2.2 0 0 0 2.2 2.22H51.7c1.21 0 2.2-1 2.2-2.22v-.38a2.95 2.95 0 0 0 2.47-2.91V27.89h-.7l1.95-7.7a.68.68 0 0 0-.44-.81zm-2.16 9.88v3.18h-19.8v-3.18h19.8zm-13-12.09h3.82V18H43.6v1.36h2.26v1.96H43.6v1.37h2.26v1.96H43.6v1.36h2.26v1.88h-3.82V17.17zm-9.33-3.01a1.14 1.14 0 0 1 .8-1.38l.22-.06c.1-.02.19-.04.28-.04.52 0 .97.36 1.1.86l.17.69-2.4.62-.17-.69zm.5 2l2.4-.61.54 2.09-2.4.62-.53-2.1zm.87 3.42l2.4-.62 2.27 8.93H36.2l-2.12-8.31zm17.64 29.73H38.55a.85.85 0 0 1-.85-.85v-.34h14.85v.34c0 .47-.37.85-.84.85zm1.74-2.55H36.8c-.86 0-1.57-.72-1.57-1.6V33.8h19.8v11.37c0 .87-.7 1.59-1.58 1.59zm.83-18.87h-3.75l2.1-8.3 3.53.92-1.88 7.38zm2.02-10.5l-.42 1.64-2.3-.6.43-1.64a1.19 1.19 0 0 1 1.44-.86c.63.16 1.01.81.85 1.45zM163.79 103.47v7.12h1.53v-7.12a11.05 11.05 0 0 0 10.32-11c-.01-5.86-10.08-17.23-10.5-17.71l-.63-.7-.61.7c-.43.48-10.45 11.9-10.44 17.76a11.04 11.04 0 0 0 10.32 10.95zM155.1 92.5c-.01-4.06 6.3-12.31 9.4-15.96 3.14 3.64 9.48 11.86 9.49 15.93a9.4 9.4 0 0 1-8.68 9.35v-2.9l3.22-2.99-.33-.9-.43-.46-2.46 2.27v-2.5l1.96-1.81-.57-1.55-1.4 1.29v-5.84h-1.52v5.75l-1.37-1.29-.57 1.56 1.94 1.82v2.48l-2.46-2.32-.35.37-.38 1.03 3.19 3.02v2.97a9.4 9.4 0 0 1-8.68-9.32zM189.7 77h-5.06a7.8 7.8 0 0 0-7.83 7.77V98.4a7.8 7.8 0 0 0 7.83 7.77h1.77v4.41h1.53v-4.41h1.76a7.8 7.8 0 0 0 7.84-7.77V84.77A7.8 7.8 0 0 0 189.7 77zm5.92 21.4a5.9 5.9 0 0 1-5.91 5.88h-1.77v-2.34a4.3 4.3 0 0 0 3.56-4.22h-1.53c0 1.27-.86 2.34-2.03 2.67v-9.33a4.3 4.3 0 0 0 3.56-4.22h-1.53c0 1.26-.86 2.33-2.03 2.66v-5.48h-1.53v11.25a2.78 2.78 0 0 1-2.03-2.66h-1.53a4.3 4.3 0 0 0 3.56 4.22v7.45h-1.77a5.9 5.9 0 0 1-5.92-5.87V84.77a5.9 5.9 0 0 1 5.92-5.88h5.07a5.9 5.9 0 0 1 5.91 5.88V98.4z" mask="url(#russian-literatura-b)"/>
            <path fill="#FFF" fill-rule="nonzero" d="M177.77 103.73h-7.99v10.2h7.99v-3.5a4.32 4.32 0 0 0 3.12-4.05v-.07h-1.53a2.8 2.8 0 0 1-1.6 2.5v-5.08zm-1.53 8.69h-4.93v-4.55a6.05 6.05 0 0 0 4.93.11v4.44zm0-6.16a4.1 4.1 0 0 1-2.35.66 3.88 3.88 0 0 1-2.58-.86v-.82h4.93v1.02zM85.7-14h-5.06a7.8 7.8 0 0 0-7.83 7.77V7.4a7.8 7.8 0 0 0 7.83 7.77h1.77v4.41h1.53v-4.41h1.76a7.8 7.8 0 0 0 7.83-7.77V-6.23A7.8 7.8 0 0 0 85.7-14zm5.92 21.4a5.9 5.9 0 0 1-5.92 5.88h-1.76v-2.34a4.3 4.3 0 0 0 3.56-4.22h-1.53c0 1.27-.86 2.34-2.03 2.67V.06a4.3 4.3 0 0 0 3.56-4.22h-1.53c0 1.26-.86 2.33-2.03 2.66v-5.48H82.4V4.27a2.78 2.78 0 0 1-2.03-2.66h-1.53a4.3 4.3 0 0 0 3.56 4.22v7.45h-1.77a5.9 5.9 0 0 1-5.92-5.87V-6.23a5.9 5.9 0 0 1 5.92-5.88h5.07a5.9 5.9 0 0 1 5.91 5.88V7.4zM88.68 142.8c-1 0-1.5.3-1.94.57-.34.17-.56.3-1.07.3-.52 0-.73-.13-1.08-.3a3.34 3.34 0 0 0-1.93-.56c-1 0-1.5.3-1.94.56-.34.17-.56.3-1.07.3-.52 0-.74-.13-1.08-.3a3.34 3.34 0 0 0-1.94-.56v1.72c.52 0 .74.13 1.08.3.43.26.95.56 1.94.56.98 0 1.5-.3 1.93-.56.34-.17.56-.3 1.08-.3.51 0 .73.13 1.07.3.43.26.95.56 1.94.56s1.5-.3 1.93-.56c.35-.17.56-.3 1.08-.3.51 0 .73.13 1.07.3.43.26.95.56 1.94.56v-1.72c-.52 0-.73-.13-1.08-.3a3.34 3.34 0 0 0-1.93-.56zm0 6.72c-1 0-1.5.3-1.94.56-.34.17-.56.3-1.07.3-.52 0-.73-.13-1.08-.3a3.34 3.34 0 0 0-1.93-.56c-1 0-1.5.3-1.94.56-.34.17-.56.3-1.07.3-.52 0-.74-.13-1.08-.3a3.34 3.34 0 0 0-1.94-.56v1.72c.52 0 .74.13 1.08.3.43.26.95.56 1.94.56.98 0 1.5-.3 1.93-.56.34-.17.56-.3 1.08-.3.51 0 .73.13 1.07.3.43.26.95.56 1.94.56s1.5-.3 1.93-.56c.35-.17.56-.3 1.08-.3.51 0 .73.13 1.07.3.43.26.95.56 1.94.56v-1.72c-.52 0-.73-.13-1.08-.3-.43-.3-.94-.56-1.93-.56zm0-20.13c-1 0-1.5.3-1.94.56-.34.17-.56.3-1.07.3-.52 0-.73-.13-1.08-.3a3.34 3.34 0 0 0-1.93-.56c-1 0-1.5.3-1.94.56-.34.17-.56.3-1.07.3-.52 0-.74-.13-1.08-.3a3.34 3.34 0 0 0-1.94-.56v1.72c.52 0 .74.13 1.08.3.43.26.95.56 1.94.56.98 0 1.5-.3 1.93-.56.34-.17.56-.3 1.08-.3.51 0 .73.13 1.07.3.43.26.95.56 1.94.56s1.5-.3 1.93-.56c.35-.17.56-.3 1.08-.3.51 0 .73.13 1.07.3.43.26.95.56 1.94.56v-1.72c-.52 0-.73-.13-1.08-.3a3.34 3.34 0 0 0-1.93-.56zm12.13-8.09H78.57c-3.4 0-6.2 2.8-6.2 6.2v27.05H67.1v.86c0 3.4 2.75 6.15 6.15 6.15H90.4a5.97 5.97 0 0 0 5.98-5.98v-27.27h10.58v-.86c0-3.4-2.8-6.15-6.15-6.15zm-27.57 38.54a4.43 4.43 0 0 1-4.35-3.57h15.36a6.46 6.46 0 0 0 1.8 3.57H73.24zm21.42-32.43v28.17c0 2.37-1.9 4.26-4.26 4.26h-.05a4.42 4.42 0 0 1-4.43-4.43v-.86H74.1v-27.06c0-2.49 2.02-4.47 4.47-4.47h17.98a6.08 6.08 0 0 0-1.9 4.39zm1.8-.82a4.43 4.43 0 0 1 8.7 0h-8.7zm-7.78 9.5c-1 0-1.5.3-1.94.57-.34.17-.56.3-1.07.3-.52 0-.73-.13-1.08-.3a3.34 3.34 0 0 0-1.93-.56c-1 0-1.5.3-1.94.56-.34.17-.56.3-1.07.3-.52 0-.74-.13-1.08-.3a3.34 3.34 0 0 0-1.94-.56v1.72c.52 0 .74.13 1.08.3.43.26.95.56 1.94.56.98 0 1.5-.3 1.93-.56.34-.17.56-.3 1.08-.3.51 0 .73.13 1.07.3.43.26.95.56 1.94.56s1.5-.3 1.93-.56c.35-.17.56-.3 1.08-.3.51 0 .73.13 1.07.3.43.26.95.56 1.94.56v-1.72c-.52 0-.73-.13-1.08-.3a3.34 3.34 0 0 0-1.93-.56zM142.54 100.7c0-1.24-1.03-2.21-2.26-2.21h-.97v-.46c0-.98-.82-1.75-1.8-1.75h-11.33a.79.79 0 0 0-.77.77c0 .41.36.77.77.77h11.38c.1 0 .2.1.2.2l.06 11.7c0 .1-.1.2-.2.2H127c-1.13 0-2.26.31-3.18.93v-5.7a.78.78 0 0 0-.87-.77.83.83 0 0 0-.72.83v5.69a5.8 5.8 0 0 0-3.18-.98H108.5c-.1 0-.2-.1-.2-.2l-.06-11.7c0-.1.1-.2.2-.2h11.4c.4 0 .76-.36.76-.77a.79.79 0 0 0-.77-.77h-11.38c-.98 0-1.8.77-1.8 1.75v.5h-.97c-1.23 0-2.26.98-2.26 2.21l.05 11.44c0 1.23 1.03 2.2 2.26 2.2h13.43c.31 0 .57.16.62.41A3.53 3.53 0 0 0 123 117c1.44 0 2.72-.87 3.23-2.2.1-.26.36-.42.62-.42h13.43c1.23 0 2.26-.97 2.26-2.2v-11.49zm-2.2 12.1H126.9a2.3 2.3 0 0 0-2.1 1.38 1.86 1.86 0 0 1-1.8 1.18c-.77 0-1.49-.46-1.8-1.18a2.26 2.26 0 0 0-2.1-1.39h-13.38a.68.68 0 0 1-.67-.66l-.05-11.44c0-.36.3-.66.67-.66h.97v9.64c0 .97.82 1.74 1.8 1.74H119c1.13 0 2.2.46 3.03 1.23l.4.41c.06.05.1.05.1.1 0 0 .06 0 .06.06 0 0 .05 0 .05.05.05 0 .1.05.15.05h.16c.15 0 .3-.05.4-.16 0 0 .06 0 .06-.05l.05-.05.51-.46a4.07 4.07 0 0 1 2.93-1.18h10.61c.98 0 1.8-.77 1.8-1.74v-9.7h.97c.36 0 .67.31.67.67l.05 11.44c0 .4-.3.71-.67.71z" mask="url(#russian-literatura-b)"/>
            <path fill="#FFF" fill-rule="nonzero" d="M117.92 92.54c.72 0 1.39-.1 2.05-.26l2.26 2.16v7.33c0 .4.36.77.77.77.41 0 .77-.36.77-.77v-7.28l2.26-2.16a8.92 8.92 0 0 0 10.72-11.03c-.06-.25-.26-.45-.57-.56a8.92 8.92 0 0 0-8.67 2.31 8.94 8.94 0 0 0-2.46 8l-1.33 1.28v-9.28a5.91 5.91 0 0 0 4.05-9.03.75.75 0 0 0-.67-.35c-.36 0-.72.05-1.02.15a6.46 6.46 0 0 0-2.72-2.51.76.76 0 0 0-.67 0 6.14 6.14 0 0 0-2.77 2.56c-.4-.1-.82-.15-1.23-.15a.88.88 0 0 0-.66.36 5.91 5.91 0 0 0 4.25 8.92v9.28L120.95 91a8.92 8.92 0 0 0-11.13-10.3c-.26.04-.46.3-.56.56a8.92 8.92 0 0 0 8.67 11.28zm10.77-8.41a7.33 7.33 0 0 1 6.72-2 7.58 7.58 0 0 1-2 6.72 7.53 7.53 0 0 1-5.28 2.15c-.2 0-.46 0-.67-.05l4.1-3.9c.31-.3.31-.77 0-1.08a.74.74 0 0 0-1.07 0l-3.95 3.8c-.1-2.1.67-4.15 2.15-5.64zm-9.48-4.87a4.3 4.3 0 0 1-.1-3.95c.1 0 .15 0 .25.05.26.05.51.1.77.2.25.1.51.2.72.36.46.31.87.67 1.23 1.13l.3.46c.06.1.1.26.21.36.26.62.36 1.34.36 2 0 .26-.05.57-.16.82-.05.2-.1.36-.2.57-.05.05-.05.15-.1.2l-.72-.15a3.95 3.95 0 0 1-2.56-2.05zM123 72.9c.67.4 1.23.92 1.59 1.48-.62.36-1.23.77-1.7 1.34a5.3 5.3 0 0 0-1.58-1.23 5.55 5.55 0 0 1 1.69-1.6zm3.74 2.4a4.3 4.3 0 0 1-.05 3.96 4.3 4.3 0 0 1-2.56 2.15c.05-.1.05-.2.1-.3.1-.37.15-.78.15-1.14 0-.35 0-.71-.05-1.07a7.2 7.2 0 0 0-.5-1.8 4 4 0 0 1 1.38-1.23c.2-.15.46-.25.71-.36.26-.1.52-.15.77-.2h.05zm-16.1 6.83a7.33 7.33 0 0 1 6.72 2 7.4 7.4 0 0 1 2.15 5.59l-3.95-3.8c-.3-.3-.82-.3-1.07 0-.31.31-.31.82 0 1.08l4.1 3.9c-.2 0-.46.05-.67.05-2 0-3.84-.77-5.23-2.16a7.3 7.3 0 0 1-2.05-6.66zM93.71 80.29a3.39 3.39 0 0 0-4.8 0l-1.5 1.5c-1-.57-2.27-.4-3.08.42l-22.89 22.85a.86.86 0 0 0-.21.43l-1.93 8.18a.86.86 0 0 0 .81 1.07h.22l8.18-1.93c.16-.02.31-.1.43-.21L91.8 89.71c.82-.81 1-2.07.42-3.08l1.5-1.54a3.39 3.39 0 0 0 0-4.8zM76.06 97.94c.33.33.86.33 1.2 0l7.63-7.63 1.92 1.93-18.47 18.52-5.1-5.1 18.52-18.47 1.93 1.92-7.63 7.63a.86.86 0 0 0 0 1.2zm-13.55 9.43l4.12 4.12-5.36 1.24 1.24-5.36zM90.6 88.51L88 91.1l-5.05-5.15 2.57-2.57a.86.86 0 0 1 1.2 0l3.86 3.86a.86.86 0 0 1 0 1.24v.04zm1.92-4.62l-1.45 1.45-2.4-2.4 1.45-1.45a1.7 1.7 0 0 1 2.4 2.4z" mask="url(#russian-literatura-b)"/>
            <g fill="#FFF" fill-rule="nonzero" mask="url(#russian-literatura-b)">
                <g transform="translate(12 110)">
                    <path d="M21.13.86L20.5.34l-.63.52C19.07 1.54 0 17.52 0 28.61c0 1 .08 4.78.25 5.87l.13.83h12.17a8.2 8.2 0 0 0 7.23 4.35h1.44a8.2 8.2 0 0 0 7.23-4.35h12.17l.13-.83c.17-1.1.25-4.87.25-5.87C41 17.51 21.94 1.54 21.13.86zm-5.96 35.15a6.44 6.44 0 0 1-1.87-4.54V31a2.7 2.7 0 0 1 3.4 2.6A2.7 2.7 0 0 1 15.17 36zm12.53-4.54c0 1.77-.71 3.37-1.87 4.54a2.7 2.7 0 0 1-1.53-2.42 2.7 2.7 0 0 1 3.4-2.6v.48zm0-1.48a3.68 3.68 0 0 0-2.67 6.7 6.45 6.45 0 0 1-3.81 1.26h-1.44a6.45 6.45 0 0 1-3.82-1.26A3.68 3.68 0 0 0 13.3 30v-2.65a7.18 7.18 0 0 0 7.56-4.38 7.17 7.17 0 0 0 6.63 4.45l.22-.01V30zm-14.4-3.73v-.87c0-3.57 2.9-6.47 6.48-6.47h.4a6.05 6.05 0 0 1-5.95 7.41c-.31 0-.62-.02-.93-.07zm14.4.07h-.22a6.09 6.09 0 0 1-5.93-7.4c3.42.18 6.15 3 6.15 6.46v.94zm11.2 7.02h-9.71c.14-.6.23-1.23.23-1.88V25.4a8.2 8.2 0 0 0-8.2-8.18h-1.44a8.2 8.2 0 0 0-8.2 8.18v6.08c0 .65.09 1.28.23 1.88h-9.7a96.3 96.3 0 0 1-.15-4.74c0-9.12 15.23-22.83 18.54-25.7 3.3 2.86 18.54 16.58 18.54 25.7 0 .95-.06 3.36-.15 4.74z"/>
                    <path d="M16.28 10.27l4.22 5.42 4.22-5.42-4.22-5.42-4.22 5.42zm4.22 2.95l-2.3-2.95 2.3-2.95 2.3 2.95-2.3 2.95zM35.7 29.68l1.89-4.92-5.25-.61-1.89 4.92 5.25.61zm-2.6-4.27l2.86.33-1.02 2.68-2.86-.33 1.03-2.68zM3.41 24.76l1.89 4.92 5.25-.6-1.89-4.93-5.25.6zm2.65 3.66l-1.02-2.68 2.85-.33 1.03 2.68-2.86.33z"/>
                    <ellipse cx="19.21" cy="28.45" rx="1" ry="1"/>
                    <ellipse cx="21.79" cy="28.45" rx="1" ry="1"/>
                    <path d="M10.15 17.43c-.77 0-1.39.6-1.39 1.35 0 .75.62 1.35 1.39 1.35.76 0 1.39-.6 1.39-1.35 0-.75-.63-1.35-1.4-1.35zm0 1.73c-.23 0-.4-.17-.4-.38 0-.2.17-.37.4-.37.22 0 .4.16.4.37 0 .2-.18.38-.4.38zM13.74 13.07c-.94 0-1.7.74-1.7 1.65 0 .9.76 1.65 1.7 1.65.93 0 1.7-.74 1.7-1.65 0-.91-.77-1.65-1.7-1.65zm0 2.24c-.35 0-.64-.26-.64-.6 0-.32.29-.59.64-.59.35 0 .64.27.64.6 0 .33-.29.6-.64.6zM30.8 20.13c.76 0 1.38-.6 1.38-1.35 0-.74-.62-1.35-1.39-1.35-.76 0-1.38.6-1.38 1.35 0 .74.62 1.35 1.38 1.35zm0-1.73c.22 0 .41.17.41.38s-.19.38-.42.38c-.22 0-.41-.17-.41-.38s.19-.38.41-.38zM25.5 14.72c0 .9.77 1.65 1.7 1.65.94 0 1.7-.74 1.7-1.65 0-.91-.76-1.65-1.7-1.65-.93 0-1.7.74-1.7 1.65zm1.7-.6c.36 0 .64.27.64.6 0 .33-.28.6-.64.6-.35 0-.63-.27-.63-.6 0-.33.28-.6.63-.6z"/>
                </g>
            </g>
            <g fill="#FFF" fill-rule="nonzero" mask="url(#russian-literatura-b)">
                <g transform="translate(103 130)">
                    <path d="M34.1 27.7c.35 0 .62-.28.62-.61v-3.05c0-.33-.27-.6-.61-.6a.61.61 0 0 0-.62.6v3.05c0 .33.28.6.62.6zM36.57 27.7c.34 0 .61-.28.61-.61v-3.05c0-.33-.27-.6-.61-.6a.61.61 0 0 0-.62.6v3.05c0 .33.28.6.62.6zM18.74 28.91a.61.61 0 0 0-.61.61v1.83c0 .33.27.6.61.6.34 0 .62-.27.62-.6v-1.83c0-.33-.28-.6-.62-.6zM21.2 28.91a.61.61 0 0 0-.61.61v1.83c0 .33.27.6.61.6.34 0 .62-.27.62-.6v-1.83c0-.33-.28-.6-.62-.6z"/>
                    <path d="M57.41 51.43h-.56v-4.26h.45c.2 0 .4-.1.52-.28a.6.6 0 0 0 .03-.6l-1.62-3.26v-6.81c0-.34-.27-.61-.61-.61h-.61v-7.3c0-.34-.28-.61-.62-.61h-1.23v-3.05a.6.6 0 0 0 .61-.58c.8-1.08.92-2.03.86-2.65a3.35 3.35 0 0 0-1.27-2.26c-1.54-1.21-2.84-3.04-2.85-3.06a.58.58 0 0 0-.42-.24V13.7h.61c.34 0 .62-.28.62-.61 0-.34-.28-.61-.62-.61h-.61v-.61c0-.34-.28-.6-.62-.6a.61.61 0 0 0-.61.6v.6h-.62a.61.61 0 0 0-.61.62c0 .33.27.6.61.6h.62v2.41l-.07.06c0 .02-1.36 1.99-2.9 3.2a3.4 3.4 0 0 0-1.35 2.28 3.4 3.4 0 0 0 .66 2.27l-.03.13c0 .34.28.61.62.61v3.14l-.17-.15a12.5 12.5 0 0 1-2.11-2.09l.02-.14c0-.4-.33-.73-.74-.73-.4 0-.74.33-.74.73 0 .07.02.12.04.18-.28.4-1.11 1.52-2.13 2.28a.6.6 0 0 0-.23.43h-.09v-6.06c.8-1.08.92-2.03.85-2.65a3.35 3.35 0 0 0-1.26-2.25 23.35 23.35 0 0 1-3.07-3.1.57.57 0 0 0-.2-.15v-2.22h.6c.35 0 .62-.27.62-.6 0-.35-.27-.62-.61-.62h-.62v-.6a.61.61 0 1 0-1.23 0v.6h-.61a.61.61 0 0 0-.61.61c0 .34.27.61.61.61h.61v2.43l.02.05-.03.03c-.02.01-1.38 1.69-2.9 2.91l-2.23-6.18a.6.6 0 0 0 .23-.46V8.58a.6.6 0 0 0 .25-.17c.53-.62.6-1.2.56-1.58a2.16 2.16 0 0 0-.84-1.44 4.3 4.3 0 0 1-1.06-1.31.62.62 0 0 0-.14-.2V2.74h.61c.34 0 .62-.27.62-.61 0-.34-.28-.6-.62-.6h-.61V.9c0-.33-.28-.6-.62-.6a.61.61 0 0 0-.61.6v.61h-.62a.61.61 0 0 0-.61.61c0 .34.28.6.61.6h.62V4.5c-.26.24-.62.56-1.02.88-.47.37-.78.93-.84 1.49-.04.4.03 1 .56 1.62l.07.06v2.1c0 .2.1.37.25.48l-2.33 6.73a.6.6 0 0 0-.26.38l-.86 4.38c-1.05-.97-1.68-2.25-1.69-2.26a.6.6 0 0 0-.64-.33v-1.46h.61c.34 0 .62-.28.62-.61 0-.34-.28-.61-.62-.61h-.61v-.61c0-.34-.28-.61-.62-.61a.61.61 0 0 0-.61.6v.62h-.61a.61.61 0 0 0-.62.6c0 .34.28.62.62.62h.61v1.7c-.04.03-.09.06-.12.1-.01.02-1.15 1.5-2.44 2.52-1.05.84-1.62 2.5-.5 4.25 0 .1.04.18.08.25-.05.1-.1.2-.1.3v1.83h-1.22V28.3c0-.33-.28-.6-.62-.6v-3.05c.34 0 .62-.27.62-.6l-.01-.05c.7-.93.8-1.75.74-2.3a3.03 3.03 0 0 0-1.25-2.1 18.21 18.21 0 0 1-2.84-2.8.6.6 0 0 0-.33-.2V14.9H12c.34 0 .61-.27.61-.6 0-.34-.27-.61-.61-.61h-.62v-.61c0-.34-.27-.61-.61-.61a.61.61 0 0 0-.62.6v.62h-.61a.61.61 0 0 0-.62.6c0 .34.28.61.62.61h.61v1.83c0 .07.02.14.04.2-.14.17-.8.97-1.68 1.79l-.03.03c-.32.3-.66.58-1 .85a3.2 3.2 0 0 0-1.3 2.19c-.05.46 0 1.12.43 1.86a.6.6 0 0 0-.15.38c0 .34.28.61.62.61v3.05a.61.61 0 0 0-.62.6v1.22h-.61a.61.61 0 0 0-.62.61v8.52h-.61a.61.61 0 0 0-.62.61v2.4l-2.3 2.68a.6.6 0 0 0-.15.4v6.7l.02.1c-.6.23-1.25.78-1.25 1.56v1.99c0 .33.27.6.61.6h57.16c.34 0 .61-.27.61-.6V53.1c0-.95-.55-1.67-1.28-1.67zm-1.79 0h-6.15v-4.26h6.15v4.26zm-22.74 0h-3.69v-1.82c0-1 .83-1.83 1.85-1.83 1.01 0 1.84.82 1.84 1.83v1.82zm-1.84-4.86a3.06 3.06 0 0 0-3.08 3.04v1.82h-3.68v-1.82a3.06 3.06 0 0 0-3.08-3.04 3.06 3.06 0 0 0-3.07 3.04v1.82h-2.46V45.4a.6.6 0 0 0 .09-.76l-1.18-1.72h25.29l2.96 3.11a.62.62 0 0 0 .87.02.6.6 0 0 0 .02-.86l-2.98-3.13a.6.6 0 0 0 .13-.35v-.61h7.37v10.34H34.11v-1.82a3.06 3.06 0 0 0-3.07-3.04zm-8 4.86h-3.68v-1.82c0-1 .83-1.83 1.84-1.83 1.02 0 1.85.82 1.85 1.83v1.82zM17.53 27.7h4.91v5.47h-4.91V27.7zm11.06-17.66h-1.23V8.83h1.23v1.21zm-.25 1.22l2.19 6.09h-5l2.1-6.09h.71zm10.7 7.91l.15-.03c.07.17.12.36.14.57v.07h-7.67l-.07.02c.03-.23.1-.44.18-.63h7.27zm6.99 12.67c.32-.36.55-.73.7-1.1h7.06v4.87H46.4c-.06 0-.1.02-.16.03l-.53-.94-.01-.01a.59.59 0 0 0 .09-.3V32a.6.6 0 0 0 .23-.15zm3.45 11.07v-2.43c0-.34-.27-.61-.61-.61a.62.62 0 0 0-.2.04l-1.75-3.08h8.1v6.08h-5.54zm-8.6-5.48h1.73l.1.61h-1.83v-.6zm2.98 0h1.99l.35.61h-2.24l-.1-.6zm.96-1.82l.35.6h-1.5l-.1-.6h1.25zm-2.5 0l.1.6h-1.54v-.6h1.44zm-1.44 3.65h2.03l.1.61h-2.13v-.6zm3.37.61l-.1-.6h2.74l.34.6h-2.98zm.32-5.48h-3.69v-1.82h3.69v1.82zm-4.92-2.43v9.74H37.8V30.74c0-.34-.28-.61-.62-.61a.61.61 0 0 0-.61.6V41.7h-1.85V30.74c0-.34-.27-.61-.61-.61a.61.61 0 0 0-.62.6V41.7h-1.84V29.52h7.99v2.43zm-1.23-3.66h-6.14v-5.47h6.14v5.47zm.23-6.7H32.18c-.16-.2-.28-.4-.37-.6h7.22c-.1.2-.23.4-.39.6zm-7.6 6.7a.61.61 0 0 0-.62.61v9.74h-4.74c0-.06 0-.11-.02-.17l-1.46-4.42a.6.6 0 0 0 .08-.28c0-.33-.28-.6-.62-.6V27.7a.59.59 0 0 0-.1-.3.59.59 0 0 0 .1-.3c.15-.21.27-.42.37-.62h7v1.82zm-14.05 6.1h1.08l-.16.6H16.8l.19-.6zm2.36 0h1.34l.16.6H19.2l.16-.6zm4.46 2.43h-1.18l-.17-.61h1.15l.2.6zm-.8-2.44l.2.61h-1.07l-.17-.6h1.04zm-1.83 1.83l.16.6H18.7l.17-.6h2.3zm.49 1.82l.16.61h-3.62l.17-.6h3.29zm1.45.61l-.17-.6h1.26l.2.6h-1.3zm-6.7-2.43h1.16l-.16.6h-1.2l.2-.6zm-.58 1.82h1.25l-.16.61h-1.28l.2-.6zm14.58 1.83v1.83H13.75l-1.26-1.83h17.93zm-19.41 0l1.6 2.35-.01.08c0 .3.2.52.48.59l.01.02H8.8l2.09-3.04H11zm-3.06 4.26h5.88l.09-.02.43.63H7.54l.41-.61zm-.88 1.83h7.38v5.47H7.05l.01-5.47zm49.24 0h-6.84v-1.83h5.94l.9 1.83zM53.78 28.9v.61h-6.93c-.03-.2-.1-.4-.19-.6h7.12zm-6.76-1.21v-1.22h4.91v1.22h-4.91zm6.44-6.17c.06.61-.18 1.25-.68 1.9h-2a30 30 0 0 0 .88-1.16c.6-.83.96-1.59 1.15-2.03.25.24.59.68.65 1.3zm-1.59-2.1s-.02.01-.02.03c0 0-.35 1-1.15 2.14-.48.67-1.16 1.52-1.42 1.84h-.97c-.4-.85.02-1.6.96-2.71l1.77-2.14c.26.28.53.56.83.83zm-5.24.85a17.82 17.82 0 0 0 3.05-3.33c.12.17.32.43.58.74-.22.27-1.03 1.26-1.9 2.28-.65.78-1.68 2-1.3 3.46h-.75c-.44-.58-.65-1.15-.6-1.67.07-.72.6-1.24.92-1.48zm5.3 4.37v.61h-4.91v-.6h4.91zm-9.1 2c.43.51 1.16 1.3 2.05 1.96.26.2.72.61.77 1.14.04.4-.15.82-.55 1.28-.08.1-.12.2-.14.32h-4.09V28.9a.56.56 0 0 0-.04-.17c.86-.68 1.58-1.53 2-2.08zm-7.34-11.38c.46.54 1.5 1.71 2.64 2.69h-5.29a23.55 23.55 0 0 0 2.65-2.69zm-8.4-8.94c.41-.32.78-.65 1.05-.9.23.3.51.62.87.9.08.07.35.3.38.62.02.2-.06.42-.26.66h-2.22a.91.91 0 0 1-.2-.62c.03-.29.23-.53.38-.66zm-2.12 12.24h5.78c-.19.36-.3.74-.35 1.14-.08.79.15 1.6.66 2.37l-.02.14v3.04h-6.69v-.4a2.8 2.8 0 0 0-.41-1.16l.04-.11 1-5.02zm-7.4 5.27a17.53 17.53 0 0 0 2.65-2.73l.01-.02c.27.5 1.05 1.82 2.24 2.75.17.14.6.54.65 1.15.05.47-.13.97-.53 1.49h-5.26c-.8-1.28-.25-2.25.24-2.64zm-9.89 5.07h6.15v.61H7.68v-.6zm6.14-8.36c.21.16.7.6.77 1.27.05.51-.17 1.05-.63 1.61h-.75v-3.36c.2.16.4.33.61.48zm-1.8-1.6a.6.6 0 0 0-.04.22v4.26h-.61v-5.19c.19.21.41.46.66.71zm-1.88-.17v4.65h-.61V19.4l.61-.62zM8.2 20.55l.1-.08v2.96H7.9c-.4-.51-.6-1.02-.54-1.51.05-.5.36-1.02.83-1.37zm.1 4.1h4.92v3.05H8.3v-3.05zm-1.84 6.09h9.84v2.43a.61.61 0 0 0-.62.61c0 .12.05.23.1.33l-1.37 4.37-.01.17h-2.73l-.13-.19a.61.61 0 0 0-.6-.25.6.6 0 0 0-.57.25l-.13.2H6.45v-7.92zm2.94 9.13L8.14 41.7H5.22v-1.83H9.4zm-6.62 5.1l1.76-2.06H7.3l-1.17 1.72a.59.59 0 0 0-.1.28.6.6 0 0 0-.2.44l.02.03-.01 6.05H2.77v-6.47zm54.7 9.5H1.53V53.1c0-.17.38-.43.54-.45H57.35a.8.8 0 0 1 .11.45v1.38z"/>
                    <path d="M48.24 35c.34 0 .62-.27.62-.6v-1.83c0-.34-.28-.61-.62-.61a.61.61 0 0 0-.61.6v1.83c0 .34.27.61.61.61zM51.32 35c.34 0 .61-.27.61-.6v-1.83c0-.34-.27-.61-.61-.61a.61.61 0 0 0-.62.6v1.83c0 .34.28.61.62.61z"/>
                    <ellipse cx="20.23" cy="44.48" rx="1" ry="1"/>
                    <ellipse cx="23.39" cy="44.47" rx="1" ry="1"/>
                    <ellipse cx="26.7" cy="44.52" rx="1" ry="1"/>
                    <ellipse cx="29.85" cy="44.5" rx="1" ry="1"/>
                    <ellipse cx="33.21" cy="44.47" rx="1" ry="1"/>
                    <ellipse cx="36.37" cy="44.45" rx="1" ry="1"/>
                    <path d="M9.53 47.17a.61.61 0 0 0-.62.61v1.83c0 .33.28.6.62.6.34 0 .61-.27.61-.6v-1.83c0-.33-.27-.6-.61-.6zM11.98 47.17a.61.61 0 0 0-.61.61v1.83c0 .33.27.6.61.6.34 0 .62-.27.62-.6v-1.83c0-.33-.28-.6-.62-.6z"/>
                </g>
            </g>
            <g fill="#FFF" fill-rule="nonzero" mask="url(#russian-literatura-b)">
                <g transform="translate(13 67)">
                    <path d="M43.79 2.44h-1.45l-.1.01V.85a.76.76 0 0 0-.76-.75H24.86a3.1 3.1 0 0 0-2.35 1.07A3.1 3.1 0 0 0 20.15.1H3.51a.76.76 0 0 0-.75.75v1.6H1.22a.76.76 0 0 0-.76.75v22.83c0 .42.34.76.76.76h24.67v4.36a.76.76 0 0 0 1.3.52l1.34-1.44 1.34 1.43a.75.75 0 0 0 .83.2c.3-.12.48-.4.48-.71v-4.36h12.6c.42 0 .76-.34.76-.76V3.2a.76.76 0 0 0-.75-.76zm-1.55 21.24V3.94l.1.02h.69v21.31H31.18v-.83h10.3c.42 0 .76-.34.76-.76zM24.84 1.61h15.89v21.32H24.85c-.59 0-1.13.16-1.6.44V3.2c0-.88.72-1.6 1.6-1.6zm-20.57 0h15.88c.88 0 1.6.71 1.6 1.59v20.17a3.08 3.08 0 0 0-1.6-.45H4.27V1.62zm-2.3 2.34h.79v19.73c0 .42.34.76.75.76h16.64c.6 0 1.13.34 1.4.83H1.97V3.95zm21.48 21.32c.27-.5.8-.83 1.4-.83h1.04v.83h-2.44zm6.22 3.96l-.58-.62a.75.75 0 0 0-1.1 0l-.6.62v-4.8h2.28v4.8z"/>
                    <path d="M7.14 6.5h10.52a.76.76 0 1 0 0-1.51H7.14a.76.76 0 0 0 0 1.5zM7.14 9.76h10.52a.76.76 0 0 0 0-1.51H7.14a.76.76 0 0 0 0 1.51zM7.14 13.02h10.52a.76.76 0 1 0 0-1.51H7.14a.76.76 0 0 0 0 1.51zM7.14 16.28h10.52a.76.76 0 0 0 0-1.5H7.14a.76.76 0 0 0 0 1.5zM7.14 19.55h10.52a.76.76 0 0 0 0-1.52H7.14a.76.76 0 0 0 0 1.52zM27.34 19.55h10.52a.76.76 0 0 0 0-1.52H27.34a.76.76 0 1 0 0 1.52zM27.34 16.28h10.52a.76.76 0 0 0 0-1.5H27.34a.76.76 0 1 0 0 1.5zM27.34 13.02h10.52a.76.76 0 1 0 0-1.51H27.34a.76.76 0 0 0 0 1.51zM27.34 9.76h10.52a.76.76 0 0 0 0-1.51H27.34a.76.76 0 0 0 0 1.51zM27.34 6.5h10.52a.76.76 0 1 0 0-1.51H27.34a.76.76 0 0 0 0 1.5z"/>
                </g>
            </g>
            <g fill="#FFF" fill-rule="nonzero" mask="url(#russian-literatura-b)">
                <g transform="translate(124 20)">
                    <path d="M10.97 10.64H16v1.27c0 .5.4.9.9.9s.9-.4.9-.9v-1.27h.28a.91.91 0 0 0 0-1.82h-7.11a.91.91 0 0 0 0 1.82zM8.07 24h1.76v1.55c0 .5.41.9.9.9.5 0 .92-.4.92-.9V24h9.24a.91.91 0 0 0 0-1.82H8.07a.91.91 0 0 0 0 1.82z"/>
                    <path d="M20.98 25.5c-.5 0-.9.4-.9.9v6.96H8.87v-6.95c0-.5-.4-.91-.9-.91s-.91.4-.91.9v7.87c0 .5.4.91.9.91h13.01c.5 0 .9-.4.9-.9V26.4c0-.5-.4-.91-.9-.91z"/>
                    <path d="M28.27 6.4l-2.62-1.04a.9.9 0 0 0-.95.19l-2.27 2.27c-.59-.6-1.22-1.14-1.95-1.64v-.04A5.89 5.89 0 0 0 14.5.32c-3.3 0-5.98 2.59-5.98 5.82v.04c-.73.46-1.36 1-1.95 1.64L4.3 5.55a.84.84 0 0 0-.95-.19L.72 6.41c-.4.14-.63.59-.54 1l2.04 11.5c0 .09.05.14.1.23-.05.27-.05.54-.05.81v13.6c0 3.4 2.76 6.18 6.16 6.18h12.23c3.4 0 6.16-2.78 6.16-6.18V19.9c0-.27-.04-.55-.04-.82.04-.09.04-.14.09-.23l2.04-11.5c0-.4-.27-.81-.64-.95zM14.5 2.19a4.16 4.16 0 0 1 4.03 3.05 10.97 10.97 0 0 0-8.06 0 4.1 4.1 0 0 1 4.03-3.05zm0 4.1a9.16 9.16 0 0 1 9.1 8.27c-.85-.5-1.9-.78-2.98-.78H8.38a6.1 6.1 0 0 0-2.99.78 9.16 9.16 0 0 1 9.11-8.28zM2.08 7.81l1.36-.55 2 2a11.04 11.04 0 0 0-1.9 6.14c0 .18.04.36.13.5-.04.04-.09.09-.14.18L2.08 7.82zM24.97 33.5c0 2.4-1.95 4.36-4.35 4.36H8.38a4.36 4.36 0 0 1-4.35-4.36V19.9c0-2.4 1.95-4.35 4.35-4.35h12.24c2.4 0 4.35 1.95 4.35 4.36V33.5zm.45-17.4c-.05-.05-.09-.1-.14-.2.1-.13.14-.3.14-.5 0-2.26-.68-4.4-1.9-6.13l2-2 1.35.55-1.45 8.27z"/>
                </g>
            </g>
            <g fill="#FFF" fill-rule="nonzero" mask="url(#russian-literatura-b)">
                <g transform="translate(73 27)">
                    <path d="M32.35 36.16c-.83-6.09-2.44-10.83-6.49-13.38l.3-.55h1.95a4 4 0 0 0 2.99-1.28 4.13 4.13 0 0 0 1.18-3.06C32.04 8.05 25.1.35 16.5.35S.96 8.05.72 17.89a4.12 4.12 0 0 0 1.18 3.06 4 4 0 0 0 2.99 1.28h1.95l.33.6C2.83 25.57 1.4 30.67.67 36.04l-.14 1 .62.21a46.97 46.97 0 0 0 15.35 2.4 47 47 0 0 0 15.35-2.4l.62-.22-.12-.88zM7.3 17.48V8.82c.89.44 1.86.68 2.87.68 2.7 0 5.01-1.67 6.01-4.04a6.45 6.45 0 0 0 9.54 2.97v9.05a8.7 8.7 0 0 1-8.63 8.77h-1.16a8.7 8.7 0 0 1-8.63-8.77zm10-15.32c3.2.24 6.19 1.86 8.17 4.45a4.9 4.9 0 0 1-3.28 1.26 4.98 4.98 0 0 1-4.9-5.7zM7.23 6.9c1.86-2.59 4.71-4.3 7.83-4.68a4.98 4.98 0 0 1-4.9 5.66 4.86 4.86 0 0 1-2.93-.98zm22.72 12.92c-.5.53-1.1.79-1.84.79h-1.28c.3-.99.47-2.04.47-3.13V7.82a17.82 17.82 0 0 1 3.38 10.11c.02.74-.22 1.36-.73 1.89zM4.9 20.6c-.73 0-1.34-.26-1.84-.8a2.51 2.51 0 0 1-.74-1.88c.1-3.83 1.36-7.36 3.39-10.11v9.66c0 1.1.16 2.14.47 3.13H4.89zm2.42 4.04l1.46 7.4 3.49-.1 2.1 6.03A45.44 45.44 0 0 1 2.3 35.94c.73-5.09 2.02-9 5.02-11.3zm8.76 13.37l-2.7-7.73-3.3.1-1.03-5.25a10.1 10.1 0 0 0 6.88 2.73h1.16a10.1 10.1 0 0 0 7.08-2.91l-1.14 5.8-3.28-.1-2.91 7.37h-.76zm2.5-.03l2.24-5.67 3.51.1 1.5-7.64c2.9 2.31 4.16 6.17 4.89 11.16a45.44 45.44 0 0 1-12.15 2.05z"/>
                    <ellipse cx="11.83" cy="13.79" rx="1.04" ry="1.05"/>
                    <ellipse cx="21.2" cy="13.84" rx="1.04" ry="1.05"/>
                    <path d="M18.72 20.38a3.82 3.82 0 0 1-4.18 0 .8.8 0 0 0-1.1.29c-.23.38-.1.88.28 1.11.94.57 1.9.86 2.87.86.96 0 1.94-.28 2.92-.85a.82.82 0 0 0 .3-1.1.8.8 0 0 0-1.09-.31zM15.77 14.3c.45-.29.88-.35 1.5-.06a3.95 3.95 0 0 0 3.9 3.67 3.96 3.96 0 0 0 3.93-3.98c0-2.2-1.76-3.99-3.92-3.99-1.7 0-3.15 1.1-3.7 2.65a2.77 2.77 0 0 0-1.91.01 3.94 3.94 0 0 0-3.7-2.66 3.96 3.96 0 0 0-3.93 3.99c0 2.2 1.76 3.98 3.93 3.98 2.04 0 3.72-1.6 3.9-3.62zm5.4-2.74a2.35 2.35 0 0 1 2.34 2.37c0 1.3-1.05 2.36-2.33 2.36a2.35 2.35 0 0 1-2.33-2.36c0-1.3 1.05-2.37 2.33-2.37zM9.55 13.93c0-1.3 1.04-2.37 2.33-2.37a2.35 2.35 0 0 1 2.32 2.37c0 1.3-1.04 2.36-2.32 2.36a2.35 2.35 0 0 1-2.33-2.36z"/>
                </g>
            </g>
        </g>
        <rect width="276" height="207" fill="#FFF" opacity=".34"/>
    </g>
</svg>
