<svg xmlns="http://www.w3.org/2000/svg" width="276" height="207" viewBox="0 0 276 207">
    <g fill="none" fill-rule="evenodd">
        <rect width="276" height="207" fill="#724ABD"/>
        <g fill="#FFF" opacity=".43" transform="translate(51 55)">
            <path fill-rule="nonzero" d="M34.64 12.55l-1.08-.42a5.2 5.2 0 0 0-3.25-5.72L14.68.36a5.23 5.23 0 0 0-4.66.42A7.37 7.37 0 0 0 .5 4.9a7.25 7.25 0 0 0 4.17 9.41h.02a5.2 5.2 0 0 0 3.12 3.45L18 21.71v1.15l-8.25 14.3c-.29.5-.11 1.13.39 1.41s1.14.11 1.43-.38l6.43-11.15v6.48c0 .57.47 1.04 1.05 1.04.58 0 1.05-.47 1.05-1.04v-6.48l6.43 11.15a1.05 1.05 0 0 0 1.43.38c.5-.28.68-.92.39-1.41l-8.25-14.3v-.33l3.32 1.29a5.27 5.27 0 0 0 6.32-2.02l1.07.42a5.28 5.28 0 0 0 6.8-2.95 5.21 5.21 0 0 0-2.98-6.72zM2.46 5.65a5.25 5.25 0 0 1 5.87-3.2c-.17.27-.32.55-.44.85l-3.06 7.74c-.11.3-.2.6-.25.9a5.17 5.17 0 0 1-2.12-6.29zm32.08 12.32a3 3 0 0 1-3.82 1.66l-1.83-.71a.98.98 0 0 0-1.27.55 3 3 0 0 1-3.82 1.66L9.15 15.45a2.91 2.91 0 0 1-1.68-3.78l2.87-7.26a2.93 2.93 0 0 1 3.82-1.65l14.65 5.67a2.92 2.92 0 0 1 1.67 3.79c-.2.5.05 1.06.56 1.26l1.83.7a2.93 2.93 0 0 1 1.67 3.79z" transform="matrix(-1 0 0 1 105.045 61.29)"/>
            <path d="M13.02 20.96a11.7 11.7 0 0 0 14.36 0c.41.96.63 2 .64 3.06l-1.3 18.81a1.3 1.3 0 0 0 1.3 1.4h9.12c.67 0 1.23-.5 1.3-1.17l1.95-18.86.01-.14c0-7.02-3.63-13.42-9.46-17.08a11.73 11.73 0 0 0-21.47 0A20.14 20.14 0 0 0 0 24.06v.14l1.96 18.86a1.3 1.3 0 0 0 1.3 1.16h9.12a1.3 1.3 0 0 0 1.3-1.39l-1.3-18.81c0-1.07.23-2.1.64-3.06zm16.94 12.86l.66-9.67c0-1.87-.44-3.58-1.28-5.1a11.65 11.65 0 0 0 2.57-8.1A17.51 17.51 0 0 1 37.8 24l-1.02 9.82h-6.82zm-.18 2.6h6.73l-.54 5.2h-6.55l.36-5.2zm-25.89 0h6.74l.35 5.2H4.43l-.54-5.2zm-.27-2.6L2.61 24A17.51 17.51 0 0 1 8.5 10.95a11.65 11.65 0 0 0 2.57 8.1 10.35 10.35 0 0 0-1.3 5.01l.68 9.76H3.62zM20.2 2.6a9.11 9.11 0 1 1 .02 18.23A9.11 9.11 0 0 1 20.2 2.6zm-1.13 5.2l1.5 2.6h-2.98a1.3 1.3 0 0 0-1.13 1.95l2.6 4.55a1.3 1.3 0 0 0 2.27-1.29l-1.49-2.6h2.97c1 0 1.63-1.08 1.13-1.95l-2.6-4.55a1.3 1.3 0 0 0-2.27 1.29z" transform="translate(129.286)"/>
            <path fill-rule="nonzero" d="M24.1 16.59v-.92a1.85 1.85 0 1 1 3.7 0v5.53c0 1.02-.82 1.84-1.85 1.84a1.85 1.85 0 0 1-1.85-1.84v-.92H1.85A1.85 1.85 0 0 1 0 18.43c0-1.01.83-1.84 1.85-1.84H24.1zm14.83 0h22.24c1.03 0 1.86.83 1.86 1.84 0 1.02-.83 1.85-1.86 1.85H38.93v3.68c0 1.02-.83 1.85-1.86 1.85a1.85 1.85 0 0 1-1.85-1.85V12.9a1.85 1.85 0 1 1 3.7 0v3.69zM15.76 7.37a1.85 1.85 0 0 1-1.86-1.84c0-1.02.83-1.84 1.86-1.84h5.56c1.02 0 1.85.82 1.85 1.84s-.83 1.84-1.85 1.84h-5.56zM42.64 3.7V1.84a1.85 1.85 0 1 1 3.7 0V3.7h1.86c1.02 0 1.85.82 1.85 1.84s-.83 1.84-1.85 1.84h-1.86v1.85a1.85 1.85 0 1 1-3.7 0V7.37h-1.86a1.85 1.85 0 0 1-1.85-1.84c0-1.02.83-1.84 1.85-1.84h1.86z" transform="translate(117.973 67.742)"/>
            <path d="M31.5 0c.78 0 1.43.64 1.42 1.43l-.01 6.43c0 .78-.65 1.42-1.43 1.42H14.3a5 5 0 1 0 0 10h17.18c.8 0 1.44.64 1.43 1.43l-.01 6.42c0 .8-.65 1.43-1.43 1.43H14.3C6.4 28.56 0 22.16 0 14.28A14.3 14.3 0 0 1 14.3 0h17.2zm-9.32 25.7v-3.57H14.3a7.86 7.86 0 1 1 0-15.7h7.87V2.86H14.3a11.43 11.43 0 1 0 0 22.84h7.87zm2.86-19.27h5l.02-3.57h-5.02v3.57zm0 19.27h5l.02-3.57h-5.02v3.57zM41.49 20a1.43 1.43 0 1 1 0 2.85h-4.3a1.43 1.43 0 1 1 0-2.86h4.3zm5.72 4.99a1.43 1.43 0 1 1 0 2.85H37.2a1.43 1.43 0 1 1 0-2.85H47.2zM37.2 8.57a1.43 1.43 0 1 1 0-2.86H47.2a1.43 1.43 0 1 1 0 2.86H37.2zm0-5a1.43 1.43 0 1 1 0-2.86h4.29a1.43 1.43 0 1 1 0 2.86h-4.3z" transform="translate(0 64.516)"/>
            <path d="M21 41.94c-11.6 0-21-9.4-21-20.97C0 9.39 9.4 0 21 0c11.61 0 21.02 9.39 21.02 20.97 0 11.58-9.4 20.97-21.01 20.97zm0-2.47a18.52 18.52 0 0 0 18.55-18.5c0-10.22-8.3-18.5-18.54-18.5a18.52 18.52 0 0 0-18.54 18.5c0 10.22 8.3 18.5 18.54 18.5zm8-4.6A16 16 0 0 1 20.99 37a16 16 0 0 1-8.06-2.16l5.8-8.78a5.54 5.54 0 0 0 4.46.02l5.8 8.79zm8.03-14.3l-10.59-.64a5.54 5.54 0 0 0-2.16-3.4L29 7.1a16 16 0 0 1 8.03 13.46zm-32.08 0a16 16 0 0 1 7.97-13.43l4.72 9.42c-1.07.81-1.84 2-2.1 3.37l-10.6.63zM21 24.66a3.7 3.7 0 1 1 0-7.41 3.7 3.7 0 0 1 0 7.4z" transform="translate(4.04 1.613)"/>
            <g fill-rule="nonzero" transform="translate(66.259)">
                <path d="M39.76 11.25C39 9.94 37.2 8.37 33.04 8.37c-1.31 0-2.78.17-4.32.48C26.8 3.45 23.72 0 20.2 0c-3.52 0-6.59 3.45-8.52 8.85-1.54-.3-3-.48-4.32-.48-4.17 0-5.96 1.56-6.72 2.87-1.39 2.4-.5 5.82 2.5 9.62.43.54.91 1.08 1.41 1.63-.5.54-.98 1.08-1.4 1.63-3.01 3.8-3.9 7.21-2.5 9.61.76 1.31 2.54 2.88 6.7 2.88 1.33 0 2.79-.18 4.33-.48 1.93 5.4 5 8.85 8.52 8.85 3.53 0 6.6-3.45 8.52-8.86 1.55.31 3 .49 4.33.49 4.16 0 5.94-1.57 6.7-2.88 1.4-2.4.51-5.82-2.5-9.62-.41-.53-.88-1.07-1.38-1.6 3.93-4.25 5.54-8.41 3.89-11.26zm-19.56-9c2.3 0 4.7 2.63 6.35 7.11a43.98 43.98 0 0 0-6.35 2.29 43.45 43.45 0 0 0-6.34-2.29c1.64-4.48 4.04-7.11 6.34-7.11zm8.4 20.24c0 1.2-.05 2.35-.13 3.48a51.1 51.1 0 0 1-8.27 4.88 50.7 50.7 0 0 1-8.27-4.88 47.77 47.77 0 0 1 0-6.96 51.69 51.69 0 0 1 8.27-4.88 51.97 51.97 0 0 1 8.27 4.88c.08 1.12.14 2.27.14 3.48zm2.23-1.66c.65.55 1.27 1.1 1.85 1.66-.58.55-1.19 1.1-1.85 1.65l.03-1.65c0-.56-.02-1.1-.03-1.66zm-2.66 8.1a36.2 36.2 0 0 1-.95 4.55 39.3 39.3 0 0 1-4.32-1.46 52.95 52.95 0 0 0 5.27-3.1zm-10.66 3.1c-1.49.59-2.94 1.07-4.33 1.45-.39-1.4-.71-2.91-.95-4.56a53.88 53.88 0 0 0 5.28 3.1zm-7.94-7.89a38.6 38.6 0 0 1-1.85-1.65c.58-.56 1.2-1.11 1.85-1.66-.01.55-.03 1.1-.03 1.66 0 .56.02 1.1.03 1.65zm2.66-8.08c.24-1.65.56-3.17.95-4.56 1.4.37 2.84.86 4.32 1.45a56.17 56.17 0 0 0-5.27 3.1zm12.82-1.94c-.7-.41-1.43-.8-2.15-1.17a39.52 39.52 0 0 1 4.32-1.45c.39 1.39.71 2.9.95 4.55-1-.66-2.04-1.31-3.12-1.93zM2.6 12.37c.65-1.13 2.34-1.75 4.75-1.75 1.12 0 2.35.13 3.65.37-.57 2.08-1 4.36-1.24 6.82-1.32 1-2.53 2.03-3.63 3.08-.43-.48-.84-.95-1.21-1.42-2.36-2.98-3.2-5.57-2.32-7.1zm4.76 21.99c-2.42 0-4.1-.62-4.76-1.75-.89-1.53-.04-4.12 2.32-7.1.37-.47.78-.95 1.22-1.42a41.85 41.85 0 0 0 3.62 3.07c.24 2.46.67 4.75 1.24 6.82-1.3.25-2.53.38-3.64.38zm12.84 8.37c-2.3 0-4.7-2.63-6.34-7.12a44.1 44.1 0 0 0 6.35-2.28c2.16.97 4.3 1.73 6.34 2.28-1.65 4.49-4.04 7.12-6.35 7.12zM37.8 32.6c-.66 1.13-2.35 1.75-4.76 1.75-1.11 0-2.34-.13-3.64-.38.57-2.07 1-4.35 1.24-6.8a42.92 42.92 0 0 0 3.65-3.07c.42.46.83.93 1.2 1.4 2.35 2.98 3.2 5.57 2.3 7.1zm-3.54-11.73a42.2 42.2 0 0 0-3.62-3.07A39.88 39.88 0 0 0 29.4 11c1.3-.24 2.53-.37 3.64-.37 2.42 0 4.1.62 4.76 1.75 1.01 1.74-.3 4.96-3.54 8.51z"/>
                <path d="M20.59 18.61a3.5 3.5 0 1 0 0 7 3.5 3.5 0 0 0 0-7zm0 4.74a1.25 1.25 0 1 1 0-2.5 1.25 1.25 0 0 1 0 2.5z"/>
            </g>
        </g>
        <rect width="276" height="207" fill="#FFF" opacity=".54"/>
    </g>
</svg>
