<svg width="24" height="24" viewBox="0 0 24 24" fill="none" xmlns="http://www.w3.org/2000/svg">
<rect width="24" height="24" fill="white"/>
<path d="M21 10.875C21.6213 10.875 22.125 11.3787 22.125 12C22.125 12.6213 21.6213 13.125 21 13.125H3C2.37868 13.125 1.875 12.6213 1.875 12C1.875 11.3787 2.37868 10.875 3 10.875H21Z" fill="black"/>
<path d="M21 16.875C21.6213 16.875 22.125 17.3787 22.125 18C22.125 18.6213 21.6213 19.125 21 19.125H3C2.37868 19.125 1.875 18.6213 1.875 18C1.875 17.3787 2.37868 16.875 3 16.875H21Z" fill="black"/>
<path d="M21 4.875C21.6213 4.875 22.125 5.37868 22.125 6C22.125 6.62132 21.6213 7.125 21 7.125H3C2.37868 7.125 1.875 6.62132 1.875 6C1.875 5.37868 2.37868 4.875 3 4.875H21Z" fill="black"/>
</svg>
