<svg width="24" height="24" viewBox="0 0 24 24" fill="none" xmlns="http://www.w3.org/2000/svg">
<rect width="24" height="24" fill="white"/>
<path d="M19.163 17.5699C19.6024 18.0092 19.6024 18.7215 19.163 19.1609C18.7237 19.6002 18.0114 19.6002 17.572 19.1609L4.84412 6.43295C4.40478 5.99361 4.40478 5.2813 4.84412 4.84196C5.28346 4.40262 5.99577 4.40262 6.43511 4.84196L19.163 17.5699Z" fill="black"/>
<path d="M6.43502 19.1679C5.99568 19.6072 5.28337 19.6072 4.84403 19.1679C4.40469 18.7285 4.40469 18.0162 4.84403 17.5769L17.572 4.84895C18.0113 4.40961 18.7236 4.40961 19.1629 4.84895C19.6023 5.28829 19.6023 6.0006 19.1629 6.43994L6.43502 19.1679Z" fill="black"/>
</svg>
