<svg width="24" height="24" viewBox="0 0 24 24" fill="none" xmlns="http://www.w3.org/2000/svg">
<path fill="#2C2C2C" d="M15.4462 6.28552C15.4461 4.38218 13.9032 2.83923 11.9999 2.83923C10.0966 2.83931 8.55366 4.38222 8.55359 6.28552C8.55359 8.18889 10.0965 9.73174 11.9999 9.73181C13.9033 9.73181 15.4462 8.18893 15.4462 6.28552ZM17.6962 6.28552C17.6962 9.43158 15.1459 11.9818 11.9999 11.9818C8.85389 11.9817 6.30359 9.43153 6.30359 6.28552C6.30366 3.13958 8.85394 0.589309 11.9999 0.589233C15.1458 0.589233 17.6961 3.13953 17.6962 6.28552Z"/>
<path fill="#2C2C2C" d="M12 13.1607C17.0396 13.1607 21.125 17.2461 21.125 22.2857C21.125 22.907 20.6213 23.4107 20 23.4107H4C3.37868 23.4107 2.875 22.907 2.875 22.2857C2.875 17.2461 6.96041 13.1607 12 13.1607ZM12 15.4107C8.58624 15.4107 5.75475 17.899 5.21777 21.1607H18.7822C18.2453 17.899 15.4138 15.4107 12 15.4107Z"/>
</svg>
