<svg width="800" height="800" viewBox="0 0 800 800" fill="none" xmlns="http://www.w3.org/2000/svg">
<path fill-rule="evenodd" clip-rule="evenodd" d="M400 800C620.914 800 800 620.914 800 400C800 179.086 620.914 0 400 0C179.086 0 0 179.086 0 400C0 620.914 179.086 800 400 800ZM220 364.953C220 265.604 300.625 185 400 185C499.492 185 580 265.604 580 364.953C579.883 386.276 575.898 407.364 568.398 427.281L568.984 427.164C565.469 438.059 559.258 449.892 551.406 462.311C516.367 517.14 445.234 589.66 400 634.883V635H399.883C397.765 632.878 395.59 630.702 393.364 628.474C337.456 572.528 249.503 484.513 231.133 427.164L231.602 427.281C224.102 407.364 220.234 386.276 220 364.953ZM469.258 364.953C469.258 326.76 438.203 295.713 400 295.713C361.797 295.831 330.742 326.76 330.859 364.953C330.859 403.146 361.797 434.076 400 434.193C438.203 434.193 469.258 403.146 469.258 364.953Z" fill="#2C2C2C"/>
</svg>
