<svg width="800" height="800" viewBox="0 0 800 800" fill="none" xmlns="http://www.w3.org/2000/svg">
<path fill-rule="evenodd" clip-rule="evenodd" d="M400 800C620.914 800 800 620.914 800 400C800 179.086 620.914 0 400 0C179.086 0 0 179.086 0 400C0 620.914 179.086 800 400 800ZM350.516 325.654V463.544C359.631 458.878 368.635 454.283 377.494 449.762C416.264 429.978 452.233 411.625 482.372 394.929C469.762 388.191 457.7 381.59 445.786 375.07C415.285 358.377 385.758 342.218 350.516 325.654ZM585.437 234.423C600.777 237.29 615.185 245.95 623.639 257.075C652.995 303.241 655.494 511.423 618.836 548.033C609.597 557.05 597.885 563.198 584.652 565.501C441.034 576.308 249.779 572.02 212.655 564.35C199.398 561.679 187.857 555.723 179.428 547.073C172.885 540.53 167.69 530.563 163.671 516.743C154.115 484.813 141.691 287.701 181.339 250.944C190.748 242.294 201.702 236.727 214.003 234.423C259.066 225.847 540.349 225.871 585.437 234.423Z" fill="#393939"/>
</svg>
