<svg width="24" height="24" viewBox="0 0 24 24" fill="none" xmlns="http://www.w3.org/2000/svg">
<path d="M0.375 4.41699C0.375 3.93904 0.392385 3.46465 0.426758 2.99512C0.457061 2.58127 0.47325 2.02629 0.762695 1.52344L0.852539 1.37988C1.07725 1.05292 1.40072 0.772468 1.75293 0.602539C2.14787 0.412099 2.58076 0.379459 2.96191 0.375H6.91113C7.22925 0.377904 7.58816 0.399587 7.9209 0.527344C8.27105 0.661796 8.58301 0.880005 8.8291 1.16309C9.14079 1.52179 9.29175 1.98958 9.4209 2.34473L10.7812 6.08594C10.8691 6.32771 10.9568 6.56653 11.0156 6.77539C11.0782 6.99786 11.1307 7.26062 11.1113 7.55957C11.0838 7.98314 10.9393 8.39063 10.6943 8.73633C10.521 8.98095 10.3139 9.15173 10.125 9.28516C9.94771 9.41034 9.72939 9.54049 9.50879 9.67285L8.80762 10.0928C9.98844 12.2341 11.7656 14.0127 13.9062 15.1924L14.3271 14.4912L14.5234 14.167C14.5882 14.0626 14.6522 13.9637 14.7148 13.875C14.8482 13.6861 15.019 13.4791 15.2637 13.3057L15.3965 13.2188C15.7117 13.0266 16.0698 12.9128 16.4404 12.8887L16.6572 12.8867C16.8679 12.8963 17.0576 12.9374 17.2246 12.9844C17.4335 13.0432 17.6723 13.1309 17.9141 13.2188L21.6553 14.5791H21.6562C21.9668 14.692 22.3628 14.8221 22.6973 15.0615L22.8369 15.1709L22.9395 15.2656C23.1727 15.4948 23.3549 15.772 23.4727 16.0791L23.5283 16.2471C23.6074 16.5302 23.6226 16.8238 23.625 17.0889V21.0381C23.6205 21.4193 23.5881 21.8521 23.3975 22.2471L23.3965 22.2461C23.2024 22.6487 22.8644 23.0141 22.4766 23.2373C21.9737 23.5267 21.4187 23.5429 21.0049 23.5732C20.5352 23.6077 20.0608 23.625 19.583 23.625C8.9748 23.6248 0.375176 15.0252 0.375 4.41699ZM2.625 4.41699C2.62518 13.7825 10.2174 21.3748 19.583 21.375C20.0062 21.375 20.4258 21.3595 20.8408 21.3291C21.1137 21.3091 21.2447 21.2987 21.3379 21.2832C21.3462 21.2818 21.3535 21.2795 21.3594 21.2783C21.3605 21.2689 21.363 21.257 21.3643 21.2422C21.3737 21.1308 21.375 20.9763 21.375 20.6777V17.3906C21.375 17.1406 21.3747 17.0083 21.3682 16.9121C21.3672 16.8982 21.3651 16.8867 21.3643 16.8779C21.3566 16.8742 21.3469 16.8696 21.335 16.8643L20.8867 16.6934L17.1455 15.333C16.8725 15.2338 16.7249 15.1813 16.6152 15.1504C16.5995 15.146 16.5864 15.1431 16.5762 15.1406C16.5699 15.1489 16.562 15.1597 16.5527 15.1729C16.4871 15.2658 16.4053 15.3994 16.2559 15.6484L15.2979 17.2451C15.0039 17.735 14.3896 17.9271 13.8691 17.6914C10.5284 16.1784 7.82318 13.4698 6.30859 10.1318C6.07241 9.61131 6.26473 8.99624 6.75488 8.70215L8.35156 7.74414C8.60059 7.59473 8.73416 7.51292 8.82715 7.44727C8.84024 7.43802 8.85011 7.42915 8.8584 7.42285C8.85594 7.41282 8.85388 7.39992 8.84961 7.38477C8.83416 7.32991 8.81369 7.26543 8.78418 7.18066L8.66699 6.85449L7.30664 3.11328C7.22104 2.8779 7.17476 2.75326 7.13574 2.66504C7.13017 2.65244 7.12489 2.64265 7.12109 2.63477C7.11249 2.63391 7.10123 2.63274 7.08789 2.63184C6.99172 2.62534 6.85933 2.625 6.60938 2.625H3.32227C3.02374 2.625 2.86923 2.62628 2.75781 2.63574C2.7426 2.63704 2.73022 2.63847 2.7207 2.63965C2.71953 2.64566 2.71824 2.65341 2.7168 2.66211C2.70133 2.75529 2.69088 2.88626 2.6709 3.15918C2.64051 3.57419 2.625 3.99385 2.625 4.41699Z" fill="#2c2c2c"/>
</svg>
