<svg width="800" height="800" viewBox="0 0 800 800" fill="none" xmlns="http://www.w3.org/2000/svg">
<g clip-path="url(#clip0_3_9)">
<rect width="800" height="800" fill="white"/>
<path fill-rule="evenodd" clip-rule="evenodd" d="M400 800C620.914 800 800 620.914 800 400C800 179.086 620.914 0 400 0C179.086 0 0 179.086 0 400C0 620.914 179.086 800 400 800ZM434.822 384.784C435.354 394.376 436.038 406.682 445.111 410.094L445.092 410.074C451.186 412.289 461.264 400.012 467.685 392.189C468.377 391.347 469.026 390.556 469.623 389.841C486.795 368.371 503.358 339.561 515.624 311.341C516.122 310.233 516.615 309.121 517.108 308.007C522.08 296.787 527.097 285.462 537.702 278.214C542.529 274.358 563.258 274.672 583.82 274.983C589.423 275.068 595.014 275.152 600.267 275.152C603.673 275.152 607.454 275.034 611.397 274.912C629.466 274.349 650.945 273.68 655.472 283.748C660.317 294.66 647.802 316.922 642.178 326.925L641.97 327.296C630.535 346.598 618.474 362.355 606.151 378.454C597.325 389.985 588.365 401.691 579.405 415C578.715 415.949 578.013 416.886 577.318 417.814C573.069 423.485 569.07 428.823 569.593 434.625C569.593 444.285 578.534 453.011 586.939 461.212C588.13 462.375 589.311 463.528 590.454 464.671C595.714 469.93 600.192 474.293 604.244 478.24C616.265 489.949 624.533 498.003 638.3 514.97C645.659 524.174 657.944 540.109 656.708 551.158C654.863 565.269 637.691 570.175 613.769 570.783C610.914 570.903 608.041 571.034 605.164 571.166C578.367 572.391 551.087 573.639 532.815 565.877C521.424 561.123 511.502 550.503 502.194 540.54C499.475 537.63 496.809 534.777 494.174 532.142C489.268 525.999 483.753 520.485 477.003 513.734L477.002 513.733C475.875 512.606 474.769 511.397 473.654 510.178C468.691 504.753 463.544 499.126 455.532 499.623C443.875 500.231 440.814 512.497 438.36 524.763C437.455 529.291 437.049 534.405 436.651 539.426C435.971 548.004 435.313 556.309 432.218 560.951C418.107 579.968 348.203 565.857 332.248 560.951C275.826 543.171 247.017 509.435 216.343 467.124C183.216 421.751 156.231 373.905 131.092 319.328C130.14 317.303 129.027 315.209 127.881 313.055C123.123 304.106 117.815 294.125 121.279 283.748C125.808 274.175 145.649 274.118 163.468 274.066C167.347 274.055 171.131 274.044 174.64 273.936C196.109 273.327 218.188 273.935 230.453 282.531C236.318 286.59 239.535 295.307 243.024 304.759C244.275 308.148 245.561 311.632 247.017 315.03C258.065 339.561 272.784 364.721 287.503 384.954C288.283 386.058 289.069 387.203 289.869 388.368C296.619 398.199 304.325 409.421 316.94 408.877C326.125 407.66 329.814 377.595 329.814 354.908C329.814 335.283 329.814 311.38 322.455 300.331C319.091 295.123 312.81 292.822 307.368 290.828C301.921 288.832 297.315 287.145 297.315 283.159C297.315 277.645 304.675 271.522 312.034 267.832C319.394 264.143 329.815 262.318 338.41 261.081C369.065 259.236 419.363 258 429.784 271.502C439.335 286.223 437.524 313.861 435.745 341.003C434.782 355.689 433.829 370.23 434.69 382.501C434.736 383.24 434.779 384.003 434.822 384.784Z" fill="black"/>
</g>
<defs>
<clipPath id="clip0_3_9">
<rect width="800" height="800" fill="white"/>
</clipPath>
</defs>
</svg>
