<svg xmlns="http://www.w3.org/2000/svg" xmlns:xlink="http://www.w3.org/1999/xlink" width="258" height="184" viewBox="0 0 258 184">
    <defs>
        <path id="book-2-a" d="M12.28 184A128.5 128.5 0 0 1 0 129C0 57.76 57.76 0 129 0c71.24 0 129 57.76 129 129 0 19.67-4.4 38.32-12.28 55H12.28z"/>
        <path id="book-2-c" d="M100 136V16a8 8 0 0 1-8-8H15a8 8 0 0 1-8 8v120a8 8 0 0 1 8 8h77a8 8 0 0 1 8-8z"/>
    </defs>
    <g fill="none" fill-rule="evenodd">
        <mask id="book-2-b" fill="#fff">
            <use xlink:href="#book-2-a"/>
        </mask>
        <use fill="#FFE5C2" xlink:href="#book-2-a"/>
        <g mask="url(#book-2-b)">
            <g transform="translate(76 65)">
                <path fill="#FF7502" d="M0 0h100a8 8 0 0 1 8 8v136a8 8 0 0 1-8 8H0V0z"/>
                <rect width="8" height="152" fill="#000" opacity=".05"/>
                <g opacity=".32">
                    <use fill="#FF7502" xlink:href="#book-2-c"/>
                    <path stroke="#FFF" stroke-width="1.6" d="M99.2 135.24V16.76a8.8 8.8 0 0 1-7.96-7.96H15.76a8.8 8.8 0 0 1-7.96 7.96v118.48a8.8 8.8 0 0 1 7.96 7.96h75.48a8.8 8.8 0 0 1 7.96-7.96z"/>
                </g>
                <path fill="#FFF" d="M18.33 32.36c-.04.1-.13.13-.25.13-.18 0-.33-.09-.6-.09-.17 0-.25.11-.25.21v2.44l.07.17h.2l.1-.17c.1-.34.34-.93.63-1.25.48-.5 1.05-.52 1.37-.52h3.76c.61 0 1.09.33 1.36.65.32.36.52.9.6 1.21l.1.08h.2l.07-.1v-2.54c0-.06 0-.18-.23-.18-.1 0-.17.01-.25.04-.1.03-.16.05-.22.05-.07 0-.21-.03-.29-.2l-2.76-6.72c-.02-.06-.09-.22-.22-.22s-.19.13-.23.22l-3.16 6.79zm2.88-4.17l1.66 4.32H19.4l1.82-4.32zm5.58 4.45c0 .42.33.75.75.75s.75-.33.75-.75a.74.74 0 0 0-.75-.74.74.74 0 0 0-.75.74zm3.76-5l.08.09h.24l.12-.07c.28-.6.88-1.54 2.16-1.54.77 0 1.3.31 1.62.6.36.34.67.9.67 1.41 0 .65-.43.9-.8.9-.25 0-.52-.14-.85-.28a3 3 0 0 0-1.11-.27c-.7 0-1.45.47-1.72 1.04l.02.12.08.08.1.04a.78.78 0 0 1 .57-.26c.29 0 .6.17 1.04.37.27.12.63.27 1 .27.58 0 1.18-.33 1.75-.87h.07l.01.36c0 .43-.04 1.05-.28 1.6-.31.72-.98 1.56-2.41 1.56-1.1 0-1.97-.64-2.16-1.66l-.08-.1h-.28l-.08.15v1.7c0 .18.09.23.18.26.22.1.83.33 2.52.33 1.28 0 2.34-.28 3.26-1.14a3.83 3.83 0 0 0 1.21-2.89c0-.95-.33-1.9-.86-2.58a4 4 0 0 0-3.2-1.46c-.33 0-.66.03-1 .1-.92.17-1.01.37-1.27.37-.17 0-.15-.17-.16-.25-.02-.14-.06-.18-.22-.18-.12 0-.22.04-.22.16v2.04zm8.6 5c0 .42.33.75.75.75s.75-.33.75-.75a.74.74 0 0 0-.75-.74.74.74 0 0 0-.75.74zm2.97-6.74c.02.12.07.12.14.12.24 0 .63.08.81.28.14.16.15.37.15.55v5.17c0 .17 0 .38-.15.55-.18.2-.57.27-.81.27-.07 0-.12 0-.14.12v.2c0 .12.13.12.2.12.72 0 1-.1 1.75-.1.39 0 .5.01.8.04.28.02.79.06 1.24.06.06 0 .18 0 .18-.12v-.2c0-.12-.06-.12-.13-.12-.2 0-.81-.04-1.03-.24-.11-.1-.21-.29-.21-.58V27.5c0-.55 0-1.19 1.08-1.19.89 0 1.48.46 1.48 1.47 0 .52-.06 1.5-1.33 1.5-.3 0-.3-.03-.65-.09l-.1.05-.1.13-.03.15c.26.25.63.43 1.4.43 2.07 0 2.62-1.32 2.62-2.2 0-1.06-.62-2.18-3.1-2.18-.42 0-.96.04-1.33.07-.28.02-.4.04-.79.04-.76 0-1.03-.1-1.76-.1-.06 0-.19 0-.19.11v.2zm12.75 5.2c0-.83-.45-1.66-1.4-2.07a2.8 2.8 0 0 0-2.25 0 2.24 2.24 0 0 0 0 4.15 2.82 2.82 0 0 0 2.24 0c.93-.4 1.41-1.22 1.41-2.08zm-1.45 0c0 .55-.02 1.23-.38 1.58-.2.17-.44.26-.7.26a1 1 0 0 1-.69-.26c-.36-.35-.38-1.03-.38-1.58 0-.52.02-1.22.38-1.57.19-.17.44-.26.7-.26.26 0 .51.09.69.26.36.35.38 1.05.38 1.57zm5.03-.27c.72-.15.97-.64.97-1 0-.4-.31-1.04-1.66-1.04-.52 0-.8.08-1.02.15-.16.04-.27.06-.38.06-.17 0-.18-.08-.18-.16v-.05c0-.13-.1-.13-.14-.13-.04 0-.15 0-.15.17v1.27c0 .07.02.16.16.16.15 0 .2-.11.25-.23.12-.25.31-.47.51-.59.15-.1.4-.17.62-.17.41 0 .63.28.63.68 0 .18 0 .8-.79.8-.06 0-.14 0-.23-.02l-.09.1v.2l.09.12.2-.01h.1c.18 0 .4.03.6.18.24.21.28.48.28.7a.9.9 0 0 1-.17.6c-.23.32-.55.32-.87.32-.37 0-.54-.08-.67-.23v-.04a.46.46 0 0 0 .27-.42c0-.38-.34-.6-.66-.6-.36 0-.62.25-.62.6 0 .3.17.72.73.97.22.1.6.2 1.24.2.66 0 1.54-.16 1.91-.64.17-.22.25-.48.25-.73 0-.32-.13-.62-.35-.81-.2-.18-.55-.3-.83-.34v-.07zm6.08 1.86l-.1-.13-.17-.01c-.3.16-.7.31-1.11.31-1.3 0-1.6-1.16-1.57-1.93h2.72c.12 0 .3-.03.3-.4 0-.89-.63-1.74-1.9-1.74-.9 0-1.41.35-1.72.64-.42.4-.76 1-.76 1.8 0 1.13.67 2.18 2.4 2.18 1.2 0 1.77-.44 1.91-.56v-.16zm-2.95-2.3c.03-.55.38-1.12 1-1.12.79 0 .84.84.84 1.12h-1.84zm3.68-1.46c-.06 0-.1 0-.1.08v.1c0 .1.04.11.19.12.2.02.34.03.41.1.11.1.12.3.12.42v2.7c0 .13 0 .33-.12.43-.07.07-.22.08-.41.1-.15 0-.2.03-.2.12v.1c0 .08.05.08.1.08h.32c.53 0 .66-.1.95-.1.13 0 .27.03.53.06.22.02.29.04.39.04h.16c.06 0 .1 0 .1-.09v-.1c0-.1-.09-.1-.19-.12a.34.34 0 0 1-.27-.14c-.08-.1-.08-.26-.08-.37v-1.23h1.63v1.23c0 .1 0 .26-.08.37a.34.34 0 0 1-.27.14c-.1.02-.2.02-.2.13l.01.1c0 .08.04.08.1.08h.16c.1 0 .17-.02.39-.04.26-.03.4-.06.53-.06.3 0 .41.1.95.1h.31c.06 0 .1 0 .1-.09v-.1c0-.08-.04-.1-.19-.12-.2 0-.34-.02-.41-.1-.11-.1-.13-.3-.13-.41v-2.7c0-.13.02-.33.13-.43.07-.07.22-.08.41-.1.15 0 .2-.03.2-.12l-.01-.1c0-.08-.04-.08-.1-.08h-.3c-.53 0-.67.1-.96.1-.14 0-.27-.03-.53-.06-.22-.02-.29-.04-.39-.04h-.16c-.06 0-.1 0-.1.08v.1c0 .11.09.11.19.12.06 0 .18.03.27.15.08.1.08.26.08.37v.94h-1.63v-.94c0-.1 0-.26.08-.37.09-.12.2-.15.27-.15.1 0 .19 0 .19-.12v-.1c0-.08-.04-.08-.1-.08h-.16c-.1 0-.17.02-.39.04-.26.03-.4.06-.53.06-.3 0-.42-.1-.95-.1h-.31zm6.63 0c-.04 0-.15 0-.18-.14 0-.04-.02-.13-.14-.13-.1 0-.15.06-.15.16v.6l-.01.09-.11.65c-.03.1-.07.33.13.33.1 0 .14-.08.17-.13.1-.16.14-.28.28-.45.11-.15.38-.44.92-.44h.11v2.99c0 .12 0 .32-.12.42-.07.07-.22.08-.42.1-.14 0-.18.03-.18.12v.1c0 .08.04.08.1.08h.3c.11 0 .22-.02.43-.04.22-.02.39-.06.53-.06s.3.04.53.06c.2.02.32.04.43.04h.3c.06 0 .1 0 .1-.09v-.1c0-.08-.04-.1-.18-.12-.2 0-.34-.02-.42-.1-.1-.1-.12-.3-.12-.41v-3h.1c.55 0 .82.3.93.45.15.17.2.3.28.45.03.05.08.13.17.13.2 0 .16-.23.14-.33l-.11-.65-.01-.1v-.6c0-.1-.05-.15-.16-.15-.12 0-.13.1-.14.13-.02.14-.13.14-.18.14H71.9zm9.36 4.04l-.02-.06-.07-.03-.17.02c-.22 0-.5-.13-.5-.64v-1.9c0-1.47-1.36-1.57-1.9-1.57-1.03 0-1.86.21-1.86 1.02 0 .26.15.61.73.61.47 0 .68-.33.68-.6a.4.4 0 0 0-.21-.38c.09-.12.27-.17.46-.17s.39.05.52.14c.28.21.3.5.3.84v.52l-1.47.32c-.36.08-.7.17-.99.38-.32.23-.45.55-.45.9 0 1.02 1.04 1.04 1.45 1.04.39 0 .95-.07 1.66-.53.15.24.42.5 1 .5.47 0 .69-.13.83-.32l.01-.09zm-2.04-.6c-.27.26-.7.48-1.04.48a.55.55 0 0 1-.58-.58c0-.3.19-.6.54-.7l1.08-.33v1.13zm2.88.11c-.06.11-.2.3-.27.36-.2.21-.38.1-.4.26v.1c.02.05.04.08.14.08s.18-.03.3-.05a1.54 1.54 0 0 1 .81.02c.2.03.29.03.48.03.08 0 .13 0 .14-.07v-.1c0-.08-.06-.08-.17-.1-.1 0-.25-.04-.25-.21 0-.18.08-.3.1-.39l.75-2.02h.06l.68 2.1c.04.11.08.19.08.28 0 .17-.14.22-.37.22-.08 0-.2-.02-.2.1l.01.1c0 .1.04.1.1.1h.2c.18 0 .36-.03.55-.06.1-.02.2-.05.32-.05.1 0 .22.03.48.06.2.02.32.04.58.04.11 0 .16 0 .18-.1v-.1c-.01-.1-.08-.08-.16-.1-.14 0-.24-.08-.34-.24a1.69 1.69 0 0 1-.16-.35l-1.44-3.58c-.02-.07-.07-.2-.23-.2-.12 0-.2.05-.27.23l-1.7 3.64zm6.97-1.56v.1l.02.04c.06.07.11.08.21.08.2 0 .17-.02.3-.02.18 0 .67.05.67.79 0 .3-.05.89-.77.89-.7 0-.7-.54-.7-.9v-2.15c0-.12 0-.32.12-.42.07-.07.22-.08.42-.1.14 0 .18-.03.18-.12v-.1c0-.08-.04-.08-.1-.08h-.3c-.11 0-.22.02-.43.04-.22.02-.39.06-.53.06s-.3-.04-.53-.06c-.2-.02-.32-.04-.43-.04h-.3c-.06 0-.1 0-.1.08v.1c0 .1.04.11.18.12.2.02.34.03.42.1.1.1.12.3.12.42v2.7c0 .13-.01.3-.13.41-.08.07-.22.1-.54.11-.14.02-.19.04-.19.13v.1c0 .08.05.08.1.08h.3c.26 0 .4-.02.57-.04a2.51 2.51 0 0 1 1.06 0c.17.02.3.04.61.04h.49c.41 0 .98-.02 1.37-.33.29-.22.47-.58.47-1 0-.6-.41-1.29-1.62-1.29-.6 0-.8.1-.92.21l-.02.05z" opacity=".6"/>
                <path fill="#FFF" d="M25.92 59.86h.28c.05 0 .1-.05.1-.1v-2.57c0-.14-.12-.2-.26-.2-.18 0-.23.06-.26.22-.01.1.01.3-.18.3-.14 0-.4-.16-.83-.3a5.65 5.65 0 0 0-5.06.75 4.79 4.79 0 0 0-1.87 3.98c0 1.87.88 2.96 1.66 3.55 1.24.92 2.82 1 4.03 1 .78 0 2.22-.07 2.8-.38.18-.1.22-.2.22-.34v-2.45c0-.1-.02-.16-.13-.16h-.28c-.06 0-.1.04-.11.1a3.58 3.58 0 0 1-.98 1.88c-.52.46-1.01.53-1.5.53a3.3 3.3 0 0 1-2.54-1c-.73-.8-.9-1.78-.9-2.86 0-.91.12-2.04.78-2.9.4-.52 1.1-1.1 2.33-1.1.5 0 1.16.09 1.73.63.38.37.67.92.83 1.34.03.07.08.08.14.08zm7.41 2.23c0-.14.02-.37.15-.49.09-.1.26-.1.5-.12.16-.01.21-.04.21-.14v-.12c0-.1-.05-.1-.12-.1h-6.26c-.07 0-.12 0-.12.1v.12c0 .1.05.13.22.14.24.02.4.03.5.12.13.12.14.35.14.5v3.2c0 .14-.01.37-.14.49-.1.09-.26.1-.5.11-.17.02-.22.04-.22.15v.11c0 .1.05.1.12.1h.36c.64 0 .78-.11 1.13-.11.16 0 .32.03.63.07.26.02.34.05.45.05h.2c.06 0 .11 0 .11-.1v-.12c0-.13-.1-.13-.22-.15a.4.4 0 0 1-.32-.17c-.1-.13-.1-.3-.1-.44v-3.53h1.78v3.53c0 .13 0 .31-.1.44a.4.4 0 0 1-.32.17c-.12.02-.22.02-.22.15v.11c0 .1.05.1.12.1h.2l.45-.04c.3-.04.46-.07.62-.07.35 0 .5.12 1.13.12h.36c.07 0 .12 0 .12-.1v-.12c0-.1-.05-.13-.22-.15-.23-.01-.4-.02-.5-.11-.12-.12-.14-.35-.14-.5v-3.2zm3.75 4.14c.39.17.7.2 1.1.2.73 0 1.6-.14 2.24-.9.5-.59.6-1.28.6-1.94 0-.6-.04-1.38-.56-1.92a2.87 2.87 0 0 0-1.98-.7c-.38 0-.83.05-1.4.36-.03-.13-.12-.4-.33-.4-.15 0-.3.07-.65.12-.24.04-.76.07-.97.07h-.3c-.07 0-.12 0-.12.1v.12c0 .1.05.13.22.14.24.02.4.03.5.12.13.12.14.35.14.5v6.2c0 .15-.01.39-.14.5-.1.1-.26.1-.5.12-.17.01-.22.04-.22.14v.12c0 .1.05.1.12.1h.36c.13 0 .26-.02.51-.05.26-.02.45-.06.62-.06.19 0 .35.04.61.06.33.04.52.05.68.05h.36c.07 0 .12 0 .12-.1v-.12c0-.1-.05-.14-.22-.14-.18 0-.47.01-.65-.16-.14-.14-.14-.32-.14-.45v-2.08zm0-4.34c.22-.22.48-.34.9-.34 1.53 0 1.44 1.53 1.44 2.22 0 .9-.05 2.1-1.42 2.1-.43 0-.7-.12-.92-.34v-3.64zm10.46 4.01l-.02-.07-.08-.04-.2.02c-.27 0-.6-.15-.6-.75v-2.24c0-1.74-1.6-1.86-2.24-1.86-1.23 0-2.2.25-2.2 1.2 0 .31.18.73.86.73.56 0 .8-.4.8-.72a.48.48 0 0 0-.24-.44c.1-.14.32-.2.54-.2.22 0 .46.06.61.16.34.25.35.6.35.99v.62l-1.72.38c-.43.1-.84.2-1.17.44-.38.28-.54.65-.54 1.07 0 1.2 1.22 1.23 1.72 1.23.45 0 1.12-.09 1.96-.63.17.28.5.58 1.18.58.55 0 .81-.14.98-.36l.01-.1zm-2.42-.71c-.3.31-.81.57-1.22.57a.66.66 0 0 1-.69-.69c0-.36.22-.7.64-.83l1.27-.4v1.35zm3-4.07c-.06 0-.1 0-.1.1l-.01.12c0 .1.05.13.22.14.24.02.4.03.5.12.13.12.14.35.14.5v3.2c0 .14-.01.37-.14.49-.1.09-.26.1-.5.11-.17.02-.22.04-.22.15v.11c0 .1.05.1.12.1h.36c.17 0 .34-.02.5-.06.16-.02.33-.05.6-.05.7 0 .6.1 1.53.12 1.2.02 1.67-.15 1.92-.28.35-.18.77-.55.77-1.18 0-.43-.16-.77-.52-.99a2.6 2.6 0 0 0-1.04-.3v-.09c.26-.04.65-.17.87-.35a.97.97 0 0 0 .35-.74c0-.4-.23-1.22-1.61-1.22h-3.73zm2.26.62c.36-.06.54-.06.58-.06.5 0 .91.23.91.82 0 .39-.2.58-.39.67-.18.1-.45.1-.69.07l-.06.13v.2l.05.16c.23-.02.77.02 1 .16.34.2.36.58.36.77 0 1.04-.75 1.05-1.02 1.05-.26 0-.74-.03-.74-.56v-3.4zm10 1.95c0-.98-.53-1.96-1.66-2.45a3.32 3.32 0 0 0-2.65 0 2.65 2.65 0 0 0 0 4.91 3.33 3.33 0 0 0 2.65 0 2.66 2.66 0 0 0 1.67-2.46zm-1.71 0c0 .65-.03 1.45-.45 1.86-.23.21-.52.31-.82.31-.3 0-.61-.1-.82-.3-.43-.42-.46-1.22-.46-1.87 0-.62.03-1.44.46-1.86.22-.2.52-.3.82-.3.3 0 .6.1.82.3.42.42.45 1.24.45 1.86zm7.7-1.6c0-.14 0-.37.14-.49.09-.1.26-.1.5-.12.16-.01.21-.04.21-.14v-.12c0-.1-.05-.1-.11-.1h-.37c-.13 0-.26.03-.5.05-.34.04-.46.07-.63.07-.2 0-.4-.04-.65-.08a5.1 5.1 0 0 0-.6-.04c-.06 0-.11 0-.11.1v.12c0 .12.09.13.2.14.07.02.21.03.32.17.09.13.09.31.09.44v1.42c-.24.12-.46.17-.72.17-.9 0-.9-.68-.9-.94v-.65c0-.13 0-.3.1-.44s.24-.15.32-.17c.1-.01.2-.02.2-.14v-.12c0-.1-.05-.1-.12-.1-.2 0-.36.01-.6.04-.24.04-.45.08-.65.08-.17 0-.28-.03-.62-.07-.25-.02-.38-.05-.5-.05H61c-.07 0-.12 0-.12.1v.12c0 .1.05.13.22.14.24.02.4.03.5.12.13.12.14.35.14.5v.5c0 .5.1 1.64 2.08 1.64.45 0 .73-.07 1.04-.18v1.23c0 .1.01.35-.16.5-.11.1-.3.1-.63.11-.17.02-.23.04-.23.15v.11c0 .1.06.1.12.1h.33c1.14 0 .26-.11 1.32-.11.29 0 .89.12 1.13.12h.37c.06 0 .11 0 .11-.1v-.12c0-.1-.05-.13-.22-.15-.23-.01-.4-.02-.49-.11-.13-.12-.14-.35-.14-.5v-3.2zm1.6-.97c-.07 0-.12 0-.12.1v.12c0 .1.05.13.22.14.23.02.4.03.5.12.12.12.14.35.14.5v3.2c0 .14-.02.37-.15.49-.09.09-.26.1-.49.11-.17.02-.22.04-.22.15v.11c0 .1.05.1.12.1h.36c.64 0 .78-.11 1.13-.11.16 0 .31.03.62.07.26.02.34.05.46.05h.2c.06 0 .11 0 .11-.1v-.12c0-.13-.1-.13-.22-.15a.4.4 0 0 1-.32-.17c-.1-.13-.1-.3-.1-.44v-1.45h1.93v1.45c0 .13 0 .31-.1.44a.4.4 0 0 1-.32.17c-.11.02-.22.02-.22.15v.11c0 .1.05.1.12.1h.2l.45-.04c.31-.04.47-.07.62-.07.35 0 .5.12 1.13.12h.37c.06 0 .11 0 .11-.1v-.12c0-.1-.05-.13-.22-.15-.23-.01-.4-.02-.49-.11-.13-.12-.14-.35-.14-.5v-3.2c0-.14 0-.37.14-.49.09-.1.26-.1.5-.12.16-.01.21-.04.21-.14v-.12c0-.1-.05-.1-.11-.1h-.37c-.62 0-.78.12-1.13.12-.15 0-.3-.03-.62-.07-.26-.02-.34-.05-.46-.05h-.2c-.06 0-.1 0-.1.1v.12c0 .13.1.13.21.14a.4.4 0 0 1 .33.17c.09.13.09.31.09.44v1.1H70.2v-1.1c0-.13 0-.3.1-.44a.4.4 0 0 1 .32-.17c.12-.01.22-.01.22-.14v-.12c0-.1-.05-.1-.12-.1h-.2c-.1 0-.19.03-.45.05-.3.04-.46.07-.62.07-.35 0-.5-.12-1.13-.12h-.36zm12.75.9c0-.28.08-.42.27-.63.12-.1.2-.15.2-.27 0-.13-.1-.26-.29-.26-.26 0-.5.26-.66.43l-2.82 2.88V62.1c0-.14.01-.37.14-.49.09-.1.26-.1.5-.12.16-.01.21-.04.21-.14v-.12c0-.1-.05-.1-.11-.1h-.37c-.13 0-.26.03-.5.05-.26.03-.46.07-.63.07-.17 0-.36-.04-.62-.07-.25-.02-.38-.05-.5-.05h-.37c-.07 0-.12 0-.12.1v.12c0 .1.05.13.22.14.24.02.4.03.5.12.13.12.14.35.14.5v4.2c0 .07 0 .21.15.21.13 0 .24-.07.29-.14l2.86-3.07v2c0 .14-.01.37-.14.49-.1.09-.26.1-.5.11-.17.02-.22.04-.22.15v.11c0 .1.05.1.12.1h.36c.13 0 .26-.02.51-.04.26-.03.46-.07.62-.07.17 0 .37.04.63.07.25.02.38.05.5.05h.37c.06 0 .12 0 .12-.1v-.12c0-.1-.06-.13-.22-.15-.24-.01-.4-.02-.5-.11-.13-.12-.14-.35-.14-.5v-3.27zm4.51 4.25c.06 0 .12 0 .12-.1v-.12c0-.1-.06-.13-.22-.15-.24-.01-.4-.02-.5-.11-.13-.12-.14-.35-.14-.5v-1.41c.66 0 .88.46 1.13.92.18.34.48.8.74 1.06.44.46.92.56 1.33.56.2 0 .46-.06.63-.11.24-.08.38-.21.46-.29l.02-.14-.07-.12-.1-.01c-.1.05-.23.09-.3.09-.23 0-.38-.17-.58-.5-.23-.36-.47-.81-.9-1.18-.41-.32-.93-.53-1.4-.6v-.05c.27-.17.53-.4.77-.74.2-.32.32-.62.41-.86.06-.14.1-.24.25-.3h.08c.08.12-.05.1-.05.35 0 .38.27.7.75.7.5 0 .75-.42.75-.79 0-.35-.3-.9-1.2-.9-.51 0-.84.15-1.04.3-.37.3-.5.66-.7 1.06-.11.25-.47.93-.98.9V62.1c0-.14.01-.37.14-.49.1-.1.26-.1.5-.12.16-.01.22-.04.22-.14v-.12c0-.1-.06-.1-.12-.1h-.36c-.13 0-.26.03-.51.05-.26.03-.46.07-.63.07-.16 0-.36-.04-.62-.07-.25-.02-.38-.05-.5-.05h-.37c-.07 0-.12 0-.12.1v.12c0 .1.05.13.22.14.24.02.4.03.5.12.13.12.14.35.14.5v3.2c0 .14-.01.37-.14.49-.1.09-.26.1-.5.11-.17.02-.22.04-.22.15v.11c0 .1.05.1.12.1h.36l.51-.04c.34-.04.46-.07.62-.07.25 0 .46.12 1.14.12h.36zm-61.74 9.82c0-.14.02-.37.15-.49.09-.1.26-.1.49-.12.17-.01.22-.04.22-.14v-.12c0-.1-.05-.1-.12-.1h-6.26c-.07 0-.12 0-.12.1v.12c0 .1.05.13.22.14.24.02.4.03.5.12.13.12.14.35.14.5v3.2c0 .14-.01.37-.14.49-.1.09-.26.1-.5.11-.17.02-.22.04-.22.15v.11c0 .1.05.1.12.1h.36c.64 0 .78-.11 1.13-.11.16 0 .31.03.63.07.26.02.33.05.45.05h.2c.06 0 .11 0 .11-.1v-.12c0-.13-.1-.13-.22-.15a.4.4 0 0 1-.32-.17c-.1-.13-.1-.3-.1-.44v-3.53h1.77v3.53c0 .13 0 .31-.09.44a.4.4 0 0 1-.32.17c-.12.02-.22.02-.22.15v.11c0 .1.05.1.11.1h.2c.12 0 .2-.02.45-.04.32-.04.47-.07.63-.07.35 0 .5.12 1.13.12h.36c.07 0 .12 0 .12-.1v-.12c0-.1-.05-.13-.22-.15-.23-.01-.4-.02-.5-.11-.12-.12-.14-.35-.14-.5v-3.2zm7.52 1.6c0-.98-.54-1.96-1.67-2.45a3.32 3.32 0 0 0-2.65 0 2.65 2.65 0 0 0 0 4.91 3.33 3.33 0 0 0 2.65 0 2.66 2.66 0 0 0 1.67-2.46zm-1.72 0c0 .65-.03 1.45-.45 1.86-.23.21-.52.31-.82.31-.3 0-.61-.1-.82-.3-.43-.42-.46-1.22-.46-1.87 0-.62.03-1.44.46-1.86.22-.2.52-.3.82-.3.3 0 .6.1.82.3.42.42.45 1.24.45 1.86zm7.68 2.54c.4.17.7.2 1.1.2.74 0 1.6-.14 2.24-.9.51-.59.62-1.28.62-1.94 0-.6-.06-1.38-.58-1.92a2.87 2.87 0 0 0-1.97-.7c-.38 0-.83.05-1.4.36-.03-.13-.12-.4-.33-.4-.16 0-.3.07-.65.12-.25.04-.77.07-.98.07h-.3c-.06 0-.11 0-.11.1v.12c0 .1.05.13.22.14.23.02.4.03.5.12.12.12.14.35.14.5v6.2c0 .15-.02.39-.15.5-.09.1-.26.1-.5.12-.16.01-.21.04-.21.14v.12c0 .1.05.1.11.1h.37c.13 0 .26-.02.5-.05.27-.02.46-.06.63-.06.18 0 .35.04.61.06.33.04.52.05.68.05h.36c.07 0 .12 0 .12-.1v-.12c0-.1-.05-.14-.22-.14-.19 0-.47.01-.65-.16-.15-.14-.15-.32-.15-.45v-2.08zm0-4.34c.22-.22.48-.34.91-.34 1.52 0 1.43 1.53 1.43 2.22 0 .9-.05 2.1-1.41 2.1-.43 0-.7-.12-.93-.34v-3.64zm8.39 3.26l-1.29-3c-.05-.12-.12-.24-.12-.4 0-.23.17-.27.3-.28.16-.01.22-.01.22-.14v-.12c-.02-.06-.07-.1-.23-.1-.38 0-.97.13-1.23.13-.17 0-.37-.03-.62-.07-.28-.02-.48-.05-.72-.05-.15 0-.21.01-.25.13v.12c.08.23.44-.1.75.53l2.51 4.98c-.09.38-.2.73-.41 1.17-.17.36-.46.88-.98.88a.45.45 0 0 1-.27-.08v-.03c.3-.1.48-.34.48-.7 0-.49-.4-.7-.78-.7-.47 0-.82.38-.82.88 0 .6.5 1.2 1.35 1.2.64 0 .99-.32 1.28-.78.07-.13.28-.48.7-1.5l2.1-5.09c.1-.24.3-.56.55-.66.1-.04.16-.04.2-.14v-.12c-.02-.05-.04-.1-.2-.1-.48 0-.61.13-1.01.13-.2 0-.4-.03-.59-.07-.14-.02-.3-.05-.45-.05-.12 0-.17.01-.22.12v.11c0 .16.13.1.3.13.35.03.48.26.48.43 0 .12-.04.34-.1.48l-.93 2.76zm7.86.52l-.1-.13-.17-.01c-.36.2-.7.27-1.07.27-1.23 0-1.87-1.01-1.87-2.16 0-1.38.67-2.17 1.52-2.17.21 0 .34.04.46.12a.87.87 0 0 0-.5.75c0 .34.28.69.76.69.62 0 .86-.53.86-.87 0-.48-.28-1.2-1.6-1.2-1.8 0-3.15 1.17-3.15 2.97 0 2.08 1.72 2.5 2.81 2.5 1.34 0 1.78-.3 2.04-.58l.01-.18zm5.6 0l-.11-.13-.17-.01c-.36.2-.7.27-1.07.27-1.23 0-1.87-1.01-1.87-2.16 0-1.38.67-2.17 1.52-2.17.21 0 .34.04.46.12a.87.87 0 0 0-.5.75c0 .34.28.69.76.69.62 0 .86-.53.86-.87 0-.48-.28-1.2-1.6-1.2-1.8 0-3.15 1.17-3.15 2.97 0 2.08 1.72 2.5 2.81 2.5 1.34 0 1.78-.3 2.04-.58l.01-.18zm3.78.6c.06 0 .11 0 .11-.1v-.12c0-.1-.05-.13-.22-.15-.23-.01-.4-.02-.5-.11-.12-.12-.13-.35-.13-.5v-1.41c.66 0 .88.46 1.13.92.18.34.48.8.74 1.06.44.46.92.56 1.32.56.2 0 .47-.06.64-.11.23-.08.38-.21.46-.29l.02-.14-.08-.12-.1-.01c-.1.05-.22.09-.3.09-.22 0-.38-.17-.57-.5-.24-.36-.47-.81-.91-1.18-.4-.32-.92-.53-1.4-.6v-.05c.28-.17.54-.4.77-.74.21-.32.33-.62.42-.86.05-.14.1-.24.25-.3h.08c.07.12-.06.1-.06.35 0 .38.28.7.76.7.5 0 .75-.42.75-.79 0-.35-.3-.9-1.2-.9-.51 0-.84.15-1.05.3-.36.3-.5.66-.69 1.06-.11.25-.48.93-.98.9V76.1c0-.14 0-.37.14-.49.09-.1.26-.1.5-.12.16-.01.21-.04.21-.14v-.12c0-.1-.05-.1-.11-.1h-.37c-.13 0-.26.03-.5.05-.26.03-.46.07-.63.07-.17 0-.36-.04-.62-.07-.25-.02-.38-.05-.5-.05h-.37c-.07 0-.12 0-.12.1v.12c0 .1.05.13.22.14.23.02.4.03.5.12.12.12.14.35.14.5v3.2c0 .14-.02.37-.15.49-.09.09-.26.1-.49.11-.17.02-.22.04-.22.15v.11c0 .1.05.1.12.1h.36l.5-.04c.35-.04.46-.07.63-.07.25 0 .46.12 1.13.12h.37zm10.15-2.58c0-.98-.53-1.96-1.66-2.45a3.32 3.32 0 0 0-2.66 0 2.65 2.65 0 0 0 0 4.91 3.33 3.33 0 0 0 2.65 0 2.66 2.66 0 0 0 1.67-2.46zm-1.72 0c0 .65-.02 1.45-.45 1.86-.22.21-.52.31-.82.31-.3 0-.61-.1-.82-.3-.43-.42-.45-1.22-.45-1.87 0-.62.02-1.44.45-1.86.22-.2.52-.3.82-.3.31 0 .61.1.82.3.43.42.45 1.24.45 1.86zm6.56.4l-1.54-2.97c-.2.03-.8.12-1.06.12-.25 0-.51-.06-.82-.08-.28-.04-.45-.04-.6-.04-.07 0-.12 0-.12.1v.12c-.01.13.13.13.22.13.46 0 .61.1.68.14.15.15.14.34.14.48l-.1 3.2c-.02.29-.1.42-.17.48-.13.12-.46.15-.57.15-.1 0-.24-.02-.22.13v.11c0 .1.05.1.11.1h.26c.16 0 .3-.02.46-.04.15-.03.3-.07.45-.07.2 0 .38.04.51.08.1.01.22.04.4.04h.29c.06 0 .12 0 .12-.1v-.12c0-.15-.13-.12-.23-.13-.1-.02-.33-.08-.42-.15-.2-.14-.17-.32-.17-.48l-.08-3.17h.05l1.87 3.94c.04.08.1.2.25.2.13 0 .18-.1.22-.2l1.68-3.98h.08v3.21c0 .15-.02.38-.15.5-.09.09-.26.1-.5.11-.16.02-.21.04-.21.15v.11c0 .1.05.1.11.1h.37l.5-.03c.32-.03.45-.08.63-.08s.34.05.64.08c.27.01.37.04.49.04h.36c.07 0 .12 0 .12-.1v-.12c0-.1-.05-.13-.22-.15-.23-.01-.4-.02-.5-.11-.12-.12-.14-.35-.14-.5v-3.2c0-.14.02-.37.15-.49.09-.1.26-.1.49-.12.17-.01.22-.04.22-.14v-.12c0-.1-.05-.1-.12-.1-.6-.01-.85.12-1.48.12-.53 0-.35-.08-1.15-.12l-1.3 2.98zm8.43 1.06l-1.28-3c-.06-.12-.12-.24-.12-.4 0-.23.17-.27.3-.28.15-.01.22-.01.22-.14v-.12c-.03-.06-.08-.1-.24-.1-.37 0-.97.13-1.23.13-.17 0-.36-.03-.61-.07-.29-.02-.48-.05-.73-.05-.14 0-.2.01-.25.13v.12c.08.23.45-.1.76.53l2.5 4.98c-.08.38-.2.73-.41 1.17-.17.36-.45.88-.97.88a.45.45 0 0 1-.28-.08v-.03c.3-.1.48-.34.48-.7 0-.49-.4-.7-.78-.7-.46 0-.82.38-.82.88 0 .6.5 1.2 1.36 1.2.63 0 .98-.32 1.27-.78.08-.13.29-.48.7-1.5l2.1-5.09c.11-.24.3-.56.55-.66.1-.04.16-.04.2-.14v-.12c-.01-.05-.04-.1-.2-.1-.48 0-.6.13-1.01.13-.2 0-.39-.03-.58-.07-.15-.02-.3-.05-.46-.05-.12 0-.17.01-.22.12v.11c.01.16.13.1.31.13.34.03.47.26.47.43 0 .12-.04.34-.1.48l-.93 2.76zm-48.2 12.71a2.4 2.4 0 0 0-1.77 1.37c-.1.2-.27.56-.55.56-.2 0-.24-.13-.41-.03l-.08.1c-.04.4.62.54 1.03.54.65 0 1.14-.26 1.64-.86.57-.69.44-.9.79-1.4.15-.23.15-.12.4-.33l.03-.12v-.09l-.05-.11a.77.77 0 0 0-.25-.07c-.13 0-.3.01-.53-.12a.76.76 0 0 1-.4-.71c0-.87.76-.91 1-.91.23 0 .37.01.54.05v3.56c0 .15-.01.38-.14.5-.1.09-.26.1-.5.11-.17.02-.22.04-.22.15v.11c0 .1.05.1.12.1h.36c.13 0 .26-.02.51-.04.26-.03.45-.07.62-.07.17 0 .37.04.63.07.24.02.37.05.5.05h.37c.06 0 .12 0 .12-.1v-.12c0-.1-.06-.13-.23-.15-.23-.01-.4-.02-.49-.11-.13-.12-.14-.35-.14-.5v-3.2c0-.14.01-.37.14-.49.1-.1.26-.1.5-.12.16-.01.22-.04.22-.14v-.12c0-.1-.06-.1-.12-.1H37.8c-1.37 0-1.76.69-1.76 1.25 0 .41.22.71.46.9.35.3.88.48 1.3.51v.08zm7.93-.5c.86-.17 1.14-.75 1.14-1.17 0-.49-.36-1.23-1.96-1.23-.61 0-.95.1-1.2.17-.2.05-.32.08-.45.08-.2 0-.2-.1-.2-.2v-.05c0-.15-.13-.15-.18-.15-.05 0-.18 0-.18.2v1.5c0 .08.03.18.2.18.18 0 .23-.13.3-.27.14-.29.36-.55.6-.69.17-.12.47-.2.72-.2.5 0 .75.33.75.8 0 .2 0 .93-.93.93h-.28l-.1.1v.26l.1.13.25-.02h.1c.23 0 .49.04.7.22.3.25.35.56.35.84 0 .23-.02.45-.2.7-.27.37-.65.37-1.03.37-.44 0-.63-.09-.79-.27v-.05c.1-.05.31-.2.31-.5 0-.44-.4-.7-.78-.7-.41 0-.73.29-.73.7 0 .37.2.86.86 1.15.26.12.72.23 1.47.23.78 0 1.82-.18 2.26-.75.2-.26.29-.56.29-.86 0-.38-.14-.73-.4-.96a2.1 2.1 0 0 0-1-.4v-.08zm4.89.11v.12l.02.05c.07.08.13.1.25.1.23 0 .2-.03.35-.03.2 0 .8.06.8.93 0 .37-.07 1.06-.92 1.06-.82 0-.83-.64-.83-1.07v-2.54c0-.14.01-.37.14-.49.1-.1.26-.1.5-.12.17-.01.22-.04.22-.14v-.12c0-.1-.05-.1-.12-.1h-.36c-.13 0-.26.03-.5.05-.27.03-.46.07-.63.07-.17 0-.37-.04-.63-.07-.24-.02-.37-.05-.5-.05h-.37c-.06 0-.11 0-.11.1v.12c0 .1.05.13.22.14.23.02.4.03.49.12.13.12.14.35.14.5v3.2c0 .14 0 .34-.15.47-.1.08-.26.12-.64.13-.17.02-.22.04-.22.15v.11c0 .1.05.1.12.1h.36c.3 0 .47-.02.66-.04a2.97 2.97 0 0 1 1.25 0c.2.02.37.05.73.05h.57c.5 0 1.16-.03 1.63-.4.33-.25.56-.68.56-1.18 0-.71-.5-1.52-1.93-1.52-.83 0-1.01.16-1.08.25l-.02.05zm5.44-1.38c0-.14.02-.37.15-.49.09-.1.26-.1.5-.12.16-.01.21-.04.21-.14v-.12c0-.1-.05-.1-.12-.1h-.36c-.13 0-.26.03-.5.05-.27.03-.46.07-.63.07-.17 0-.36-.04-.62-.07-.25-.02-.38-.05-.51-.05h-.37c-.06 0-.11 0-.11.1v.12c0 .1.05.13.22.14.23.02.4.03.5.12.12.12.14.35.14.5v3.2c0 .14-.02.37-.15.49-.09.09-.26.1-.5.11-.16.02-.21.04-.21.15v.11c0 .1.05.1.11.1h.37c.13 0 .26-.02.5-.04.27-.03.46-.07.63-.07.17 0 .36.04.62.07.25.02.38.05.51.05h.36c.07 0 .12 0 .12-.1v-.12c0-.1-.05-.13-.22-.15-.23-.01-.4-.02-.5-.11-.12-.12-.14-.35-.14-.5v-3.2zm4.6 4.18c.06 0 .1 0 .1-.1v-.12c0-.1-.04-.13-.21-.15-.24-.01-.4-.02-.5-.11-.13-.12-.14-.35-.14-.5v-1.41c.66 0 .89.46 1.13.92.18.34.48.8.74 1.06.45.46.93.56 1.33.56.2 0 .47-.06.64-.11.23-.08.37-.21.45-.29l.03-.14-.08-.12-.1-.01c-.1.05-.23.09-.3.09-.22 0-.38-.17-.58-.5-.23-.36-.46-.81-.9-1.18-.4-.32-.93-.53-1.4-.6v-.05c.28-.17.54-.4.77-.74.2-.32.33-.62.42-.86.05-.14.09-.24.24-.3h.08c.08.12-.05.1-.05.35 0 .38.27.7.75.7.51 0 .76-.42.76-.79 0-.35-.3-.9-1.21-.9-.5 0-.83.15-1.04.3-.37.3-.5.66-.7 1.06-.1.25-.47.93-.98.9V90.1c0-.14.01-.37.14-.49.1-.1.26-.1.5-.12.17-.01.22-.04.22-.14v-.12c0-.1-.05-.1-.12-.1h-.36c-.13 0-.26.03-.5.05-.27.03-.46.07-.63.07-.17 0-.37-.04-.63-.07-.24-.02-.37-.05-.5-.05h-.37c-.06 0-.11 0-.11.1v.12c0 .1.05.13.22.14.23.02.4.03.5.12.12.12.13.35.13.5v3.2c0 .14-.01.37-.14.49-.09.09-.26.1-.5.11-.16.02-.21.04-.21.15v.11c0 .1.05.1.11.1h.37l.5-.04c.34-.04.46-.07.63-.07.24 0 .45.12 1.13.12h.36zm7.87-1.12l-1.29-3c-.05-.12-.11-.24-.11-.4 0-.23.17-.27.3-.28.15-.01.22-.01.22-.14v-.12c-.03-.06-.08-.1-.24-.1-.37 0-.97.13-1.23.13-.17 0-.37-.03-.61-.07-.29-.02-.48-.05-.73-.05-.14 0-.21.01-.25.13v.12c.08.23.44-.1.76.53l2.5 4.98c-.09.38-.2.73-.41 1.17-.17.36-.46.88-.98.88a.45.45 0 0 1-.27-.08v-.03c.3-.1.48-.34.48-.7 0-.49-.4-.7-.78-.7-.47 0-.82.38-.82.88 0 .6.5 1.2 1.35 1.2.64 0 1-.32 1.28-.78.08-.13.28-.48.7-1.5l2.1-5.09c.11-.24.3-.56.55-.66.1-.04.16-.04.2-.14v-.12c-.02-.05-.04-.1-.2-.1-.48 0-.6.13-1.01.13-.2 0-.4-.03-.59-.07-.14-.02-.3-.05-.45-.05-.12 0-.17.01-.22.12v.11c.01.16.13.1.3.13.35.03.48.26.48.43 0 .12-.04.34-.1.48l-.93 2.76z"/>
            </g>
        </g>
    </g>
</svg>
