<svg xmlns="http://www.w3.org/2000/svg" width="258" height="184" viewBox="0 0 258 184">
  <g fill="none" fill-rule="evenodd">
    <path fill="#FFE5C2" d="M12.2787661,184.000007 C4.4035688,167.316473 0,148.672491 0,129 C0,57.7552673 57.7552673,0 129,0 C200.244733,0 258,57.7552673 258,129 C258,148.672491 253.596431,167.316473 245.721234,184.000007 L12.2787628,184 Z"/>
    <g transform="translate(59 67)">
      <path fill="#540326" d="M66.2660077,93.0961538 L0,93.0961538 L0,9.94230769 L3.59235669,9.94230769 L3.59235669,4.51923077 L138.305732,4.51923077 L138.305732,9.94230769 L141,9.94230769 L141,93.0961538 L74.7339923,93.0961538 C73.577159,93.6614192 72.1040596,94 70.5,94 C68.8959404,94 67.422841,93.6614192 66.2660077,93.0961538 Z"/>
      <path fill="#FED9AC" d="M76.3375796,4.51923077 L138.305732,4.51923077 L138.305732,90.3846154 L76.1014203,90.3846154 C74.8930992,91.474641 72.8353433,92.1923077 70.5,92.1923077 C68.1646567,92.1923077 66.1069008,91.474641 64.8985797,90.3846154 L3.59235669,90.3846154 L3.59235669,4.51923077 L66.4585987,4.51923077 L66.4585987,2.71153846 L76.3375796,2.71153846 L76.3375796,4.51923077 Z"/>
      <rect width="61.07" height="85.865" x="5.389" y="2.712" fill="#FFF"/>
      <path fill="#FFE5C2" d="M14.3694268,26.2115385 L48.4968153,26.2115385 L48.4968153,30.7307692 L14.3694268,30.7307692 L14.3694268,26.2115385 Z M14.3694268,18.0769231 L30.5350318,18.0769231 L30.5350318,22.5961538 L14.3694268,22.5961538 L14.3694268,18.0769231 Z M14.3694268,34.3461538 L57.477707,34.3461538 L57.477707,38.8653846 L14.3694268,38.8653846 L14.3694268,34.3461538 Z M14.3694268,42.4807692 L57.477707,42.4807692 L57.477707,47 L14.3694268,47 L14.3694268,42.4807692 Z M14.3694268,50.6153846 L57.477707,50.6153846 L57.477707,55.1346154 L14.3694268,55.1346154 L14.3694268,50.6153846 Z M14.3694268,58.75 L57.477707,58.75 L57.477707,63.2692308 L14.3694268,63.2692308 L14.3694268,58.75 Z M14.3694268,66.8846154 L48.4968153,66.8846154 L48.4968153,71.4038462 L14.3694268,71.4038462 L14.3694268,66.8846154 Z"/>
      <rect width="1.796" height="85.865" x="70.051" y="2.712" fill="#FFF" opacity=".245"/>
      <rect width="61.07" height="85.865" x="75.439" y="2.712" fill="#FFF"/>
      <path fill="#FFE5C2" d="M83.522293,26.2115385 L117.649682,26.2115385 L117.649682,30.7307692 L83.522293,30.7307692 L83.522293,26.2115385 Z M83.522293,18.0769231 L99.6878981,18.0769231 L99.6878981,22.5961538 L83.522293,22.5961538 L83.522293,18.0769231 Z M83.522293,34.3461538 L126.630573,34.3461538 L126.630573,38.8653846 L83.522293,38.8653846 L83.522293,34.3461538 Z M83.522293,42.4807692 L126.630573,42.4807692 L126.630573,47 L83.522293,47 L83.522293,42.4807692 Z M83.522293,50.6153846 L126.630573,50.6153846 L126.630573,55.1346154 L83.522293,55.1346154 L83.522293,50.6153846 Z M83.522293,58.75 L126.630573,58.75 L126.630573,63.2692308 L83.522293,63.2692308 L83.522293,58.75 Z M83.522293,66.8846154 L117.649682,66.8846154 L117.649682,71.4038462 L83.522293,71.4038462 L83.522293,66.8846154 Z"/>
      <path fill="#FF7502" d="M82.5163279,3.39518958 C82.5163279,3.84711266 87.339172,-0.672118111 91.7173567,3.39518958 C96.0955414,7.46249727 96.9240181,11.0765287 96.4323248,20.6798941 C95.9406316,30.2832595 95.1970137,33.0229855 95.1970137,40.6774902 C95.1970137,48.331995 96.4323248,57.7389396 96.4323248,57.7389396 L101.371815,54.0105742 L106.311306,58.0778819 C106.311306,58.0778819 104.290605,44.2915217 104.851911,34.4635479 C105.413217,24.6355742 107.321656,9.60913189 104.851911,5.08990112 C102.382166,0.57067035 98.116242,0.909612658 98.116242,0.909612658 C98.116242,0.909612658 87.428274,1.51670438 85.7719011,1.70183124" transform="rotate(3 94.414 29.49)"/>
    </g>
    <g transform="rotate(45 -102.87 226.226)">
      <polygon fill="#282D33" points="0 38.353 1.016 39.366 2.754 37.633 1.738 36.62"/>
      <polygon fill="#282D33" points="33.967 2.308 35.131 3.468 36.281 2.322 38.066 4.1 36.916 5.247 38.08 6.408 40.393 4.1 36.281 0"/>
      <polyline fill="#FFF" points="23.573 13.732 8.262 29.001 11.312 32.042 26.623 16.774"/>
      <polygon fill="#282D33" points="10.657 33.873 6.426 29.655 22.393 13.732 23.559 14.895 8.758 29.655 10.657 31.548 25.457 16.789 26.623 17.951"/>
      <polygon fill="#282D33" points="0 36.781 2.593 39.366 4.59 37.374 3.546 36.333 2.592 37.285 2.087 36.781 3.042 35.829 1.998 34.789"/>
      <polygon fill="#FF7502" points="22.951 13.715 26.641 17.394 37.639 6.426 33.95 2.746"/>
      <path fill="#282D33" d="M24.2798928,13.6124751 L26.7430895,16.0689162 L36.3102711,6.52757769 L33.8470744,4.07153273 L24.2798928,13.6124751 Z M26.7430895,18.3098592 L22.0327869,13.6124751 L33.8470744,1.83098592 L38.557377,6.52757769 L26.7430895,18.3098592 Z"/>
      <polygon fill="#282D33" points="21.32 12.817 20.197 11.68 29.922 1.831 35.803 7.786 34.68 8.924 29.922 4.106"/>
      <polygon fill="#FFE5C4" points="5.446 37.535 11.016 31.98 8.325 29.296 2.754 34.851"/>
      <path fill="#282D33" d="M4.0658246,34.7832292 L5.51396578,36.2274203 L9.7046672,32.0481498 L8.25652602,30.6039587 L4.0658246,34.7832292 Z M5.51396578,38.4507042 L1.83606557,34.7832292 L8.25652602,28.3802817 L11.9344262,32.0481498 L5.51396578,38.4507042 Z"/>
    </g>
  </g>
</svg>
