<svg xmlns="http://www.w3.org/2000/svg" xmlns:xlink="http://www.w3.org/1999/xlink" width="258" height="184" viewBox="0 0 258 184">
  <defs>
    <path id="book-1-a" d="M12.2787661,184.000007 C4.4035688,167.316473 0,148.672491 0,129 C0,57.7552673 57.7552673,0 129,0 C200.244733,0 258,57.7552673 258,129 C258,148.672491 253.596431,167.316473 245.721234,184.000007 L12.2787628,184 Z"/>
    <path id="book-1-c" d="M119,96 L48.849111,96 C48.849111,96 38.1819085,97.2477423 38.1819085,107.497742 C38.1819085,117.747742 48.849111,118.995485 48.849111,118.995485 L119,118.995485 C119,118.995485 106.501953,118.425781 107.001953,107.972961 C107.501953,97.5201404 119,96 119,96 Z"/>
    <polygon id="book-1-d" points="0 0 15 0 15 15 7.875 11.5 0 15"/>
    <polygon id="book-1-f" points="0 0 15 0 15 15 7.875 11.5 0 15"/>
  </defs>
  <g fill="none" fill-rule="evenodd">
    <mask id="book-1-b" fill="#fff">
      <use xlink:href="#book-1-a"/>
    </mask>
    <use fill="#FFE5C2" xlink:href="#book-1-a"/>
    <g mask="url(#book-1-b)">
      <g transform="translate(67 64)">
        <path fill="#FED9AC" d="M23.7939453,6.5 L104.794331,6.5 L104.794331,13.75 L88.7939453,13.75 L94.2939453,18.25 L96.0439453,21.75 L95.2939453,28.25 L89.7939453,31.75 L89.5439453,34.25 L108.043945,33.75 L108.043945,49.2580624 L100.539507,49.2580624 L100.539507,51.2661845 C100.539507,51.2661845 107.8125,53.2314453 109.3125,54.7314453 C110.8125,56.2314453 111.8125,61.9814453 111.8125,61.9814453 L110.301758,65.7314453 L107.551758,69.4814453 L103.051758,71.2314453 L99.5517578,72.7314453 L122.801758,73.4814453 L122.801758,97.2181573 L57.2940441,97.2181573 L57.2940441,118.735782 L9.29938632,118.735782 L9.29938632,96.2128905 L4.05175781,92.7128906 L1.80175781,88.7128906 L1.05175781,84.2128906 L2.55175781,79.2128906 L6.55175781,74.2128906 L12.8017578,72.9628906 L21.8017578,72.7128906 L21.8017578,50.7114702 L31.5517578,32.7128906 L31.5517578,12.9613084 L28.0517578,13.2128906 L24.8017578,10.9628906 L24.0517578,8.21289062 L23.7939453,6.5 Z"/>
        <path fill="#FFF" d="M21,51 L101.999023,50.9785156 C101.999023,50.9785156 107.922088,54.5518798 109.499023,56.4892578 C110.838755,58.1352131 110.749023,61.7285156 110.749023,61.7285156 L21,62 L21,51 Z"/>
        <polygon fill="#FFF" points="9.864 73.114 123 74 123 85 0 85 2.364 78.364"/>
        <path fill="#FFF" d="M9 98L112.396973 97.90625C112.396973 97.90625 116.235152 100.821309 117.271973 102.40625 118.436161 104.185892 119 108 119 108L9 108 9 98zM31 15L89.6298828 15C89.6298828 15 94.1342205 17.3984073 95.1298828 18.6142578 96.5909262 20.3984073 97 24 97 24L31 24 31 15z"/>
        <polygon fill="#FFF" points="27.114 1.495 105 0 105 7 23 7"/>
        <path stroke="#540326" stroke-width="2" d="M104.279456,0.999974202 L30.3582528,0.998100153 C30.1776246,1.00925027 29.8276832,1.05395896 29.367486,1.15327025 C28.594964,1.31998173 27.8236479,1.58150352 27.1124217,1.95414729 C25.0671685,3.02574853 23.9127828,4.76777202 24.0050088,7.48804167 C24.0949186,10.1399988 25.2119291,11.7187461 27.0663324,12.5728344 C28.1879328,13.0894134 29.3637718,13.2554953 30.2295947,13.2331747 C30.2516912,13.2324887 30.2516912,13.2324887 30.2966404,13.2314453 L104.066026,13.2314453 L104.279456,0.999974202 Z"/>
        <path stroke="#540326" stroke-width="2" d="M96.2813219,14.9999581 L39.7840579,14.997629 C39.5644252,15.0127804 39.1423502,15.0730432 38.5879259,15.206752 C37.6560102,15.4314993 36.724819,15.784339 35.8629028,16.2890169 C33.3414324,17.7654137 31.8909717,20.2115023 32.0062085,24.0100149 C32.1183342,27.7059742 33.5242352,29.9265891 35.8148778,31.1056032 C36.5931695,31.5061969 37.4343152,31.7611933 38.2870337,31.8957928 C38.8436118,31.9836473 39.3115998,32.0079284 39.6371391,31.9985497 C39.6644655,31.9976027 39.6644655,31.9976027 39.7152361,31.9962699 L96.0159421,31.9962699 L96.2813219,14.9999581 Z" transform="matrix(-1 0 0 1 128.297 0)"/>
        <path fill="#540326" d="M96.1876917,15.53125 C96.1876917,15.53125 85.7719727,13.6943112 85.7719727,22.6127806 C85.7719727,31.53125 95.1876917,31.53125 95.1876917,31.53125 C95.1876917,31.53125 90.8193727,30.7857143 90.8193727,23.5 C90.8193727,16.2142857 96.1876917,15.53125 96.1876917,15.53125 Z" opacity=".111" transform="matrix(-1 0 0 1 181.96 0)"/>
        <path fill="#540326" d="M34.3969727,1.66113281 C34.3969727,1.66113281 24.56182,0.571326097 23.3657227,6.86711991 C22.1696253,13.1629137 33.6469727,13.0361328 33.6469727,13.0361328 C33.6469727,13.0361328 27.8969727,12.9675084 27.8969727,6.86711991 C27.8969727,0.766731416 34.3969727,1.66113281 34.3969727,1.66113281 Z" opacity=".111"/>
        <path fill="#FF7502" d="M68.2970571,33 L17.7152361,33 C17.7152361,33 8.72089465,33.5551644 9.0066684,41.9834606 C9.29244215,50.4117567 17.7152361,49.9966625 17.7152361,49.9966625 L68.00045,49.9966625 C68.00045,49.9966625 59.6747609,45.7555141 59.7490234,41.5 C59.823286,37.2444859 68.2970571,33 68.2970571,33 Z"/>
        <path fill="#FFF" d="M28.2970571 33L21.9814453 32.7910156C21.9814453 32.7910156 14.7208946 33.5551644 15.0066684 41.9834606 15.2924422 50.4117567 22.9814453 50.2910156 22.9814453 50.2910156L28.00045 49.9966625C28.00045 49.9966625 20.2207031 48.4589844 20.2207031 41.5 20.2207031 34.5410156 28.2970571 33 28.2970571 33zM60.2986087 33.2089844L53.9829969 33C53.9829969 33 46.7224462 33.7641488 47.00822 42.1924449 47.2939937 50.6207411 54.9829969 50.5 54.9829969 50.5L60.0020016 50.2056469C60.0020016 50.2056469 52.2222547 48.6679688 52.2222547 41.7089844 52.2222547 34.75 60.2986087 33.2089844 60.2986087 33.2089844z" opacity=".261"/>
        <path fill="#FFF" d="M63.2021688,35 L108,35 L108,42 L61,42 C61,42 61.0280299,39.7072293 61.3234863,38.7680664 C61.7620861,37.373896 63.2021688,35 63.2021688,35 Z"/>
        <path fill="#540326" d="M70.9458008,34.765625 C70.9458008,34.765625 60.7803915,34.0760989 60.7609863,41.7914432 C60.7415811,49.5067876 70.9458008,48.828125 70.9458008,48.828125 C70.9458008,48.828125 63.5019531,48.5357143 63.5019531,41.25 C63.5019531,33.9642857 70.9458008,34.765625 70.9458008,34.765625 Z" opacity=".111"/>
        <path stroke="#FF7502" stroke-width="2" d="M107.279455,33.9999523 L67.7768426,33.9981005 C67.7298747,34.0009996 67.6238418,34.0108113 67.4674717,34.0307873 C67.1969382,34.0653475 66.8929826,34.1165272 66.5644068,34.1874276 C65.6256373,34.3899962 64.6880739,34.7078552 63.8216847,35.1617525 C61.3161416,36.4743949 59.8932476,38.6214048 60.0060941,41.9495736 C60.1160508,45.1925151 61.4957377,47.1423345 63.7755344,48.1922471 C64.5601604,48.5535901 65.4095986,48.7839941 66.2709609,48.905646 C66.8341857,48.9851913 67.3085355,49.0072119 67.6401683,48.9986633 C67.6689126,48.9977736 67.6689126,48.9977736 67.7152361,48.9966625 L107.017749,48.9966625 L107.279455,33.9999523 Z"/>
        <path stroke="#540326" stroke-width="2" d="M111.236042,51 L31.7314215,51 C31.6587334,51.0101786 31.5437103,51.0285598 31.3913343,51.0568415 C31.054305,51.1193958 30.6761415,51.2055572 30.2675057,51.3187976 C29.0984845,51.6427547 27.9300209,52.116259 26.846464,52.7635917 C23.7992585,54.5840367 22,57.3878281 22,61.4977423 C22,65.6076564 23.7992585,68.4114478 26.846464,70.2318929 C27.9300209,70.8792255 29.0984845,71.3527299 30.2675057,71.6766869 C30.6761415,71.7899273 31.054305,71.8760888 31.3913343,71.9386431 C31.5437103,71.9669248 31.6587334,71.9853059 31.7314215,71.9954846 L110.965232,71.9954846 L111.236042,51 Z" transform="matrix(-1 0 0 1 133.249 0)"/>
        <path fill="#540326" d="M110.280583,50 C110.280583,50 101.288989,50.1253834 100.092892,60.1876917 C98.8967942,70.25 109.646794,72.75 109.646794,72.75 C109.646794,72.75 103.52863,71.125 103.52863,61.375 C103.52863,51.625 110.280583,50 110.280583,50 Z" opacity=".111" transform="matrix(-1 0 0 1 210.28 0)"/>
        <g transform="matrix(-1 0 0 1 157.182 0)">
          <use fill="#FF7502" xlink:href="#book-1-c"/>
          <path stroke="#FF7502" stroke-width="2" d="M113.047451,97 L48.9133301,97 C48.8406419,97.0101786 48.7256189,97.0285598 48.5732428,97.0568415 C48.2362135,97.1193958 47.85805,97.2055572 47.4494143,97.3187976 C46.2803931,97.6427547 45.1119295,98.116259 44.0283726,98.7635917 C40.981167,100.584037 39.1819085,103.387828 39.1819085,107.497742 C39.1819085,111.607656 40.981167,114.411448 44.0283726,116.231893 C45.1119295,116.879226 46.2803931,117.35273 47.4494143,117.676687 C47.85805,117.789927 48.2362135,117.876089 48.5732428,117.938643 C48.7256189,117.966925 48.8406419,117.985306 48.9133301,117.995485 L111.761641,117.995485 C107.978564,115.989648 105.775142,112.6907 106.003095,107.925181 C106.235017,103.076698 108.651241,99.5964176 112.481933,97.321291 C112.66886,97.2102712 112.85744,97.1032037 113.047451,97 Z"/>
        </g>
        <path fill="#540326" d="M51.022877,97.40625 C51.022877,97.40625 38.147877,95.78125 38.272877,108.252258 C38.397877,120.723265 51.022877,118.15625 51.022877,118.15625 C51.022877,118.15625 42.6688731,118.107465 42.6688731,108.252258 C42.6688731,98.39705 51.022877,97.40625 51.022877,97.40625 Z" opacity=".111" transform="matrix(-1 0 0 1 89.295 0)"/>
        <path fill="#FFF" d="M109.297057,97.0422471 L102.981445,96.7910156 C102.981445,96.7910156 95.7208946,97.7096404 96.0066684,107.841752 C96.2924422,117.973864 103.981445,117.828715 103.981445,117.828715 L109.00045,117.474857 C109.00045,117.474857 101.220703,115.626331 101.220703,107.260558 C101.220703,98.8947856 109.297057,97.0422471 109.297057,97.0422471 Z" opacity=".261" transform="matrix(-1 0 0 1 205.296 0)"/>
        <path stroke="#DE6500" stroke-width="2" d="M117.987326,97 L19.7314215,97 C19.6587334,97.0101786 19.5437103,97.0285598 19.3913343,97.0568415 C19.054305,97.1193958 18.6761415,97.2055572 18.2675057,97.3187976 C17.0984845,97.6427547 15.9300209,98.116259 14.846464,98.7635917 C11.7992585,100.584037 10,103.387828 10,107.497742 C10,111.607656 11.7992585,114.411448 14.846464,116.231893 C15.9300209,116.879226 17.0984845,117.35273 18.2675057,117.676687 C18.6761415,117.789927 19.054305,117.876089 19.3913343,117.938643 C19.5455158,117.96726 19.6614539,117.98574 19.7339875,117.995843 L117.715978,118.544626 L117.987326,97 Z" transform="matrix(-1 0 0 1 128 0)"/>
        <path stroke="#540326" stroke-width="2" d="M121.73733,73.6256421 L10.7359851,73.0004033 C10.6645266,73.0116482 10.5542088,73.0312642 10.4094438,73.0609063 C10.0748454,73.1294186 9.69909106,73.2238666 9.29281217,73.3480731 C8.12882797,73.7039234 6.96481224,74.2243061 5.88390196,74.9367009 C2.82151747,76.9550243 1,80.0864398 1,84.6843376 C1,89.2822354 2.82151747,92.4136509 5.88390196,94.4319743 C6.96481224,95.144369 8.12882797,95.6647518 9.29281217,96.020602 C9.69909106,96.1448086 10.0748454,96.2392565 10.4094438,96.3077689 C10.5577261,96.3381311 10.6698669,96.3579742 10.7411248,96.3690767 L121.464105,96.9944024 L121.73733,73.6256421 Z"/>
        <g transform="translate(39 7)">
          <mask id="book-1-e" fill="#fff">
            <use xlink:href="#book-1-d"/>
          </mask>
          <use fill="#B3BE49" xlink:href="#book-1-d"/>
          <rect width="7" height="17" x="8" fill="#FFF" mask="url(#book-1-e)" opacity=".4"/>
        </g>
        <g transform="translate(82 62)">
          <mask id="book-1-g" fill="#fff">
            <use xlink:href="#book-1-f"/>
          </mask>
          <use fill="#B3BE49" xlink:href="#book-1-f"/>
          <rect width="7" height="17" x="8" fill="#FFF" mask="url(#book-1-g)" opacity=".4"/>
        </g>
        <path fill="#540326" d="M11.1245117,73.4995117 C11.1245117,73.4995117 2.13291735,73.6248952 0.936820003,83.6872034 C-0.259277344,93.7495117 10.4907227,96.2495117 10.4907227,96.2495117 C10.4907227,96.2495117 5.98422009,94.6245117 5.98422009,84.8745117 C5.98422009,75.1245117 11.1245117,73.4995117 11.1245117,73.4995117 Z" opacity=".111"/>
      </g>
    </g>
  </g>
</svg>
