<svg xmlns="http://www.w3.org/2000/svg" xmlns:xlink="http://www.w3.org/1999/xlink" width="22" height="22" viewBox="0 0 22 22">
  <defs>
    <polygon id="gift-a" points="0 20.594 21.899 20.594 21.899 0 0 0"/>
  </defs>
  <g fill="none" fill-rule="evenodd" transform="translate(-1 -1)">
    <rect width="24" height="24" fill="#D8D8D8" opacity="0"/>
    <g transform="translate(1 2)">
      <path stroke="#000" stroke-width="1.024" d="M12.8820565,0.183902128 C11.8437638,0.434752261 11.0069589,1.51329733 10.9852272,2.61090479 L10.9959589,4.69257413 L12.9638857,4.21711919 C13.9946662,3.93394586 14.8156418,2.84324506 14.8078613,1.74536133 C14.8008857,0.627586395 13.9388613,-0.0713682719 12.8820565,0.183902128 Z"/>
      <path stroke="#000" stroke-width="1.024" d="M9.12507352,0.183902128 C10.1625613,0.434752261 10.9993662,1.51329733 11.0210979,2.61090479 L11.0106345,4.69257413 L9.04270767,4.21711919 C8.01219547,3.93394586 7.19121986,2.84324506 7.19819547,1.74536133 C7.20517108,0.627586395 8.06800035,-0.0713682719 9.12507352,0.183902128 Z"/>
      <mask id="gift-b" fill="#fff">
        <use xlink:href="#gift-a"/>
      </mask>
      <polygon stroke="#000" points=".402 8 21.496 8 21.496 5.058 .402 5.058" mask="url(#gift-b)"/>
      <polygon stroke="#000" points=".986 20.18 20.913 20.18 20.913 8 .986 8" mask="url(#gift-b)"/>
      <polygon points="9.243 8.7 12.656 8.7 12.656 5.058 9.243 5.058" mask="url(#gift-b)"/>
      <polygon stroke="#000" points="9.243 8 12.656 8 12.656 5.058 9.243 5.058" mask="url(#gift-b)"/>
      <polygon points="9.337 20.18 12.561 20.18 12.561 8 9.337 8" mask="url(#gift-b)"/>
      <polygon stroke="#000" points="9.337 20.18 12.561 20.18 12.561 8 9.337 8" mask="url(#gift-b)"/>
    </g>
  </g>
</svg>
