<svg xmlns="http://www.w3.org/2000/svg" xmlns:xlink="http://www.w3.org/1999/xlink" width="100" height="100" viewBox="0 0 100 100">
  <defs>
    <polygon id="success-a" points="18.218 8.74 18.218 .032 .192 .032 .192 8.74"/>
    <polygon id="success-c" points="10.35 26.833 0 26.833 0 13.478 0 .122 10.35 .122"/>
    <polygon id="success-e" points="0 45.76 45.724 45.76 45.724 0 0 0"/>
  </defs>
  <g fill="none" fill-rule="evenodd">
    <polygon fill="#FFF" points="40.697 43.803 40.697 62.803 43.692 62.172 46.817 64.922 55.192 65.797 66.192 65.297 68.197 62.922 68.072 60.422 67.572 58.922 69.813 57.182 71.313 54.682 69.688 51.932 71.813 50.057 72.188 47.432 70.063 44.807 73.563 43.807 73.688 41.932 73.688 39.807 72.063 38.682 68.938 38.182 61.438 38.057 59.188 38.432 57.938 40.057 56.438 39.057 57.063 36.807 57.938 33.057 57.813 28.432 56.438 26.182 54.188 25.057 51.813 25.182 51.938 31.182 43.943 40.807 42.943 43.057 41.818 44.057"/>
    <g transform="translate(29 24)">
      <path fill="#282D33" d="M18.1766866 30.3285667C17.3837794 30.3285667 16.5851814 30.2207542 15.7955938 29.9945875L16.3115526 28.1507542C20.5639443 29.3654417 25.1753258 26.2417542 26.591367 21.1865458 27.1926866 19.0413167 27.1409959 16.7739 26.4462536 14.8002125L26.3352845 14.4854 27.9078206 9.83700417 27.9078206 5.21160833C27.9078206 3.39460833 26.4443567 1.91685833 24.6460887 1.91685833L24.0191608 1.91685833 24.0191608 7.7823375 22.1379031 10.4474625 16.0194289 17.2017958C15.2336351 18.0379417 14.6840062 19.0556917 14.4189134 20.1572958L14.242501 20.8894625 11.432233 20.8894625 11.432233 18.9727958 12.787099 18.9727958C13.1745423 17.8280667 13.8038412 16.7753375 14.6323155 15.8946292L20.6986247 9.19731667 22.1222536 7.17092083 22.1222536.0572125 23.0218619.0102541667C23.1242948.00354583333 23.1840474.000191666667 23.2442742.000191666667L24.6460887.000191666667C27.490501.000191666667 29.8047278 2.33804583 29.8047278 5.21160833L29.8047278 10.15565 28.3417381 14.4806083C29.0635113 16.7470667 29.0919649 19.2995875 28.416666 21.7083583 26.9712227 26.8685042 22.6647691 30.3280875 18.1766866 30.3285667L18.1766866 30.3285667zM33.0868041 42.3065833L20.6867216 42.3065833C18.1937113 42.3065833 15.8913402 41.213125 14.2969897 39.28975L11.4321856 39.28975 11.4321856 37.3730833 15.2307423 37.3730833 15.5152784 37.7578542C16.7515876 39.430625 18.6361649 40.3899167 20.6867216 40.3899167L33.0868041 40.3899167 33.0868041 42.3065833z"/>
      <g transform="translate(27.505 13.177)">
        <mask id="success-b" fill="#fff">
          <use xlink:href="#success-a"/>
        </mask>
        <path fill="#282D33" d="M4.50050722,1.94848333 C3.17030103,1.94848333 2.08858969,3.04194167 2.08858969,4.38600417 C2.08858969,5.73006667 3.17030103,6.823525 4.50050722,6.823525 L13.9096412,6.823525 C15.2393732,6.823525 16.3215588,5.73006667 16.3215588,4.38600417 C16.3215588,3.04194167 15.2393732,1.94848333 13.9096412,1.94848333 L4.50050722,1.94848333 Z M13.9096412,8.74019167 L4.50050722,8.74019167 C2.12463093,8.74019167 0.191682474,6.78710833 0.191682474,4.38600417 C0.191682474,1.9849 2.12463093,0.0318166667 4.50050722,0.0318166667 L13.9096412,0.0318166667 C16.2855175,0.0318166667 18.218466,1.9849 18.218466,4.38600417 C18.218466,6.78710833 16.2855175,8.74019167 13.9096412,8.74019167 L13.9096412,8.74019167 Z" mask="url(#success-b)"/>
      </g>
      <path fill="#282D33" d="M30.2136536,21.9167479 C28.8834474,21.9167479 27.8017361,23.0102062 27.8017361,24.3537896 C27.8017361,25.6973729 28.8834474,26.7903521 30.2136536,26.7903521 L39.6232619,26.7903521 C40.9529938,26.7903521 42.0342309,25.6973729 42.0342309,24.3537896 C42.0342309,23.0102062 40.9529938,21.9167479 39.6232619,21.9167479 L30.2136536,21.9167479 Z M39.6232619,28.7070187 L30.2136536,28.7070187 C27.8377773,28.7070187 25.9048289,26.7544146 25.9048289,24.3537896 C25.9048289,21.9531646 27.8377773,20.0000812 30.2136536,20.0000812 L39.6232619,20.0000812 C41.9986639,20.0000812 43.9311381,21.9531646 43.9311381,24.3537896 C43.9311381,26.7544146 41.9986639,28.7070187 39.6232619,28.7070187 L39.6232619,28.7070187 Z"/>
      <path fill="#282D33" d="M29.3173175,28.7072104 C27.9871113,28.7072104 26.9049258,29.8006688 26.9049258,31.1447313 C26.9049258,32.4883146 27.9871113,33.5817729 29.3173175,33.5817729 L38.7269258,33.5817729 C40.0566577,33.5817729 41.1383691,32.4883146 41.1383691,31.1447313 C41.1383691,29.8006688 40.0566577,28.7072104 38.7269258,28.7072104 L29.3173175,28.7072104 Z M38.7269258,35.4984396 L29.3173175,35.4984396 C26.940967,35.4984396 25.0080186,33.5453563 25.0080186,31.1447313 C25.0080186,28.7436271 26.940967,26.7905438 29.3173175,26.7905438 L38.7269258,26.7905438 C41.1028021,26.7905438 43.0352763,28.7436271 43.0352763,31.1447313 C43.0352763,33.5453563 41.1028021,35.4984396 38.7269258,35.4984396 L38.7269258,35.4984396 Z"/>
      <path fill="#282D33" d="M29.3173175,35.4983437 C27.9871113,35.4983437 26.9049258,36.5918021 26.9049258,37.9353854 C26.9049258,39.2789687 27.9871113,40.3719479 29.3173175,40.3719479 L36.038534,40.3719479 C37.368266,40.3719479 38.4504515,39.2789687 38.4504515,37.9353854 C38.4504515,36.5918021 37.368266,35.4983437 36.038534,35.4983437 L29.3173175,35.4983437 Z M36.038534,42.2886146 L29.3173175,42.2886146 C26.940967,42.2886146 25.0080186,40.3360104 25.0080186,37.9353854 C25.0080186,35.5347604 26.940967,33.5816771 29.3173175,33.5816771 L36.038534,33.5816771 C38.4144103,33.5816771 40.3473588,35.5347604 40.3473588,37.9353854 C40.3473588,40.3360104 38.4144103,42.2886146 36.038534,42.2886146 L36.038534,42.2886146 Z"/>
      <g transform="translate(0 18.927)">
        <mask id="success-d" fill="#fff">
          <use xlink:href="#success-c"/>
        </mask>
        <polyline fill="#FF7502" points="0 .122 10.35 .122 10.35 26.834 0 26.834" mask="url(#success-d)"/>
      </g>
      <mask id="success-f" fill="#fff">
        <use xlink:href="#success-e"/>
      </mask>
      <polygon fill="#FFF" points="3.379 42.788 5.276 42.788 5.276 40.845 3.379 40.845" mask="url(#success-f)"/>
    </g>
  </g>
</svg>
