<svg xmlns="http://www.w3.org/2000/svg" xmlns:xlink="http://www.w3.org/1999/xlink" width="100" height="100" viewBox="0 0 100 100">
  <defs>
    <polygon id="20part-a" points=".208 21.749 21.597 21.749 21.597 .328 .208 .328 .208 21.749"/>
  </defs>
  <g fill="none" fill-rule="evenodd" transform="translate(28 23)">
    <path fill="#FF7502" d="M43.2858586,20.6579336 L49.9727273,17.8705517 L42.5484848,0.000151735537 L24.7065657,7.43671041 L27.5868687,14.3755765 C27.619697,14.4079468 27.6510101,14.4352592 27.6863636,14.4610542 C27.690404,14.4635831 27.6949495,14.4676294 27.7010101,14.4711699 C27.7338384,14.4949418 27.770202,14.5192195 27.8055556,14.5379336 C27.8080808,14.5399567 27.8111111,14.541474 27.8136364,14.5419798 C27.8818182,14.5794079 27.9540404,14.6057088 28.0267677,14.6229055 C28.040404,14.626446 28.0525253,14.630998 28.0636364,14.6330212 C28.0893939,14.6390906 28.1151515,14.6401021 28.1409091,14.6441484 C28.1691919,14.6466774 28.1974747,14.6512294 28.2252525,14.6512294 C28.2489899,14.652241 28.270202,14.6517352 28.2924242,14.6492063 C28.3272727,14.6481947 28.3616162,14.6441484 28.3959596,14.6395964 C28.4141414,14.6360559 28.4318182,14.6345385 28.45,14.6299864 C28.5020202,14.6183534 28.5560606,14.6036856 28.6080808,14.5819369 C28.8833333,14.4666179 29.070202,14.235474 29.1469697,13.9689253 C29.3919192,13.0534542 30.0429293,12.2578542 30.9858586,11.8638476 C32.6015152,11.1906476 34.4565657,11.9574179 35.1292929,13.5749187 C35.8005051,15.1924195 35.0353535,17.0511798 33.420202,17.723874 C32.4777778,18.1168691 31.4545455,18.018241 30.6323232,17.5468493 C30.389899,17.4143336 30.0939394,17.3829749 29.8181818,17.4967765 C29.7671717,17.5190311 29.719697,17.5458377 29.6747475,17.5751732 C29.6580808,17.5857947 29.6434343,17.5964162 29.6287879,17.6075435 C29.6005051,17.6287864 29.5742424,17.651041 29.5484848,17.6727898 C29.5318182,17.6889749 29.5151515,17.7041484 29.5010101,17.7208393 C29.4813131,17.7420823 29.4631313,17.7628195 29.4459596,17.7855798 C29.4313131,17.8058112 29.4136364,17.8260426 29.3989899,17.8472856 C29.3914141,17.8568955 29.3873737,17.8695402 29.3813131,17.8811732 C29.3409091,17.9454079 29.3106061,18.0141947 29.2883838,18.0895567 C29.2873737,18.093603 29.2853535,18.0956261 29.2848485,18.0986608 C29.2732323,18.1381121 29.2646465,18.1790807 29.2580808,18.2200493 C29.2570707,18.2256129 29.2560606,18.2321881 29.2555556,18.2387633 C29.2489899,18.2802377 29.2464646,18.3232294 29.2459596,18.3662212 L32.129798,25.3060988 L38.820202,22.5182112 C39.2742424,22.3841782 39.7671717,22.6057121 39.9525253,23.0548493 C40.0676768,23.3299964 40.0373737,23.6243633 39.9060606,23.8681517 C39.4343434,24.6920757 39.3348485,25.7173021 39.7272727,26.661603 C40.3994949,28.2796096 42.2545455,29.0453683 43.869697,28.3711567 C45.4863636,27.6984625 46.2520202,25.8407137 45.5787879,24.2232129 C45.1863636,23.2779005 44.3909091,22.6284724 43.4762626,22.3811435 C43.2121212,22.3037583 42.979798,22.1156063 42.8651515,21.8399534 C42.6777778,21.3918278 42.8691919,20.8865484 43.2858586,20.6579336"/>
    <path fill="#FFF" d="M20.3376263,48.7569273 L20.3376263,41.531281 C20.3376263,41.531281 20.7765152,40.6582959 21.2739899,40.6582959 C21.5694444,40.6582959 21.8320707,40.7999157 22.0037879,41.0153802 C22.5835859,41.7674826 23.4896465,42.2525306 24.5123737,42.2525306 C26.2613636,42.2525306 27.6795455,40.8317802 27.6795455,39.0792347 C27.6795455,37.3261835 26.2613636,35.9064446 24.5123737,35.9064446 C23.4901515,35.9064446 22.5840909,36.3909868 22.0037879,37.1410661 C21.8330808,37.3570364 21.5704545,37.5006793 21.2739899,37.5006793 C20.7765152,37.5006793 20.3376263,36.6256711 20.3376263,36.6256711 L20.3376263,29.4015421 L13.0921717,29.4015421 C12.6199495,29.3519752 12.2502525,28.9574628 12.2502525,28.4708975 C12.2502525,28.1734959 12.3916667,27.912005 12.6073232,27.7380149 C13.3568182,27.1578793 13.8431818,26.2510066 13.8431818,25.2278033 C13.8431818,23.4742463 12.4234848,22.0550132 10.6729798,22.0550132 C8.92449495,22.0550132 7.50429293,23.4742463 7.50429293,25.2278033 C7.50429293,26.2510066 7.98964646,27.156362 8.73762626,27.7380149 C8.95429293,27.9099818 9.09722222,28.1719785 9.09722222,28.4708975 C9.09722222,28.9574628 8.72651515,29.3519752 8.25429293,29.4015421 L1.00984848,29.4015421 L1.00984848,48.7569273 L20.3376263,48.7569273 Z"/>
    <path fill="#282D33" d="M2.02020202,47.745357 L19.3277778,47.745357 L19.3277778,41.2910331 L19.4353535,41.0760744 C19.6040404,40.7407388 20.2353535,39.6467256 21.2737374,39.6467256 C21.8656566,39.6467256 22.419697,39.9158033 22.7934343,40.3846661 C23.2166667,40.933443 23.8393939,41.2409603 24.5121212,41.2409603 C25.7020202,41.2409603 26.669697,40.2713702 26.669697,39.0792347 C26.669697,37.887605 25.7020202,36.9180149 24.5121212,36.9180149 C23.839899,36.9180149 23.2166667,37.2255322 22.8020202,37.7606529 C22.4227273,38.2411488 21.8681818,38.5122496 21.2737374,38.5122496 C20.2343434,38.5122496 19.6035354,37.4157074 19.4348485,37.0793603 L19.3277778,36.8654132 L19.3277778,30.4131124 L12.9863636,30.4075488 C11.9909091,30.3028512 11.240404,29.4698231 11.240404,28.4708975 C11.240404,27.8791289 11.5085859,27.3242826 11.9752525,26.9489901 C12.5257576,26.5226132 12.8328283,25.8999917 12.8328283,25.2278033 C12.8328283,24.0361736 11.8641414,23.0665835 10.6732323,23.0665835 C9.48282828,23.0665835 8.51414141,24.0361736 8.51414141,25.2278033 C8.51414141,25.8989802 8.82171717,26.5226132 9.35707071,26.9388744 C9.83737374,27.3202364 10.1075758,27.8760942 10.1075758,28.4708975 C10.1075758,29.4698231 9.35656566,30.3023455 8.36060606,30.4075488 L8.25454545,30.4131124 L2.02020202,30.4131124 L2.02020202,47.745357 Z M21.3479798,49.7684975 L0,49.7684975 L0,28.3899719 L7.93888889,28.3899719 C7.02070707,27.596395 6.49393939,26.4543322 6.49393939,25.2278033 C6.49393939,22.9204116 8.36868687,21.043443 10.6732323,21.043443 C12.9777778,21.043443 14.8530303,22.9204116 14.8530303,25.2278033 C14.8530303,26.4533207 14.3287879,27.5928545 13.4065657,28.3899719 L21.3479798,28.3899719 L21.3479798,36.3464777 C22.1393939,35.4239256 23.2828283,34.8948744 24.5121212,34.8948744 C26.8156566,34.8948744 28.689899,36.7723488 28.689899,39.0792347 C28.689899,41.3866264 26.8156566,43.2641008 24.5121212,43.2641008 C23.2848485,43.2641008 22.1439394,42.7370727 21.3479798,41.8099686 L21.3479798,49.7684975 Z"/>
    <path fill="#FFF" d="M24.505303,16.4945633 C23.484596,16.4945633 22.5780303,16.9811286 21.9987374,17.7312079 C21.8260101,17.9466724 21.564899,18.0882922 21.2669192,18.0882922 C20.7825758,18.0882922 20.3896465,17.7190691 20.3376263,17.2476774 L20.3376263,9.99016661 L1.00984848,9.99016661 L1.00984848,29.3460575 L8.51540404,29.3460575 C8.55631313,29.3288608 8.59419192,29.3091352 8.63055556,29.2868807 C8.63510101,29.2848575 8.64065657,29.281317 8.64570707,29.2803055 C8.68106061,29.2570393 8.71641414,29.2332674 8.74924242,29.2064608 C8.75126263,29.2054493 8.75277778,29.2024145 8.75631313,29.2008972 C8.81540404,29.1513302 8.86641414,29.0956939 8.91186869,29.0349997 C8.92045455,29.0238724 8.92853535,29.0147683 8.93560606,29.0041468 C8.95025253,28.9834096 8.96237374,28.9596377 8.975,28.9368774 C8.98863636,28.9131055 9.00277778,28.8878162 9.01338384,28.8625269 C9.02348485,28.8417898 9.03106061,28.8215583 9.03914141,28.8003154 C9.04974747,28.7664278 9.05984848,28.7350691 9.06893939,28.7016873 C9.0719697,28.6819617 9.0780303,28.664765 9.08156566,28.6460509 C9.09065657,28.5919319 9.09722222,28.5383187 9.09722222,28.4816707 C9.09722222,28.1837633 8.95429293,27.9217666 8.73762626,27.7487881 C7.98964646,27.1686526 7.50429293,26.261274 7.50429293,25.2400939 C7.50429293,23.4870426 8.92449495,22.0662922 10.6729798,22.0662922 C12.4234848,22.0662922 13.8431818,23.4870426 13.8431818,25.2400939 C13.8431818,26.2632972 13.3578283,27.1686526 12.6073232,27.7497997 C12.3916667,27.9227782 12.2502525,28.1847749 12.2502525,28.4816707 C12.2502525,28.5383187 12.2568182,28.5919319 12.2669192,28.6460509 C12.2694444,28.664765 12.275,28.6829732 12.2795455,28.7016873 C12.2876263,28.7350691 12.2972222,28.7664278 12.3088384,28.8003154 C12.315404,28.8215583 12.325,28.8417898 12.3340909,28.8625269 C12.345202,28.8878162 12.3578283,28.9131055 12.3724747,28.9368774 C12.385101,28.9596377 12.3967172,28.9834096 12.4118687,29.0041468 C12.4194444,29.0147683 12.4275253,29.0238724 12.435101,29.0349997 C12.4805556,29.0956939 12.5320707,29.1513302 12.5911616,29.2008972 C12.5941919,29.2024145 12.5962121,29.2054493 12.5987374,29.2064608 C12.6305556,29.2332674 12.665404,29.2570393 12.7007576,29.2777765 C12.7058081,29.281317 12.7108586,29.2848575 12.714899,29.2868807 C12.7532828,29.3091352 12.7911616,29.3288608 12.8320707,29.3460575 L20.3376263,29.3460575 L20.3376263,22.088041 C20.3896465,21.6161435 20.7825758,21.2464145 21.2669192,21.2464145 C21.5638889,21.2464145 21.825,21.389046 21.9977273,21.6045104 C22.5780303,22.3550955 23.4835859,22.8416608 24.505303,22.8416608 C26.2542929,22.8416608 27.6744949,21.4209104 27.6744949,19.6673534 C27.6744949,17.9148079 26.2542929,16.4945633 24.505303,16.4945633"/>
    <path fill="#282D33" d="M13.4829798,28.3343355 L19.3274242,28.3343355 L19.3334848,21.9776281 C19.4425758,20.9837603 20.2738889,20.2346926 21.2668182,20.2346926 C21.8567172,20.2346926 22.4107576,20.5032645 22.7855051,20.9711157 C23.2112626,21.5224215 23.8339899,21.8304446 24.505202,21.8304446 C25.6961111,21.8304446 26.664798,20.859843 26.664798,19.6672017 C26.664798,18.4755719 25.6961111,17.5059818 24.505202,17.5059818 C23.8339899,17.5059818 23.2117677,17.8134992 22.7981313,18.3496314 C22.4127778,18.8316446 21.8582323,19.0997107 21.2668182,19.0997107 C20.2738889,19.0997107 19.4425758,18.3511488 19.3334848,17.3582926 L19.3274242,17.2475256 L19.3274242,11.0020909 L2.02035354,11.0020909 L2.02035354,28.3343355 L7.86277778,28.3343355 C6.99257576,27.5478397 6.49409091,26.4341008 6.49409091,25.2399421 C6.49409091,22.9320446 8.36883838,21.0545702 10.6728788,21.0545702 C12.9779293,21.0545702 14.8531818,22.9320446 14.8531818,25.2399421 C14.8531818,26.4300545 14.3572222,27.5402529 13.4829798,28.3343355 L13.4829798,28.3343355 Z M21.3476263,30.357476 L12.6314646,30.357476 L12.4461111,30.2811025 C12.3632828,30.2467091 12.2880303,30.2077636 12.2102525,30.1632545 L12.1420707,30.1212744 C12.1304545,30.1141934 12.1193434,30.1066066 12.1077273,30.0995256 L12.044596,30.0737306 L11.924899,29.9609405 C11.815303,29.8673702 11.715303,29.759638 11.6264141,29.6407785 L11.585,29.5856479 C11.5521717,29.5386099 11.5218687,29.4880314 11.4940909,29.4364413 C11.4612626,29.3802992 11.4319697,29.3211223 11.4067172,29.262957 C11.3880303,29.2219884 11.3663131,29.1683752 11.3481313,29.1132446 C11.3294444,29.058114 11.3107576,28.9948909 11.2956061,28.9296446 C11.2865152,28.8947455 11.2784343,28.8573174 11.2718687,28.8188777 C11.2516667,28.7081107 11.2400505,28.5978496 11.2400505,28.481519 C11.2400505,27.8887388 11.5092424,27.3338926 11.9774242,26.9596116 C12.525404,26.5347521 12.8329798,25.9116248 12.8329798,25.2399421 C12.8329798,24.0473008 11.8637879,23.0777107 10.6728788,23.0777107 C9.4829798,23.0777107 8.51429293,24.0473008 8.51429293,25.2399421 C8.51429293,25.911119 8.82136364,26.5342463 9.35621212,26.9484843 C9.8380303,27.3333868 10.1072222,27.8892446 10.1072222,28.481519 C10.1072222,28.5948149 10.0961111,28.7020413 10.0784343,28.8102793 L10.0410606,28.9776942 C10.0284343,29.0227091 10.015303,29.0657008 10.0001515,29.1117273 C9.96732323,29.2022628 9.94863636,29.2493008 9.92540404,29.2973504 C9.91176768,29.3297207 9.87994949,29.3909207 9.84762626,29.446557 C9.82691919,29.4844909 9.80469697,29.5224248 9.78045455,29.5588413 L9.70419192,29.6625273 C9.63146465,29.7601438 9.5319697,29.8673702 9.42186869,29.9619521 L9.26126263,30.0848579 C9.24055556,30.0990198 9.21984848,30.112676 9.19914141,30.1263322 L9.01580808,30.2285008 C8.97944444,30.2467091 8.94207071,30.2639058 8.90318182,30.2800909 L8.71681818,30.357476 L0.000151515151,30.357476 L0.000151515151,8.97895041 L21.3476263,8.97895041 L21.3476263,16.9298926 C22.1344949,16.0118926 23.2769192,15.4828413 24.505202,15.4828413 C26.8102525,15.4828413 28.685,17.3603157 28.685,19.6672017 C28.685,21.975605 26.8102525,23.8535851 24.505202,23.8535851 C23.2824747,23.8535851 22.144596,23.329086 21.3476263,22.4060281 L21.3476263,30.357476 Z"/>
    <path fill="#FFF" d="M32.3621717,29.3960291 C31.9672222,29.5083134 31.6793434,29.8653977 31.6778283,30.2973382 C31.6768182,30.5957514 31.8187374,30.8577481 32.0359091,31.0317382 C32.784899,31.6133911 33.2682323,32.5212754 33.2667172,33.5454902 C33.264697,35.2990473 31.8439899,36.7197977 30.0914646,36.7172688 C28.3399495,36.7152456 26.9217677,35.2919663 26.9242929,33.5373977 C26.9242929,32.5147002 27.4106566,31.6052985 28.1621717,31.0266803 C28.3788384,30.8537018 28.5212626,30.5917051 28.5202525,30.2932919 C28.5212626,29.862363 28.2318687,29.5032555 27.8384343,29.3909712 L20.4323737,29.3813613 L20.4242929,36.6419068 C20.4732828,37.116839 20.8662121,37.4890969 21.3540909,37.4901084 C21.6520707,37.4901084 21.914697,37.3484886 22.0879293,37.131001 C22.6672222,36.3809217 23.5758081,35.8958737 24.5970202,35.8978969 C26.3495455,35.8994142 27.7662121,37.3247167 27.7657071,39.0772621 C27.7636869,40.8328423 26.3414646,42.2525812 24.5899495,42.250558 C23.5682323,42.250558 22.6606566,41.7614638 22.0818687,41.0103729 C21.9101515,40.7928853 21.6480303,40.6517712 21.3510606,40.6502539 C20.8631818,40.6512655 20.4697475,41.022006 20.4192424,41.4964324 L20.4111616,48.7559663 L39.7561111,48.7761977 L39.7773232,29.4041217 L32.3621717,29.3960291 Z"/>
    <g transform="translate(19.192 28.04)">
      <mask id="20part-b" fill="#fff">
        <use xlink:href="#20part-a"/>
      </mask>
      <path fill="#282D33" d="M2.24954545,2.3540757 L2.2429798,8.29199306 C3.02984848,7.37399306 4.17075758,6.84595339 5.3980303,6.84595339 C5.9960101,6.84645917 6.56469697,6.97290545 7.07883838,7.19949719 C6.84449495,6.66994017 6.72176768,6.09233355 6.72227273,5.49550711 C6.72227273,4.28364595 7.23540404,3.15625091 8.13944444,2.36166248 L2.24954545,2.3540757 Z M2.23035354,19.7050344 L19.555101,19.7237484 L19.5742929,2.37430711 L13.6758081,2.3677319 C14.5727778,3.15726248 15.0869192,4.29022116 15.084899,5.50714017 C15.0823737,7.81250876 13.2071212,9.68846579 10.9040909,9.68846579 C10.3157071,9.68796 9.7470202,9.56758314 9.22530303,9.33896826 C9.45611111,9.85840959 9.58439394,10.4334873 9.58388889,11.0373947 C9.58186869,13.3447864 7.70560606,15.221755 5.40257576,15.221755 C4.17328283,15.221755 3.03388889,14.6952327 2.23691919,13.7686344 L2.23035354,19.7050344 Z M21.5732828,21.7489121 L0.208131313,21.7261517 L0.222777778,13.3483269 C0.329343434,12.352436 1.16166667,11.5998278 2.15762626,11.5983104 C2.75914141,11.6018509 3.31267677,11.8734575 3.68287879,12.3438377 C4.10409091,12.8900856 4.72681818,13.1986145 5.3980303,13.1986145 C6.5929798,13.1986145 7.56267677,12.2285187 7.56368687,11.0358774 C7.56419192,9.84273025 6.59550505,8.87061124 5.40409091,8.86909388 C4.72833333,8.86909388 4.10762626,9.17559967 3.69550505,9.70920298 C3.31116162,10.191722 2.75611111,10.4613055 2.16217172,10.4613055 C1.16116162,10.4597881 0.329848485,9.70465091 0.227828283,8.70471372 L0.222272727,8.65312364 L0.231363636,0.328406281 L8.78742424,0.339533554 L8.92176768,0.377467438 C9.75914141,0.615186446 10.3409596,1.38802612 10.3384343,2.25645917 C10.3409596,2.84316992 10.0717677,3.40105091 9.59954545,3.77786083 C9.05005051,4.20120298 8.74247475,4.82382446 8.74247475,5.49702446 C8.7419697,6.07716 8.96570707,6.62087901 9.37328283,7.03005917 C9.78085859,7.43923934 10.3232828,7.6648195 10.9005556,7.66532529 C12.0944949,7.66532529 13.0636869,6.69573521 13.064697,5.50461124 C13.0657071,4.83039967 12.7601515,4.20626083 12.225303,3.79151702 C11.7414646,3.40357983 11.4732828,2.84620463 11.4758081,2.25241289 C11.4778283,1.38903769 12.0616667,0.619232727 12.8944949,0.382525289 L13.0303535,0.34408562 L21.5965152,0.353695537 L21.5732828,21.7489121 Z" mask="url(#20part-b)"/>
    </g>
  </g>
</svg>
