<svg xmlns="http://www.w3.org/2000/svg" xmlns:xlink="http://www.w3.org/1999/xlink" width="100" height="100" viewBox="0 0 100 100">
  <defs>
    <polygon id="questions-a" points="26 74.756 74.898 74.756 74.898 23.515 26 23.515"/>
  </defs>
  <g fill="none" fill-rule="evenodd">
    <path fill="#FFF" d="M51.2380713,24.5445545 C38.734903,24.5445545 28.6041703,34.6742574 28.6041703,47.1774257 C28.6041703,52.7651089 30.6326851,57.8662574 33.989002,61.8151683 L28.7138337,71.817703 L38.3091208,65.7373069 C41.9733188,68.2986931 46.4242099,69.8128713 51.2380713,69.8128713 C63.7345465,69.8128713 73.8678535,59.6764752 73.8678535,47.1774257 C73.8678535,34.6742574 63.7345465,24.5445545 51.2380713,24.5445545 L51.2380713,24.5445545 Z"/>
    <path fill="#282D33" d="M25.2380713,2.30298218 C13.3254376,2.30298218 3.63387327,11.9940317 3.63387327,23.9061505 C3.63387327,29.0160515 5.45902178,33.9776752 8.77363564,37.8771604 L9.22464554,38.4079723 L5.42761584,45.6076554 L12.3369228,41.2293584 L12.8991406,41.6221901 C16.5391406,44.167101 20.8062297,45.5118931 25.2380713,45.5118931 C37.1481307,45.5118931 46.8381505,35.819299 46.8381505,23.9061505 C46.8381505,11.9940317 37.1481307,2.30298218 25.2380713,2.30298218 L25.2380713,2.30298218 Z M5.14851485e-05,51.4852 L6.75799208,38.6700317 C3.41042772,34.4853188 1.57446733,29.2703881 1.57446733,23.9061505 C1.57446733,10.8582693 12.1896752,0.243576238 25.2380713,0.243576238 C38.2838931,0.243576238 48.8975564,10.8582693 48.8975564,23.9061505 C48.8975564,36.9550614 38.2838931,47.571299 25.2380713,47.571299 C20.6121307,47.571299 16.1504277,46.2337149 12.2900713,43.6970416 L5.14851485e-05,51.4852 Z" transform="translate(26 23.271)"/>
    <path fill="#FF7502" d="M69.7898178,47.2048158 C69.7898178,57.5064792 61.4389267,65.8568554 51.1388079,65.8568554 C40.8376594,65.8568554 32.4867683,57.5064792 32.4867683,47.2048158 C32.4867683,36.9041822 40.8376594,28.5538059 51.1388079,28.5538059 C61.4389267,28.5538059 69.7898178,36.9041822 69.7898178,47.2048158"/>
    <mask id="questions-b" fill="#fff">
      <use xlink:href="#questions-a"/>
    </mask>
    <path fill="#FFF" d="M45.3056641,42.3847656 L47.8105469,42.3847656 C47.8886723,41.3398385 48.2622037,40.5122101 48.9311523,39.9018555 C49.600101,39.2915009 50.4863226,38.9863281 51.5898438,38.9863281 C52.6835992,38.9863281 53.5551725,39.2841767 54.2045898,39.8798828 C54.8540072,40.4755889 55.1787109,41.2275345 55.1787109,42.1357422 C55.1787109,42.9169961 54.9980487,43.5712864 54.6367188,44.0986328 C54.2753888,44.6259792 53.6699261,45.1484349 52.8203125,45.6660156 C51.8144481,46.2617217 51.072268,46.9111293 50.59375,47.6142578 C50.115232,48.3173863 49.8808593,49.1523389 49.890625,50.1191406 L49.890625,51.4667969 L52.4541016,51.4667969 L52.4541016,50.5146484 C52.4541016,49.7431602 52.6201155,49.1108423 52.9521484,48.6176758 C53.2841813,48.1245093 53.9140579,47.6044949 54.8417969,47.0576172 C55.7793016,46.4912081 56.523923,45.7954143 57.0756836,44.9702148 C57.6274442,44.1450154 57.9033203,43.1562558 57.9033203,42.0039062 C57.9033203,40.4902268 57.3295956,39.2280324 56.1821289,38.2172852 C55.0346622,37.2065379 53.5380952,36.7011719 51.6923828,36.7011719 C49.6318256,36.7011719 48.0717826,37.2529242 47.012207,38.3564453 C45.9526314,39.4599665 45.3837895,40.8027265 45.3056641,42.3847656 Z M51.1796875,58.1464844 C51.6582055,58.1464844 52.0561508,57.9853532 52.3735352,57.6630859 C52.6909196,57.3408187 52.8496094,56.9453148 52.8496094,56.4765625 C52.8496094,55.9980445 52.6909196,55.6000992 52.3735352,55.2827148 C52.0561508,54.9653304 51.6582055,54.8066406 51.1796875,54.8066406 C50.7109352,54.8066406 50.3154313,54.9653304 49.9931641,55.2827148 C49.6708968,55.6000992 49.5097656,55.9980445 49.5097656,56.4765625 C49.5097656,56.9453148 49.6708968,57.3408187 49.9931641,57.6630859 C50.3154313,57.9853532 50.7109352,58.1464844 51.1796875,58.1464844 Z" mask="url(#questions-b)"/>
  </g>
</svg>
