<svg xmlns="http://www.w3.org/2000/svg" width="100" height="100" viewBox="0 0 100 100">
  <g fill="none" fill-rule="evenodd" transform="translate(24 30)">
    <polygon fill="#FFF" points="1.08 35.951 52.92 35.951 52.92 1.073 1.08 1.073"/>
    <path fill="#282D33" d="M0,37.0239073 L54,37.0239073 L54,5.36585367e-05 L0,5.36585367e-05 L0,37.0239073 Z M2.16,34.8781024 L51.84054,34.8781024 L51.84054,2.14639512 L2.16,2.14639512 L2.16,34.8781024 Z"/>
    <polygon fill="#282D33" points="8.37 42.253 47.722 42.253 47.722 40.107 8.37 40.107"/>
    <polygon fill="#282D33" points="50.939 42.253 54 42.253 54 40.107 50.939 40.107"/>
    <polygon fill="#282D33" points="0 43.125 2.16 43.125 2.16 39.235 0 39.235"/>
    <polygon fill="#282D33" points="3.24 43.125 5.4 43.125 5.4 39.235 3.24 39.235"/>
    <path fill="#FF7502" d="M18.112194 41.1802976C18.112194 42.4520049 17.074314 43.483322 15.795054 43.483322 14.514714 43.483322 13.476834 42.4520049 13.476834 41.1802976 13.476834 39.9085902 14.514714 38.8772732 15.795054 38.8772732 17.074314 38.8772732 18.112194 39.9085902 18.112194 41.1802976M17.1818182 17.9259259C17.1818182 23.3260435 21.5641608 27.7037037 26.9568538 27.7037037L27.0431462 27.7037037C32.4417493 27.7037037 36.8181818 23.3272308 36.8181818 17.9259259L36.8181818 17.9259259C36.8181818 12.5258084 32.4358392 8.14814815 27.0431462 8.14814815L26.9568538 8.14814815C21.5582507 8.14814815 17.1818182 12.524621 17.1818182 17.9259259L17.1818182 17.9259259z"/>
    <path fill="#FFF" d="M25.3636364,20.1455721 L25.3636364,15.2754146 C25.3636364,15.0507786 25.4888182,14.8444057 25.68825,14.7384797 C25.8876818,14.6325538 26.1294545,14.6447292 26.3178409,14.7689182 L29.9996591,17.203997 C30.17025,17.3172282 30.2727273,17.5065555 30.2727273,17.7104934 C30.2727273,17.9138224 30.17025,18.1037586 29.9990455,18.2169898 L26.3172273,20.6520685 C26.1294545,20.7768663 25.8870682,20.7884329 25.6876364,20.682507 C25.4882045,20.5759723 25.3636364,20.3702081 25.3636364,20.1455721 Z"/>
  </g>
</svg>
