<svg xmlns="http://www.w3.org/2000/svg" xmlns:xlink="http://www.w3.org/1999/xlink" width="100" height="100" viewBox="0 0 100 100">
  <defs>
    <polygon id="savetime-a" points=".118 43.599 43.462 43.599 43.462 .56 .118 .56"/>
  </defs>
  <g fill="none" fill-rule="evenodd" transform="translate(28 21)">
    <path fill="#FFF" d="M42.6977694,32.4794029 C42.6977694,43.6447191 33.5813374,52.6983993 22.3363617,52.6983993 C11.0900752,52.6983993 1.97429854,43.6447191 1.97429854,32.4794029 C1.97429854,21.3153882 11.0900752,12.2623588 22.3363617,12.2623588 C33.5813374,12.2623588 42.6977694,21.3153882 42.6977694,32.4794029 L42.6977694,32.4794029 Z"/>
    <g transform="translate(.546 10.4)">
      <mask id="savetime-b" fill="#fff">
        <use xlink:href="#savetime-a"/>
      </mask>
      <path fill="#282D33" d="M21.7900485,3.16283382 C11.2856068,3.16283382 2.73932039,11.6484221 2.73932039,22.0784074 C2.73932039,32.5096941 11.2856068,40.9965838 21.7900485,40.9965838 C32.2944903,40.9965838 40.8407767,32.5096941 40.8407767,22.0784074 C40.8407767,11.6484221 32.2944903,3.16283382 21.7900485,3.16283382 M21.7900485,43.599525 C9.83992718,43.599525 0.117961165,33.9452162 0.117961165,22.0784074 C0.117961165,10.2135507 9.83992718,0.559892647 21.7900485,0.559892647 C33.7401699,0.559892647 43.4621359,10.2135507 43.4621359,22.0784074 C43.4621359,33.9452162 33.7401699,43.599525 21.7900485,43.599525" mask="url(#savetime-b)"/>
    </g>
    <path fill="#FF7502" d="M22.336165,16.3336191 C22.260801,16.3336191 22.1860922,16.3381743 22.1120388,16.338825 L22.1120388,32.37945 L38.5944903,32.37945 C38.5407524,23.5092772 31.2828641,16.3336191 22.336165,16.3336191"/>
    <path fill="#FFF" d="M26.4326942,7.18968199 C26.4300728,7.67382904 26.0362136,8.06492096 25.5466748,8.06492096 L19.121068,8.06492096 C18.6348058,8.06492096 18.2396359,7.67382904 18.2416019,7.18968199 L18.2396359,3.04254596 C18.2416019,2.55709743 18.6348058,2.16275184 19.121068,2.16275184 L25.5466748,2.16535478 C26.0362136,2.16535478 26.4326942,2.55709743 26.4300728,3.04254596 L26.4326942,7.18968199 Z"/>
    <path fill="#282D33" d="M19.5522816,6.76325515 L25.1220146,6.76325515 L25.1193932,3.46663015 L19.5503155,3.46467794 L19.5522816,6.76325515 Z M25.5466748,9.36619632 L19.121068,9.36619632 C18.5338835,9.36619632 17.9827427,9.13908971 17.568568,8.72652353 C17.1550485,8.31395735 16.928301,7.76668897 16.9309223,7.18428088 L16.9289563,3.04300147 C16.9335437,1.83783971 17.9172087,0.861736765 19.121068,0.861736765 L25.5473301,0.864339706 C26.1364806,0.864339706 26.6895874,1.09209706 27.1044175,1.50596471 C27.5179369,1.91918162 27.7440291,2.46645 27.7407524,3.04885809 L27.7433738,7.18883603 C27.7368204,8.39269632 26.7518447,9.36619632 25.5466748,9.36619632 L25.5466748,9.36619632 Z"/>
    <path fill="#FFF" d="M7.85086165,14.7017051 L6.39010922,12.5653412 C6.21841019,12.3161096 6.28394417,11.9764257 6.53493932,11.8078853 L9.84506068,9.57586324 C10.0947451,9.40732279 10.4368325,9.47109485 10.6078762,9.72162794 L12.0686286,11.855389"/>
    <path fill="#282D33" d="M6.76673301,15.4328713 L5.30532524,13.2965074 C5.02746117,12.89175 4.92326214,12.3997941 5.01632039,11.9149963 C5.10937864,11.4288971 5.38724272,11.0085221 5.79879612,10.7306581 L9.10826214,8.49928676 C9.51916019,8.22142279 10.0152524,8.12186029 10.5028252,8.21361397 C10.9910534,8.30601838 11.4144029,8.58258088 11.6929223,8.99124265 L13.1523641,11.1237022 L10.9845,12.5865551 L9.95102913,11.0775 L7.90112621,12.4596618 L8.93525243,13.9706691 L6.76673301,15.4328713 Z"/>
    <path fill="#FFF" d="M36.8214684,14.7017051 L38.2822209,12.5659919 C38.4532646,12.3161096 38.3870752,11.9770765 38.1360801,11.808536 L34.8266141,9.57651397 C34.5762743,9.40797353 34.2354976,9.47109485 34.0637985,9.72227868 L32.6030461,11.855389"/>
    <path fill="#282D33" d="M37.9055971,15.4328713 L35.7370777,13.9706691 L36.7698932,12.4603125 L34.7206456,11.0781507 L33.6865194,12.5872059 L31.5193107,11.1237022 L32.9800631,8.99059191 C33.5541408,8.14919118 34.7134369,7.92859191 35.5621019,8.49928676 L38.8728786,10.7319596 C39.284432,11.0091728 39.5616408,11.4295478 39.6553544,11.9149963 C39.7484126,12.3991434 39.6448689,12.8910993 39.3650388,13.2991103 L37.9055971,15.4328713 Z"/>
    <path fill="#FFF" d="M32.9598131 32.4799886C32.9598131 38.3060217 28.2033568 43.0297092 22.3360995 43.0297092 16.4681869 43.0297092 11.7110752 38.3060217 11.7110752 32.4799886 11.7110752 26.6546063 16.4681869 21.9309188 22.3360995 21.9309188 28.2033568 21.9309188 32.9598131 26.6546063 32.9598131 32.4799886M22.1902209 17.4311493L22.1902209 19.9618588"/>
    <polygon fill="#282D33" points="20.879 19.961 23.501 19.961 23.501 17.431 20.879 17.431"/>
    <path fill="#FFF" d="M14.6327112,19.5192938 L15.9060364,21.7103195"/>
    <polygon fill="#282D33" points="14.771 22.361 13.498 20.17 15.768 18.869 17.042 21.06"/>
    <path fill="#FFF" d="M9.1378835,25.0791761 L11.345068,26.3474592"/>
    <polygon fill="#282D33" points="10.689 27.474 8.481 26.206 9.795 23.953 12.002 25.221"/>
    <path fill="#FFF" d="M7.18018689,32.6242566 L9.7288034,32.6242566"/>
    <polygon fill="#282D33" points="7.18 33.925 9.729 33.925 9.729 31.323 7.18 31.323"/>
    <path fill="#FFF" d="M9.28186165,40.1299676 L11.4897015,38.8649382"/>
    <polygon fill="#282D33" points="9.937 41.257 8.627 39.003 10.834 37.737 12.145 39.992"/>
    <path fill="#FFF" d="M14.8816748,45.5849515 L16.1576214,43.3939257"/>
    <polygon fill="#282D33" points="16.016 46.237 13.747 44.933 15.023 42.742 17.292 44.046"/>
    <path fill="#FFF" d="M22.4795534,47.5301945 L22.4808641,44.9988342"/>
    <polygon fill="#282D33" points="23.79 47.531 21.169 47.529 21.17 44.998 23.792 44.999"/>
    <path fill="#FFF" d="M30.0389636,45.4426357 L28.7656383,43.2496577"/>
    <polygon fill="#282D33" points="28.904 46.093 27.63 43.9 29.9 42.6 31.174 44.793"/>
    <path fill="#FFF" d="M35.5325461,39.8821026 L33.3266723,38.6144702"/>
    <polygon fill="#282D33" points="34.876 41.009 32.67 39.741 33.983 37.488 36.189 38.756"/>
    <path fill="#FFF" d="M37.4908981,32.3389092 L34.9416262,32.3356555"/>
    <polygon fill="#282D33" points="37.489 33.64 34.94 33.637 34.944 31.034 37.493 31.037"/>
    <path fill="#FFF" d="M35.388568,24.8326125 L33.1800728,26.0963404"/>
    <polygon fill="#282D33" points="33.835 27.224 32.525 24.969 34.734 23.705 36.043 25.961"/>
    <path fill="#FFF" d="M29.7894102,19.3763272 L28.5134636,21.5667022"/>
    <polygon fill="#282D33" points="29.648 22.219 27.378 20.915 28.654 18.725 30.924 20.028"/>
    <path fill="#FFF" d="M23.4702306,31.0730338 L30.4214199,24.0379346"/>
    <polygon fill="#282D33" points="24.406 31.985 22.535 30.161 29.486 23.126 31.357 24.949"/>
    <path fill="#FFF" d="M24.2868495,32.4634599 C24.2855388,31.3930004 23.4113155,30.526221 22.3345922,30.5242687 C21.2585243,30.526221 20.3829903,31.3930004 20.3849563,32.4628092 C20.3849563,33.532618 21.2572136,34.4006989 22.3359029,34.4006989 C23.4113155,34.4013496 24.2855388,33.532618 24.2868495,32.4634599"/>
    <path fill="#282D33" d="M22.3317087,31.825479 C21.983068,31.8261298 21.6947184,32.1111518 21.6953738,32.4605967 C21.6953738,32.8132952 21.983068,33.098968 22.3362961,33.098968 L22.3376068,33.098968 C22.6895243,33.098968 22.9752524,32.8132952 22.9759078,32.4618982 C22.9752524,32.113104 22.6869029,31.8261298 22.3317087,31.825479 M22.3376068,35.7019092 L22.3376068,35.7019092 C20.5380437,35.7019092 19.0740146,34.2488173 19.0740146,32.4625489 C19.0707379,30.6801849 20.532801,29.2257915 22.3323641,29.2225379 C24.1332379,29.2264423 25.595301,30.6801849 25.597267,32.4618982 C25.595301,34.2501188 24.1332379,35.7019092 22.3376068,35.7019092"/>
    <polygon fill="#282D33" points="21.025 11.005 23.647 11.005 23.647 7.952 21.025 7.952"/>
  </g>
</svg>
