<svg xmlns="http://www.w3.org/2000/svg" xmlns:xlink="http://www.w3.org/1999/xlink" width="100" height="100" viewBox="0 0 100 100">
  <defs>
    <polygon id="unique-a" points="0 25.385 24.954 25.385 24.954 .457 0 .457 0 25.385"/>
    <polygon id="unique-c" points="26.996 .352 .347 .352 .347 26.973 26.996 26.973 26.996 .352"/>
    <polygon id="unique-e" points=".168 25.385 25.122 25.385 25.122 .457 .168 .457"/>
    <polygon id="unique-g" points="0 54.648 53.71 54.648 53.71 .529 0 .529"/>
  </defs>
  <g fill="none" fill-rule="evenodd" transform="translate(24 22)">
    <g transform="translate(0 29.264)">
      <mask id="unique-b" fill="#fff">
        <use xlink:href="#unique-a"/>
      </mask>
      <path fill="#282D33" d="M12.4773882,2.57246635 C6.76503529,2.57246635 2.11785882,7.21467788 2.11785882,12.9209279 C2.11785882,18.6271779 6.76503529,23.2693894 12.4773882,23.2693894 C18.1892118,23.2693894 22.8363882,18.6271779 22.8363882,12.9209279 C22.8363882,7.21467788 18.1892118,2.57246635 12.4773882,2.57246635 M12.4773882,25.384774 C5.59715294,25.384774 0.000211764706,19.7932837 0.000211764706,12.9209279 C0.000211764706,6.04857212 5.59715294,0.457081731 12.4773882,0.457081731 C19.3570941,0.457081731 24.9540353,6.04857212 24.9540353,12.9209279 C24.9540353,19.7932837 19.3570941,25.384774 12.4773882,25.384774" mask="url(#unique-b)"/>
    </g>
    <path fill="#FFF" d="M6.14461765,46.5829375 C5.24408824,45.302601 4.76073529,43.7848125 4.76073529,42.1850529 C4.76073529,37.9347163 8.22255882,34.4765913 12.4774412,34.4765913 C16.7317941,34.4765913 20.1930882,37.9347163 20.1930882,42.1850529 C20.1930882,43.7848125 19.7097353,45.3020721 18.8097353,46.5824087 C18.2040882,45.0588029 16.7132647,43.9783702 14.9746765,43.9783702 L9.97967647,43.9783702 C8.24108824,43.9783702 6.75026471,45.0588029 6.14461765,46.5829375"/>
    <path fill="#FF7502" d="M36.3867353,13.8391106 C36.3867353,19.0688702 32.1419118,23.3086298 26.9070882,23.3086298 C21.6722647,23.3086298 17.4274412,19.0688702 17.4274412,13.8391106 C17.4274412,8.60935096 21.6722647,4.36959135 26.9070882,4.36959135 C32.1419118,4.36959135 36.3867353,8.60935096 36.3867353,13.8391106"/>
    <g transform="translate(13.235 .177)">
      <mask id="unique-d" fill="#fff">
        <use xlink:href="#unique-c"/>
      </mask>
      <path fill="#282D33" d="M13.6716882,2.46685577 C7.49186471,2.46685577 2.46457059,7.48930769 2.46457059,13.662 C2.46457059,19.8352212 7.49186471,24.8571442 13.6716882,24.8571442 C19.8515118,24.8571442 24.8788059,19.8352212 24.8788059,13.662 C24.8788059,7.48930769 19.8515118,2.46685577 13.6716882,2.46685577 M13.6716882,26.9725288 C6.32451176,26.9725288 0.346923529,21.0013269 0.346923529,13.662 C0.346923529,6.32214423 6.32451176,0.351471154 13.6716882,0.351471154 C21.0188647,0.351471154 26.9964529,6.32214423 26.9964529,13.662 C26.9964529,21.0013269 21.0188647,26.9725288 13.6716882,26.9725288" mask="url(#unique-d)"/>
    </g>
    <path fill="#FFF" d="M30.2369824,12.7305433 C30.2369824,14.567226 28.7461588,16.0564567 26.9069824,16.0564567 C25.0678059,16.0564567 23.5769824,14.567226 23.5769824,12.7305433 C23.5769824,10.8933317 25.0678059,9.40410096 26.9069824,9.40410096 C28.7461588,9.40410096 30.2369824,10.8933317 30.2369824,12.7305433"/>
    <path fill="#282D33" d="M26.9067176,10.4615288 C25.6546588,10.4615288 24.6360706,11.4795577 24.6360706,12.7302788 C24.6360706,13.9815288 25.6546588,14.9990288 26.9067176,14.9990288 C28.1593059,14.9990288 29.1778941,13.9815288 29.1778941,12.7302788 C29.1778941,11.4795577 28.1593059,10.4615288 26.9067176,10.4615288 M26.9067176,17.1144135 C24.4867765,17.1144135 22.5184235,15.1476346 22.5184235,12.7302788 C22.5184235,10.3129231 24.4867765,8.34614423 26.9067176,8.34614423 C29.3266588,8.34614423 31.2955412,10.3129231 31.2955412,12.7302788 C31.2955412,15.1476346 29.3266588,17.1144135 26.9067176,17.1144135"/>
    <path fill="#FFF" d="M29.4048529,16.4262788 L24.4098529,16.4262788 C22.5706765,16.4262788 21.0793235,17.9155096 21.0793235,19.7527212 L21.0793235,20.0229615 C22.6024412,21.4561346 24.6491471,22.3403654 26.9065588,22.3403654 C29.1650294,22.3403654 31.2117353,21.4561346 32.7343235,20.0229615 L32.7343235,19.7527212 C32.7343235,17.9155096 31.2435,16.4262788 29.4048529,16.4262788"/>
    <path fill="#282D33" d="M22.1464059,19.5554615 C23.4863471,20.6723846 25.1598176,21.2826731 26.9068765,21.2826731 C28.6539353,21.2826731 30.3279353,20.6723846 31.6668176,19.5559904 C31.5667588,18.3967596 30.5905235,17.4839712 29.4046412,17.4839712 L24.4096412,17.4839712 C23.2237588,17.4839712 22.2464647,18.3967596 22.1464059,19.5554615 M26.9068765,23.3980577 C24.4662882,23.3980577 22.1389941,22.4731058 20.3532882,20.7929615 L20.0202882,20.4798846 L20.0202882,19.7527212 C20.0202882,17.3353654 21.9891706,15.3685865 24.4096412,15.3685865 L29.4046412,15.3685865 C31.8245824,15.3685865 33.7929353,17.3353654 33.7929353,19.7527212 L33.7929353,20.4798846 L33.4604647,20.7929615 C31.6752882,22.4725769 29.3479941,23.3980577 26.9068765,23.3980577"/>
    <path fill="#FFF" d="M15.8076529,41.076274 C15.8076529,42.9129567 14.3163,44.4021875 12.4776529,44.4021875 C10.6384765,44.4021875 9.14712353,42.9129567 9.14712353,41.076274 C9.14712353,39.2385337 10.6384765,37.7498317 12.4776529,37.7498317 C14.3163,37.7498317 15.8076529,39.2385337 15.8076529,41.076274"/>
    <path fill="#282D33" d="M12.4773882,38.8074712 C11.2248,38.8074712 10.2062118,39.8249712 10.2062118,41.0762212 C10.2062118,42.3269423 11.2248,43.3449712 12.4773882,43.3449712 C13.7299765,43.3449712 14.7485647,42.3269423 14.7485647,41.0762212 C14.7485647,39.8249712 13.7299765,38.8074712 12.4773882,38.8074712 M12.4773882,45.4603558 C10.0574471,45.4603558 8.08856471,43.4935769 8.08856471,41.0762212 C8.08856471,38.6588654 10.0574471,36.6920865 12.4773882,36.6920865 C14.8973294,36.6920865 16.8662118,38.6588654 16.8662118,41.0762212 C16.8662118,43.4935769 14.8973294,45.4603558 12.4773882,45.4603558"/>
    <path fill="#282D33" d="M19.3636059,51.9361827 L17.2459588,51.9361827 L17.2459588,48.0983462 C17.2459588,46.8470962 16.2268412,45.8295962 14.9747824,45.8295962 L9.97978235,45.8295962 C8.72719412,45.8295962 7.70860588,46.8470962 7.70860588,48.0983462 L7.70860588,51.9361827 L5.59095882,51.9361827 L5.59095882,48.0983462 C5.59095882,45.6804615 7.55984118,43.7142115 9.97978235,43.7142115 L14.9747824,43.7142115 C17.3947235,43.7142115 19.3636059,45.6804615 19.3636059,48.0983462 L19.3636059,51.9361827 Z"/>
    <g transform="translate(28.588 29.264)">
      <mask id="unique-f" fill="#fff">
        <use xlink:href="#unique-e"/>
      </mask>
      <path fill="#282D33" d="M12.6454235,2.57246635 C6.93307059,2.57246635 2.28589412,7.21467788 2.28589412,12.9209279 C2.28589412,18.6271779 6.93307059,23.2693894 12.6454235,23.2693894 C18.3572471,23.2693894 23.0044235,18.6271779 23.0044235,12.9209279 C23.0044235,7.21467788 18.3572471,2.57246635 12.6454235,2.57246635 M12.6454235,25.384774 C5.76518824,25.384774 0.168247059,19.7932837 0.168247059,12.9209279 C0.168247059,6.04857212 5.76518824,0.457081731 12.6454235,0.457081731 C19.5251294,0.457081731 25.1220706,6.04857212 25.1220706,12.9209279 C25.1220706,19.7932837 19.5251294,25.384774 12.6454235,25.384774" mask="url(#unique-f)"/>
    </g>
    <path fill="#FFF" d="M34.9008882,46.5829375 C34.0003588,45.3020721 33.5170059,43.7848125 33.5170059,42.1850529 C33.5170059,37.9347163 36.9788294,34.4765913 41.2337118,34.4765913 C45.4885941,34.4765913 48.9493588,37.9347163 48.9493588,42.1850529 C48.9493588,43.7842837 48.4660059,45.3015433 47.5660059,46.5824087 C46.9603588,45.0588029 45.4695353,43.9783702 43.7314765,43.9783702 L38.7359471,43.9783702 C36.9973588,43.9783702 35.5065353,45.0588029 34.9008882,46.5829375"/>
    <path fill="#FFF" d="M44.5636588,41.076274 C44.5636588,42.9129567 43.0728353,44.4021875 41.2336588,44.4021875 C39.3944824,44.4021875 37.9036588,42.9129567 37.9036588,41.076274 C37.9036588,39.2385337 39.3944824,37.7498317 41.2336588,37.7498317 C43.0728353,37.7498317 44.5636588,39.2385337 44.5636588,41.076274"/>
    <path fill="#282D33" d="M41.2336588,38.8074712 C39.9816,38.8074712 38.9624824,39.8249712 38.9624824,41.0762212 C38.9624824,42.3269423 39.9816,43.3449712 41.2336588,43.3449712 C42.4857176,43.3449712 43.5048353,42.3269423 43.5048353,41.0762212 C43.5048353,39.8249712 42.4857176,38.8074712 41.2336588,38.8074712 M41.2336588,45.4603558 C38.8137176,45.4603558 36.8448353,43.4935769 36.8448353,41.0762212 C36.8448353,38.6588654 38.8137176,36.6920865 41.2336588,36.6920865 C43.6536,36.6920865 45.6224824,38.6588654 45.6224824,41.0762212 C45.6224824,43.4935769 43.6536,45.4603558 41.2336588,45.4603558"/>
    <path fill="#282D33" d="M48.1196118,51.9361827 L46.0019647,51.9361827 L46.0019647,48.0983462 C46.0019647,46.8470962 44.9833765,45.8295962 43.7313176,45.8295962 L38.7357882,45.8295962 C37.4837294,45.8295962 36.4646118,46.8470962 36.4646118,48.0983462 L36.4646118,51.9361827 L34.3469647,51.9361827 L34.3469647,48.0983462 C34.3469647,45.6804615 36.3158471,43.7142115 38.7357882,43.7142115 L43.7313176,43.7142115 C46.1507294,43.7142115 48.1196118,45.6804615 48.1196118,48.0983462 L48.1196118,51.9361827 Z"/>
    <path fill="#FFF" d="M26.9069824,22.2084712 L26.9069824,32.4495769"/>
    <mask id="unique-h" fill="#fff">
      <use xlink:href="#unique-g"/>
    </mask>
    <polygon fill="#282D33" points="25.848 32.449 27.966 32.449 27.966 22.208 25.848 22.208" mask="url(#unique-h)"/>
    <path fill="#FFF" d="M20.8316647,34.8566202 L26.7107824,31.4656587" mask="url(#unique-h)"/>
    <polygon fill="#282D33" points="21.361 35.773 20.302 33.941 26.181 30.55 27.24 32.382" mask="url(#unique-h)"/>
    <path fill="#FFF" d="M32.9827765,34.8566202 L27.1026,31.4656587" mask="url(#unique-h)"/>
    <polygon fill="#282D33" points="32.453 35.773 26.573 32.382 27.632 30.55 33.512 33.941" mask="url(#unique-h)"/>
  </g>
</svg>
