<svg xmlns="http://www.w3.org/2000/svg" width="100" height="100" viewBox="0 0 100 100">
  <g fill="none" fill-rule="evenodd">
    <g transform="translate(27 28)">
      <polygon fill="#FFF" points="9 1 30.39 1 38 8.379 38 42 9 42"/>
      <polygon fill="#282D33" points="7.381 21.3 7.381 42.74 39.016 42.74 39.016 29.921 37.264 29.921 37.264 40.972 9.133 40.972 9.133 21.3"/>
      <polygon fill="#282D33" points="37.264 24.948 39.016 24.948 39.016 15.295 37.264 15.295"/>
      <polygon fill="#282D33" points="9.133 18.427 7.381 18.427 7.381 .084 30.077 .084 39.077 9.067 39.016 11.795 37.264 11.795 37.264 8.563 30.577 1.853 9.133 1.853"/>
      <g transform="translate(0 5.024)">
        <path fill="#FF7502" d="M34.716419,22.3689895 L41.3732762,22.3689895 L41.3732762,12.7677895 L34.716419,12.7677895 L34.716419,22.3689895 Z M44.8096952,22.8013684 L44.8096952,12.3336421 C44.8096952,10.6580632 43.4647429,9.29903158 41.8021714,9.29903158 L34.2862095,9.29903158 C32.6245143,9.29903158 31.2791238,10.6580632 31.2791238,12.3336421 L31.2791238,16.0199158 L11.7243048,16.0199158 L8.28788571,16.0199158 L5.9252381,16.0199158 L2.48925714,16.0199158 L0.876190476,16.0199158 L0.876190476,17.7538526 L0.876190476,19.4882316 L2.48925714,19.4882316 L2.48925714,23.3898105 L2.48925714,25.7723158 L4.20790476,25.7723158 L5.9252381,25.7723158 L5.9252381,23.3898105 L8.28788571,23.3898105 L8.28788571,25.7723158 L10.0069714,25.7723158 L11.7243048,25.7723158 L11.7243048,19.4882316 L31.2791238,19.4882316 L31.2791238,22.8013684 C31.2791238,24.4769474 32.6245143,25.8364211 34.2862095,25.8364211 L41.8021714,25.8364211 C43.4647429,25.8364211 44.8096952,24.4769474 44.8096952,22.8013684 L44.8096952,22.8013684 Z"/>
        <path fill="#282D33" d="M35.5926095,21.4847789 L40.4970857,21.4847789 L40.4970857,13.652 L35.5926095,13.652 L35.5926095,21.4847789 Z M33.8402286,23.2532 L42.2494667,23.2532 L42.2494667,11.8835789 L33.8402286,11.8835789 L33.8402286,23.2532 Z M10.8481143,18.6040211 L32.1553143,18.6040211 L32.1553143,22.8013684 C32.1553143,23.9870947 33.1112381,24.9522105 34.2862095,24.9522105 L41.8021714,24.9522105 C42.977581,24.9522105 43.9335048,23.9870947 43.9335048,22.8013684 L43.9335048,12.3336421 C43.9335048,11.1479158 42.977581,10.1832421 41.8021714,10.1832421 L34.2862095,10.1832421 C33.1112381,10.1832421 32.1553143,11.1479158 32.1553143,12.3336421 L32.1553143,16.9041263 L1.75238095,16.9041263 L1.75238095,18.6040211 L3.36544762,18.6040211 L3.36544762,24.8881053 L5.04904762,24.8881053 L5.04904762,22.5056 L9.16407619,22.5056 L9.16407619,24.8881053 L10.8481143,24.8881053 L10.8481143,18.6040211 Z M41.8021714,26.7206316 L34.2862095,26.7206316 C32.1448,26.7206316 30.4029333,24.9623789 30.4029333,22.8013684 L30.4029333,20.3724421 L12.6004952,20.3724421 L12.6004952,26.6565263 L7.41169524,26.6565263 L7.41169524,24.2740211 L6.80142857,24.2740211 L6.80142857,26.6565263 L1.61306667,26.6565263 L1.61306667,20.3724421 L0,20.3724421 L0,15.1357053 L30.4029333,15.1357053 L30.4029333,12.3336421 C30.4029333,10.1726316 32.1448,8.41482105 34.2862095,8.41482105 L41.8021714,8.41482105 C43.944019,8.41482105 45.6858857,10.1726316 45.6858857,12.3336421 L45.6858857,22.8013684 C45.6858857,24.9623789 43.944019,26.7206316 41.8021714,26.7206316 L41.8021714,26.7206316 Z"/>
        <polygon fill="#282D33" points="7.412 25.772 9.164 25.772 9.164 18.799 7.412 18.799"/>
        <polygon fill="#282D33" points="10.869 31.092 28.831 31.092 28.831 29.324 10.869 29.324"/>
        <polygon fill="#282D33" points="14.665 27.776 28.831 27.776 28.831 26.008 14.665 26.008"/>
        <polygon fill="#282D33" points="14.665 24.461 28.831 24.461 28.831 22.692 14.665 22.692"/>
        <polygon fill="#282D33" points="10.869 12.513 28.831 12.513 28.831 10.745 10.869 10.745"/>
        <polygon fill="#282D33" points="10.869 9.197 28.831 9.197 28.831 7.429 10.869 7.429"/>
        <polygon fill="#282D33" points="10.869 5.882 23.464 5.882 23.464 4.113 10.869 4.113"/>
        <polygon fill="#282D33" points="11 2.566 16.595 2.566 16.595 .797 11 .797"/>
      </g>
    </g>
    <polygon fill="#FF7502" points="57 36.594 65.621 36.594 57 28"/>
  </g>
</svg>
