<svg xmlns="http://www.w3.org/2000/svg" xmlns:xlink="http://www.w3.org/1999/xlink" width="100" height="100" viewBox="0 0 100 100">
  <defs>
    <polygon id="check-a" points="22.849 45.553 45.699 45.553 45.699 .297 22.849 .297 0 .297 0 45.553 22.849 45.553"/>
    <polygon id="check-c" points="1.954 1.078 1.954 .148 .132 .148 .132 1.078 1.954 1.078"/>
  </defs>
  <g fill="none" fill-rule="evenodd" transform="translate(27 27)">
    <g transform="translate(0 .15)">
      <mask id="check-b" fill="#fff">
        <use xlink:href="#check-a"/>
      </mask>
      <path fill="#282D33" d="M22.8494176,45.5533981 C10.2503784,45.5533981 4.50980392e-05,35.4021359 4.50980392e-05,22.9249709 C4.50980392e-05,10.4478058 10.2503784,0.296990291 22.8494176,0.296990291 C35.4484569,0.296990291 45.6987902,10.4478058 45.6987902,22.9249709 L43.8948686,22.9249709 C43.8948686,11.4330097 34.4535941,2.08339806 22.8494176,2.08339806 C11.2447902,2.08339806 1.80396667,11.4330097 1.80396667,22.9249709 C1.80396667,34.4173786 11.2447902,43.7669903 22.8494176,43.7669903 L22.8494176,45.5533981 Z" mask="url(#check-b)"/>
    </g>
    <g transform="translate(43.745 22.926)">
      <mask id="check-d" fill="#fff">
        <use xlink:href="#check-c"/>
      </mask>
      <path fill="#282D33" d="M1.9343,1.07836505 L0.132182353,1.00467573 C0.143907843,0.720636893 0.149770588,0.435258252 0.149770588,0.148093204 L1.95369216,0.148093204 C1.95369216,0.459821359 1.94692745,0.769763107 1.9343,1.07836505" mask="url(#check-d)"/>
    </g>
    <path fill="#282D33" d="M45.2583627 27.5201029L43.4887157 27.1717534C43.596049 26.6376175 43.6830882 26.0954427 43.7466765 25.5604136L45.5384216 25.7707631C45.4689706 26.3517922 45.3747157 26.9404136 45.2583627 27.5201029M44.2851471 30.9281223L42.5930686 30.3095786C42.7833824 29.798666 42.9552059 29.2765883 43.1035784 28.7571903L44.839402 29.2430932C44.678402 29.8071515 44.4916961 30.3743359 44.2851471 30.9281223M42.7833824 34.1432097L41.2099118 33.2692097C41.4786961 32.7949184 41.7312451 32.3054427 41.9603431 31.8155204L43.597402 32.565365C43.3489118 33.0977146 43.0747157 33.6282777 42.7833824 34.1432097M40.7932059 37.0854233L39.3775784 35.9774039C39.7153627 35.5544718 40.0418725 35.1109961 40.3471863 34.6585883L41.8466961 35.6527243C41.5143235 36.1439864 41.1598529 36.6258699 40.7932059 37.0854233M38.3660294 39.6850932L37.1416176 38.3729767C37.5425392 38.0058699 37.9344412 37.6177728 38.3065 37.2194039L39.6314804 38.4319282C39.227402 38.8646854 38.8016765 39.2862777 38.3660294 39.6850932M35.5622843 41.8801417L34.557951 40.3960835C35.0120882 40.0946272 35.4599118 39.771734 35.8892451 39.4349961L37.0085784 40.836433C36.5422647 41.2017534 36.0556569 41.5527825 35.5622843 41.8801417M32.4469118 43.6156369L31.6883627 41.9949184C32.1844412 41.7671515 32.6778137 41.5170544 33.1545 41.2513262L34.0388725 42.8081806C33.521598 43.0966854 32.9853824 43.3682194 32.4469118 43.6156369M29.0947745 44.8469184L28.6032059 43.1279476C29.1276961 42.9810155 29.6539902 42.8104136 30.1676569 42.6219476L30.7958725 44.2967049C30.2371078 44.5016951 29.6652647 44.6865883 29.0947745 44.8469184M25.5902059 45.5422777L25.3750882 43.7683748C25.9203235 43.7036175 26.4673627 43.6169767 27.0022255 43.511132L27.3562451 45.2627049C26.7758333 45.3779282 26.1814412 45.4717146 25.5902059 45.5422777M22.8494176 45.7030097L22.8494176 43.9166019C23.139398 43.9166019 23.4275745 43.9107961 23.714398 43.8991845L23.7883588 45.6842524C23.4771824 45.6967573 23.163751 45.7030097 22.8494176 45.7030097"/>
    <path fill="#FF7502" d="M38.4831039,23.0750291 C38.4831039,31.6252233 31.4838882,38.5573786 22.8494176,38.5573786 C14.2144961,38.5573786 7.21573137,31.6252233 7.21573137,23.0750291 C7.21573137,14.5243883 14.2144961,7.59223301 22.8494176,7.59223301 C31.4838882,7.59223301 38.4831039,14.5243883 38.4831039,23.0750291"/>
    <polygon fill="#FFF" points="34.489 17.585 30.198 13.334 19.159 24.267 15.846 20.986 11.554 25.237 19.109 32.815"/>
    <path fill="#282D33" d="M12.8261078,25.2406466 L19.1127745,31.5480058 L33.2140294,17.5849961 L30.1978725,14.5976757 L19.1587745,25.5300447 L15.8458725,22.2488602 L12.8261078,25.2406466 Z M19.1042059,34.0824718 L10.2830294,25.2326078 L15.8458725,19.722433 L19.1587745,23.0031709 L30.1978725,12.0708019 L35.7647745,17.5854427 L19.1042059,34.0824718 Z"/>
  </g>
</svg>
