<svg xmlns="http://www.w3.org/2000/svg" width="56" height="56" viewBox="0 0 56 56">
  <path fill="#F45F00" fill-rule="evenodd" d="M17,45.5090909 C17,29.5360262 29.5360262,17 45.5090909,17 C60.4639738,17 73,29.5360262 73,45.5090909 C73,60.4639738 60.4639738,73 45.5090909,73 C29.5360262,73 17,60.4639738 17,45.5090909 Z M36.875,54.5 L53.125,54.5 C55.816,54.5 58,52.317625 58,49.625 L58,39.875 C58,37.182375 55.816,35 53.125,35 L36.875,35 C34.182375,35 32,37.182375 32,39.875 L32,49.625 C32,52.317625 34.182375,54.5 36.875,54.5 Z M36.875,38.25 L53.125,38.25 C53.5215,38.25 53.874125,38.40925 54.156875,38.6465 L45,44.75 L35.84475,38.6465 C36.1275,38.40925 36.476875,38.25 36.875,38.25 Z M54.75,41.5 L54.75,48 L49.875,46.375 L54.273875,50.773875 C53.97975,51.068 53.5735,51.25 53.125,51.25 L36.875,51.25 C36.4265,51.25 36.02025,51.068 35.726125,50.773875 L40.125,46.375 L35.25,48 L35.25,41.5 L45,48 L54.75,41.5 Z" transform="translate(-17 -17)"/>
</svg>
