<svg xmlns="http://www.w3.org/2000/svg" width="56" height="56" viewBox="0 0 56 56">
  <g fill="none" fill-rule="evenodd">
    <circle cx="28" cy="28" r="28" fill="#4D75A3"/>
    <path fill="#FFF" d="M38.4859888,28.4415385 C38.4859888,28.4415385 42.5082965,22.7677244 42.907992,20.9030769 C43.041149,20.2371795 42.7481362,19.8640705 42.0554279,19.8640705 L38.5659728,19.8640705 C37.7668061,19.8640705 37.4737933,20.2103686 37.2340657,20.7165224 C37.2340657,20.7165224 35.3474311,24.7364744 33.0519022,27.2695994 C32.3149952,28.0885096 31.9403157,28.3349679 31.5335529,28.3349679 C31.2054279,28.3349679 31.0540978,28.0614744 31.0540978,27.3227724 L31.0540978,20.8497917 C31.0540978,19.9441667 30.9475272,19.6777404 30.201758,19.6777404 L24.6077035,19.6777404 C24.1815337,19.6777404 23.9151074,19.9255449 23.9151074,20.2636538 C23.9151074,21.1165545 25.2204279,21.3091667 25.2204279,23.6200641 L25.2204279,28.3882532 C25.2204279,29.3472756 25.1671426,29.7201603 24.714274,29.7201603 C23.5156362,29.7201603 20.6653798,25.5913942 19.0671587,20.9030769 C18.7474471,19.9441667 18.401149,19.6777404 17.4954119,19.6777404 L14.0059567,19.6777404 C13.4998029,19.6777404 13.1268061,20.0239263 13.1268061,20.5299679 C13.1268061,21.4622917 14.2189856,25.7777244 18.5077196,31.5582212 C21.3845625,35.4472596 25.1671426,37.5516346 28.576726,37.5516346 C30.6545144,37.5516346 31.1606683,37.2054487 31.1606683,36.3262981 L31.1606683,33.3428846 C31.1606683,32.5970032 31.4536811,32.2774038 31.879851,32.2774038 C32.3593061,32.2774038 33.2055881,32.4314263 35.182976,34.3817788 C37.5270785,36.6194231 37.6869343,37.5516346 38.9656683,37.5516346 L42.8812933,37.5516346 C43.2808766,37.5516346 43.6537612,37.3651923 43.6537612,36.6992949 C43.6537612,35.8201442 42.5082965,34.2486218 40.7502196,32.3838622 C40.0310369,31.4249519 38.8589856,30.3861699 38.4859888,29.9067147 C37.9533606,29.3472756 38.1131042,29.0274519 38.4859888,28.4415385"/>
  </g>
</svg>
