<svg xmlns="http://www.w3.org/2000/svg" width="56" height="56" viewBox="0 0 56 56">
  <g fill="none" fill-rule="evenodd">
    <path fill="#FFF" d="M0,28.5090909 C0,12.5360262 12.5360262,0 28.5090909,0 C43.4639738,0 56,12.5360262 56,28.5090909 C56,43.4639738 43.4639738,56 28.5090909,56 C12.5360262,56 0,43.4639738 0,28.5090909 Z"/>
    <path fill="#CE1312" d="M0,28.5090909 C0,12.5360262 12.5360262,0 28.5090909,0 C43.4639738,0 56,12.5360262 56,28.5090909 C56,43.4639738 43.4639738,56 28.5090909,56 C12.5360262,56 0,43.4639738 0,28.5090909 Z M41.72,22.3142134 C41.72,22.3142134 41.446125,20.3548229 40.607,19.4919803 C39.542125,18.3589994 38.348625,18.3536677 37.80175,18.2879104 C33.8835,18 28.006125,18 28.006125,18 L27.993875,18 C27.993875,18 22.1165,18 18.19825,18.2879104 C17.6505,18.3536677 16.457875,18.3589994 15.392125,19.4919803 C14.553,20.3548229 14.28,22.3142134 14.28,22.3142134 C14.28,22.3142134 14,24.6157196 14,26.9163371 L14,29.0738881 C14,31.3753943 14.28,33.6760119 14.28,33.6760119 C14.28,33.6760119 14.553,35.6354023 15.392125,36.498245 C16.457875,37.6312258 17.857,37.5956813 18.48,37.7138668 C20.72,37.9324655 28,38 28,38 C28,38 33.8835,37.9911139 37.80175,37.7032034 C38.348625,37.6365575 39.542125,37.6312258 40.607,36.498245 C41.446125,35.6354023 41.72,33.6760119 41.72,33.6760119 C41.72,33.6760119 42,31.3753943 42,29.0738881 L42,26.9163371 C42,24.6157196 41.72,22.3142134 41.72,22.3142134 Z M24.5078033,31.8937569 L24.5068852,23.4589253 L32.4441967,27.6908823 L24.5078033,31.8937569 Z"/>
  </g>
</svg>
