<svg xmlns="http://www.w3.org/2000/svg" width="50" height="24" viewBox="0 0 50 24">
  <defs>
    <linearGradient id="youtube-boig-color-a" x1="87.504%" x2="19.216%" y1="0%" y2="100%">
      <stop offset="0%" stop-color="#EA4534"/>
      <stop offset="100%" stop-color="#D03832"/>
    </linearGradient>
  </defs>
  <g fill="none" fill-rule="evenodd" transform="translate(0 1)">
    <path fill="url(#youtube-boig-color-a)" d="M49.6713462,4.567151 C49.6713462,4.567151 49.3803205,2.52498575 48.4878704,1.62584046 C47.3561752,0.445783476 46.0871581,0.439871795 45.505463,0.370641026 C41.3402208,0.0712108262 35.0924288,0.0712108262 35.0924288,0.0712108262 L35.0794658,0.0712108262 C35.0794658,0.0712108262 28.8311752,0.0712108262 24.6661467,0.370641026 C24.0840954,0.439871795 22.8158618,0.445783476 21.6835969,1.62584046 C20.7911467,2.52498575 20.5007621,4.567151 20.5007621,4.567151 C20.5007621,4.567151 20.2030413,6.96480057 20.2030413,9.36280627 L20.2030413,11.6110256 C20.2030413,14.008604 20.5007621,16.406396 20.5007621,16.406396 C20.5007621,16.406396 20.7911467,18.44849 21.6835969,19.3476353 C22.8158618,20.5279772 24.3033974,20.4906553 24.9655769,20.6139459 C27.3468447,20.8418661 35.0858048,20.9120228 35.0858048,20.9120228 C35.0858048,20.9120228 41.3402208,20.9025499 45.505463,20.6030484 C46.0871581,20.5339601 47.3561752,20.5279772 48.4878704,19.3476353 C49.3803205,18.44849 49.6713462,16.406396 49.6713462,16.406396 C49.6713462,16.406396 49.9684972,14.008604 49.9684972,11.6110256 L49.9684972,9.36280627 C49.9684972,6.96480057 49.6713462,4.567151 49.6713462,4.567151 L49.6713462,4.567151 Z"/>
    <g transform="translate(22.157 3.043)">
      <polygon fill="#FFF" points="4.606 13.882 2.599 13.882 2.599 2.396 .476 2.396 .476 .514 6.768 .514 6.768 2.396 4.606 2.396"/>
      <path fill="#FFF" d="M11.723198 13.8821795L9.91771368 13.8821795 9.91771368 12.7957123C9.19948006 13.6185043 8.51828348 14.0192877 7.85496439 14.0192877 7.27284188 14.0192877 6.87262821 13.7833903 6.69185897 13.2786182 6.5930698 12.9769088 6.53288462 12.5006268 6.53288462 11.7970655L6.53288462 3.92121083 8.33694444 3.92121083 8.33694444 11.2547578C8.33694444 11.6776923 8.33694444 11.8976353 8.35368234 11.9566097 8.39791311 12.2361681 8.53509259 12.3789744 8.77569088 12.3789744 9.1385114 12.3789744 9.5166453 12.0998433 9.91771368 11.5343875L9.91771368 3.92121083 11.723198 3.92121083 11.723198 13.8821795zM18.5799644 10.892792C18.5799644 11.8140883 18.5182835 12.4778348 18.3978419 12.8999858 18.1569587 13.640584 17.6739815 14.0192877 16.9553917 14.0192877 16.3137251 14.0192877 15.6929274 13.6630912 15.0899359 12.9169373L15.0899359 13.8821795 13.2855199 13.8821795 13.2855199.513518519 15.0899359.513518519 15.0899359 4.87975783C15.6726282 4.16252137 16.2915741 3.7998433 16.9553917 3.7998433 17.6739815 3.7998433 18.1569587 4.17797721 18.3978419 4.92405983 18.5182835 5.3245584 18.5799644 5.98317664 18.5799644 6.92655271L18.5799644 10.892792zM25.2920014 9.23061254L21.6831695 9.23061254 21.6831695 10.9964245C21.6831695 11.9181481 21.9847365 12.3789744 22.6044658 12.3789744 23.0485541 12.3789744 23.3075285 12.1371652 23.4105199 11.6548291 23.4271866 11.5564672 23.4506197 11.1559687 23.4506197 10.4317521L25.2920014 10.4317521 25.2920014 10.6954274C25.2920014 11.2769088 25.2697792 11.6776923 25.2537536 11.8583903 25.1929274 12.2583191 25.0511182 12.6202849 24.831745 12.9395157 24.332386 13.6630912 23.5920014 14.0192877 22.6491239 14.0192877 21.7052493 14.0192877 20.9865171 13.6794729 20.4647222 12.9989886 20.0814601 12.5006268 19.8847365 11.7152279 19.8847365 10.6568234L19.8847365 7.16793447C19.8847365 6.10333333 20.0590954 5.3245584 20.4425712 4.8208547 20.9644373 4.13915954 21.6831695 3.7998433 22.6044658 3.7998433 23.5097365 3.7998433 24.2281838 4.13915954 24.7340954 4.8208547 25.111161 5.3245584 25.2920014 6.10333333 25.2920014 7.16793447L25.2920014 9.23061254z"/>
      <path fill="url(#youtube-boig-color-a)" d="M22.5875997 5.42442308C21.9847507 5.42442308 21.6831838 5.88489316 21.6831838 6.80590456L21.6831838 7.72841168 23.487386 7.72841168 23.487386 6.80590456C23.487386 5.88489316 23.1858903 5.42442308 22.5875997 5.42442308M15.9898219 5.42442308C15.6928846 5.42442308 15.3916738 5.56537749 15.0898932 5.86331197L15.0898932 11.9347507C15.3916738 12.2361752 15.6928846 12.3789815 15.9898219 12.3789815 16.5103348 12.3789815 16.775292 11.9347507 16.775292 11.0348219L16.775292 6.78403846C16.775292 5.88489316 16.5103348 5.42442308 15.9898219 5.42442308"/>
    </g>
    <path fill="#FFF" d="M16.8170442,16.9512607 L16.8170442,15.8535399 C16.0911895,16.6857336 15.3988818,17.0899359 14.7329274,17.0899359 C14.146104,17.0899359 13.7408333,16.851688 13.5587821,16.3420014 C13.4583547,16.0369444 13.396745,15.556104 13.396745,14.845349 L13.396745,6.88509259 L15.2154772,6.88509259 L15.2154772,14.2966311 C15.2154772,14.7241239 15.2154772,14.9464174 15.2372721,15.0058191 C15.277443,15.2882977 15.4207479,15.4326709 15.6657621,15.4326709 C16.0303632,15.4326709 16.4129843,15.1504772 16.8170442,14.5789672 L16.8170442,6.88509259 L18.6409046,6.88509259 L18.6409046,16.9512607 L16.8170442,16.9512607 Z M10.1713177,9.80111823 C10.1713177,8.86963675 9.88948006,8.40524929 9.30137464,8.40524929 C8.71341168,8.40524929 8.4310755,8.86963675 8.4310755,9.80111823 L8.4310755,14.0356624 C8.4310755,14.9670014 8.71341168,15.4326709 9.30137464,15.4326709 C9.88948006,15.4326709 10.1713177,14.9670014 10.1713177,14.0356624 L10.1713177,9.80111823 Z M11.4297934,16.0595228 C10.9253063,16.7459188 10.2152635,17.0899359 9.30137464,17.0899359 C8.39282764,17.0899359 7.68228632,16.7459188 7.17844017,16.0595228 C6.79047721,15.556104 6.60714387,14.7622293 6.60714387,13.6925 L6.60714387,10.1670014 C6.60714387,9.0910755 6.79047721,8.30439459 7.17844017,7.79584758 C7.68228632,7.10759972 8.39282764,6.76393875 9.30137464,6.76393875 C10.2152635,6.76393875 10.9253063,7.10759972 11.4297934,7.79584758 C11.8118447,8.30439459 11.9958191,9.0910755 11.9958191,10.1670014 L11.9958191,13.6925 C11.9958191,14.7622293 11.8118447,15.556104 11.4297934,16.0595228 L11.4297934,16.0595228 Z M4.5557906,11.4805342 L4.5557906,16.9512607 L2.53314103,16.9512607 L2.53314103,11.4805342 C2.34973647,10.5116595 1.94503561,9.0910755 1.29681624,7.20688746 C0.869893162,5.95403846 0.426160969,4.69599003 2.13675212e-05,3.44342593 L2.12829772,3.44342593 L3.56405271,8.74791311 L4.94375356,3.44342593 L6.98883903,3.44342593 L4.5557906,11.4805342 Z"/>
  </g>
</svg>
