<svg xmlns="http://www.w3.org/2000/svg" xmlns:xlink="http://www.w3.org/1999/xlink" width="90" height="90" viewBox="0 0 90 90">
  <defs>
    <rect id="book-a" width="37" height="50" rx="2"/>
    <path id="book-b" d="M10,14.9973917 C10,13.8942627 10.8900584,13 12.0001062,13 L24.9998938,13 C26.104522,13 27,13.8958578 27,14.9973917 L27,22 L10,22 L10,14.9973917 Z"/>
  </defs>
  <g fill="none" fill-rule="evenodd" transform="translate(27 20)">
    <use fill="#FFF" xlink:href="#book-a"/>
    <rect width="35.4" height="48.4" x=".8" y=".8" stroke="#000" stroke-width="1.6" rx="2"/>
    <use fill="#FFE5C4" xlink:href="#book-b"/>
    <path stroke="#000" stroke-width="1.6" d="M10.8,21.2 L26.2,21.2 L26.2,14.9973917 C26.2,14.3372792 25.6622872,13.8 24.9998938,13.8 L12.0001062,13.8 C11.3338503,13.8 10.8,14.3341255 10.8,14.9973917 L10.8,21.2 Z"/>
    <rect width="33" height="1.6" x="3" y="46" fill="#000" rx=".8"/>
    <rect width="36" height="1.6" x=".087" y="43.516" fill="#000" rx=".8"/>
    <path fill="#FF7502" d="M5.07910156,1.48486328 L8.48242188,1.48486328 L9,1.48486328 L9,10.4894657 C9,11.0392086 8.55022309,11.4848633 7.99027123,11.4848633 L6.08883034,11.4848633 C5.53117253,11.4848633 5.07910156,11.0291989 5.07910156,10.4894657 L5.07910156,1.48486328 Z"/>
  </g>
</svg>
