<svg xmlns="http://www.w3.org/2000/svg" xmlns:xlink="http://www.w3.org/1999/xlink" width="90" height="90" viewBox="0 0 90 90">
  <defs>
    <polygon id="lecture-a" points="0 51.509 47 51.509 47 .839 0 .839"/>
  </defs>
  <g fill="none" fill-rule="evenodd" transform="translate(22 19)">
    <polygon fill="#FFF" points="27.696 50.67 .839 50.67 .839 5.38 4.196 2.025 7.554 5.38 10.911 2.025 14.268 5.38 17.624 2.025 20.982 5.38 24.338 2.025 27.696 5.38 31.054 2.025 34.411 5.38 34.411 43.96"/>
    <polygon fill="#000" points="31.053 .839 27.696 4.194 24.339 .839 20.982 4.194 17.625 .839 14.268 4.194 10.911 .839 7.553 4.194 4.196 .839 0 5.032 0 51.508 27.696 51.508 27.696 49.832 1.678 49.832 1.678 5.727 4.196 3.211 7.553 6.565 10.911 3.211 14.268 6.565 17.625 3.211 20.982 6.565 24.339 3.211 27.696 6.565 31.053 3.211 33.571 5.727 33.571 43.96 35.25 43.96 35.25 5.032"/>
    <polygon fill="#FFE5C4" points="27.696 50.67 27.696 43.96 34.411 43.96"/>
    <path fill="#000" d="M28.5357143,44.7989226 L28.5357143,48.6452452 L32.3846786,44.7989226 L28.5357143,44.7989226 L28.5357143,44.7989226 Z M27.6964286,51.5086 C27.5881607,51.5086 27.4790536,51.488471 27.3749821,51.4448581 C27.0619286,51.3156968 26.8571429,51.008729 26.8571429,50.6698903 L26.8571429,43.9602129 C26.8571429,43.4964065 27.2331429,43.1215032 27.6964286,43.1215032 L34.4107143,43.1215032 C34.7497857,43.1215032 35.056125,43.3253097 35.1862143,43.6389871 C35.3163036,43.9526645 35.244125,44.3133097 35.0040893,44.5531806 L28.2898036,51.2628581 C28.1295,51.4230516 27.9146429,51.5086 27.6964286,51.5086 L27.6964286,51.5086 Z"/>
    <path fill="#FFE5C4" d="M10.9107143,15.4440839 C10.9107143,17.2967935 9.40755357,18.7989226 7.55357143,18.7989226 C5.69958929,18.7989226 4.19642857,17.2967935 4.19642857,15.4440839 C4.19642857,13.5913742 5.69958929,12.0892452 7.55357143,12.0892452 C9.40755357,12.0892452 10.9107143,13.5913742 10.9107143,15.4440839"/>
    <path fill="#FF7502" d="M8.39285714,18.3075226 L6.12091071,16.0371355 C5.79275,15.7092 5.79275,15.1791355 6.12091071,14.8512 C6.44907143,14.5232645 6.9795,14.5232645 7.30766071,14.8512 L8.39285714,15.9356516 L11.156625,13.1737806 C11.4847857,12.8458452 12.0152143,12.8458452 12.343375,13.1737806 C12.6715357,13.5017161 12.6715357,14.0317806 12.343375,14.3597161 L8.39285714,18.3075226 Z"/>
    <path fill="#FFE5C4" d="M10.9107143,25.5086 C10.9107143,27.3613097 9.40755357,28.8634387 7.55357143,28.8634387 C5.69958929,28.8634387 4.19642857,27.3613097 4.19642857,25.5086 C4.19642857,23.6558903 5.69958929,22.1537613 7.55357143,22.1537613 C9.40755357,22.1537613 10.9107143,23.6558903 10.9107143,25.5086"/>
    <path fill="#FF7502" d="M8.39285714,28.3720387 L6.12091071,26.1016516 C5.79275,25.7737161 5.79275,25.2436516 6.12091071,24.9157161 C6.44907143,24.5877806 6.9795,24.5877806 7.30766071,24.9157161 L8.39285714,26.0001677 L11.156625,23.2382968 C11.4847857,22.9103613 12.0152143,22.9103613 12.343375,23.2382968 C12.6715357,23.5662323 12.6715357,24.0962968 12.343375,24.4242323 L8.39285714,28.3720387 Z"/>
    <path fill="#FFE5C4" d="M10.9107143,35.5731161 C10.9107143,37.4258258 9.40755357,38.9279548 7.55357143,38.9279548 C5.69958929,38.9279548 4.19642857,37.4258258 4.19642857,35.5731161 C4.19642857,33.7204065 5.69958929,32.2182774 7.55357143,32.2182774 C9.40755357,32.2182774 10.9107143,33.7204065 10.9107143,35.5731161"/>
    <path fill="#FF7502" d="M8.39285714,38.4365548 L6.12091071,36.1661677 C5.79275,35.8382323 5.79275,35.3081677 6.12091071,34.9802323 C6.44907143,34.6522968 6.9795,34.6522968 7.30766071,34.9802323 L8.39285714,36.0646839 L11.156625,33.3028129 C11.4847857,32.9748774 12.0152143,32.9748774 12.343375,33.3028129 C12.6715357,33.6307484 12.6715357,34.1608129 12.343375,34.4887484 L8.39285714,38.4365548 Z"/>
    <mask id="lecture-b" fill="#fff">
      <use xlink:href="#lecture-a"/>
    </mask>
    <polygon fill="#000" points="15.107 14.605 30.214 14.605 30.214 12.928 15.107 12.928" mask="url(#lecture-b)"/>
    <polygon fill="#000" points="15.107 17.96 25.179 17.96 25.179 16.283 15.107 16.283" mask="url(#lecture-b)"/>
    <polygon fill="#000" points="15.107 24.67 30.214 24.67 30.214 22.992 15.107 22.992" mask="url(#lecture-b)"/>
    <polygon fill="#000" points="15.107 28.025 21.821 28.025 21.821 26.347 15.107 26.347" mask="url(#lecture-b)"/>
    <polygon fill="#000" points="15.107 34.734 30.214 34.734 30.214 33.057 15.107 33.057" mask="url(#lecture-b)"/>
    <polygon fill="#000" points="15.107 38.089 20.143 38.089 20.143 36.412 15.107 36.412" mask="url(#lecture-b)"/>
    <polygon fill="#000" points="21.821 38.089 26.857 38.089 26.857 36.412 21.821 36.412" mask="url(#lecture-b)"/>
    <polygon fill="#FFF" points="46.161 43.122 46.161 46.476 42.804 49.831 39.446 46.476 39.446 43.122" mask="url(#lecture-b)"/>
    <polygon fill="#000" points="38.607 42.283 40.286 42.283 40.286 8.734 38.607 8.734" mask="url(#lecture-b)"/>
    <polygon fill="#000" points="45.321 42.283 47 42.283 47 8.734 45.321 8.734" mask="url(#lecture-b)"/>
    <polygon fill="#000" points="42.804 51.017 38.607 46.824 38.607 42.283 40.286 42.283 40.286 46.129 42.804 48.645 45.321 46.129 45.321 42.283 47 42.283 47 46.824" mask="url(#lecture-b)"/>
    <polygon fill="#000" points="41.964 51.509 43.643 51.509 43.643 49.831 41.964 49.831" mask="url(#lecture-b)"/>
    <polygon fill="#FFE5C4" points="40.286 41.444 45.321 41.444 45.321 9.573 40.286 9.573" mask="url(#lecture-b)"/>
    <polygon fill="#000" points="40.286 43.122 45.321 43.122 45.321 41.444 40.286 41.444" mask="url(#lecture-b)"/>
    <path fill="#FFF" d="M39.4464286,4.54085806 C39.4464286,3.15195484 40.5735893,2.02472903 41.9642857,2.02472903 L43.6428571,2.02472903 C45.0335536,2.02472903 46.1607143,3.15195484 46.1607143,4.54085806 L46.1607143,8.73440645 L39.4464286,8.73440645 L39.4464286,4.54085806 Z" mask="url(#lecture-b)"/>
    <path fill="#000" d="M40.2857143,7.89569677 L45.3214286,7.89569677 L45.3214286,4.54085806 C45.3214286,3.61576129 44.5685893,2.86343871 43.6428571,2.86343871 L41.9642857,2.86343871 C41.0385536,2.86343871 40.2857143,3.61576129 40.2857143,4.54085806 L40.2857143,7.89569677 Z M47,9.57311613 L38.6071429,9.57311613 L38.6071429,4.54085806 C38.6071429,2.69066452 40.1128214,1.18601935 41.9642857,1.18601935 L43.6428571,1.18601935 C45.4943214,1.18601935 47,2.69066452 47,4.54085806 L47,9.57311613 Z" mask="url(#lecture-b)"/>
  </g>
</svg>
