<svg xmlns="http://www.w3.org/2000/svg" xmlns:xlink="http://www.w3.org/1999/xlink" width="90" height="90" viewBox="0 0 90 90">
  <defs>
    <polygon id="videocourse-a" points="0 51.415 59.731 51.415 59.731 0 0 0"/>
  </defs>
  <g fill="none" fill-rule="evenodd" transform="translate(15 19)">
    <path fill="#FFF" d="M58.78476,36.1784322 L58.78476,2.47466207 C58.78476,1.6056046 58.07316,0.896731034 57.20016,0.896731034 L2.52876,0.896731034 C1.65456,0.896731034 0.94596,1.6056046 0.94596,2.47466207 L0.94596,36.1784322 L58.78476,36.1784322 L58.78476,36.1784322 Z"/>
    <path stroke="#000" stroke-width="1.8" d="M58.78476,36.1784322 L58.78476,2.47466207 C58.78476,1.6056046 58.07316,0.896731034 57.20016,0.896731034 L2.52876,0.896731034 C1.65456,0.896731034 0.94596,1.6056046 0.94596,2.47466207 L0.94596,36.1784322 L58.78476,36.1784322 L58.78476,36.1784322 Z"/>
    <mask id="videocourse-b" fill="#fff">
      <use xlink:href="#videocourse-a"/>
    </mask>
    <path fill="#FF7502" d="M18,19 C18,25.627417 23.3711258,31 30,31 L30,31 C36.627417,31 42,25.6288742 42,19 L42,19 C42,12.372583 36.6288742,7 30,7 L30,7 C23.372583,7 18,12.3711258 18,19 L18,19 Z" mask="url(#videocourse-b)"/>
    <path fill="#FFF" d="M28 21.7241112L28 15.7470998C28 15.4714101 28.153 15.2181342 28.39675 15.0881342 28.6405 14.9581342 28.936 14.9730768 29.16625 15.1254906L33.66625 18.1139963C33.87475 18.2529618 34 18.4853181 34 18.7356055 34 18.9851457 33.87475 19.2182492 33.6655 19.3572147L29.1655 22.3457204C28.936 22.4988814 28.63975 22.5130768 28.396 22.3830768 28.15225 22.2523296 28 21.9998009 28 21.7241112zM.9 36.1446023L.9 41.005108C.9 41.9369241 1.8588 42.9745333 2.7948 42.9745333L57.3342 42.9745333C58.269 42.9745333 58.8306 42.0176138 58.8306 41.0857977L58.8306 36.1446023.9 36.1446023z" mask="url(#videocourse-b)"/>
    <path stroke="#000" stroke-width="1.8" d="M0.9,36.1446023 L0.9,41.005108 C0.9,41.9369241 1.8588,42.9745333 2.7948,42.9745333 L57.3342,42.9745333 C58.269,42.9745333 58.8306,42.0176138 58.8306,41.0857977 L58.8306,36.1446023 L0.9,36.1446023 L0.9,36.1446023 Z" mask="url(#videocourse-b)"/>
    <g mask="url(#videocourse-b)">
      <g transform="translate(20.4 42.45)">
        <path fill="#FFE5C4" d="M18.54378,8.0709977 C18.02898,7.84865287 17.40918,7.56892874 17.04378,7.36989425 C16.40478,7.01605517 16.27878,6.97481379 16.04058,5.77343448 C15.77898,4.46028506 15.99378,1.83876782 15.89538,0.630216092 L3.06078,0.564468966 C2.95998,1.77242299 3.17718,4.46028506 2.91558,5.77343448 C2.67678,6.97481379 2.50878,7.01605517 1.86918,7.36989425 C1.50798,7.56713563 0.89778,7.84267586 0.38658,8.06262989"/>
        <path stroke="#000" stroke-width="1.8" d="M18.54378,8.0709977 C18.02898,7.84865287 17.40918,7.56892874 17.04378,7.36989425 C16.40478,7.01605517 16.27878,6.97481379 16.04058,5.77343448 C15.77898,4.46028506 15.99378,1.83876782 15.89538,0.630216092 L3.06078,0.564468966 C2.95998,1.77242299 3.17718,4.46028506 2.91558,5.77343448 C2.67678,6.97481379 2.50878,7.01605517 1.86918,7.36989425 C1.50798,7.56713563 0.89778,7.84267586 0.38658,8.06262989"/>
      </g>
    </g>
    <polygon fill="#000" fill-rule="nonzero" points="19.165 51.418 40.564 51.418 40.564 49.618 19.165 49.618" mask="url(#videocourse-b)"/>
  </g>
</svg>
