<svg xmlns="http://www.w3.org/2000/svg" xmlns:xlink="http://www.w3.org/1999/xlink" width="276" height="207" viewBox="0 0 276 207">
    <defs>
        <rect id="socialstudies-a" width="276" height="207"/>
        <rect id="socialstudies-b" width="276" height="207"/>
    </defs>
    <g fill="none" fill-rule="evenodd">
        <use fill="#FFCCA2" xlink:href="#socialstudies-a"/>
        <mask id="socialstudies-c" fill="#fff">
            <use xlink:href="#socialstudies-b"/>
        </mask>
        <use fill="#FFD3AE" opacity=".4" xlink:href="#socialstudies-b"/>
        <g mask="url(#socialstudies-c)">
            <g transform="translate(151 119)">
                <path stroke="#FFF" stroke-width="1.86" d="M31.46 6.36H5.81a.67.67 0 0 1-.67-.66V.67c0-.37.3-.67.67-.67h25.65c.37 0 .68.3.68.67V5.7c0 .37-.3.66-.68.66zM5.14 5.1h-1.9a.67.67 0 0 1-.67-.67v-2.5c0-.36.3-.66.67-.66h1.9V5.1z"/>
                <path stroke="#FFF" stroke-linecap="round" stroke-width="1.86" d="M2.57 3.18H0"/>
                <path stroke="#FFF" stroke-width="1.86" d="M32.14 1.27h1.9c.37 0 .67.3.67.67v2.49c0 .36-.3.66-.68.66h-1.9V1.27z"/>
                <path stroke="#FFF" stroke-linecap="round" stroke-width="1.86" d="M34.7 3.18h2.58"/>
                <path stroke="#FFF" stroke-width="1.86" d="M31.46 34.36H5.81a.67.67 0 0 1-.67-.66v-5.03c0-.37.3-.67.67-.67h25.65c.37 0 .68.3.68.67v5.03c0 .37-.3.66-.68.66zM5.14 33.1h-1.9a.67.67 0 0 1-.67-.67v-2.5c0-.36.3-.66.67-.66h1.9v3.82z"/>
                <path stroke="#FFF" stroke-linecap="round" stroke-width="1.86" d="M2.57 31.18H0"/>
                <path stroke="#FFF" stroke-width="1.86" d="M32.14 29.27h1.9c.37 0 .67.3.67.67v2.49c0 .36-.3.66-.68.66h-1.9v-3.82z"/>
                <path stroke="#FFF" stroke-linecap="round" stroke-width="1.86" d="M34.7 31.18h2.58"/>
                <polygon stroke="#FFF" stroke-width="1.86" points="6.43 28 30.85 28 30.85 6.36 6.43 6.36"/>
                <path stroke="#FFF" stroke-linecap="round" stroke-linejoin="round" stroke-width="1.86" d="M16.07 14h5.14"/>
                <path fill="#FFF" fill-rule="nonzero" d="M14.14 14a.64.64 0 1 1-1.29 0c0-.35.3-.64.65-.64.35 0 .64.29.64.64"/>
                <path stroke="#FFF" stroke-linecap="round" stroke-linejoin="round" stroke-width="1.86" d="M9.64 14h1.29M26.35 14h1.29"/>
                <path fill="#FFF" fill-rule="nonzero" d="M24.42 14a.64.64 0 1 1-1.29 0c0-.35.3-.64.65-.64.35 0 .64.29.64.64"/>
                <path stroke="#FFF" stroke-linecap="round" stroke-linejoin="round" stroke-width="1.86" d="M13.5 10.82h-2.57M27 10.82h-1.93"/>
                <path fill="#FFF" fill-rule="nonzero" d="M21.85 10.82a.64.64 0 1 1 1.29 0c0 .35-.3.63-.65.63a.64.64 0 0 1-.64-.63M15.42 10.82c0-.35.3-.64.65-.64.35 0 .64.29.64.64 0 .35-.29.63-.64.63a.64.64 0 0 1-.65-.63"/>
                <path stroke="#FFF" stroke-linecap="round" stroke-linejoin="round" stroke-width="1.86" d="M19.92 10.82h-1.28M13.5 17.18h-2.57M27 17.18h-1.93"/>
                <path fill="#FFF" fill-rule="nonzero" d="M21.85 17.18c0-.35.29-.63.64-.63.36 0 .65.28.65.63s-.3.64-.65.64a.64.64 0 0 1-.64-.64M15.42 17.18c0-.35.3-.63.65-.63.35 0 .64.28.64.63s-.29.64-.64.64a.64.64 0 0 1-.65-.64"/>
                <path stroke="#FFF" stroke-linecap="round" stroke-linejoin="round" stroke-width="1.86" d="M19.92 17.18h-1.28M16.07 20.36h5.14"/>
                <path fill="#FFF" fill-rule="nonzero" d="M14.14 20.36c0 .36-.29.64-.64.64a.64.64 0 0 1-.65-.64c0-.35.3-.63.65-.63.35 0 .64.28.64.63"/>
                <path stroke="#FFF" stroke-linecap="round" stroke-linejoin="round" stroke-width="1.86" d="M9.64 20.36h1.29M26.35 20.36h1.29"/>
                <path fill="#FFF" fill-rule="nonzero" d="M24.42 20.36c0 .36-.29.64-.64.64a.64.64 0 0 1-.64-.64c0-.35.29-.63.64-.63.35 0 .64.28.64.63"/>
                <path stroke="#FFF" stroke-linecap="round" stroke-linejoin="round" stroke-width="1.86" d="M13.5 23.55h-2.57M27 23.55h-1.93"/>
                <path fill="#FFF" fill-rule="nonzero" d="M21.85 23.55c0-.36.29-.64.64-.64.36 0 .65.28.65.64 0 .35-.3.63-.65.63a.64.64 0 0 1-.64-.63M15.42 23.55c0-.36.3-.64.65-.64.35 0 .64.28.64.64 0 .35-.29.63-.64.63a.64.64 0 0 1-.65-.63"/>
                <path stroke="#FFF" stroke-linecap="round" stroke-linejoin="round" stroke-width="1.86" d="M19.92 23.55h-1.28"/>
            </g>
        </g>
        <path fill="#FFF" fill-rule="nonzero" d="M124.1 131.67v-.95h.95c.52 0 .95-.42.95-.95v-4.75c0-.34-.18-.67-.58-.87l-18.03-8.07a.95.95 0 0 0-.78 0l-18.03 8.07a.96.96 0 0 0-.58.87v4.75c0 .53.43.95.95.95h.95v.95c0 .7.38 1.31.95 1.64v10.5a1.9 1.9 0 0 0-.95 1.64v1.42h-.95a.95.95 0 0 0-.95.95v5.23c0 .52.43.95.95.95h36.1c.52 0 .95-.43.95-.95v-5.23a.95.95 0 0 0-.95-.95h-.95v-1.42c0-.7-.38-1.3-.95-1.64v-10.5c.57-.33.95-.94.95-1.64zm-4.27 11.88v-9.98h1.42v9.98h-1.42zm-4.75 3.32v-1.42c0-.7-.39-1.3-.95-1.64v-10.5c.56-.33.95-.94.95-1.64v-.95h1.9v.95c0 .7.38 1.31.95 1.64v10.5a1.9 1.9 0 0 0-.95 1.64v1.42h-1.9zm-9.03 0v-1.42c0-.7-.38-1.3-.95-1.64v-10.5c.57-.33.95-.94.95-1.64v-.95h1.9v.95c0 .7.39 1.31.95 1.64v10.5a1.9 1.9 0 0 0-.95 1.64v1.42h-1.9zm-9.02 0v-1.42c0-.7-.39-1.3-.95-1.64v-10.5c.56-.33.95-.94.95-1.64v-.95h1.9v.95c0 .7.38 1.31.95 1.64v10.5a1.9 1.9 0 0 0-.95 1.64v1.42h-1.9zm-2.85-13.3v9.98h-1.43v-9.98h1.43zm7.6 0h1.42v9.98h-1.42v-9.98zm2.37-1.9h-3.32v-.95h3.32v.95zm-3.32 13.78h3.32v1.42h-3.32v-1.42zm9.97-11.88h1.43v9.98h-1.43v-9.98zm2.38-1.9h-3.33v-.95h3.33v.95zm-3.33 13.78h3.33v1.42h-3.33v-1.42zm12.35-13.78h-3.32v-.95h3.32v.95zm1.9-2.85H89.9v-2.85h34.2v2.85zM107 118l13.6 6.08H93.4L107 118zm-11.87 12.73v.95H91.8v-.95h3.33zm-3.33 14.73h3.33v1.42H91.8v-1.42zm32.3 6.65H89.9v-3.33h34.2v3.33zm-5.22-5.23v-1.42h3.32v1.42h-3.32z" mask="url(#socialstudies-c)"/>
        <g fill="#FFF" fill-rule="nonzero" mask="url(#socialstudies-c)">
            <g transform="translate(52 54)">
                <path d="M12.58 7.47c1.15 0 2.8-.35 5.24-1.8 2.23-1.29 3.67-.2 4.17.3-.07 5.03-.57 14.59-2.87 19.69h7.69C24.5 20.56 24 11 23.93 5.96c.5-.5 2.02-1.58 4.17-.28 2.45 1.44 4.17 1.8 5.25 1.8 1 0 1.5-.3 1.73-.44.43-.28.57-.93.28-1.36A1.02 1.02 0 0 0 34 5.39s-1.37.65-4.9-1.44c-2.08-1.22-3.87-1-5.17-.36v-.36c0-.35-.07-.71-.14-1.07L23.07.14c0-.07-.14-.07-.14 0l-.72 2.02c-.14.36-.22.71-.14 1.07v.36c-1.3-.64-3.1-.86-5.25.36C13.44 5.97 12 5.46 11.93 5.4c-.43-.29-1-.14-1.36.29-.3.43-.22 1.08.28 1.36.15.15.72.43 1.73.43z"/>
                <path d="M37.8 18.9h-8.83c-.08 0-.15.08-.08.15a4.87 4.87 0 0 0 9.06 0 .15.15 0 0 0-.14-.15zM33.35 8.12a.49.49 0 0 0-.43.29l-3.95 9.41c-.08.22 0 .5.21.58.22.07.5 0 .58-.22l3.16-7.4v7.26c0 .22.21.43.43.43s.43-.21.43-.43v-7.26l3.1 7.4c.06.15.2.3.42.3h.15c.21-.08.36-.37.21-.58l-3.88-9.5a.49.49 0 0 0-.43-.28zM17.18 19.05c0-.07 0-.15-.07-.15H8.19c-.07 0-.14.08-.07.15a4.87 4.87 0 0 0 9.06 0zM8.48 18.4c.22.07.5 0 .58-.22l3.09-7.4v7.26c0 .22.21.43.43.43.21 0 .43-.21.43-.43v-7.26l3.09 7.4c.07.15.22.3.43.3h.14c.22-.08.36-.37.22-.58l-3.95-9.42a.49.49 0 0 0-.43-.29.49.49 0 0 0-.44.3l-3.95 9.4c0 .15.15.44.36.51zM15.6 27.46v1.65h14.44v-1.65c0-.5-.43-.94-.93-.94H16.46c-.5 0-.86.43-.86.94zM45.42 33.15c.22-.36.22-.8 0-1.15a1.15 1.15 0 0 0-1-.58H31.77v-.07l-17.97-.07v.07H6.68a6.33 6.33 0 0 0 0 12.65h37.74c.43 0 .79-.22 1-.58.22-.35.22-.79 0-1.07-1.72-3.24-1.72-6.26 0-9.2zM6.68 41.77a4.02 4.02 0 1 1 0-8.05h35.94c-.14.43-.29.8-.36 1.22h-9.34a.57.57 0 0 0-.58.58c0 .29.3.57.58.57h9.05c-.07.36-.07.72-.14 1.08h-12.5a.57.57 0 0 0-.58.58c0 .36.29.57.57.57H41.9c0 .36.08.72.15 1.08h-9.13a.57.57 0 0 0-.58.58c0 .28.3.57.58.57h9.34c.15.36.22.8.36 1.22H6.68z"/>
            </g>
        </g>
        <g fill="#FFF" fill-rule="nonzero" mask="url(#socialstudies-c)">
            <g transform="translate(117 52)">
                <path d="M19 10.84a3.07 3.07 0 0 0 3.04-3.1v-3.1h-6.08v3.1c0 1.71 1.36 3.1 3.04 3.1zm-1.52-4.65h3.04v1.55c0 .86-.68 1.55-1.52 1.55s-1.52-.7-1.52-1.55V6.2z"/>
                <ellipse cx="19" cy="38.71" rx="1" ry="1"/>
                <ellipse cx="19" cy="41.81" rx="1" ry="1"/>
                <ellipse cx="19" cy="44.9" rx="1" ry="1"/>
                <path d="M32.68 31.83v-1.64a2.3 2.3 0 0 0-2.28-2.32h-1.52a2.3 2.3 0 0 0-2.27 2.22l-2.29-.52v-1.91a9.33 9.33 0 0 0 3.8-7.53V12.09l3.25-1.66a2.4 2.4 0 0 0 1.31-2.15c0-1.14-.76-2.1-1.85-2.35l-3.06-.7A6.87 6.87 0 0 1 24 2.9l-.68-.84a5.57 5.57 0 0 0-8.64 0L14 2.9c-.97 1.18-2.3 2.01-3.77 2.35l-3.06.69a2.39 2.39 0 0 0-1.85 2.35c0 .92.5 1.74 1.3 2.15l3.26 1.66V20.13c0 3.1 1.5 5.84 3.8 7.53v1.91l-5.94 1.35A9.97 9.97 0 0 0 0 40.74V48h38v-7.26a10.1 10.1 0 0 0-5.32-8.91zm3.8 8.91v3.39l-.3-.23a3.13 3.13 0 0 1-1.22-2.48v-1.16h1.49l.03.48zM28.12 30.2c0-.42.34-.77.76-.77h1.52c.42 0 .76.35.76.77v3.87c0 .43-.34.78-.76.78h-1.52a.77.77 0 0 1-.76-.78V30.2zm-4.32.85l.32.07-1.08 5.54-2.85-1.93 3.61-3.68zm2.8-17.56c-2.28 1.3-4.84 2-7.46 2h-.28c-2.62 0-5.19-.7-7.46-2v-1.52c2.25.8 4.6 1.2 7 1.2h1.2c2.4 0 4.75-.4 7-1.2v1.52zM7.3 9.05a.86.86 0 0 1-.46-.77c0-.4.27-.75.66-.84l3.06-.7a8.39 8.39 0 0 0 4.6-2.85l.68-.84a4.07 4.07 0 0 1 6.32 0l.68.84a8.4 8.4 0 0 0 4.6 2.86l3.06.69c.39.09.66.43.66.84 0 .33-.18.62-.47.77l-2.57 1.31v-.67l-1.17.48a19.37 19.37 0 0 1-7.34 1.44h-1.22c-2.52 0-5-.48-7.34-1.44L9.88 9.7v.66L7.31 9.05zm4.1 11.08v-4.9a16.47 16.47 0 0 0 7.46 1.8h.28c2.6 0 5.14-.62 7.46-1.8v4.9c0 4.27-3.41 7.74-7.6 7.74-4.2 0-7.6-3.47-7.6-7.74zm7.6 9.29c1.36 0 2.64-.31 3.8-.86v1.31L19 33.74l-3.8-3.87v-1.3c1.16.54 2.44.85 3.8.85zm-4.8 1.62l3.6 3.68-2.84 1.93-1.08-5.54.32-.07zM1.54 40.26h1.5v1.16c0 .97-.46 1.9-1.22 2.48l-.3.23v-3.39l.02-.48zm28.86 6.2v-3.1h-1.52v3.1H9.12v-3.1H7.6v3.1H1.52v-.4l1.22-.92a4.7 4.7 0 0 0 1.82-3.72V38.7h-2.8a8.37 8.37 0 0 1 6.3-6.28l4.33-.98 1.53 7.77L19 35.77l5.08 3.45 1.53-7.77.99.22v2.4a2.3 2.3 0 0 0 2.28 2.32v3.1h1.52v-3.1a2.3 2.3 0 0 0 2.28-2.33v-.45a8.55 8.55 0 0 1 3.55 5.1h-2.79v2.7a4.7 4.7 0 0 0 1.82 3.73l1.22.92v.4H30.4z"/>
            </g>
        </g>
        <g fill="#FFF" fill-rule="nonzero" mask="url(#socialstudies-c)">
            <g transform="translate(181 56)">
                <path d="M27.98 42.7H3.38a2.85 2.85 0 0 1-2.84-2.85V19.32a.9.9 0 1 1 1.8 0v20.53c0 .58.46 1.06 1.05 1.06h24.59c.58 0 1.05-.48 1.05-1.06v-5.58a.9.9 0 1 1 1.8 0v5.58a2.85 2.85 0 0 1-2.85 2.85zM29.93 27.57a.9.9 0 0 1-.9-.9v-7.35c0-.58-.47-1.06-1.05-1.06H2.3a.9.9 0 0 1 0-1.8h25.68a2.85 2.85 0 0 1 2.84 2.86v7.35c0 .5-.4.9-.89.9z"/>
                <path d="M31.6 34.84h-9.66a.9.9 0 0 1 0-1.79h9.33v-5.37h-9.33a.9.9 0 0 1 0-1.8h9.65c.81 0 1.47.66 1.47 1.48v6.01c0 .82-.66 1.47-1.47 1.47z"/>
                <path d="M31.07 34.84h-9.65c-.81 0-1.47-.65-1.47-1.47v-6.01c0-.82.66-1.47 1.47-1.47h9.65a.9.9 0 0 1 0 1.79h-9.33v5.37h9.33a.9.9 0 0 1 0 1.8zM26.87 18.1a.9.9 0 0 1-.9-.9V8.26c0-.52-.37-.96-.88-1.04l-.68.32a.9.9 0 0 1-1.29-.88.9.9 0 0 1 .52-.74l.9-.42a.9.9 0 0 1 .38-.09 2.85 2.85 0 0 1 2.85 2.85v8.94c0 .5-.4.9-.9.9zM3.39 42.7a2.85 2.85 0 0 1-2.85-2.85V19.32a3.63 3.63 0 0 1 1.77-3.28l.04-.02 8.2-3.89a.9.9 0 1 1 .76 1.62l-8.17 3.88a1.87 1.87 0 0 0-.8 1.69v20.53c0 .58.46 1.06 1.05 1.06a.9.9 0 0 1 0 1.8z"/>
                <path d="M12.15 17.92a.9.9 0 0 1-.38-1.71l14.45-6.8a.9.9 0 1 1 .76 1.63l-14.45 6.79a.89.89 0 0 1-.38.09zM4.98 37.48a.8.8 0 0 1-.8-.8V22.25a.8.8 0 0 1 1.6 0v14.41a.8.8 0 0 1-.8.8z"/>
                <ellipse cx="29.12" cy="30.37" rx="1" ry="1"/>
                <path d="M10.8 18.26h-.03a.9.9 0 0 1-.87-.92l.27-8.84v-.18c0-1.3 0-2.53 1.43-3.22L21.03.58a2.85 2.85 0 0 1 3.8 1.34c.06.13.1.27.09.41l-.29 9.27a.9.9 0 1 1-1.78-.05l.27-9.02c-.3-.41-.85-.55-1.31-.33l-9.44 4.52c-.34.16-.41.24-.4 1.6v.22l-.28 8.85a.9.9 0 0 1-.9.87z"/>
            </g>
        </g>
    </g>
</svg>
