<svg xmlns="http://www.w3.org/2000/svg" width="300" height="225" fill="none" viewBox="0 0 300 225">
        <path fill="#E9E8E8" d="M0 0h300v225H0V0Z"/>
        <path fill="#B4B4B4" d="m167.823 168-.033-.001h-57.219a1.574 1.574 0 0 1-1.562-1.743l9.775-88.656a1.57 1.57 0 0 1 1.561-1.4h13.716v-6.24c0-7.146 5.814-12.96 12.96-12.96 1.192 0 2.347.162 3.444.465a12.941 12.941 0 0 1 3.444-.465c7.147 0 12.961 5.814 12.961 12.96v6.24h14.582c.816 0 1.495.625 1.566 1.438l7.605 88.651a1.57 1.57 0 0 1-1.427 1.704l-.004.001h-.011l-.005.001-.005.001c-.002-.001-.003-.002-.005 0h-.016l-.005.001c-.003-.001-.004.001-.005.001h-.013l-.079.001h-21.195l-.03.001Zm2.562-3.143h14.566l-10.007-8.969-4.559 8.969Zm-58.061 0h54.043l4.36-58.176.006-.061 2.043-27.277h-12.795v5.149a1.561 1.561 0 0 1-.447 1.133 1.58 1.58 0 0 1-1.123.473 1.573 1.573 0 0 1-1.571-1.606v-5.149h-19.638v5.149a1.57 1.57 0 0 1-3.141 0v-5.149h-12.309l-9.428 85.514Zm63.685-12.234 11.145 9.988-7.144-83.268h-4.082l-2.058 27.45 2.139 45.83Zm-4.078-19.97-1.954 26.073 2.904-5.714-.95-20.359Zm-11.949-56.452h3.746v-6.24c0-4.821-3.492-8.842-8.08-9.665a12.931 12.931 0 0 1 4.333 9.665l.001 6.24Zm-15.89 0h12.748v-6.24c0-4.203-2.655-7.798-6.375-9.195-3.72 1.397-6.373 4.992-6.373 9.195v6.24Zm-6.889 0h3.746v-6.24c0-3.837 1.677-7.29 4.335-9.665-4.588.823-8.081 4.844-8.081 9.665v6.24Z"/>
</svg>
